G04 #@! TF.FileFunction,Soldermask,Top*
%FSLAX46Y46*%
G04 Gerber Fmt 4.6, Leading zero omitted, Abs format (unit mm)*
G04 Created by KiCad (PCBNEW 4.0.7) date 05/30/18 17:14:46*
%MOMM*%
%LPD*%
G01*
G04 APERTURE LIST*
%ADD10C,0.100000*%
%ADD11R,2.000000X2.000000*%
%ADD12O,2.000000X2.000000*%
%ADD13C,2.000000*%
%ADD14R,2.400000X2.400000*%
%ADD15C,2.400000*%
%ADD16R,1.808000X1.808000*%
%ADD17C,1.808000*%
%ADD18R,2.200000X2.200000*%
%ADD19C,2.200000*%
%ADD20R,3.900000X3.900000*%
%ADD21C,1.924000*%
%ADD22C,1.840000*%
%ADD23O,3.041600X1.720800*%
%ADD24O,2.200000X2.200000*%
%ADD25R,2.076400X2.076400*%
%ADD26C,2.076400*%
%ADD27O,1.720800X3.041600*%
%ADD28R,2.800000X2.000000*%
%ADD29O,2.800000X2.000000*%
G04 APERTURE END LIST*
D10*
D11*
X245618000Y-72263000D03*
D12*
X237998000Y-51943000D03*
X245618000Y-69723000D03*
X237998000Y-54483000D03*
X245618000Y-67183000D03*
X237998000Y-57023000D03*
X245618000Y-64643000D03*
X237998000Y-59563000D03*
X245618000Y-62103000D03*
X237998000Y-62103000D03*
X245618000Y-59563000D03*
X237998000Y-64643000D03*
X245618000Y-57023000D03*
X237998000Y-67183000D03*
X245618000Y-54483000D03*
X237998000Y-69723000D03*
X245618000Y-51943000D03*
X237998000Y-72263000D03*
D13*
X169471112Y-103321620D03*
D12*
X169471112Y-98241620D03*
D13*
X120650000Y-51562000D03*
D12*
X110650000Y-51562000D03*
D13*
X120617000Y-57023000D03*
D12*
X110617000Y-57023000D03*
D13*
X120523000Y-67564000D03*
D12*
X110523000Y-67564000D03*
D13*
X120396000Y-62357000D03*
D12*
X110396000Y-62357000D03*
D13*
X80638000Y-58547000D03*
D12*
X88138000Y-58547000D03*
D13*
X98178000Y-58547000D03*
D12*
X90678000Y-58547000D03*
D14*
X72263000Y-91901000D03*
D15*
X72263000Y-96901000D03*
D14*
X72136000Y-105998000D03*
D15*
X72136000Y-110998000D03*
D14*
X72136000Y-120730000D03*
D15*
X72136000Y-125730000D03*
D14*
X72136000Y-135509000D03*
D15*
X72136000Y-140509000D03*
D14*
X93980000Y-120523000D03*
D15*
X93980000Y-125523000D03*
D14*
X94107000Y-106045000D03*
D15*
X94107000Y-111045000D03*
D14*
X93853000Y-134954000D03*
D15*
X93853000Y-139954000D03*
D14*
X93853000Y-91901000D03*
D15*
X93853000Y-96901000D03*
D13*
X143416000Y-61976000D03*
D12*
X153416000Y-61976000D03*
D13*
X143510000Y-67310000D03*
D12*
X153510000Y-67310000D03*
D13*
X143510000Y-56642000D03*
D12*
X153510000Y-56642000D03*
D13*
X143416000Y-51562000D03*
D12*
X153416000Y-51562000D03*
D13*
X120523000Y-78486000D03*
D12*
X110523000Y-78486000D03*
D13*
X120523000Y-73279000D03*
D12*
X110523000Y-73279000D03*
D13*
X119982000Y-83693000D03*
D12*
X109982000Y-83693000D03*
D13*
X119982000Y-88900000D03*
D12*
X109982000Y-88900000D03*
D13*
X143670000Y-83693000D03*
D12*
X153670000Y-83693000D03*
D13*
X143670000Y-88900000D03*
D12*
X153670000Y-88900000D03*
D13*
X143670000Y-78486000D03*
D12*
X153670000Y-78486000D03*
D13*
X143670000Y-73279000D03*
D12*
X153670000Y-73279000D03*
D13*
X109982000Y-99314000D03*
D12*
X119982000Y-99314000D03*
D13*
X120015000Y-94107000D03*
D12*
X110015000Y-94107000D03*
D13*
X119982000Y-104521000D03*
D12*
X109982000Y-104521000D03*
D13*
X120015000Y-109728000D03*
D12*
X110015000Y-109728000D03*
D13*
X144051000Y-104521000D03*
D12*
X154051000Y-104521000D03*
D13*
X144018000Y-109855000D03*
D12*
X154018000Y-109855000D03*
D13*
X144051000Y-99314000D03*
D12*
X154051000Y-99314000D03*
D13*
X144051000Y-94107000D03*
D12*
X154051000Y-94107000D03*
D13*
X120777000Y-120142000D03*
D12*
X110777000Y-120142000D03*
D13*
X120744000Y-114935000D03*
D12*
X110744000Y-114935000D03*
D13*
X120777000Y-125857000D03*
D12*
X110777000Y-125857000D03*
D13*
X120777000Y-131064000D03*
D12*
X110777000Y-131064000D03*
D13*
X144178000Y-125984000D03*
D12*
X154178000Y-125984000D03*
D13*
X144178000Y-131191000D03*
D12*
X154178000Y-131191000D03*
D13*
X144018000Y-120777000D03*
D12*
X154018000Y-120777000D03*
D13*
X144051000Y-115570000D03*
D12*
X154051000Y-115570000D03*
D13*
X123444000Y-142494000D03*
D12*
X113444000Y-142494000D03*
D13*
X123317000Y-137287000D03*
D12*
X113317000Y-137287000D03*
D13*
X123571000Y-148590000D03*
D12*
X113571000Y-148590000D03*
D13*
X123411000Y-153797000D03*
D12*
X113411000Y-153797000D03*
D13*
X153162000Y-155448000D03*
D12*
X163162000Y-155448000D03*
D13*
X152781000Y-137541000D03*
D12*
X162781000Y-137541000D03*
D13*
X180086000Y-97941620D03*
D12*
X180086000Y-107941620D03*
D13*
X185671112Y-97641620D03*
D12*
X185671112Y-107641620D03*
D13*
X162814000Y-170053000D03*
D12*
X162814000Y-160053000D03*
D13*
X162687000Y-151130000D03*
D12*
X162687000Y-141130000D03*
D13*
X167371112Y-107541620D03*
D12*
X177371112Y-107541620D03*
D13*
X190071112Y-106641620D03*
D12*
X200071112Y-106641620D03*
D13*
X185471112Y-62641620D03*
D12*
X185471112Y-52641620D03*
D13*
X179971112Y-62641620D03*
D12*
X179971112Y-52641620D03*
D13*
X184256910Y-125282688D03*
D12*
X184256910Y-115282688D03*
D13*
X189871112Y-53141620D03*
D12*
X199871112Y-53141620D03*
D13*
X165871112Y-51841620D03*
D12*
X175871112Y-51841620D03*
D13*
X187972910Y-114106688D03*
D12*
X197972910Y-114106688D03*
D13*
X177507993Y-125141433D03*
D12*
X177507993Y-115141433D03*
D13*
X186703993Y-161251433D03*
D12*
X186703993Y-171251433D03*
D13*
X175260000Y-113411000D03*
D12*
X165260000Y-113411000D03*
D13*
X182131993Y-170649433D03*
D12*
X172131993Y-170649433D03*
D14*
X121158000Y-172085000D03*
D15*
X121158000Y-177085000D03*
D16*
X142240000Y-160782000D03*
D17*
X142240000Y-153162000D03*
D16*
X141605000Y-145796000D03*
D17*
X141605000Y-138176000D03*
D16*
X170534112Y-86995620D03*
D17*
X178154112Y-86995620D03*
D16*
X191971112Y-86941620D03*
D17*
X184351112Y-86941620D03*
D16*
X151003000Y-165989000D03*
D17*
X143383000Y-165989000D03*
D16*
X150876000Y-147701000D03*
D17*
X143256000Y-147701000D03*
D16*
X168471112Y-94651620D03*
D17*
X168471112Y-87031620D03*
D16*
X194171112Y-94551620D03*
D17*
X194171112Y-86931620D03*
D16*
X193267112Y-73533620D03*
D17*
X185647112Y-73533620D03*
D16*
X170661112Y-73279620D03*
D17*
X178281112Y-73279620D03*
D16*
X195686910Y-135531396D03*
D17*
X188066910Y-135531396D03*
D16*
X195471112Y-65931620D03*
D17*
X195471112Y-73551620D03*
D16*
X168571112Y-65631620D03*
D17*
X168571112Y-73251620D03*
D16*
X199750910Y-127314688D03*
D17*
X199750910Y-134934688D03*
D16*
X169397993Y-135541433D03*
D17*
X177017993Y-135541433D03*
D16*
X180954910Y-150174688D03*
D17*
X188574910Y-150174688D03*
D16*
X167407993Y-127941433D03*
D17*
X167407993Y-135561433D03*
D16*
X177813993Y-157695433D03*
D17*
X177813993Y-150075433D03*
D18*
X229616000Y-172085000D03*
D19*
X232156000Y-172085000D03*
D18*
X267208000Y-172085000D03*
D19*
X269748000Y-172085000D03*
D18*
X229616000Y-163957000D03*
D19*
X232156000Y-163957000D03*
D18*
X267208000Y-163957000D03*
D19*
X269748000Y-163957000D03*
D18*
X229616000Y-155829000D03*
D19*
X232156000Y-155829000D03*
D18*
X267208000Y-155829000D03*
D19*
X269748000Y-155829000D03*
D18*
X229616000Y-147447000D03*
D19*
X232156000Y-147447000D03*
D18*
X267208000Y-147701000D03*
D19*
X269748000Y-147701000D03*
D18*
X229616000Y-139319000D03*
D19*
X232156000Y-139319000D03*
D18*
X267208000Y-139573000D03*
D19*
X269748000Y-139573000D03*
D18*
X229616000Y-131191000D03*
D19*
X232156000Y-131191000D03*
D18*
X267208000Y-131191000D03*
D19*
X269748000Y-131191000D03*
D18*
X229616000Y-123063000D03*
D19*
X232156000Y-123063000D03*
D18*
X267208000Y-123063000D03*
D19*
X269748000Y-123063000D03*
D18*
X229616000Y-114935000D03*
D19*
X232156000Y-114935000D03*
D18*
X267208000Y-114681000D03*
D19*
X269748000Y-114681000D03*
D18*
X229616000Y-106553000D03*
D19*
X232156000Y-106553000D03*
D18*
X267208000Y-106807000D03*
D19*
X269748000Y-106807000D03*
D18*
X229616000Y-98171000D03*
D19*
X232156000Y-98171000D03*
D18*
X267208000Y-98679000D03*
D19*
X269748000Y-98679000D03*
D18*
X241808000Y-172085000D03*
D19*
X244348000Y-172085000D03*
D18*
X279908000Y-172085000D03*
D19*
X282448000Y-172085000D03*
D18*
X241808000Y-163957000D03*
D19*
X244348000Y-163957000D03*
D18*
X279908000Y-163957000D03*
D19*
X282448000Y-163957000D03*
D18*
X241808000Y-155575000D03*
D19*
X244348000Y-155575000D03*
D18*
X279908000Y-155829000D03*
D19*
X282448000Y-155829000D03*
D18*
X241808000Y-147447000D03*
D19*
X244348000Y-147447000D03*
D18*
X279908000Y-147701000D03*
D19*
X282448000Y-147701000D03*
D18*
X241808000Y-139319000D03*
D19*
X244348000Y-139319000D03*
D18*
X279908000Y-139573000D03*
D19*
X282448000Y-139573000D03*
D18*
X241808000Y-131191000D03*
D19*
X244348000Y-131191000D03*
D18*
X279908000Y-131445000D03*
D19*
X282448000Y-131445000D03*
D18*
X241554000Y-122809000D03*
D19*
X244094000Y-122809000D03*
D18*
X279908000Y-123317000D03*
D19*
X282448000Y-123317000D03*
D18*
X241554000Y-114681000D03*
D19*
X244094000Y-114681000D03*
D18*
X279908000Y-115189000D03*
D19*
X282448000Y-115189000D03*
D18*
X241554000Y-106553000D03*
D19*
X244094000Y-106553000D03*
D18*
X279908000Y-107061000D03*
D19*
X282448000Y-107061000D03*
D18*
X241554000Y-98425000D03*
D19*
X244094000Y-98425000D03*
D18*
X279908000Y-98679000D03*
D19*
X282448000Y-98679000D03*
D18*
X254508000Y-172085000D03*
D19*
X257048000Y-172085000D03*
D18*
X292608000Y-172085000D03*
D19*
X295148000Y-172085000D03*
D18*
X254508000Y-163957000D03*
D19*
X257048000Y-163957000D03*
D18*
X292608000Y-163957000D03*
D19*
X295148000Y-163957000D03*
D18*
X254508000Y-155575000D03*
D19*
X257048000Y-155575000D03*
D18*
X292608000Y-155829000D03*
D19*
X295148000Y-155829000D03*
D18*
X254508000Y-147701000D03*
D19*
X257048000Y-147701000D03*
D18*
X292608000Y-147447000D03*
D19*
X295148000Y-147447000D03*
D18*
X254508000Y-139573000D03*
D19*
X257048000Y-139573000D03*
D18*
X292608000Y-139319000D03*
D19*
X295148000Y-139319000D03*
D18*
X254508000Y-131191000D03*
D19*
X257048000Y-131191000D03*
D18*
X292608000Y-131191000D03*
D19*
X295148000Y-131191000D03*
D18*
X254508000Y-123063000D03*
D19*
X257048000Y-123063000D03*
D18*
X292608000Y-123063000D03*
D19*
X295148000Y-123063000D03*
D18*
X254508000Y-114681000D03*
D19*
X257048000Y-114681000D03*
D18*
X292608000Y-114935000D03*
D19*
X295148000Y-114935000D03*
D18*
X254508000Y-106807000D03*
D19*
X257048000Y-106807000D03*
D18*
X292608000Y-106807000D03*
D19*
X295148000Y-106807000D03*
D18*
X254508000Y-98933000D03*
D19*
X257048000Y-98933000D03*
D18*
X292608000Y-98679000D03*
D19*
X295148000Y-98679000D03*
D18*
X318008000Y-172085000D03*
D19*
X320548000Y-172085000D03*
D18*
X318008000Y-163703000D03*
D19*
X320548000Y-163703000D03*
D18*
X318008000Y-155575000D03*
D19*
X320548000Y-155575000D03*
D18*
X318008000Y-147447000D03*
D19*
X320548000Y-147447000D03*
D18*
X318008000Y-139065000D03*
D19*
X320548000Y-139065000D03*
D18*
X318008000Y-130937000D03*
D19*
X320548000Y-130937000D03*
D18*
X318008000Y-123063000D03*
D19*
X320548000Y-123063000D03*
D18*
X318008000Y-114935000D03*
D19*
X320548000Y-114935000D03*
D18*
X318008000Y-106553000D03*
D19*
X320548000Y-106553000D03*
D18*
X318008000Y-98679000D03*
D19*
X320548000Y-98679000D03*
D18*
X305308000Y-172085000D03*
D19*
X307848000Y-172085000D03*
D18*
X305308000Y-163957000D03*
D19*
X307848000Y-163957000D03*
D18*
X305308000Y-155829000D03*
D19*
X307848000Y-155829000D03*
D18*
X305308000Y-147447000D03*
D19*
X307848000Y-147447000D03*
D18*
X305308000Y-139319000D03*
D19*
X307848000Y-139319000D03*
D18*
X305308000Y-131191000D03*
D19*
X307848000Y-131191000D03*
D18*
X305308000Y-123063000D03*
D19*
X307848000Y-123063000D03*
D18*
X305308000Y-114935000D03*
D19*
X307848000Y-114935000D03*
D18*
X305308000Y-106807000D03*
D19*
X307848000Y-106807000D03*
D18*
X305308000Y-98679000D03*
D19*
X307848000Y-98679000D03*
D18*
X333248000Y-172085000D03*
D19*
X335788000Y-172085000D03*
D18*
X333248000Y-163957000D03*
D19*
X335788000Y-163957000D03*
D18*
X333248000Y-155829000D03*
D19*
X335788000Y-155829000D03*
D18*
X333248000Y-147701000D03*
D19*
X335788000Y-147701000D03*
D18*
X333248000Y-139573000D03*
D19*
X335788000Y-139573000D03*
D18*
X333248000Y-130937000D03*
D19*
X335788000Y-130937000D03*
D18*
X333248000Y-122809000D03*
D19*
X335788000Y-122809000D03*
D18*
X333248000Y-114681000D03*
D19*
X335788000Y-114681000D03*
D18*
X333248000Y-106553000D03*
D19*
X335788000Y-106553000D03*
D18*
X333248000Y-98425000D03*
D19*
X335788000Y-98425000D03*
D20*
X85598000Y-72771000D03*
X79598000Y-72771000D03*
X82598000Y-77471000D03*
D21*
X75692000Y-155067000D03*
X80692000Y-150067000D03*
X80692000Y-160067000D03*
D13*
X107442000Y-51562000D03*
D12*
X102362000Y-51562000D03*
D13*
X107188000Y-57023000D03*
D12*
X102108000Y-57023000D03*
D13*
X124079000Y-51943000D03*
D12*
X124079000Y-57023000D03*
D13*
X107188000Y-67564000D03*
D12*
X102108000Y-67564000D03*
D13*
X107188000Y-62357000D03*
D12*
X102108000Y-62357000D03*
D13*
X124206000Y-66548000D03*
D12*
X124206000Y-61468000D03*
D13*
X157099000Y-61970920D03*
D12*
X162179000Y-61970920D03*
D13*
X157099000Y-67310000D03*
D12*
X162179000Y-67310000D03*
D13*
X139827000Y-62230000D03*
D12*
X139827000Y-67310000D03*
D13*
X157099000Y-51435000D03*
D12*
X162179000Y-51435000D03*
D13*
X157099000Y-56642000D03*
D12*
X162179000Y-56642000D03*
D13*
X139700000Y-56261000D03*
D12*
X139700000Y-51181000D03*
D13*
X107315000Y-73152000D03*
D12*
X102235000Y-73152000D03*
D13*
X103124000Y-78486000D03*
D12*
X108204000Y-78486000D03*
D13*
X123952000Y-78486000D03*
D12*
X123952000Y-73406000D03*
D13*
X106680000Y-83693000D03*
D12*
X101600000Y-83693000D03*
D13*
X102489000Y-88900000D03*
D12*
X107569000Y-88900000D03*
D13*
X123825000Y-84455000D03*
D12*
X123825000Y-89535000D03*
D13*
X156845000Y-83566000D03*
D12*
X161925000Y-83566000D03*
D13*
X161163000Y-88900000D03*
D12*
X156083000Y-88900000D03*
D13*
X139827000Y-88646000D03*
D12*
X139827000Y-83566000D03*
D13*
X156972000Y-73025000D03*
D12*
X162052000Y-73025000D03*
D13*
X161163000Y-78232000D03*
D12*
X156083000Y-78232000D03*
D13*
X139827000Y-74422000D03*
D12*
X139827000Y-79502000D03*
D13*
X102489000Y-99314000D03*
D12*
X107569000Y-99314000D03*
D13*
X102616000Y-94107000D03*
D12*
X107696000Y-94107000D03*
D13*
X124079000Y-94742000D03*
D12*
X124079000Y-99822000D03*
D13*
X106680000Y-104521000D03*
D12*
X101600000Y-104521000D03*
D13*
X102489000Y-109728000D03*
D12*
X107569000Y-109728000D03*
D13*
X124079000Y-108712000D03*
D12*
X124079000Y-103632000D03*
D13*
X157353000Y-109855000D03*
D12*
X162433000Y-109855000D03*
D13*
X161544000Y-104521000D03*
D12*
X156464000Y-104521000D03*
D13*
X140081000Y-104394000D03*
D12*
X140081000Y-109474000D03*
D13*
X157226000Y-99314000D03*
D12*
X162306000Y-99314000D03*
D13*
X161544000Y-94107000D03*
D12*
X156464000Y-94107000D03*
D13*
X140081000Y-99060000D03*
D12*
X140081000Y-93980000D03*
D13*
X107442000Y-120142000D03*
D12*
X102362000Y-120142000D03*
D13*
X103124000Y-114935000D03*
D12*
X108204000Y-114935000D03*
D13*
X124079000Y-114935000D03*
D12*
X124079000Y-120015000D03*
D13*
X107315000Y-125857000D03*
D12*
X102235000Y-125857000D03*
D13*
X102997000Y-131064000D03*
D12*
X108077000Y-131064000D03*
D13*
X124079000Y-130048000D03*
D12*
X124079000Y-124968000D03*
D13*
X157480000Y-131191000D03*
D12*
X162560000Y-131191000D03*
D13*
X157480000Y-125984000D03*
D12*
X162560000Y-125984000D03*
D13*
X140081000Y-125730000D03*
D12*
X140081000Y-130810000D03*
D13*
X157480000Y-120777000D03*
D12*
X162560000Y-120777000D03*
D13*
X157480000Y-115570000D03*
D12*
X162560000Y-115570000D03*
D13*
X140081000Y-120269000D03*
D12*
X140081000Y-115189000D03*
D13*
X105664000Y-142494000D03*
D12*
X110744000Y-142494000D03*
D13*
X105664000Y-137287000D03*
D12*
X110744000Y-137287000D03*
D13*
X106045000Y-153924000D03*
D12*
X111125000Y-153924000D03*
D13*
X106045000Y-148717000D03*
D12*
X111125000Y-148717000D03*
D13*
X126873000Y-152908000D03*
D12*
X126873000Y-147828000D03*
D13*
X145669000Y-155448000D03*
D12*
X150749000Y-155448000D03*
D13*
X145161000Y-137541000D03*
D12*
X150241000Y-137541000D03*
D13*
X179705000Y-90297000D03*
D12*
X179705000Y-95377000D03*
D13*
X185671112Y-90161620D03*
D12*
X185671112Y-95241620D03*
D13*
X149860000Y-161671000D03*
D12*
X144780000Y-161671000D03*
D13*
X149352000Y-142748000D03*
D12*
X144272000Y-142748000D03*
D13*
X175233112Y-94615620D03*
D12*
X175233112Y-89535620D03*
D13*
X190854112Y-94488620D03*
D12*
X190854112Y-89408620D03*
D13*
X158369000Y-165862000D03*
D12*
X153289000Y-165862000D03*
D13*
X158496000Y-147955000D03*
D12*
X153416000Y-147955000D03*
D13*
X190871112Y-102941620D03*
D12*
X190871112Y-97861620D03*
D13*
X158369000Y-160655000D03*
D12*
X153289000Y-160655000D03*
D13*
X158496000Y-142748000D03*
D12*
X153416000Y-142748000D03*
D13*
X175171112Y-99161620D03*
D12*
X175171112Y-104241620D03*
D13*
X196171112Y-98461620D03*
D12*
X196171112Y-103541620D03*
D13*
X185393112Y-70104620D03*
D12*
X185393112Y-65024620D03*
D13*
X178771112Y-70121620D03*
D12*
X178771112Y-65041620D03*
D13*
X188803993Y-132121433D03*
D12*
X188803993Y-127041433D03*
D13*
X190671112Y-65761620D03*
D12*
X190671112Y-70841620D03*
D13*
X173371112Y-65561620D03*
D12*
X173371112Y-70641620D03*
D13*
X194003993Y-127761433D03*
D12*
X194003993Y-132841433D03*
D13*
X190671112Y-57441620D03*
D12*
X190671112Y-62521620D03*
D13*
X169071112Y-56261620D03*
D12*
X169071112Y-61341620D03*
D13*
X193908910Y-119186688D03*
D12*
X193908910Y-124266688D03*
D13*
X195971112Y-61641620D03*
D12*
X195971112Y-56561620D03*
D13*
X174371112Y-60521620D03*
D12*
X174371112Y-55441620D03*
D13*
X199403993Y-119595433D03*
D12*
X199403993Y-124675433D03*
D13*
X177507993Y-132621433D03*
D12*
X177507993Y-127541433D03*
D13*
X186703993Y-153885433D03*
D12*
X186703993Y-158965433D03*
D13*
X171717993Y-127977433D03*
D12*
X171717993Y-133057433D03*
D13*
X181369993Y-158203433D03*
D12*
X181369993Y-153123433D03*
D13*
X171717993Y-119595433D03*
D12*
X171717993Y-124675433D03*
D13*
X181369993Y-166585433D03*
D12*
X181369993Y-161505433D03*
D13*
X166383993Y-119595433D03*
D12*
X166383993Y-124675433D03*
D13*
X175527993Y-166077433D03*
D12*
X175527993Y-160997433D03*
D13*
X208280000Y-63881000D03*
D12*
X203200000Y-63881000D03*
D13*
X208788000Y-89535000D03*
D12*
X203708000Y-89535000D03*
D13*
X209296000Y-115189000D03*
D12*
X204216000Y-115189000D03*
D13*
X204470000Y-139065000D03*
D12*
X209550000Y-139065000D03*
D13*
X209042000Y-163703000D03*
D12*
X203962000Y-163703000D03*
D13*
X249428000Y-62611000D03*
D12*
X254508000Y-62611000D03*
D13*
X300482000Y-61849000D03*
D12*
X305562000Y-61849000D03*
D13*
X276098000Y-61849000D03*
D12*
X281178000Y-61849000D03*
D13*
X324866000Y-60833000D03*
D12*
X329946000Y-60833000D03*
D22*
X207010000Y-79883000D03*
X209550000Y-82423000D03*
X207010000Y-84963000D03*
X206502000Y-59055000D03*
X203962000Y-56515000D03*
X206502000Y-53975000D03*
X203962000Y-70993000D03*
X206502000Y-68453000D03*
X209042000Y-70993000D03*
X207010000Y-99441000D03*
X204470000Y-96901000D03*
X207010000Y-94361000D03*
X207518000Y-110617000D03*
X204978000Y-108077000D03*
X207518000Y-105537000D03*
X207264000Y-125095000D03*
X204724000Y-122555000D03*
X207264000Y-120015000D03*
X207010000Y-143891000D03*
X209550000Y-146431000D03*
X207010000Y-148971000D03*
X251968000Y-67183000D03*
X254508000Y-69723000D03*
X251968000Y-72263000D03*
X207010000Y-159131000D03*
X204470000Y-156591000D03*
X207010000Y-154051000D03*
X206756000Y-168529000D03*
X209296000Y-171069000D03*
X206756000Y-173609000D03*
X251460000Y-57785000D03*
X248920000Y-55245000D03*
X251460000Y-52705000D03*
X88900000Y-169291000D03*
X91440000Y-171831000D03*
X88900000Y-174371000D03*
X303022000Y-51943000D03*
X305562000Y-54483000D03*
X303022000Y-57023000D03*
X277876000Y-66929000D03*
X280416000Y-69469000D03*
X277876000Y-72009000D03*
X327152000Y-56007000D03*
X324612000Y-53467000D03*
X327152000Y-50927000D03*
X207010000Y-134239000D03*
X204470000Y-131699000D03*
X207010000Y-129159000D03*
X302768000Y-66675000D03*
X305308000Y-69215000D03*
X302768000Y-71755000D03*
X277876000Y-57277000D03*
X275336000Y-54737000D03*
X277876000Y-52197000D03*
X327152000Y-65913000D03*
X329692000Y-68453000D03*
X327152000Y-70993000D03*
D23*
X128143000Y-51816000D03*
X128143000Y-54356000D03*
X128143000Y-67056000D03*
X135763000Y-67056000D03*
X128143000Y-56896000D03*
X128143000Y-59436000D03*
X128143000Y-64516000D03*
X128143000Y-61976000D03*
X135763000Y-64516000D03*
X135763000Y-61976000D03*
X135763000Y-59436000D03*
X135763000Y-56896000D03*
X135763000Y-54356000D03*
X135763000Y-51816000D03*
D18*
X86360000Y-52451000D03*
D24*
X88900000Y-52451000D03*
X91440000Y-52451000D03*
D25*
X79629000Y-90297000D03*
D26*
X79629000Y-92837000D03*
X79629000Y-95377000D03*
X79629000Y-97917000D03*
X87249000Y-97917000D03*
X87249000Y-95377000D03*
X87249000Y-92837000D03*
X87249000Y-90297000D03*
D25*
X79629000Y-104775000D03*
D26*
X79629000Y-107315000D03*
X79629000Y-109855000D03*
X79629000Y-112395000D03*
X87249000Y-112395000D03*
X87249000Y-109855000D03*
X87249000Y-107315000D03*
X87249000Y-104775000D03*
D25*
X79629000Y-119761000D03*
D26*
X79629000Y-122301000D03*
X79629000Y-124841000D03*
X79629000Y-127381000D03*
X87249000Y-127381000D03*
X87249000Y-124841000D03*
X87249000Y-122301000D03*
X87249000Y-119761000D03*
D25*
X79629000Y-133985000D03*
D26*
X79629000Y-136525000D03*
X79629000Y-139065000D03*
X79629000Y-141605000D03*
X87249000Y-141605000D03*
X87249000Y-139065000D03*
X87249000Y-136525000D03*
X87249000Y-133985000D03*
D23*
X128143000Y-73914000D03*
X128143000Y-76454000D03*
X128143000Y-89154000D03*
X135763000Y-89154000D03*
X128143000Y-78994000D03*
X128143000Y-81534000D03*
X128143000Y-86614000D03*
X128143000Y-84074000D03*
X135763000Y-86614000D03*
X135763000Y-84074000D03*
X135763000Y-81534000D03*
X135763000Y-78994000D03*
X135763000Y-76454000D03*
X135763000Y-73914000D03*
X128016000Y-93980000D03*
X128016000Y-96520000D03*
X128016000Y-109220000D03*
X135636000Y-109220000D03*
X128016000Y-99060000D03*
X128016000Y-101600000D03*
X128016000Y-106680000D03*
X128016000Y-104140000D03*
X135636000Y-106680000D03*
X135636000Y-104140000D03*
X135636000Y-101600000D03*
X135636000Y-99060000D03*
X135636000Y-96520000D03*
X135636000Y-93980000D03*
X128016000Y-115443000D03*
X128016000Y-117983000D03*
X128016000Y-130683000D03*
X135636000Y-130683000D03*
X128016000Y-120523000D03*
X128016000Y-123063000D03*
X128016000Y-128143000D03*
X128016000Y-125603000D03*
X135636000Y-128143000D03*
X135636000Y-125603000D03*
X135636000Y-123063000D03*
X135636000Y-120523000D03*
X135636000Y-117983000D03*
X135636000Y-115443000D03*
X130937000Y-138303000D03*
X130937000Y-140843000D03*
X130937000Y-153543000D03*
X138557000Y-153543000D03*
X130937000Y-143383000D03*
X130937000Y-145923000D03*
X130937000Y-151003000D03*
X130937000Y-148463000D03*
X138557000Y-151003000D03*
X138557000Y-148463000D03*
X138557000Y-145923000D03*
X138557000Y-143383000D03*
X138557000Y-140843000D03*
X138557000Y-138303000D03*
D27*
X172947112Y-83947620D03*
X175487112Y-83947620D03*
X188187112Y-83947620D03*
X188187112Y-76327620D03*
X178027112Y-83947620D03*
X180567112Y-83947620D03*
X185647112Y-83947620D03*
X183107112Y-83947620D03*
X185647112Y-76327620D03*
X183107112Y-76327620D03*
X180567112Y-76327620D03*
X178027112Y-76327620D03*
X175487112Y-76327620D03*
X172947112Y-76327620D03*
X189230000Y-139573000D03*
X186690000Y-139573000D03*
X173990000Y-139573000D03*
X173990000Y-147193000D03*
X184150000Y-139573000D03*
X181610000Y-139573000D03*
X176530000Y-139573000D03*
X179070000Y-139573000D03*
X176530000Y-147193000D03*
X179070000Y-147193000D03*
X181610000Y-147193000D03*
X184150000Y-147193000D03*
X186690000Y-147193000D03*
X189230000Y-147193000D03*
D28*
X212344000Y-51435000D03*
D29*
X219964000Y-71755000D03*
X212344000Y-53975000D03*
X219964000Y-69215000D03*
X212344000Y-56515000D03*
X219964000Y-66675000D03*
X212344000Y-59055000D03*
X219964000Y-64135000D03*
X212344000Y-61595000D03*
X219964000Y-61595000D03*
X212344000Y-64135000D03*
X219964000Y-59055000D03*
X212344000Y-66675000D03*
X219964000Y-56515000D03*
X212344000Y-69215000D03*
X219964000Y-53975000D03*
X212344000Y-71755000D03*
X219964000Y-51435000D03*
D11*
X212852000Y-77597000D03*
D12*
X220472000Y-97917000D03*
X212852000Y-80137000D03*
X220472000Y-95377000D03*
X212852000Y-82677000D03*
X220472000Y-92837000D03*
X212852000Y-85217000D03*
X220472000Y-90297000D03*
X212852000Y-87757000D03*
X220472000Y-87757000D03*
X212852000Y-90297000D03*
X220472000Y-85217000D03*
X212852000Y-92837000D03*
X220472000Y-82677000D03*
X212852000Y-95377000D03*
X220472000Y-80137000D03*
X212852000Y-97917000D03*
X220472000Y-77597000D03*
D11*
X213106000Y-103505000D03*
D12*
X220726000Y-123825000D03*
X213106000Y-106045000D03*
X220726000Y-121285000D03*
X213106000Y-108585000D03*
X220726000Y-118745000D03*
X213106000Y-111125000D03*
X220726000Y-116205000D03*
X213106000Y-113665000D03*
X220726000Y-113665000D03*
X213106000Y-116205000D03*
X220726000Y-111125000D03*
X213106000Y-118745000D03*
X220726000Y-108585000D03*
X213106000Y-121285000D03*
X220726000Y-106045000D03*
X213106000Y-123825000D03*
X220726000Y-103505000D03*
D11*
X212852000Y-128651000D03*
D12*
X220472000Y-148971000D03*
X212852000Y-131191000D03*
X220472000Y-146431000D03*
X212852000Y-133731000D03*
X220472000Y-143891000D03*
X212852000Y-136271000D03*
X220472000Y-141351000D03*
X212852000Y-138811000D03*
X220472000Y-138811000D03*
X212852000Y-141351000D03*
X220472000Y-136271000D03*
X212852000Y-143891000D03*
X220472000Y-133731000D03*
X212852000Y-146431000D03*
X220472000Y-131191000D03*
X212852000Y-148971000D03*
X220472000Y-128651000D03*
D11*
X212852000Y-153289000D03*
D12*
X220472000Y-173609000D03*
X212852000Y-155829000D03*
X220472000Y-171069000D03*
X212852000Y-158369000D03*
X220472000Y-168529000D03*
X212852000Y-160909000D03*
X220472000Y-165989000D03*
X212852000Y-163449000D03*
X220472000Y-163449000D03*
X212852000Y-165989000D03*
X220472000Y-160909000D03*
X212852000Y-168529000D03*
X220472000Y-158369000D03*
X212852000Y-171069000D03*
X220472000Y-155829000D03*
X212852000Y-173609000D03*
X220472000Y-153289000D03*
D18*
X104902000Y-174625000D03*
D24*
X107442000Y-174625000D03*
X109982000Y-174625000D03*
D28*
X296926000Y-72517000D03*
D29*
X289306000Y-52197000D03*
X296926000Y-69977000D03*
X289306000Y-54737000D03*
X296926000Y-67437000D03*
X289306000Y-57277000D03*
X296926000Y-64897000D03*
X289306000Y-59817000D03*
X296926000Y-62357000D03*
X289306000Y-62357000D03*
X296926000Y-59817000D03*
X289306000Y-64897000D03*
X296926000Y-57277000D03*
X289306000Y-67437000D03*
X296926000Y-54737000D03*
X289306000Y-69977000D03*
X296926000Y-52197000D03*
X289306000Y-72517000D03*
D28*
X271526000Y-72771000D03*
D29*
X263906000Y-52451000D03*
X271526000Y-70231000D03*
X263906000Y-54991000D03*
X271526000Y-67691000D03*
X263906000Y-57531000D03*
X271526000Y-65151000D03*
X263906000Y-60071000D03*
X271526000Y-62611000D03*
X263906000Y-62611000D03*
X271526000Y-60071000D03*
X263906000Y-65151000D03*
X271526000Y-57531000D03*
X263906000Y-67691000D03*
X271526000Y-54991000D03*
X263906000Y-70231000D03*
X271526000Y-52451000D03*
X263906000Y-72771000D03*
D28*
X321056000Y-72263000D03*
D29*
X313436000Y-51943000D03*
X321056000Y-69723000D03*
X313436000Y-54483000D03*
X321056000Y-67183000D03*
X313436000Y-57023000D03*
X321056000Y-64643000D03*
X313436000Y-59563000D03*
X321056000Y-62103000D03*
X313436000Y-62103000D03*
X321056000Y-59563000D03*
X313436000Y-64643000D03*
X321056000Y-57023000D03*
X313436000Y-67183000D03*
X321056000Y-54483000D03*
X313436000Y-69723000D03*
X321056000Y-51943000D03*
X313436000Y-72263000D03*
D13*
X126873000Y-137922000D03*
D12*
X126873000Y-143002000D03*
D13*
X94742000Y-168275000D03*
D12*
X99822000Y-168275000D03*
M02*
