M48
;DRILL file {KiCad 4.0.7} date 05/02/18 12:51:39
;FORMAT={-:-/ absolute / metric / decimal}
FMAT,2
METRIC,TZ
T1C0.600
T2C0.700
T3C0.800
T4C1.000
T5C1.320
T6C2.200
%
G90
G05
M71
T1
X106.553Y-137.414
X107.823Y-136.144
X109.093Y-137.414
T2
X86.36Y-135.89
X86.36Y-141.224
X93.98Y-135.89
X93.98Y-141.224
T3
X113.919Y-136.906
X114.046Y-141.478
X124.079Y-136.906
X124.206Y-141.478
T4
X103.244Y-143.129
X110.744Y-143.129
X114.681Y-130.302
X122.181Y-130.302
T5
X98.665Y-154.305
X102.95Y-126.365
X103.665Y-154.305
X107.95Y-126.365
X108.665Y-154.305
X113.665Y-154.305
T6
X90.805Y-148.463
X96.52Y-121.92
X115.57Y-122.047
X121.031Y-148.463
T0
M30
