<?xml version="1.0" standalone="no"?>
 <!DOCTYPE svg PUBLIC "-//W3C//DTD SVG 1.1//EN" 
 "http://www.w3.org/Graphics/SVG/1.1/DTD/svg11.dtd"> 
<svg xmlns="http://www.w3.org/2000/svg" version="1.1" 
    width="29.7002cm" height="21.0007cm" viewBox="0 0 116930 82680 ">
<title>SVG Picture created as Single_transistor_AMP-B.SilkS.svg date 2018/05/02 13:45:54 </title>
  <desc>Picture generated by PCBNEW </desc>
<g style="fill:#000000; fill-opacity:1;stroke:#000000; stroke-opacity:1;
stroke-linecap:round; stroke-linejoin:round; "
 transform="translate(0 0) scale(1 1)">
</g>
<g style="fill:#000000; fill-opacity:0.0; 
stroke:#000000; stroke-width:-0.000393701; stroke-opacity:1; 
stroke-linecap:round; stroke-linejoin:round;">
</g>
<g style="fill:#000000; fill-opacity:0.0; 
stroke:#000000; stroke-width:39.3701; stroke-opacity:1; 
stroke-linecap:round; stroke-linejoin:round;">
</g>
<g style="fill:#000000; fill-opacity:0.0; 
stroke:#000000; stroke-width:59.0551; stroke-opacity:1; 
stroke-linecap:round; stroke-linejoin:round;">
<rect x="69685.9" y="65357.2" width="42519.7" height="12598.4" rx="0" />
</g>
<g style="fill:#000000; fill-opacity:0.0; 
stroke:#000000; stroke-width:39.3701; stroke-opacity:1; 
stroke-linecap:round; stroke-linejoin:round;">
</g>
<g style="fill:#000000; fill-opacity:0.0; 
stroke:#000000; stroke-width:59.0551; stroke-opacity:1; 
stroke-linecap:round; stroke-linejoin:round;">
<rect x="3937.01" y="3937.01" width="109056" height="74806" rx="0" />
</g>
<g style="fill:#000000; fill-opacity:0.0; 
stroke:#000000; stroke-width:39.3701; stroke-opacity:1; 
stroke-linecap:round; stroke-linejoin:round;">
</g>
<g style="fill:#000000; fill-opacity:0.0; 
stroke:#000000; stroke-width:59.0551; stroke-opacity:1; 
stroke-linecap:round; stroke-linejoin:round;">
<rect x="4724.41" y="4724.41" width="107481" height="73231.2" rx="0" />
</g>
<g style="fill:#000000; fill-opacity:0.0; 
stroke:#000000; stroke-width:39.3701; stroke-opacity:1; 
stroke-linecap:round; stroke-linejoin:round;">
</g>
<g style="fill:#000000; fill-opacity:0.0; 
stroke:#000000; stroke-width:59.0551; stroke-opacity:1; 
stroke-linecap:round; stroke-linejoin:round;">
<path d="M23622 4724
L23622 3937
" />
</g>
<g style="fill:#000000; fill-opacity:0.0; 
stroke:#000000; stroke-width:39.3701; stroke-opacity:1; 
stroke-linecap:round; stroke-linejoin:round;">
</g>
<g style="fill:#000000; fill-opacity:0.0; 
stroke:#000000; stroke-width:59.0551; stroke-opacity:1; 
stroke-linecap:round; stroke-linejoin:round;">
<path d="M43307 4724
L43307 3937
" />
</g>
<g style="fill:#000000; fill-opacity:0.0; 
stroke:#000000; stroke-width:39.3701; stroke-opacity:1; 
stroke-linecap:round; stroke-linejoin:round;">
</g>
<g style="fill:#000000; fill-opacity:0.0; 
stroke:#000000; stroke-width:59.0551; stroke-opacity:1; 
stroke-linecap:round; stroke-linejoin:round;">
<path d="M62992 4724
L62992 3937
" />
</g>
<g style="fill:#000000; fill-opacity:0.0; 
stroke:#000000; stroke-width:39.3701; stroke-opacity:1; 
stroke-linecap:round; stroke-linejoin:round;">
</g>
<g style="fill:#000000; fill-opacity:0.0; 
stroke:#000000; stroke-width:59.0551; stroke-opacity:1; 
stroke-linecap:round; stroke-linejoin:round;">
<path d="M82677 4724
L82677 3937
" />
</g>
<g style="fill:#000000; fill-opacity:0.0; 
stroke:#000000; stroke-width:39.3701; stroke-opacity:1; 
stroke-linecap:round; stroke-linejoin:round;">
</g>
<g style="fill:#000000; fill-opacity:0.0; 
stroke:#000000; stroke-width:59.0551; stroke-opacity:1; 
stroke-linecap:round; stroke-linejoin:round;">
<path d="M102362 4724
L102362 3937
" />
</g>
<g style="fill:#000000; fill-opacity:0.0; 
stroke:#000000; stroke-width:39.3701; stroke-opacity:1; 
stroke-linecap:round; stroke-linejoin:round;">
</g>
<g style="fill:#000000; fill-opacity:0.0; 
stroke:#000000; stroke-width:59.0551; stroke-opacity:1; 
stroke-linecap:round; stroke-linejoin:round;">
<path d="M14169 4562
L13877 4562
" />
<path d="M14023 4562
L14023 4050
L13974 4123
L13925 4172
L13877 4196
" />
</g>
<g style="fill:#000000; fill-opacity:0.0; 
stroke:#000000; stroke-width:39.3701; stroke-opacity:1; 
stroke-linecap:round; stroke-linejoin:round;">
</g>
<g style="fill:#000000; fill-opacity:0.0; 
stroke:#000000; stroke-width:59.0551; stroke-opacity:1; 
stroke-linecap:round; stroke-linejoin:round;">
<path d="M33562 4099
L33586 4074
L33635 4050
L33757 4050
L33805 4074
L33830 4099
L33854 4147
L33854 4196
L33830 4269
L33537 4562
L33854 4562
" />
</g>
<g style="fill:#000000; fill-opacity:0.0; 
stroke:#000000; stroke-width:39.3701; stroke-opacity:1; 
stroke-linecap:round; stroke-linejoin:round;">
</g>
<g style="fill:#000000; fill-opacity:0.0; 
stroke:#000000; stroke-width:59.0551; stroke-opacity:1; 
stroke-linecap:round; stroke-linejoin:round;">
<path d="M53222 4050
L53539 4050
L53368 4245
L53442 4245
L53490 4269
L53515 4294
L53539 4342
L53539 4464
L53515 4513
L53490 4537
L53442 4562
L53295 4562
L53247 4537
L53222 4513
" />
</g>
<g style="fill:#000000; fill-opacity:0.0; 
stroke:#000000; stroke-width:39.3701; stroke-opacity:1; 
stroke-linecap:round; stroke-linejoin:round;">
</g>
<g style="fill:#000000; fill-opacity:0.0; 
stroke:#000000; stroke-width:59.0551; stroke-opacity:1; 
stroke-linecap:round; stroke-linejoin:round;">
<path d="M73175 4221
L73175 4562
" />
<path d="M73053 4026
L72932 4391
L73248 4391
" />
</g>
<g style="fill:#000000; fill-opacity:0.0; 
stroke:#000000; stroke-width:39.3701; stroke-opacity:1; 
stroke-linecap:round; stroke-linejoin:round;">
</g>
<g style="fill:#000000; fill-opacity:0.0; 
stroke:#000000; stroke-width:59.0551; stroke-opacity:1; 
stroke-linecap:round; stroke-linejoin:round;">
<path d="M92885 4050
L92641 4050
L92617 4294
L92641 4269
L92690 4245
L92812 4245
L92860 4269
L92885 4294
L92909 4342
L92909 4464
L92885 4513
L92860 4537
L92812 4562
L92690 4562
L92641 4537
L92617 4513
" />
</g>
<g style="fill:#000000; fill-opacity:0.0; 
stroke:#000000; stroke-width:39.3701; stroke-opacity:1; 
stroke-linecap:round; stroke-linejoin:round;">
</g>
<g style="fill:#000000; fill-opacity:0.0; 
stroke:#000000; stroke-width:59.0551; stroke-opacity:1; 
stroke-linecap:round; stroke-linejoin:round;">
<path d="M112545 4050
L112448 4050
L112399 4074
L112375 4099
L112326 4172
L112302 4269
L112302 4464
L112326 4513
L112350 4537
L112399 4562
L112497 4562
L112545 4537
L112570 4513
L112594 4464
L112594 4342
L112570 4294
L112545 4269
L112497 4245
L112399 4245
L112350 4269
L112326 4294
L112302 4342
" />
</g>
<g style="fill:#000000; fill-opacity:0.0; 
stroke:#000000; stroke-width:39.3701; stroke-opacity:1; 
stroke-linecap:round; stroke-linejoin:round;">
</g>
<g style="fill:#000000; fill-opacity:0.0; 
stroke:#000000; stroke-width:59.0551; stroke-opacity:1; 
stroke-linecap:round; stroke-linejoin:round;">
<path d="M23622 77955
L23622 78742
" />
</g>
<g style="fill:#000000; fill-opacity:0.0; 
stroke:#000000; stroke-width:39.3701; stroke-opacity:1; 
stroke-linecap:round; stroke-linejoin:round;">
</g>
<g style="fill:#000000; fill-opacity:0.0; 
stroke:#000000; stroke-width:59.0551; stroke-opacity:1; 
stroke-linecap:round; stroke-linejoin:round;">
<path d="M43307 77955
L43307 78742
" />
</g>
<g style="fill:#000000; fill-opacity:0.0; 
stroke:#000000; stroke-width:39.3701; stroke-opacity:1; 
stroke-linecap:round; stroke-linejoin:round;">
</g>
<g style="fill:#000000; fill-opacity:0.0; 
stroke:#000000; stroke-width:59.0551; stroke-opacity:1; 
stroke-linecap:round; stroke-linejoin:round;">
<path d="M62992 77955
L62992 78742
" />
</g>
<g style="fill:#000000; fill-opacity:0.0; 
stroke:#000000; stroke-width:39.3701; stroke-opacity:1; 
stroke-linecap:round; stroke-linejoin:round;">
</g>
<g style="fill:#000000; fill-opacity:0.0; 
stroke:#000000; stroke-width:59.0551; stroke-opacity:1; 
stroke-linecap:round; stroke-linejoin:round;">
<path d="M82677 77955
L82677 78742
" />
</g>
<g style="fill:#000000; fill-opacity:0.0; 
stroke:#000000; stroke-width:39.3701; stroke-opacity:1; 
stroke-linecap:round; stroke-linejoin:round;">
</g>
<g style="fill:#000000; fill-opacity:0.0; 
stroke:#000000; stroke-width:59.0551; stroke-opacity:1; 
stroke-linecap:round; stroke-linejoin:round;">
<path d="M102362 77955
L102362 78742
" />
</g>
<g style="fill:#000000; fill-opacity:0.0; 
stroke:#000000; stroke-width:39.3701; stroke-opacity:1; 
stroke-linecap:round; stroke-linejoin:round;">
</g>
<g style="fill:#000000; fill-opacity:0.0; 
stroke:#000000; stroke-width:59.0551; stroke-opacity:1; 
stroke-linecap:round; stroke-linejoin:round;">
<path d="M14169 78580
L13877 78580
" />
<path d="M14023 78580
L14023 78069
L13974 78142
L13925 78190
L13877 78215
" />
</g>
<g style="fill:#000000; fill-opacity:0.0; 
stroke:#000000; stroke-width:39.3701; stroke-opacity:1; 
stroke-linecap:round; stroke-linejoin:round;">
</g>
<g style="fill:#000000; fill-opacity:0.0; 
stroke:#000000; stroke-width:59.0551; stroke-opacity:1; 
stroke-linecap:round; stroke-linejoin:round;">
<path d="M33562 78117
L33586 78093
L33635 78069
L33757 78069
L33805 78093
L33830 78117
L33854 78166
L33854 78215
L33830 78288
L33537 78580
L33854 78580
" />
</g>
<g style="fill:#000000; fill-opacity:0.0; 
stroke:#000000; stroke-width:39.3701; stroke-opacity:1; 
stroke-linecap:round; stroke-linejoin:round;">
</g>
<g style="fill:#000000; fill-opacity:0.0; 
stroke:#000000; stroke-width:59.0551; stroke-opacity:1; 
stroke-linecap:round; stroke-linejoin:round;">
<path d="M53222 78069
L53539 78069
L53368 78263
L53442 78263
L53490 78288
L53515 78312
L53539 78361
L53539 78483
L53515 78532
L53490 78556
L53442 78580
L53295 78580
L53247 78556
L53222 78532
" />
</g>
<g style="fill:#000000; fill-opacity:0.0; 
stroke:#000000; stroke-width:39.3701; stroke-opacity:1; 
stroke-linecap:round; stroke-linejoin:round;">
</g>
<g style="fill:#000000; fill-opacity:0.0; 
stroke:#000000; stroke-width:59.0551; stroke-opacity:1; 
stroke-linecap:round; stroke-linejoin:round;">
<path d="M73175 78239
L73175 78580
" />
<path d="M73053 78044
L72932 78410
L73248 78410
" />
</g>
<g style="fill:#000000; fill-opacity:0.0; 
stroke:#000000; stroke-width:39.3701; stroke-opacity:1; 
stroke-linecap:round; stroke-linejoin:round;">
</g>
<g style="fill:#000000; fill-opacity:0.0; 
stroke:#000000; stroke-width:59.0551; stroke-opacity:1; 
stroke-linecap:round; stroke-linejoin:round;">
<path d="M92885 78069
L92641 78069
L92617 78312
L92641 78288
L92690 78263
L92812 78263
L92860 78288
L92885 78312
L92909 78361
L92909 78483
L92885 78532
L92860 78556
L92812 78580
L92690 78580
L92641 78556
L92617 78532
" />
</g>
<g style="fill:#000000; fill-opacity:0.0; 
stroke:#000000; stroke-width:39.3701; stroke-opacity:1; 
stroke-linecap:round; stroke-linejoin:round;">
</g>
<g style="fill:#000000; fill-opacity:0.0; 
stroke:#000000; stroke-width:59.0551; stroke-opacity:1; 
stroke-linecap:round; stroke-linejoin:round;">
<path d="M112545 78069
L112448 78069
L112399 78093
L112375 78117
L112326 78190
L112302 78288
L112302 78483
L112326 78532
L112350 78556
L112399 78580
L112497 78580
L112545 78556
L112570 78532
L112594 78483
L112594 78361
L112570 78312
L112545 78288
L112497 78263
L112399 78263
L112350 78288
L112326 78312
L112302 78361
" />
</g>
<g style="fill:#000000; fill-opacity:0.0; 
stroke:#000000; stroke-width:39.3701; stroke-opacity:1; 
stroke-linecap:round; stroke-linejoin:round;">
</g>
<g style="fill:#000000; fill-opacity:0.0; 
stroke:#000000; stroke-width:59.0551; stroke-opacity:1; 
stroke-linecap:round; stroke-linejoin:round;">
<path d="M3937 23622
L4724 23622
" />
</g>
<g style="fill:#000000; fill-opacity:0.0; 
stroke:#000000; stroke-width:39.3701; stroke-opacity:1; 
stroke-linecap:round; stroke-linejoin:round;">
</g>
<g style="fill:#000000; fill-opacity:0.0; 
stroke:#000000; stroke-width:59.0551; stroke-opacity:1; 
stroke-linecap:round; stroke-linejoin:round;">
<path d="M3937 43307
L4724 43307
" />
</g>
<g style="fill:#000000; fill-opacity:0.0; 
stroke:#000000; stroke-width:39.3701; stroke-opacity:1; 
stroke-linecap:round; stroke-linejoin:round;">
</g>
<g style="fill:#000000; fill-opacity:0.0; 
stroke:#000000; stroke-width:59.0551; stroke-opacity:1; 
stroke-linecap:round; stroke-linejoin:round;">
<path d="M3937 62992
L4724 62992
" />
</g>
<g style="fill:#000000; fill-opacity:0.0; 
stroke:#000000; stroke-width:39.3701; stroke-opacity:1; 
stroke-linecap:round; stroke-linejoin:round;">
</g>
<g style="fill:#000000; fill-opacity:0.0; 
stroke:#000000; stroke-width:59.0551; stroke-opacity:1; 
stroke-linecap:round; stroke-linejoin:round;">
<path d="M4208 13864
L4452 13864
" />
<path d="M4160 14011
L4330 13499
L4501 14011
" />
</g>
<g style="fill:#000000; fill-opacity:0.0; 
stroke:#000000; stroke-width:39.3701; stroke-opacity:1; 
stroke-linecap:round; stroke-linejoin:round;">
</g>
<g style="fill:#000000; fill-opacity:0.0; 
stroke:#000000; stroke-width:59.0551; stroke-opacity:1; 
stroke-linecap:round; stroke-linejoin:round;">
<path d="M4367 33428
L4440 33452
L4464 33476
L4489 33525
L4489 33598
L4464 33647
L4440 33671
L4391 33696
L4196 33696
L4196 33184
L4367 33184
L4416 33208
L4440 33233
L4464 33281
L4464 33330
L4440 33379
L4416 33403
L4367 33428
L4196 33428
" />
</g>
<g style="fill:#000000; fill-opacity:0.0; 
stroke:#000000; stroke-width:39.3701; stroke-opacity:1; 
stroke-linecap:round; stroke-linejoin:round;">
</g>
<g style="fill:#000000; fill-opacity:0.0; 
stroke:#000000; stroke-width:59.0551; stroke-opacity:1; 
stroke-linecap:round; stroke-linejoin:round;">
<path d="M4489 53332
L4464 53356
L4391 53381
L4342 53381
L4269 53356
L4221 53308
L4196 53259
L4172 53161
L4172 53088
L4196 52991
L4221 52942
L4269 52893
L4342 52869
L4391 52869
L4464 52893
L4489 52918
" />
</g>
<g style="fill:#000000; fill-opacity:0.0; 
stroke:#000000; stroke-width:39.3701; stroke-opacity:1; 
stroke-linecap:round; stroke-linejoin:round;">
</g>
<g style="fill:#000000; fill-opacity:0.0; 
stroke:#000000; stroke-width:59.0551; stroke-opacity:1; 
stroke-linecap:round; stroke-linejoin:round;">
<path d="M4196 73066
L4196 72554
L4318 72554
L4391 72578
L4440 72627
L4464 72676
L4489 72773
L4489 72846
L4464 72944
L4440 72993
L4391 73041
L4318 73066
L4196 73066
" />
</g>
<g style="fill:#000000; fill-opacity:0.0; 
stroke:#000000; stroke-width:39.3701; stroke-opacity:1; 
stroke-linecap:round; stroke-linejoin:round;">
</g>
<g style="fill:#000000; fill-opacity:0.0; 
stroke:#000000; stroke-width:59.0551; stroke-opacity:1; 
stroke-linecap:round; stroke-linejoin:round;">
<path d="M112992 23622
L112205 23622
" />
</g>
<g style="fill:#000000; fill-opacity:0.0; 
stroke:#000000; stroke-width:39.3701; stroke-opacity:1; 
stroke-linecap:round; stroke-linejoin:round;">
</g>
<g style="fill:#000000; fill-opacity:0.0; 
stroke:#000000; stroke-width:59.0551; stroke-opacity:1; 
stroke-linecap:round; stroke-linejoin:round;">
<path d="M112992 43307
L112205 43307
" />
</g>
<g style="fill:#000000; fill-opacity:0.0; 
stroke:#000000; stroke-width:39.3701; stroke-opacity:1; 
stroke-linecap:round; stroke-linejoin:round;">
</g>
<g style="fill:#000000; fill-opacity:0.0; 
stroke:#000000; stroke-width:59.0551; stroke-opacity:1; 
stroke-linecap:round; stroke-linejoin:round;">
<path d="M112992 62992
L112205 62992
" />
</g>
<g style="fill:#000000; fill-opacity:0.0; 
stroke:#000000; stroke-width:39.3701; stroke-opacity:1; 
stroke-linecap:round; stroke-linejoin:round;">
</g>
<g style="fill:#000000; fill-opacity:0.0; 
stroke:#000000; stroke-width:59.0551; stroke-opacity:1; 
stroke-linecap:round; stroke-linejoin:round;">
<path d="M112477 13864
L112721 13864
" />
<path d="M112428 14011
L112599 13499
L112769 14011
" />
</g>
<g style="fill:#000000; fill-opacity:0.0; 
stroke:#000000; stroke-width:39.3701; stroke-opacity:1; 
stroke-linecap:round; stroke-linejoin:round;">
</g>
<g style="fill:#000000; fill-opacity:0.0; 
stroke:#000000; stroke-width:59.0551; stroke-opacity:1; 
stroke-linecap:round; stroke-linejoin:round;">
<path d="M112635 33428
L112708 33452
L112733 33476
L112757 33525
L112757 33598
L112733 33647
L112708 33671
L112660 33696
L112465 33696
L112465 33184
L112635 33184
L112684 33208
L112708 33233
L112733 33281
L112733 33330
L112708 33379
L112684 33403
L112635 33428
L112465 33428
" />
</g>
<g style="fill:#000000; fill-opacity:0.0; 
stroke:#000000; stroke-width:39.3701; stroke-opacity:1; 
stroke-linecap:round; stroke-linejoin:round;">
</g>
<g style="fill:#000000; fill-opacity:0.0; 
stroke:#000000; stroke-width:59.0551; stroke-opacity:1; 
stroke-linecap:round; stroke-linejoin:round;">
<path d="M112757 53332
L112733 53356
L112660 53381
L112611 53381
L112538 53356
L112489 53308
L112465 53259
L112440 53161
L112440 53088
L112465 52991
L112489 52942
L112538 52893
L112611 52869
L112660 52869
L112733 52893
L112757 52918
" />
</g>
<g style="fill:#000000; fill-opacity:0.0; 
stroke:#000000; stroke-width:39.3701; stroke-opacity:1; 
stroke-linecap:round; stroke-linejoin:round;">
</g>
<g style="fill:#000000; fill-opacity:0.0; 
stroke:#000000; stroke-width:59.0551; stroke-opacity:1; 
stroke-linecap:round; stroke-linejoin:round;">
<path d="M112465 73066
L112465 72554
L112587 72554
L112660 72578
L112708 72627
L112733 72676
L112757 72773
L112757 72846
L112733 72944
L112708 72993
L112660 73041
L112587 73066
L112465 73066
" />
</g>
<g style="fill:#000000; fill-opacity:0.0; 
stroke:#000000; stroke-width:39.3701; stroke-opacity:1; 
stroke-linecap:round; stroke-linejoin:round;">
</g>
<g style="fill:#000000; fill-opacity:0.0; 
stroke:#000000; stroke-width:59.0551; stroke-opacity:1; 
stroke-linecap:round; stroke-linejoin:round;">
<path d="M78881 76293
L78881 75703
L79022 75703
L79106 75731
L79162 75787
L79190 75843
L79219 75956
L79219 76040
L79190 76153
L79162 76209
L79106 76265
L79022 76293
L78881 76293
" />
<path d="M79725 76293
L79725 75984
L79697 75928
L79640 75899
L79528 75899
L79472 75928
" />
<path d="M79725 76265
L79669 76293
L79528 76293
L79472 76265
L79444 76209
L79444 76153
L79472 76096
L79528 76068
L79669 76068
L79725 76040
" />
<path d="M79922 75899
L80147 75899
" />
<path d="M80006 75703
L80006 76209
L80034 76265
L80090 76293
L80147 76293
" />
<path d="M80568 76265
L80512 76293
L80400 76293
L80343 76265
L80315 76209
L80315 75984
L80343 75928
L80400 75899
L80512 75899
L80568 75928
L80597 75984
L80597 76040
L80315 76096
" />
<path d="M80850 76237
L80878 76265
L80850 76293
L80822 76265
L80850 76237
L80850 76293
" />
<path d="M80850 75928
L80878 75956
L80850 75984
L80822 75956
L80850 75928
L80850 75984
" />
<path d="M81553 75759
L81581 75731
L81637 75703
L81778 75703
L81834 75731
L81862 75759
L81890 75815
L81890 75871
L81862 75956
L81525 76293
L81890 76293
" />
<path d="M82256 75703
L82312 75703
L82368 75731
L82396 75759
L82424 75815
L82453 75928
L82453 76068
L82424 76181
L82396 76237
L82368 76265
L82312 76293
L82256 76293
L82199 76265
L82171 76237
L82143 76181
L82115 76068
L82115 75928
L82143 75815
L82171 75759
L82199 75731
L82256 75703
" />
<path d="M83015 76293
L82678 76293
" />
<path d="M82846 76293
L82846 75703
L82790 75787
L82734 75843
L82678 75871
" />
<path d="M83352 75956
L83296 75928
L83268 75899
L83240 75843
L83240 75815
L83268 75759
L83296 75731
L83352 75703
L83465 75703
L83521 75731
L83549 75759
L83577 75815
L83577 75843
L83549 75899
L83521 75928
L83465 75956
L83352 75956
L83296 75984
L83268 76012
L83240 76068
L83240 76181
L83268 76237
L83296 76265
L83352 76293
L83465 76293
L83521 76265
L83549 76237
L83577 76181
L83577 76068
L83549 76012
L83521 75984
L83465 75956
" />
<path d="M83831 76068
L84280 76068
" />
<path d="M84674 75703
L84730 75703
L84787 75731
L84815 75759
L84843 75815
L84871 75928
L84871 76068
L84843 76181
L84815 76237
L84787 76265
L84730 76293
L84674 76293
L84618 76265
L84590 76237
L84562 76181
L84534 76068
L84534 75928
L84562 75815
L84590 75759
L84618 75731
L84674 75703
" />
<path d="M85377 75899
L85377 76293
" />
<path d="M85237 75674
L85096 76096
L85462 76096
" />
<path d="M85687 76068
L86136 76068
" />
<path d="M86530 75703
L86586 75703
L86643 75731
L86671 75759
L86699 75815
L86727 75928
L86727 76068
L86699 76181
L86671 76237
L86643 76265
L86586 76293
L86530 76293
L86474 76265
L86446 76237
L86418 76181
L86390 76068
L86390 75928
L86418 75815
L86446 75759
L86474 75731
L86530 75703
" />
<path d="M87233 75899
L87233 76293
" />
<path d="M87093 75674
L86952 76096
L87318 76096
" />
</g>
<g style="fill:#000000; fill-opacity:0.0; 
stroke:#000000; stroke-width:39.3701; stroke-opacity:1; 
stroke-linecap:round; stroke-linejoin:round;">
</g>
<g style="fill:#000000; fill-opacity:0.0; 
stroke:#000000; stroke-width:59.0551; stroke-opacity:1; 
stroke-linecap:round; stroke-linejoin:round;">
<path d="M69685 76577
L112205 76577
" />
</g>
<g style="fill:#000000; fill-opacity:0.0; 
stroke:#000000; stroke-width:39.3701; stroke-opacity:1; 
stroke-linecap:round; stroke-linejoin:round;">
</g>
<g style="fill:#000000; fill-opacity:0.0; 
stroke:#000000; stroke-width:59.0551; stroke-opacity:1; 
stroke-linecap:round; stroke-linejoin:round;">
<path d="M70220 77395
L70220 76805
" />
<path d="M70557 77395
L70304 77058
" />
<path d="M70557 76805
L70220 77142
" />
<path d="M70810 77395
L70810 77002
" />
<path d="M70810 76805
L70782 76833
L70810 76861
L70838 76833
L70810 76805
L70810 76861
" />
<path d="M71429 77339
L71401 77367
L71316 77395
L71260 77395
L71176 77367
L71120 77311
L71091 77255
L71063 77142
L71063 77058
L71091 76946
L71120 76889
L71176 76833
L71260 76805
L71316 76805
L71401 76833
L71429 76861
" />
<path d="M71935 77395
L71935 77086
L71907 77030
L71851 77002
L71738 77002
L71682 77030
" />
<path d="M71935 77367
L71879 77395
L71738 77395
L71682 77367
L71654 77311
L71654 77255
L71682 77199
L71738 77171
L71879 77171
L71935 77142
" />
<path d="M72469 77395
L72469 76805
" />
<path d="M72469 77367
L72413 77395
L72301 77395
L72244 77367
L72216 77339
L72188 77283
L72188 77114
L72216 77058
L72244 77030
L72301 77002
L72413 77002
L72469 77030
" />
<path d="M73201 77086
L73397 77086
" />
<path d="M73482 77395
L73201 77395
L73201 76805
L73482 76805
" />
<path d="M73735 77339
L73763 77367
L73735 77395
L73707 77367
L73735 77339
L73735 77395
" />
<path d="M74016 77395
L74016 76805
L74157 76805
L74241 76833
L74297 76889
L74325 76946
L74354 77058
L74354 77142
L74325 77255
L74297 77311
L74241 77367
L74157 77395
L74016 77395
" />
<path d="M74607 77339
L74635 77367
L74607 77395
L74579 77367
L74607 77339
L74607 77395
" />
<path d="M74860 77227
L75141 77227
" />
<path d="M74804 77395
L75000 76805
L75197 77395
" />
<path d="M75394 77339
L75422 77367
L75394 77395
L75366 77367
L75394 77339
L75394 77395
" />
<path d="M76575 77395
L76575 76805
" />
<path d="M76631 77171
L76800 77395
" />
<path d="M76800 77002
L76575 77227
" />
<path d="M77053 77395
L77053 77002
" />
<path d="M77053 76805
L77025 76833
L77053 76861
L77081 76833
L77053 76805
L77053 76861
" />
<path d="M77588 77367
L77531 77395
L77419 77395
L77363 77367
L77334 77339
L77306 77283
L77306 77114
L77334 77058
L77363 77030
L77419 77002
L77531 77002
L77588 77030
" />
<path d="M78094 77395
L78094 77086
L78066 77030
L78009 77002
L77897 77002
L77841 77030
" />
<path d="M78094 77367
L78037 77395
L77897 77395
L77841 77367
L77813 77311
L77813 77255
L77841 77199
L77897 77171
L78037 77171
L78094 77142
" />
<path d="M78628 77395
L78628 76805
" />
<path d="M78628 77367
L78572 77395
L78459 77395
L78403 77367
L78375 77339
L78347 77283
L78347 77114
L78375 77058
L78403 77030
L78459 77002
L78572 77002
L78628 77030
" />
<path d="M79612 77002
L79612 77395
" />
<path d="M79472 76777
L79331 77199
L79697 77199
" />
<path d="M79922 77339
L79950 77367
L79922 77395
L79894 77367
L79922 77339
L79922 77395
" />
<path d="M80315 76805
L80372 76805
L80428 76833
L80456 76861
L80484 76917
L80512 77030
L80512 77171
L80484 77283
L80456 77339
L80428 77367
L80372 77395
L80315 77395
L80259 77367
L80231 77339
L80203 77283
L80175 77171
L80175 77030
L80203 76917
L80231 76861
L80259 76833
L80315 76805
" />
<path d="M80765 77339
L80793 77367
L80765 77395
L80737 77367
L80765 77339
L80765 77395
" />
<path d="M80990 76805
L81384 76805
L81131 77395
" />
</g>
<g style="fill:#000000; fill-opacity:0.0; 
stroke:#000000; stroke-width:39.3701; stroke-opacity:1; 
stroke-linecap:round; stroke-linejoin:round;">
</g>
<g style="fill:#000000; fill-opacity:0.0; 
stroke:#000000; stroke-width:59.0551; stroke-opacity:1; 
stroke-linecap:round; stroke-linejoin:round;">
<path d="M69685 75396
L112205 75396
" />
</g>
<g style="fill:#000000; fill-opacity:0.0; 
stroke:#000000; stroke-width:39.3701; stroke-opacity:1; 
stroke-linecap:round; stroke-linejoin:round;">
</g>
<g style="fill:#000000; fill-opacity:0.0; 
stroke:#000000; stroke-width:118.11; stroke-opacity:1; 
stroke-linecap:round; stroke-linejoin:round;">
<path d="M104022 76293
L103825 76012
" />
<path d="M103684 76293
L103684 75703
L103909 75703
L103965 75731
L103994 75759
L104022 75815
L104022 75899
L103994 75956
L103965 75984
L103909 76012
L103684 76012
" />
<path d="M104500 76265
L104444 76293
L104331 76293
L104275 76265
L104247 76209
L104247 75984
L104275 75928
L104331 75899
L104444 75899
L104500 75928
L104528 75984
L104528 76040
L104247 76096
" />
<path d="M104725 75899
L104865 76293
L105006 75899
" />
<path d="M105231 76237
L105259 76265
L105231 76293
L105203 76265
L105231 76237
L105231 76293
" />
<path d="M105231 75928
L105259 75956
L105231 75984
L105203 75956
L105231 75928
L105231 75984
" />
<path d="M105934 75759
L105962 75731
L106018 75703
L106159 75703
L106215 75731
L106243 75759
L106271 75815
L106271 75871
L106243 75956
L105906 76293
L106271 76293
" />
<path d="M106525 75899
L106525 76293
" />
<path d="M106525 75956
L106553 75928
L106609 75899
L106693 75899
L106750 75928
L106778 75984
L106778 76293
" />
<path d="M107312 76293
L107312 75703
" />
<path d="M107312 76265
L107256 76293
L107143 76293
L107087 76265
L107059 76237
L107031 76181
L107031 76012
L107059 75956
L107087 75928
L107143 75899
L107256 75899
L107312 75928
" />
<path d="M107453 76349
L107903 76349
" />
<path d="M108381 76293
L108184 76012
" />
<path d="M108043 76293
L108043 75703
L108268 75703
L108324 75731
L108352 75759
L108381 75815
L108381 75899
L108352 75956
L108324 75984
L108268 76012
L108043 76012
" />
<path d="M108859 76265
L108802 76293
L108690 76293
L108634 76265
L108606 76209
L108606 75984
L108634 75928
L108690 75899
L108802 75899
L108859 75928
L108887 75984
L108887 76040
L108606 76096
" />
<path d="M109084 75899
L109224 76293
L109365 75899
" />
<path d="M109590 76293
L109590 75899
" />
<path d="M109590 75703
L109562 75731
L109590 75759
L109618 75731
L109590 75703
L109590 75759
" />
<path d="M109843 76265
L109899 76293
L110012 76293
L110068 76265
L110096 76209
L110096 76181
L110068 76124
L110012 76096
L109927 76096
L109871 76068
L109843 76012
L109843 75984
L109871 75928
L109927 75899
L110012 75899
L110068 75928
" />
<path d="M110349 76293
L110349 75899
" />
<path d="M110349 75703
L110321 75731
L110349 75759
L110377 75731
L110349 75703
L110349 75759
" />
<path d="M110715 76293
L110658 76265
L110630 76237
L110602 76181
L110602 76012
L110630 75956
L110658 75928
L110715 75899
L110799 75899
L110855 75928
L110883 75956
L110912 76012
L110912 76181
L110883 76237
L110855 76265
L110799 76293
L110715 76293
" />
<path d="M111165 75899
L111165 76293
" />
<path d="M111165 75956
L111193 75928
L111249 75899
L111333 75899
L111390 75928
L111418 75984
L111418 76293
" />
</g>
<g style="fill:#000000; fill-opacity:0.0; 
stroke:#000000; stroke-width:39.3701; stroke-opacity:1; 
stroke-linecap:round; stroke-linejoin:round;">
</g>
<g style="fill:#000000; fill-opacity:0.0; 
stroke:#000000; stroke-width:59.0551; stroke-opacity:1; 
stroke-linecap:round; stroke-linejoin:round;">
<path d="M70192 76265
L70276 76293
L70417 76293
L70473 76265
L70501 76237
L70529 76181
L70529 76124
L70501 76068
L70473 76040
L70417 76012
L70304 75984
L70248 75956
L70220 75928
L70192 75871
L70192 75815
L70220 75759
L70248 75731
L70304 75703
L70445 75703
L70529 75731
" />
<path d="M70782 76293
L70782 75899
" />
<path d="M70782 75703
L70754 75731
L70782 75759
L70810 75731
L70782 75703
L70782 75759
" />
<path d="M71007 75899
L71316 75899
L71007 76293
L71316 76293
" />
<path d="M71766 76265
L71710 76293
L71598 76293
L71541 76265
L71513 76209
L71513 75984
L71541 75928
L71598 75899
L71710 75899
L71766 75928
L71795 75984
L71795 76040
L71513 76096
" />
<path d="M72048 76237
L72076 76265
L72048 76293
L72019 76265
L72048 76237
L72048 76293
" />
<path d="M72048 75928
L72076 75956
L72048 75984
L72019 75956
L72048 75928
L72048 75984
" />
<path d="M72751 76124
L73032 76124
" />
<path d="M72694 76293
L72891 75703
L73088 76293
" />
<path d="M73538 75899
L73538 76293
" />
<path d="M73397 75674
L73257 76096
L73622 76096
" />
</g>
<g style="fill:#000000; fill-opacity:0.0; 
stroke:#000000; stroke-width:39.3701; stroke-opacity:1; 
stroke-linecap:round; stroke-linejoin:round;">
</g>
<g style="fill:#000000; fill-opacity:0.0; 
stroke:#000000; stroke-width:59.0551; stroke-opacity:1; 
stroke-linecap:round; stroke-linejoin:round;">
<path d="M103684 77395
L103684 76805
" />
<path d="M104219 77395
L104219 76805
" />
<path d="M104219 77367
L104162 77395
L104050 77395
L103994 77367
L103965 77339
L103937 77283
L103937 77114
L103965 77058
L103994 77030
L104050 77002
L104162 77002
L104219 77030
" />
<path d="M104500 77339
L104528 77367
L104500 77395
L104472 77367
L104500 77339
L104500 77395
" />
<path d="M104500 77030
L104528 77058
L104500 77086
L104472 77058
L104500 77030
L104500 77086
" />
<path d="M105540 77395
L105203 77395
" />
<path d="M105372 77395
L105372 76805
L105315 76889
L105259 76946
L105203 76974
" />
<path d="M106215 76777
L105709 77536
" />
<path d="M106721 77395
L106384 77395
" />
<path d="M106553 77395
L106553 76805
L106496 76889
L106440 76946
L106384 76974
" />
</g>
<g style="fill:#000000; fill-opacity:0.0; 
stroke:#000000; stroke-width:39.3701; stroke-opacity:1; 
stroke-linecap:round; stroke-linejoin:round;">
</g>
<g style="fill:#000000; fill-opacity:0.0; 
stroke:#000000; stroke-width:59.0551; stroke-opacity:1; 
stroke-linecap:round; stroke-linejoin:round;">
<path d="M69685 73821
L112205 73821
" />
</g>
<g style="fill:#000000; fill-opacity:0.0; 
stroke:#000000; stroke-width:39.3701; stroke-opacity:1; 
stroke-linecap:round; stroke-linejoin:round;">
</g>
<g style="fill:#000000; fill-opacity:0.0; 
stroke:#000000; stroke-width:157.48; stroke-opacity:1; 
stroke-linecap:round; stroke-linejoin:round;">
<path d="M70257 74099
L70707 74099
" />
<path d="M70384 74886
L70482 74099
" />
<path d="M70871 74886
L70937 74361
" />
<path d="M70970 74099
L70927 74136
L70960 74174
L71002 74136
L70970 74099
L70960 74174
" />
<path d="M71199 74361
L71499 74361
" />
<path d="M71345 74099
L71260 74774
L71288 74849
L71359 74886
L71434 74886
" />
<path d="M71809 74886
L71738 74849
L71710 74774
L71795 74099
" />
<path d="M72413 74849
L72334 74886
L72184 74886
L72113 74849
L72085 74774
L72123 74474
L72169 74399
L72249 74361
L72399 74361
L72469 74399
L72498 74474
L72488 74549
L72104 74624
" />
<path d="M72793 74811
L72826 74849
L72783 74886
L72751 74849
L72793 74811
L72783 74886
" />
<path d="M72844 74399
L72877 74436
L72835 74474
L72802 74436
L72844 74399
L72835 74474
" />
<path d="M73726 74849
L73833 74886
L74021 74886
L74100 74849
L74143 74811
L74190 74736
L74199 74661
L74171 74586
L74138 74549
L74068 74511
L73922 74474
L73852 74436
L73819 74399
L73791 74324
L73801 74249
L73847 74174
L73890 74136
L73969 74099
L74157 74099
L74265 74136
" />
<path d="M74508 74886
L74574 74361
" />
<path d="M74607 74099
L74564 74136
L74597 74174
L74639 74136
L74607 74099
L74597 74174
" />
<path d="M74949 74361
L74883 74886
" />
<path d="M74939 74436
L74982 74399
L75061 74361
L75174 74361
L75244 74399
L75272 74474
L75221 74886
" />
<path d="M75999 74361
L75919 74999
L75872 75074
L75830 75111
L75750 75149
L75638 75149
L75567 75111
" />
<path d="M75938 74849
L75858 74886
L75708 74886
L75638 74849
L75605 74811
L75577 74736
L75605 74511
L75652 74436
L75694 74399
L75774 74361
L75924 74361
L75994 74399
" />
<path d="M76421 74886
L76350 74849
L76322 74774
L76406 74099
" />
<path d="M77025 74849
L76945 74886
L76795 74886
L76725 74849
L76697 74774
L76735 74474
L76781 74399
L76861 74361
L77011 74361
L77081 74399
L77109 74474
L77100 74549
L76716 74624
" />
<path d="M77199 74961
L77798 74961
" />
<path d="M77981 74099
L78431 74099
" />
<path d="M78108 74886
L78206 74099
" />
<path d="M78595 74886
L78661 74361
" />
<path d="M78642 74511
L78689 74436
L78731 74399
L78811 74361
L78886 74361
" />
<path d="M79420 74886
L79472 74474
L79444 74399
L79373 74361
L79223 74361
L79144 74399
" />
<path d="M79425 74849
L79345 74886
L79158 74886
L79087 74849
L79059 74774
L79069 74699
L79115 74624
L79195 74586
L79383 74586
L79462 74549
" />
<path d="M79861 74361
L79795 74886
" />
<path d="M79851 74436
L79894 74399
L79973 74361
L80086 74361
L80156 74399
L80184 74474
L80133 74886
" />
<path d="M80475 74849
L80545 74886
L80695 74886
L80775 74849
L80822 74774
L80826 74736
L80798 74661
L80728 74624
L80615 74624
L80545 74586
L80517 74511
L80522 74474
L80568 74399
L80648 74361
L80761 74361
L80831 74399
" />
<path d="M81145 74886
L81211 74361
" />
<path d="M81243 74099
L81201 74136
L81234 74174
L81276 74136
L81243 74099
L81234 74174
" />
<path d="M81487 74849
L81557 74886
L81707 74886
L81787 74849
L81834 74774
L81839 74736
L81810 74661
L81740 74624
L81628 74624
L81557 74586
L81529 74511
L81534 74474
L81581 74399
L81660 74361
L81773 74361
L81843 74399
" />
<path d="M82110 74361
L82410 74361
" />
<path d="M82256 74099
L82171 74774
L82199 74849
L82270 74886
L82345 74886
" />
<path d="M82720 74886
L82649 74849
L82617 74811
L82588 74736
L82617 74511
L82663 74436
L82706 74399
L82785 74361
L82898 74361
L82968 74399
L83001 74436
L83029 74511
L83001 74736
L82954 74811
L82912 74849
L82832 74886
L82720 74886
" />
<path d="M83320 74886
L83385 74361
" />
<path d="M83367 74511
L83413 74436
L83456 74399
L83535 74361
L83610 74361
" />
<path d="M83610 74961
L84210 74961
" />
<path d="M84398 74661
L84773 74661
" />
<path d="M84295 74886
L84655 74099
L84819 74886
" />
<path d="M85082 74886
L85180 74099
L85373 74661
L85705 74099
L85607 74886
" />
<path d="M85982 74886
L86080 74099
L86380 74099
L86450 74136
L86483 74174
L86511 74249
L86497 74361
L86450 74436
L86408 74474
L86329 74511
L86029 74511
" />
</g>
<g style="fill:#000000; fill-opacity:0.0; 
stroke:#000000; stroke-width:39.3701; stroke-opacity:1; 
stroke-linecap:round; stroke-linejoin:round;">
</g>
<g style="fill:#000000; fill-opacity:0.0; 
stroke:#000000; stroke-width:59.0551; stroke-opacity:1; 
stroke-linecap:round; stroke-linejoin:round;">
<path d="M70417 73070
L70220 73070
" />
<path d="M70220 73380
L70220 72789
L70501 72789
" />
<path d="M70726 73380
L70726 72986
" />
<path d="M70726 72789
L70698 72817
L70726 72845
L70754 72817
L70726 72789
L70726 72845
" />
<path d="M71091 73380
L71035 73352
L71007 73295
L71007 72789
" />
<path d="M71541 73352
L71485 73380
L71373 73380
L71316 73352
L71288 73295
L71288 73070
L71316 73014
L71373 72986
L71485 72986
L71541 73014
L71570 73070
L71570 73127
L71288 73183
" />
<path d="M71823 73323
L71851 73352
L71823 73380
L71795 73352
L71823 73323
L71823 73380
" />
<path d="M71823 73014
L71851 73042
L71823 73070
L71795 73042
L71823 73014
L71823 73070
" />
<path d="M72526 73352
L72610 73380
L72751 73380
L72807 73352
L72835 73323
L72863 73267
L72863 73211
L72835 73155
L72807 73127
L72751 73099
L72638 73070
L72582 73042
L72554 73014
L72526 72958
L72526 72902
L72554 72845
L72582 72817
L72638 72789
L72779 72789
L72863 72817
" />
<path d="M73116 73380
L73116 72986
" />
<path d="M73116 72789
L73088 72817
L73116 72845
L73144 72817
L73116 72789
L73116 72845
" />
<path d="M73397 72986
L73397 73380
" />
<path d="M73397 73042
L73426 73014
L73482 72986
L73566 72986
L73622 73014
L73651 73070
L73651 73380
" />
<path d="M74185 72986
L74185 73464
L74157 73520
L74129 73548
L74072 73577
L73988 73577
L73932 73548
" />
<path d="M74185 73352
L74129 73380
L74016 73380
L73960 73352
L73932 73323
L73904 73267
L73904 73099
L73932 73042
L73960 73014
L74016 72986
L74129 72986
L74185 73014
" />
<path d="M74550 73380
L74494 73352
L74466 73295
L74466 72789
" />
<path d="M75000 73352
L74944 73380
L74832 73380
L74775 73352
L74747 73295
L74747 73070
L74775 73014
L74832 72986
L74944 72986
L75000 73014
L75028 73070
L75028 73127
L74747 73183
" />
<path d="M75141 73436
L75591 73436
" />
<path d="M75647 72986
L75872 72986
" />
<path d="M75732 72789
L75732 73295
L75760 73352
L75816 73380
L75872 73380
" />
<path d="M76069 73380
L76069 72986
" />
<path d="M76069 73099
L76097 73042
L76125 73014
L76181 72986
L76238 72986
" />
<path d="M76688 73380
L76688 73070
L76660 73014
L76603 72986
L76491 72986
L76435 73014
" />
<path d="M76688 73352
L76631 73380
L76491 73380
L76435 73352
L76406 73295
L76406 73239
L76435 73183
L76491 73155
L76631 73155
L76688 73127
" />
<path d="M76969 72986
L76969 73380
" />
<path d="M76969 73042
L76997 73014
L77053 72986
L77138 72986
L77194 73014
L77222 73070
L77222 73380
" />
<path d="M77475 73352
L77531 73380
L77644 73380
L77700 73352
L77728 73295
L77728 73267
L77700 73211
L77644 73183
L77559 73183
L77503 73155
L77475 73099
L77475 73070
L77503 73014
L77559 72986
L77644 72986
L77700 73014
" />
<path d="M77981 73380
L77981 72986
" />
<path d="M77981 72789
L77953 72817
L77981 72845
L78009 72817
L77981 72789
L77981 72845
" />
<path d="M78234 73352
L78291 73380
L78403 73380
L78459 73352
L78487 73295
L78487 73267
L78459 73211
L78403 73183
L78319 73183
L78262 73155
L78234 73099
L78234 73070
L78262 73014
L78319 72986
L78403 72986
L78459 73014
" />
<path d="M78656 72986
L78881 72986
" />
<path d="M78741 72789
L78741 73295
L78769 73352
L78825 73380
L78881 73380
" />
<path d="M79162 73380
L79106 73352
L79078 73323
L79050 73267
L79050 73099
L79078 73042
L79106 73014
L79162 72986
L79247 72986
L79303 73014
L79331 73042
L79359 73099
L79359 73267
L79331 73323
L79303 73352
L79247 73380
L79162 73380
" />
<path d="M79612 73380
L79612 72986
" />
<path d="M79612 73099
L79640 73042
L79669 73014
L79725 72986
L79781 72986
" />
<path d="M79837 73436
L80287 73436
" />
<path d="M80400 73211
L80681 73211
" />
<path d="M80343 73380
L80540 72789
L80737 73380
" />
<path d="M80934 73380
L80934 72789
L81131 73211
L81328 72789
L81328 73380
" />
<path d="M81609 73380
L81609 72789
L81834 72789
L81890 72817
L81918 72845
L81946 72902
L81946 72986
L81918 73042
L81890 73070
L81834 73099
L81609 73099
" />
<path d="M82199 73323
L82228 73352
L82199 73380
L82171 73352
L82199 73323
L82199 73380
" />
<path d="M82481 73380
L82481 72789
" />
<path d="M82537 73155
L82706 73380
" />
<path d="M82706 72986
L82481 73211
" />
<path d="M82959 73380
L82959 72986
" />
<path d="M82959 72789
L82931 72817
L82959 72845
L82987 72817
L82959 72789
L82959 72845
" />
<path d="M83493 73352
L83437 73380
L83324 73380
L83268 73352
L83240 73323
L83212 73267
L83212 73099
L83240 73042
L83268 73014
L83324 72986
L83437 72986
L83493 73014
" />
<path d="M83999 73380
L83999 73070
L83971 73014
L83915 72986
L83802 72986
L83746 73014
" />
<path d="M83999 73352
L83943 73380
L83802 73380
L83746 73352
L83718 73295
L83718 73239
L83746 73183
L83802 73155
L83943 73155
L83999 73127
" />
<path d="M84534 73380
L84534 72789
" />
<path d="M84534 73352
L84477 73380
L84365 73380
L84309 73352
L84280 73323
L84252 73267
L84252 73099
L84280 73042
L84309 73014
L84365 72986
L84477 72986
L84534 73014
" />
<path d="M84674 73436
L85124 73436
" />
<path d="M85265 72986
L85265 73577
" />
<path d="M85265 73014
L85321 72986
L85433 72986
L85490 73014
L85518 73042
L85546 73099
L85546 73267
L85518 73323
L85490 73352
L85433 73380
L85321 73380
L85265 73352
" />
<path d="M86052 73352
L85996 73380
L85883 73380
L85827 73352
L85799 73323
L85771 73267
L85771 73099
L85799 73042
L85827 73014
L85883 72986
L85996 72986
L86052 73014
" />
<path d="M86305 73380
L86305 72789
" />
<path d="M86305 73014
L86361 72986
L86474 72986
L86530 73014
L86558 73042
L86586 73099
L86586 73267
L86558 73323
L86530 73352
L86474 73380
L86361 73380
L86305 73352
" />
</g>
<g style="fill:#000000; fill-opacity:0.0; 
stroke:#000000; stroke-width:39.3701; stroke-opacity:1; 
stroke-linecap:round; stroke-linejoin:round;">
</g>
<g style="fill:#000000; fill-opacity:0.0; 
stroke:#000000; stroke-width:59.0551; stroke-opacity:1; 
stroke-linecap:round; stroke-linejoin:round;">
<path d="M69685 71459
L112205 71459
" />
</g>
<g style="fill:#000000; fill-opacity:0.0; 
stroke:#000000; stroke-width:39.3701; stroke-opacity:1; 
stroke-linecap:round; stroke-linejoin:round;">
</g>
<g style="fill:#000000; fill-opacity:0.0; 
stroke:#000000; stroke-width:59.0551; stroke-opacity:1; 
stroke-linecap:round; stroke-linejoin:round;">
<path d="M70192 72289
L70276 72317
L70417 72317
L70473 72289
L70501 72260
L70529 72204
L70529 72148
L70501 72092
L70473 72064
L70417 72036
L70304 72007
L70248 71979
L70220 71951
L70192 71895
L70192 71839
L70220 71782
L70248 71754
L70304 71726
L70445 71726
L70529 71754
" />
<path d="M70782 72317
L70782 71726
" />
<path d="M71035 72317
L71035 72007
L71007 71951
L70951 71923
L70867 71923
L70810 71951
L70782 71979
" />
<path d="M71541 72289
L71485 72317
L71373 72317
L71316 72289
L71288 72232
L71288 72007
L71316 71951
L71373 71923
L71485 71923
L71541 71951
L71570 72007
L71570 72064
L71288 72120
" />
<path d="M72048 72289
L71991 72317
L71879 72317
L71823 72289
L71795 72232
L71795 72007
L71823 71951
L71879 71923
L71991 71923
L72048 71951
L72076 72007
L72076 72064
L71795 72120
" />
<path d="M72244 71923
L72469 71923
" />
<path d="M72329 71726
L72329 72232
L72357 72289
L72413 72317
L72469 72317
" />
<path d="M72666 72260
L72694 72289
L72666 72317
L72638 72289
L72666 72260
L72666 72317
" />
<path d="M72666 71951
L72694 71979
L72666 72007
L72638 71979
L72666 71951
L72666 72007
" />
</g>
<g style="fill:#000000; fill-opacity:0.0; 
stroke:#000000; stroke-width:39.3701; stroke-opacity:1; 
stroke-linecap:round; stroke-linejoin:round;">
</g>
<g style="fill:#000000; fill-opacity:0.0; 
stroke:#000000; stroke-width:118.11; stroke-opacity:1; 
stroke-linecap:round; stroke-linejoin:round;">
<path d="M70220 71136
L70220 70545
" />
<path d="M70557 71136
L70304 70798
" />
<path d="M70557 70545
L70220 70883
" />
<path d="M70895 71136
L70838 71108
L70810 71051
L70810 70545
" />
<path d="M71373 71136
L71373 70826
L71345 70770
L71288 70742
L71176 70742
L71120 70770
" />
<path d="M71373 71108
L71316 71136
L71176 71136
L71120 71108
L71091 71051
L71091 70995
L71120 70939
L71176 70911
L71316 70911
L71373 70883
" />
<path d="M71598 70742
L71738 71136
L71879 70742
" />
<path d="M72076 71108
L72132 71136
L72244 71136
L72301 71108
L72329 71051
L72329 71023
L72301 70967
L72244 70939
L72160 70939
L72104 70911
L72076 70854
L72076 70826
L72104 70770
L72160 70742
L72244 70742
L72301 70770
" />
<path d="M72441 71192
L72891 71192
" />
<path d="M73369 71136
L73172 70854
" />
<path d="M73032 71136
L73032 70545
L73257 70545
L73313 70573
L73341 70601
L73369 70658
L73369 70742
L73341 70798
L73313 70826
L73257 70854
L73032 70854
" />
<path d="M73847 71108
L73791 71136
L73679 71136
L73622 71108
L73594 71051
L73594 70826
L73622 70770
L73679 70742
L73791 70742
L73847 70770
L73876 70826
L73876 70883
L73594 70939
" />
<path d="M74129 71136
L74129 70742
" />
<path d="M74129 70545
L74100 70573
L74129 70601
L74157 70573
L74129 70545
L74129 70601
" />
<path d="M74410 70742
L74410 71136
" />
<path d="M74410 70798
L74438 70770
L74494 70742
L74579 70742
L74635 70770
L74663 70826
L74663 71136
" />
<path d="M74944 71136
L74944 70742
" />
<path d="M74944 70545
L74916 70573
L74944 70601
L74972 70573
L74944 70545
L74944 70601
" />
<path d="M75197 71108
L75253 71136
L75366 71136
L75422 71108
L75450 71051
L75450 71023
L75422 70967
L75366 70939
L75282 70939
L75225 70911
L75197 70854
L75197 70826
L75225 70770
L75282 70742
L75366 70742
L75422 70770
" />
<path d="M75563 71192
L76013 71192
" />
<path d="M76266 70545
L76378 70545
L76435 70573
L76491 70629
L76519 70742
L76519 70939
L76491 71051
L76435 71108
L76378 71136
L76266 71136
L76210 71108
L76153 71051
L76125 70939
L76125 70742
L76153 70629
L76210 70573
L76266 70545
" />
<path d="M76716 70742
L77025 70742
L76716 71136
L77025 71136
" />
<path d="M77334 71136
L77278 71108
L77250 71079
L77222 71023
L77222 70854
L77250 70798
L77278 70770
L77334 70742
L77419 70742
L77475 70770
L77503 70798
L77531 70854
L77531 71023
L77503 71079
L77475 71108
L77419 71136
L77334 71136
" />
<path d="M77869 71136
L77813 71108
L77784 71051
L77784 70545
" />
<path d="M78066 71108
L78122 71136
L78234 71136
L78291 71108
L78319 71051
L78319 71023
L78291 70967
L78234 70939
L78150 70939
L78094 70911
L78066 70854
L78066 70826
L78094 70770
L78150 70742
L78234 70742
L78291 70770
" />
</g>
<g style="fill:#000000; fill-opacity:0.0; 
stroke:#000000; stroke-width:39.3701; stroke-opacity:1; 
stroke-linecap:round; stroke-linejoin:round;">
</g>
<g style="fill:#000000; fill-opacity:0.0; 
stroke:#000000; stroke-width:59.0551; stroke-opacity:1; 
stroke-linecap:round; stroke-linejoin:round;">
<path d="M77559 75396
L77559 76577
" />
</g>
<g style="fill:#000000; fill-opacity:0.0; 
stroke:#000000; stroke-width:39.3701; stroke-opacity:1; 
stroke-linecap:round; stroke-linejoin:round;">
</g>
<g style="fill:#000000; fill-opacity:0.0; 
stroke:#000000; stroke-width:59.0551; stroke-opacity:1; 
stroke-linecap:round; stroke-linejoin:round;">
<path d="M102756 75396
L102756 77955
" />
</g>
<g style="fill:#C2C200; fill-opacity:0.0; 
stroke:#C2C200; stroke-width:59.0551; stroke-opacity:1; 
stroke-linecap:round; stroke-linejoin:round;">
<path d="M31850 55000
L36800 46500
" />
<path d="M36800 63550
L31850 55000
" />
<path d="M51550 55000
L46600 63550
" />
<path d="M46600 46500
L51550 55000
" />
<path d="M36800 46500
L46600 46500
" />
<path d="M36800 63550
L46600 63550
" />
</g> 
</svg>
