G04 #@! TF.FileFunction,Copper,L2,Bot,Signal*
%FSLAX46Y46*%
G04 Gerber Fmt 4.6, Leading zero omitted, Abs format (unit mm)*
G04 Created by KiCad (PCBNEW 4.0.7) date 05/02/18 12:51:34*
%MOMM*%
%LPD*%
G01*
G04 APERTURE LIST*
%ADD10C,0.100000*%
%ADD11R,1.980000X3.960000*%
%ADD12O,1.980000X3.960000*%
%ADD13C,1.000000*%
%ADD14R,1.000000X1.000000*%
%ADD15C,1.400000*%
%ADD16O,1.400000X1.400000*%
%ADD17C,1.600000*%
%ADD18O,1.600000X1.600000*%
%ADD19C,4.400000*%
%ADD20C,2.000000*%
%ADD21C,0.254000*%
G04 APERTURE END LIST*
D10*
D11*
X113665000Y-154305000D03*
D12*
X108665000Y-154305000D03*
X98665000Y-154305000D03*
X103665000Y-154305000D03*
D13*
X107823000Y-136144000D03*
X109093000Y-137414000D03*
D14*
X106553000Y-137414000D03*
D15*
X86360000Y-141224000D03*
D16*
X93980000Y-141224000D03*
D17*
X114046000Y-141478000D03*
D18*
X124206000Y-141478000D03*
D15*
X86360000Y-135890000D03*
D16*
X93980000Y-135890000D03*
D17*
X113919000Y-136906000D03*
D18*
X124079000Y-136906000D03*
D11*
X102950000Y-126365000D03*
D12*
X107950000Y-126365000D03*
D19*
X121031000Y-148463000D03*
X90805000Y-148463000D03*
X115570000Y-122047000D03*
D20*
X103244000Y-143129000D03*
X110744000Y-143129000D03*
X122181000Y-130302000D03*
X114681000Y-130302000D03*
D19*
X96520000Y-121920000D03*
D21*
G36*
X130356511Y-139700739D02*
X118074571Y-160915000D01*
X93761429Y-160915000D01*
X89334129Y-153267844D01*
X97248000Y-153267844D01*
X97248000Y-155342156D01*
X97355863Y-155884418D01*
X97663030Y-156344126D01*
X98122738Y-156651293D01*
X98665000Y-156759156D01*
X99207262Y-156651293D01*
X99666970Y-156344126D01*
X99974137Y-155884418D01*
X100082000Y-155342156D01*
X100082000Y-154432000D01*
X102248000Y-154432000D01*
X102248000Y-155422000D01*
X102404463Y-155954595D01*
X102752832Y-156386773D01*
X103240070Y-156652738D01*
X103318788Y-156669054D01*
X103538000Y-156599081D01*
X103538000Y-154432000D01*
X103792000Y-154432000D01*
X103792000Y-156599081D01*
X104011212Y-156669054D01*
X104089930Y-156652738D01*
X104577168Y-156386773D01*
X104925537Y-155954595D01*
X105082000Y-155422000D01*
X105082000Y-154432000D01*
X107248000Y-154432000D01*
X107248000Y-155422000D01*
X107404463Y-155954595D01*
X107752832Y-156386773D01*
X108240070Y-156652738D01*
X108318788Y-156669054D01*
X108538000Y-156599081D01*
X108538000Y-154432000D01*
X108792000Y-154432000D01*
X108792000Y-156599081D01*
X109011212Y-156669054D01*
X109089930Y-156652738D01*
X109577168Y-156386773D01*
X109925537Y-155954595D01*
X110082000Y-155422000D01*
X110082000Y-154432000D01*
X108792000Y-154432000D01*
X108538000Y-154432000D01*
X107248000Y-154432000D01*
X105082000Y-154432000D01*
X103792000Y-154432000D01*
X103538000Y-154432000D01*
X102248000Y-154432000D01*
X100082000Y-154432000D01*
X100082000Y-153267844D01*
X100066118Y-153188000D01*
X102248000Y-153188000D01*
X102248000Y-154178000D01*
X103538000Y-154178000D01*
X103538000Y-152010919D01*
X103792000Y-152010919D01*
X103792000Y-154178000D01*
X105082000Y-154178000D01*
X105082000Y-153188000D01*
X107248000Y-153188000D01*
X107248000Y-154178000D01*
X108538000Y-154178000D01*
X108538000Y-152010919D01*
X108792000Y-152010919D01*
X108792000Y-154178000D01*
X110082000Y-154178000D01*
X110082000Y-153188000D01*
X109925537Y-152655405D01*
X109659205Y-152325000D01*
X112239635Y-152325000D01*
X112239635Y-156285000D01*
X112269409Y-156443237D01*
X112362927Y-156588567D01*
X112505619Y-156686064D01*
X112675000Y-156720365D01*
X114655000Y-156720365D01*
X114813237Y-156690591D01*
X114958567Y-156597073D01*
X115056064Y-156454381D01*
X115090365Y-156285000D01*
X115090365Y-152325000D01*
X115060591Y-152166763D01*
X114967073Y-152021433D01*
X114824381Y-151923936D01*
X114655000Y-151889635D01*
X112675000Y-151889635D01*
X112516763Y-151919409D01*
X112371433Y-152012927D01*
X112273936Y-152155619D01*
X112239635Y-152325000D01*
X109659205Y-152325000D01*
X109577168Y-152223227D01*
X109089930Y-151957262D01*
X109011212Y-151940946D01*
X108792000Y-152010919D01*
X108538000Y-152010919D01*
X108318788Y-151940946D01*
X108240070Y-151957262D01*
X107752832Y-152223227D01*
X107404463Y-152655405D01*
X107248000Y-153188000D01*
X105082000Y-153188000D01*
X104925537Y-152655405D01*
X104577168Y-152223227D01*
X104089930Y-151957262D01*
X104011212Y-151940946D01*
X103792000Y-152010919D01*
X103538000Y-152010919D01*
X103318788Y-151940946D01*
X103240070Y-151957262D01*
X102752832Y-152223227D01*
X102404463Y-152655405D01*
X102248000Y-153188000D01*
X100066118Y-153188000D01*
X99974137Y-152725582D01*
X99666970Y-152265874D01*
X99207262Y-151958707D01*
X98665000Y-151850844D01*
X98122738Y-151958707D01*
X97663030Y-152265874D01*
X97355863Y-152725582D01*
X97248000Y-153267844D01*
X89334129Y-153267844D01*
X87655886Y-150369061D01*
X89078544Y-150369061D01*
X89335153Y-150702136D01*
X90303918Y-151094178D01*
X91348969Y-151085646D01*
X92274847Y-150702136D01*
X92531456Y-150369061D01*
X119304544Y-150369061D01*
X119561153Y-150702136D01*
X120529918Y-151094178D01*
X121574969Y-151085646D01*
X122500847Y-150702136D01*
X122757456Y-150369061D01*
X121031000Y-148642605D01*
X119304544Y-150369061D01*
X92531456Y-150369061D01*
X90805000Y-148642605D01*
X89078544Y-150369061D01*
X87655886Y-150369061D01*
X86262277Y-147961918D01*
X88173822Y-147961918D01*
X88182354Y-149006969D01*
X88565864Y-149932847D01*
X88898939Y-150189456D01*
X90625395Y-148463000D01*
X90984605Y-148463000D01*
X92711061Y-150189456D01*
X93044136Y-149932847D01*
X93436178Y-148964082D01*
X93427997Y-147961918D01*
X118399822Y-147961918D01*
X118408354Y-149006969D01*
X118791864Y-149932847D01*
X119124939Y-150189456D01*
X120851395Y-148463000D01*
X121210605Y-148463000D01*
X122937061Y-150189456D01*
X123270136Y-149932847D01*
X123662178Y-148964082D01*
X123653646Y-147919031D01*
X123270136Y-146993153D01*
X122937061Y-146736544D01*
X121210605Y-148463000D01*
X120851395Y-148463000D01*
X119124939Y-146736544D01*
X118791864Y-146993153D01*
X118399822Y-147961918D01*
X93427997Y-147961918D01*
X93427646Y-147919031D01*
X93044136Y-146993153D01*
X92711061Y-146736544D01*
X90984605Y-148463000D01*
X90625395Y-148463000D01*
X88898939Y-146736544D01*
X88565864Y-146993153D01*
X88173822Y-147961918D01*
X86262277Y-147961918D01*
X85448869Y-146556939D01*
X89078544Y-146556939D01*
X90805000Y-148283395D01*
X92531456Y-146556939D01*
X119304544Y-146556939D01*
X121031000Y-148283395D01*
X122757456Y-146556939D01*
X122500847Y-146223864D01*
X121532082Y-145831822D01*
X120487031Y-145840354D01*
X119561153Y-146223864D01*
X119304544Y-146556939D01*
X92531456Y-146556939D01*
X92274847Y-146223864D01*
X91306082Y-145831822D01*
X90261031Y-145840354D01*
X89335153Y-146223864D01*
X89078544Y-146556939D01*
X85448869Y-146556939D01*
X83627885Y-143411603D01*
X101816752Y-143411603D01*
X102033543Y-143936275D01*
X102434614Y-144338047D01*
X102958907Y-144555752D01*
X103526603Y-144556248D01*
X104051275Y-144339457D01*
X104453047Y-143938386D01*
X104670752Y-143414093D01*
X104670754Y-143411603D01*
X109316752Y-143411603D01*
X109533543Y-143936275D01*
X109934614Y-144338047D01*
X110458907Y-144555752D01*
X111026603Y-144556248D01*
X111551275Y-144339457D01*
X111953047Y-143938386D01*
X112170752Y-143414093D01*
X112171248Y-142846397D01*
X111954457Y-142321725D01*
X111553386Y-141919953D01*
X111074241Y-141720995D01*
X112818788Y-141720995D01*
X113005194Y-142172131D01*
X113350053Y-142517593D01*
X113800864Y-142704786D01*
X114288995Y-142705212D01*
X114740131Y-142518806D01*
X115085593Y-142173947D01*
X115243214Y-141794351D01*
X123020482Y-141794351D01*
X123144011Y-142092600D01*
X123460047Y-142452222D01*
X123889648Y-142663528D01*
X124079000Y-142591671D01*
X124079000Y-141605000D01*
X124333000Y-141605000D01*
X124333000Y-142591671D01*
X124522352Y-142663528D01*
X124951953Y-142452222D01*
X125267989Y-142092600D01*
X125391518Y-141794351D01*
X125319028Y-141605000D01*
X124333000Y-141605000D01*
X124079000Y-141605000D01*
X123092972Y-141605000D01*
X123020482Y-141794351D01*
X115243214Y-141794351D01*
X115272786Y-141723136D01*
X115273212Y-141235005D01*
X115242902Y-141161649D01*
X123020482Y-141161649D01*
X123092972Y-141351000D01*
X124079000Y-141351000D01*
X124079000Y-140364329D01*
X124333000Y-140364329D01*
X124333000Y-141351000D01*
X125319028Y-141351000D01*
X125391518Y-141161649D01*
X125267989Y-140863400D01*
X124951953Y-140503778D01*
X124522352Y-140292472D01*
X124333000Y-140364329D01*
X124079000Y-140364329D01*
X123889648Y-140292472D01*
X123460047Y-140503778D01*
X123144011Y-140863400D01*
X123020482Y-141161649D01*
X115242902Y-141161649D01*
X115086806Y-140783869D01*
X114741947Y-140438407D01*
X114291136Y-140251214D01*
X113803005Y-140250788D01*
X113351869Y-140437194D01*
X113006407Y-140782053D01*
X112819214Y-141232864D01*
X112818788Y-141720995D01*
X111074241Y-141720995D01*
X111029093Y-141702248D01*
X110461397Y-141701752D01*
X109936725Y-141918543D01*
X109534953Y-142319614D01*
X109317248Y-142843907D01*
X109316752Y-143411603D01*
X104670754Y-143411603D01*
X104671248Y-142846397D01*
X104454457Y-142321725D01*
X104053386Y-141919953D01*
X103529093Y-141702248D01*
X102961397Y-141701752D01*
X102436725Y-141918543D01*
X102034953Y-142319614D01*
X101817248Y-142843907D01*
X101816752Y-143411603D01*
X83627885Y-143411603D01*
X82490593Y-141447191D01*
X85232805Y-141447191D01*
X85404019Y-141861560D01*
X85720772Y-142178867D01*
X86134842Y-142350804D01*
X86583191Y-142351195D01*
X86997560Y-142179981D01*
X87314867Y-141863228D01*
X87486804Y-141449158D01*
X87487000Y-141224000D01*
X92830921Y-141224000D01*
X92916709Y-141655284D01*
X93161012Y-142020909D01*
X93526637Y-142265212D01*
X93957921Y-142351000D01*
X94002079Y-142351000D01*
X94433363Y-142265212D01*
X94798988Y-142020909D01*
X95043291Y-141655284D01*
X95129079Y-141224000D01*
X95043291Y-140792716D01*
X94798988Y-140427091D01*
X94433363Y-140182788D01*
X94002079Y-140097000D01*
X93957921Y-140097000D01*
X93526637Y-140182788D01*
X93161012Y-140427091D01*
X92916709Y-140792716D01*
X92830921Y-141224000D01*
X87487000Y-141224000D01*
X87487195Y-141000809D01*
X87315981Y-140586440D01*
X86999228Y-140269133D01*
X86585158Y-140097196D01*
X86136809Y-140096805D01*
X85722440Y-140268019D01*
X85405133Y-140584772D01*
X85233196Y-140998842D01*
X85232805Y-141447191D01*
X82490593Y-141447191D01*
X81479489Y-139700739D01*
X83568708Y-136113191D01*
X85232805Y-136113191D01*
X85404019Y-136527560D01*
X85720772Y-136844867D01*
X86134842Y-137016804D01*
X86583191Y-137017195D01*
X86997560Y-136845981D01*
X87314867Y-136529228D01*
X87486804Y-136115158D01*
X87487000Y-135890000D01*
X92830921Y-135890000D01*
X92916709Y-136321284D01*
X93161012Y-136686909D01*
X93526637Y-136931212D01*
X93957921Y-137017000D01*
X94002079Y-137017000D01*
X94433363Y-136931212D01*
X94459122Y-136914000D01*
X105617635Y-136914000D01*
X105617635Y-137914000D01*
X105647409Y-138072237D01*
X105740927Y-138217567D01*
X105883619Y-138315064D01*
X106053000Y-138349365D01*
X107053000Y-138349365D01*
X107211237Y-138319591D01*
X107356567Y-138226073D01*
X107454064Y-138083381D01*
X107488365Y-137914000D01*
X107488365Y-137008788D01*
X107637799Y-137070839D01*
X108006583Y-137071161D01*
X108278225Y-136958921D01*
X108166161Y-137228799D01*
X108165839Y-137597583D01*
X108306669Y-137938417D01*
X108567211Y-138199414D01*
X108907799Y-138340839D01*
X109276583Y-138341161D01*
X109617417Y-138200331D01*
X109878414Y-137939789D01*
X110019839Y-137599201D01*
X110020161Y-137230417D01*
X109986519Y-137148995D01*
X112691788Y-137148995D01*
X112878194Y-137600131D01*
X113223053Y-137945593D01*
X113673864Y-138132786D01*
X114161995Y-138133212D01*
X114613131Y-137946806D01*
X114958593Y-137601947D01*
X115116214Y-137222351D01*
X122893482Y-137222351D01*
X123017011Y-137520600D01*
X123333047Y-137880222D01*
X123762648Y-138091528D01*
X123952000Y-138019671D01*
X123952000Y-137033000D01*
X124206000Y-137033000D01*
X124206000Y-138019671D01*
X124395352Y-138091528D01*
X124824953Y-137880222D01*
X125140989Y-137520600D01*
X125264518Y-137222351D01*
X125192028Y-137033000D01*
X124206000Y-137033000D01*
X123952000Y-137033000D01*
X122965972Y-137033000D01*
X122893482Y-137222351D01*
X115116214Y-137222351D01*
X115145786Y-137151136D01*
X115146212Y-136663005D01*
X115115902Y-136589649D01*
X122893482Y-136589649D01*
X122965972Y-136779000D01*
X123952000Y-136779000D01*
X123952000Y-135792329D01*
X124206000Y-135792329D01*
X124206000Y-136779000D01*
X125192028Y-136779000D01*
X125264518Y-136589649D01*
X125140989Y-136291400D01*
X124824953Y-135931778D01*
X124395352Y-135720472D01*
X124206000Y-135792329D01*
X123952000Y-135792329D01*
X123762648Y-135720472D01*
X123333047Y-135931778D01*
X123017011Y-136291400D01*
X122893482Y-136589649D01*
X115115902Y-136589649D01*
X114959806Y-136211869D01*
X114614947Y-135866407D01*
X114164136Y-135679214D01*
X113676005Y-135678788D01*
X113224869Y-135865194D01*
X112879407Y-136210053D01*
X112692214Y-136660864D01*
X112691788Y-137148995D01*
X109986519Y-137148995D01*
X109879331Y-136889583D01*
X109618789Y-136628586D01*
X109278201Y-136487161D01*
X108909417Y-136486839D01*
X108637775Y-136599079D01*
X108749839Y-136329201D01*
X108750161Y-135960417D01*
X108609331Y-135619583D01*
X108348789Y-135358586D01*
X108008201Y-135217161D01*
X107639417Y-135216839D01*
X107298583Y-135357669D01*
X107037586Y-135618211D01*
X106896161Y-135958799D01*
X106895839Y-136327583D01*
X106958253Y-136478635D01*
X106053000Y-136478635D01*
X105894763Y-136508409D01*
X105749433Y-136601927D01*
X105651936Y-136744619D01*
X105617635Y-136914000D01*
X94459122Y-136914000D01*
X94798988Y-136686909D01*
X95043291Y-136321284D01*
X95129079Y-135890000D01*
X95043291Y-135458716D01*
X94798988Y-135093091D01*
X94433363Y-134848788D01*
X94002079Y-134763000D01*
X93957921Y-134763000D01*
X93526637Y-134848788D01*
X93161012Y-135093091D01*
X92916709Y-135458716D01*
X92830921Y-135890000D01*
X87487000Y-135890000D01*
X87487195Y-135666809D01*
X87315981Y-135252440D01*
X86999228Y-134935133D01*
X86585158Y-134763196D01*
X86136809Y-134762805D01*
X85722440Y-134934019D01*
X85405133Y-135250772D01*
X85233196Y-135664842D01*
X85232805Y-136113191D01*
X83568708Y-136113191D01*
X86788297Y-130584603D01*
X113253752Y-130584603D01*
X113470543Y-131109275D01*
X113871614Y-131511047D01*
X114395907Y-131728752D01*
X114963603Y-131729248D01*
X115488275Y-131512457D01*
X115660141Y-131340890D01*
X121321715Y-131340890D01*
X121431807Y-131549241D01*
X121966134Y-131741005D01*
X122533173Y-131713692D01*
X122930193Y-131549241D01*
X123040285Y-131340890D01*
X122181000Y-130481605D01*
X121321715Y-131340890D01*
X115660141Y-131340890D01*
X115890047Y-131111386D01*
X116107752Y-130587093D01*
X116108188Y-130087134D01*
X120741995Y-130087134D01*
X120769308Y-130654173D01*
X120933759Y-131051193D01*
X121142110Y-131161285D01*
X122001395Y-130302000D01*
X122360605Y-130302000D01*
X123219890Y-131161285D01*
X123428241Y-131051193D01*
X123620005Y-130516866D01*
X123592692Y-129949827D01*
X123428241Y-129552807D01*
X123219890Y-129442715D01*
X122360605Y-130302000D01*
X122001395Y-130302000D01*
X121142110Y-129442715D01*
X120933759Y-129552807D01*
X120741995Y-130087134D01*
X116108188Y-130087134D01*
X116108248Y-130019397D01*
X115891457Y-129494725D01*
X115660247Y-129263110D01*
X121321715Y-129263110D01*
X122181000Y-130122395D01*
X123040285Y-129263110D01*
X122930193Y-129054759D01*
X122395866Y-128862995D01*
X121828827Y-128890308D01*
X121431807Y-129054759D01*
X121321715Y-129263110D01*
X115660247Y-129263110D01*
X115490386Y-129092953D01*
X114966093Y-128875248D01*
X114398397Y-128874752D01*
X113873725Y-129091543D01*
X113471953Y-129492614D01*
X113254248Y-130016907D01*
X113253752Y-130584603D01*
X86788297Y-130584603D01*
X90724154Y-123826061D01*
X94793544Y-123826061D01*
X95050153Y-124159136D01*
X96018918Y-124551178D01*
X97063969Y-124542646D01*
X97444561Y-124385000D01*
X101524635Y-124385000D01*
X101524635Y-128345000D01*
X101554409Y-128503237D01*
X101647927Y-128648567D01*
X101790619Y-128746064D01*
X101960000Y-128780365D01*
X103940000Y-128780365D01*
X104098237Y-128750591D01*
X104243567Y-128657073D01*
X104341064Y-128514381D01*
X104375365Y-128345000D01*
X104375365Y-126492000D01*
X106533000Y-126492000D01*
X106533000Y-127482000D01*
X106689463Y-128014595D01*
X107037832Y-128446773D01*
X107525070Y-128712738D01*
X107603788Y-128729054D01*
X107823000Y-128659081D01*
X107823000Y-126492000D01*
X108077000Y-126492000D01*
X108077000Y-128659081D01*
X108296212Y-128729054D01*
X108374930Y-128712738D01*
X108862168Y-128446773D01*
X109210537Y-128014595D01*
X109367000Y-127482000D01*
X109367000Y-126492000D01*
X108077000Y-126492000D01*
X107823000Y-126492000D01*
X106533000Y-126492000D01*
X104375365Y-126492000D01*
X104375365Y-125248000D01*
X106533000Y-125248000D01*
X106533000Y-126238000D01*
X107823000Y-126238000D01*
X107823000Y-124070919D01*
X108077000Y-124070919D01*
X108077000Y-126238000D01*
X109367000Y-126238000D01*
X109367000Y-125248000D01*
X109210537Y-124715405D01*
X108862168Y-124283227D01*
X108374930Y-124017262D01*
X108296212Y-124000946D01*
X108077000Y-124070919D01*
X107823000Y-124070919D01*
X107603788Y-124000946D01*
X107525070Y-124017262D01*
X107037832Y-124283227D01*
X106689463Y-124715405D01*
X106533000Y-125248000D01*
X104375365Y-125248000D01*
X104375365Y-124385000D01*
X104345591Y-124226763D01*
X104252073Y-124081433D01*
X104109381Y-123983936D01*
X103956918Y-123953061D01*
X113843544Y-123953061D01*
X114100153Y-124286136D01*
X115068918Y-124678178D01*
X116113969Y-124669646D01*
X117039847Y-124286136D01*
X117296456Y-123953061D01*
X115570000Y-122226605D01*
X113843544Y-123953061D01*
X103956918Y-123953061D01*
X103940000Y-123949635D01*
X101960000Y-123949635D01*
X101801763Y-123979409D01*
X101656433Y-124072927D01*
X101558936Y-124215619D01*
X101524635Y-124385000D01*
X97444561Y-124385000D01*
X97989847Y-124159136D01*
X98246456Y-123826061D01*
X96520000Y-122099605D01*
X94793544Y-123826061D01*
X90724154Y-123826061D01*
X92125961Y-121418918D01*
X93888822Y-121418918D01*
X93897354Y-122463969D01*
X94280864Y-123389847D01*
X94613939Y-123646456D01*
X96340395Y-121920000D01*
X96699605Y-121920000D01*
X98426061Y-123646456D01*
X98759136Y-123389847D01*
X99151178Y-122421082D01*
X99144033Y-121545918D01*
X112938822Y-121545918D01*
X112947354Y-122590969D01*
X113330864Y-123516847D01*
X113663939Y-123773456D01*
X115390395Y-122047000D01*
X115749605Y-122047000D01*
X117476061Y-123773456D01*
X117809136Y-123516847D01*
X118201178Y-122548082D01*
X118192646Y-121503031D01*
X117809136Y-120577153D01*
X117476061Y-120320544D01*
X115749605Y-122047000D01*
X115390395Y-122047000D01*
X113663939Y-120320544D01*
X113330864Y-120577153D01*
X112938822Y-121545918D01*
X99144033Y-121545918D01*
X99142646Y-121376031D01*
X98759136Y-120450153D01*
X98426061Y-120193544D01*
X96699605Y-121920000D01*
X96340395Y-121920000D01*
X94613939Y-120193544D01*
X94280864Y-120450153D01*
X93888822Y-121418918D01*
X92125961Y-121418918D01*
X92944154Y-120013939D01*
X94793544Y-120013939D01*
X96520000Y-121740395D01*
X98119456Y-120140939D01*
X113843544Y-120140939D01*
X115570000Y-121867395D01*
X117296456Y-120140939D01*
X117039847Y-119807864D01*
X116071082Y-119415822D01*
X115026031Y-119424354D01*
X114100153Y-119807864D01*
X113843544Y-120140939D01*
X98119456Y-120140939D01*
X98246456Y-120013939D01*
X97989847Y-119680864D01*
X97021082Y-119288822D01*
X95976031Y-119297354D01*
X95050153Y-119680864D01*
X94793544Y-120013939D01*
X92944154Y-120013939D01*
X93760578Y-118612000D01*
X118075422Y-118612000D01*
X130356511Y-139700739D01*
X130356511Y-139700739D01*
G37*
X130356511Y-139700739D02*
X118074571Y-160915000D01*
X93761429Y-160915000D01*
X89334129Y-153267844D01*
X97248000Y-153267844D01*
X97248000Y-155342156D01*
X97355863Y-155884418D01*
X97663030Y-156344126D01*
X98122738Y-156651293D01*
X98665000Y-156759156D01*
X99207262Y-156651293D01*
X99666970Y-156344126D01*
X99974137Y-155884418D01*
X100082000Y-155342156D01*
X100082000Y-154432000D01*
X102248000Y-154432000D01*
X102248000Y-155422000D01*
X102404463Y-155954595D01*
X102752832Y-156386773D01*
X103240070Y-156652738D01*
X103318788Y-156669054D01*
X103538000Y-156599081D01*
X103538000Y-154432000D01*
X103792000Y-154432000D01*
X103792000Y-156599081D01*
X104011212Y-156669054D01*
X104089930Y-156652738D01*
X104577168Y-156386773D01*
X104925537Y-155954595D01*
X105082000Y-155422000D01*
X105082000Y-154432000D01*
X107248000Y-154432000D01*
X107248000Y-155422000D01*
X107404463Y-155954595D01*
X107752832Y-156386773D01*
X108240070Y-156652738D01*
X108318788Y-156669054D01*
X108538000Y-156599081D01*
X108538000Y-154432000D01*
X108792000Y-154432000D01*
X108792000Y-156599081D01*
X109011212Y-156669054D01*
X109089930Y-156652738D01*
X109577168Y-156386773D01*
X109925537Y-155954595D01*
X110082000Y-155422000D01*
X110082000Y-154432000D01*
X108792000Y-154432000D01*
X108538000Y-154432000D01*
X107248000Y-154432000D01*
X105082000Y-154432000D01*
X103792000Y-154432000D01*
X103538000Y-154432000D01*
X102248000Y-154432000D01*
X100082000Y-154432000D01*
X100082000Y-153267844D01*
X100066118Y-153188000D01*
X102248000Y-153188000D01*
X102248000Y-154178000D01*
X103538000Y-154178000D01*
X103538000Y-152010919D01*
X103792000Y-152010919D01*
X103792000Y-154178000D01*
X105082000Y-154178000D01*
X105082000Y-153188000D01*
X107248000Y-153188000D01*
X107248000Y-154178000D01*
X108538000Y-154178000D01*
X108538000Y-152010919D01*
X108792000Y-152010919D01*
X108792000Y-154178000D01*
X110082000Y-154178000D01*
X110082000Y-153188000D01*
X109925537Y-152655405D01*
X109659205Y-152325000D01*
X112239635Y-152325000D01*
X112239635Y-156285000D01*
X112269409Y-156443237D01*
X112362927Y-156588567D01*
X112505619Y-156686064D01*
X112675000Y-156720365D01*
X114655000Y-156720365D01*
X114813237Y-156690591D01*
X114958567Y-156597073D01*
X115056064Y-156454381D01*
X115090365Y-156285000D01*
X115090365Y-152325000D01*
X115060591Y-152166763D01*
X114967073Y-152021433D01*
X114824381Y-151923936D01*
X114655000Y-151889635D01*
X112675000Y-151889635D01*
X112516763Y-151919409D01*
X112371433Y-152012927D01*
X112273936Y-152155619D01*
X112239635Y-152325000D01*
X109659205Y-152325000D01*
X109577168Y-152223227D01*
X109089930Y-151957262D01*
X109011212Y-151940946D01*
X108792000Y-152010919D01*
X108538000Y-152010919D01*
X108318788Y-151940946D01*
X108240070Y-151957262D01*
X107752832Y-152223227D01*
X107404463Y-152655405D01*
X107248000Y-153188000D01*
X105082000Y-153188000D01*
X104925537Y-152655405D01*
X104577168Y-152223227D01*
X104089930Y-151957262D01*
X104011212Y-151940946D01*
X103792000Y-152010919D01*
X103538000Y-152010919D01*
X103318788Y-151940946D01*
X103240070Y-151957262D01*
X102752832Y-152223227D01*
X102404463Y-152655405D01*
X102248000Y-153188000D01*
X100066118Y-153188000D01*
X99974137Y-152725582D01*
X99666970Y-152265874D01*
X99207262Y-151958707D01*
X98665000Y-151850844D01*
X98122738Y-151958707D01*
X97663030Y-152265874D01*
X97355863Y-152725582D01*
X97248000Y-153267844D01*
X89334129Y-153267844D01*
X87655886Y-150369061D01*
X89078544Y-150369061D01*
X89335153Y-150702136D01*
X90303918Y-151094178D01*
X91348969Y-151085646D01*
X92274847Y-150702136D01*
X92531456Y-150369061D01*
X119304544Y-150369061D01*
X119561153Y-150702136D01*
X120529918Y-151094178D01*
X121574969Y-151085646D01*
X122500847Y-150702136D01*
X122757456Y-150369061D01*
X121031000Y-148642605D01*
X119304544Y-150369061D01*
X92531456Y-150369061D01*
X90805000Y-148642605D01*
X89078544Y-150369061D01*
X87655886Y-150369061D01*
X86262277Y-147961918D01*
X88173822Y-147961918D01*
X88182354Y-149006969D01*
X88565864Y-149932847D01*
X88898939Y-150189456D01*
X90625395Y-148463000D01*
X90984605Y-148463000D01*
X92711061Y-150189456D01*
X93044136Y-149932847D01*
X93436178Y-148964082D01*
X93427997Y-147961918D01*
X118399822Y-147961918D01*
X118408354Y-149006969D01*
X118791864Y-149932847D01*
X119124939Y-150189456D01*
X120851395Y-148463000D01*
X121210605Y-148463000D01*
X122937061Y-150189456D01*
X123270136Y-149932847D01*
X123662178Y-148964082D01*
X123653646Y-147919031D01*
X123270136Y-146993153D01*
X122937061Y-146736544D01*
X121210605Y-148463000D01*
X120851395Y-148463000D01*
X119124939Y-146736544D01*
X118791864Y-146993153D01*
X118399822Y-147961918D01*
X93427997Y-147961918D01*
X93427646Y-147919031D01*
X93044136Y-146993153D01*
X92711061Y-146736544D01*
X90984605Y-148463000D01*
X90625395Y-148463000D01*
X88898939Y-146736544D01*
X88565864Y-146993153D01*
X88173822Y-147961918D01*
X86262277Y-147961918D01*
X85448869Y-146556939D01*
X89078544Y-146556939D01*
X90805000Y-148283395D01*
X92531456Y-146556939D01*
X119304544Y-146556939D01*
X121031000Y-148283395D01*
X122757456Y-146556939D01*
X122500847Y-146223864D01*
X121532082Y-145831822D01*
X120487031Y-145840354D01*
X119561153Y-146223864D01*
X119304544Y-146556939D01*
X92531456Y-146556939D01*
X92274847Y-146223864D01*
X91306082Y-145831822D01*
X90261031Y-145840354D01*
X89335153Y-146223864D01*
X89078544Y-146556939D01*
X85448869Y-146556939D01*
X83627885Y-143411603D01*
X101816752Y-143411603D01*
X102033543Y-143936275D01*
X102434614Y-144338047D01*
X102958907Y-144555752D01*
X103526603Y-144556248D01*
X104051275Y-144339457D01*
X104453047Y-143938386D01*
X104670752Y-143414093D01*
X104670754Y-143411603D01*
X109316752Y-143411603D01*
X109533543Y-143936275D01*
X109934614Y-144338047D01*
X110458907Y-144555752D01*
X111026603Y-144556248D01*
X111551275Y-144339457D01*
X111953047Y-143938386D01*
X112170752Y-143414093D01*
X112171248Y-142846397D01*
X111954457Y-142321725D01*
X111553386Y-141919953D01*
X111074241Y-141720995D01*
X112818788Y-141720995D01*
X113005194Y-142172131D01*
X113350053Y-142517593D01*
X113800864Y-142704786D01*
X114288995Y-142705212D01*
X114740131Y-142518806D01*
X115085593Y-142173947D01*
X115243214Y-141794351D01*
X123020482Y-141794351D01*
X123144011Y-142092600D01*
X123460047Y-142452222D01*
X123889648Y-142663528D01*
X124079000Y-142591671D01*
X124079000Y-141605000D01*
X124333000Y-141605000D01*
X124333000Y-142591671D01*
X124522352Y-142663528D01*
X124951953Y-142452222D01*
X125267989Y-142092600D01*
X125391518Y-141794351D01*
X125319028Y-141605000D01*
X124333000Y-141605000D01*
X124079000Y-141605000D01*
X123092972Y-141605000D01*
X123020482Y-141794351D01*
X115243214Y-141794351D01*
X115272786Y-141723136D01*
X115273212Y-141235005D01*
X115242902Y-141161649D01*
X123020482Y-141161649D01*
X123092972Y-141351000D01*
X124079000Y-141351000D01*
X124079000Y-140364329D01*
X124333000Y-140364329D01*
X124333000Y-141351000D01*
X125319028Y-141351000D01*
X125391518Y-141161649D01*
X125267989Y-140863400D01*
X124951953Y-140503778D01*
X124522352Y-140292472D01*
X124333000Y-140364329D01*
X124079000Y-140364329D01*
X123889648Y-140292472D01*
X123460047Y-140503778D01*
X123144011Y-140863400D01*
X123020482Y-141161649D01*
X115242902Y-141161649D01*
X115086806Y-140783869D01*
X114741947Y-140438407D01*
X114291136Y-140251214D01*
X113803005Y-140250788D01*
X113351869Y-140437194D01*
X113006407Y-140782053D01*
X112819214Y-141232864D01*
X112818788Y-141720995D01*
X111074241Y-141720995D01*
X111029093Y-141702248D01*
X110461397Y-141701752D01*
X109936725Y-141918543D01*
X109534953Y-142319614D01*
X109317248Y-142843907D01*
X109316752Y-143411603D01*
X104670754Y-143411603D01*
X104671248Y-142846397D01*
X104454457Y-142321725D01*
X104053386Y-141919953D01*
X103529093Y-141702248D01*
X102961397Y-141701752D01*
X102436725Y-141918543D01*
X102034953Y-142319614D01*
X101817248Y-142843907D01*
X101816752Y-143411603D01*
X83627885Y-143411603D01*
X82490593Y-141447191D01*
X85232805Y-141447191D01*
X85404019Y-141861560D01*
X85720772Y-142178867D01*
X86134842Y-142350804D01*
X86583191Y-142351195D01*
X86997560Y-142179981D01*
X87314867Y-141863228D01*
X87486804Y-141449158D01*
X87487000Y-141224000D01*
X92830921Y-141224000D01*
X92916709Y-141655284D01*
X93161012Y-142020909D01*
X93526637Y-142265212D01*
X93957921Y-142351000D01*
X94002079Y-142351000D01*
X94433363Y-142265212D01*
X94798988Y-142020909D01*
X95043291Y-141655284D01*
X95129079Y-141224000D01*
X95043291Y-140792716D01*
X94798988Y-140427091D01*
X94433363Y-140182788D01*
X94002079Y-140097000D01*
X93957921Y-140097000D01*
X93526637Y-140182788D01*
X93161012Y-140427091D01*
X92916709Y-140792716D01*
X92830921Y-141224000D01*
X87487000Y-141224000D01*
X87487195Y-141000809D01*
X87315981Y-140586440D01*
X86999228Y-140269133D01*
X86585158Y-140097196D01*
X86136809Y-140096805D01*
X85722440Y-140268019D01*
X85405133Y-140584772D01*
X85233196Y-140998842D01*
X85232805Y-141447191D01*
X82490593Y-141447191D01*
X81479489Y-139700739D01*
X83568708Y-136113191D01*
X85232805Y-136113191D01*
X85404019Y-136527560D01*
X85720772Y-136844867D01*
X86134842Y-137016804D01*
X86583191Y-137017195D01*
X86997560Y-136845981D01*
X87314867Y-136529228D01*
X87486804Y-136115158D01*
X87487000Y-135890000D01*
X92830921Y-135890000D01*
X92916709Y-136321284D01*
X93161012Y-136686909D01*
X93526637Y-136931212D01*
X93957921Y-137017000D01*
X94002079Y-137017000D01*
X94433363Y-136931212D01*
X94459122Y-136914000D01*
X105617635Y-136914000D01*
X105617635Y-137914000D01*
X105647409Y-138072237D01*
X105740927Y-138217567D01*
X105883619Y-138315064D01*
X106053000Y-138349365D01*
X107053000Y-138349365D01*
X107211237Y-138319591D01*
X107356567Y-138226073D01*
X107454064Y-138083381D01*
X107488365Y-137914000D01*
X107488365Y-137008788D01*
X107637799Y-137070839D01*
X108006583Y-137071161D01*
X108278225Y-136958921D01*
X108166161Y-137228799D01*
X108165839Y-137597583D01*
X108306669Y-137938417D01*
X108567211Y-138199414D01*
X108907799Y-138340839D01*
X109276583Y-138341161D01*
X109617417Y-138200331D01*
X109878414Y-137939789D01*
X110019839Y-137599201D01*
X110020161Y-137230417D01*
X109986519Y-137148995D01*
X112691788Y-137148995D01*
X112878194Y-137600131D01*
X113223053Y-137945593D01*
X113673864Y-138132786D01*
X114161995Y-138133212D01*
X114613131Y-137946806D01*
X114958593Y-137601947D01*
X115116214Y-137222351D01*
X122893482Y-137222351D01*
X123017011Y-137520600D01*
X123333047Y-137880222D01*
X123762648Y-138091528D01*
X123952000Y-138019671D01*
X123952000Y-137033000D01*
X124206000Y-137033000D01*
X124206000Y-138019671D01*
X124395352Y-138091528D01*
X124824953Y-137880222D01*
X125140989Y-137520600D01*
X125264518Y-137222351D01*
X125192028Y-137033000D01*
X124206000Y-137033000D01*
X123952000Y-137033000D01*
X122965972Y-137033000D01*
X122893482Y-137222351D01*
X115116214Y-137222351D01*
X115145786Y-137151136D01*
X115146212Y-136663005D01*
X115115902Y-136589649D01*
X122893482Y-136589649D01*
X122965972Y-136779000D01*
X123952000Y-136779000D01*
X123952000Y-135792329D01*
X124206000Y-135792329D01*
X124206000Y-136779000D01*
X125192028Y-136779000D01*
X125264518Y-136589649D01*
X125140989Y-136291400D01*
X124824953Y-135931778D01*
X124395352Y-135720472D01*
X124206000Y-135792329D01*
X123952000Y-135792329D01*
X123762648Y-135720472D01*
X123333047Y-135931778D01*
X123017011Y-136291400D01*
X122893482Y-136589649D01*
X115115902Y-136589649D01*
X114959806Y-136211869D01*
X114614947Y-135866407D01*
X114164136Y-135679214D01*
X113676005Y-135678788D01*
X113224869Y-135865194D01*
X112879407Y-136210053D01*
X112692214Y-136660864D01*
X112691788Y-137148995D01*
X109986519Y-137148995D01*
X109879331Y-136889583D01*
X109618789Y-136628586D01*
X109278201Y-136487161D01*
X108909417Y-136486839D01*
X108637775Y-136599079D01*
X108749839Y-136329201D01*
X108750161Y-135960417D01*
X108609331Y-135619583D01*
X108348789Y-135358586D01*
X108008201Y-135217161D01*
X107639417Y-135216839D01*
X107298583Y-135357669D01*
X107037586Y-135618211D01*
X106896161Y-135958799D01*
X106895839Y-136327583D01*
X106958253Y-136478635D01*
X106053000Y-136478635D01*
X105894763Y-136508409D01*
X105749433Y-136601927D01*
X105651936Y-136744619D01*
X105617635Y-136914000D01*
X94459122Y-136914000D01*
X94798988Y-136686909D01*
X95043291Y-136321284D01*
X95129079Y-135890000D01*
X95043291Y-135458716D01*
X94798988Y-135093091D01*
X94433363Y-134848788D01*
X94002079Y-134763000D01*
X93957921Y-134763000D01*
X93526637Y-134848788D01*
X93161012Y-135093091D01*
X92916709Y-135458716D01*
X92830921Y-135890000D01*
X87487000Y-135890000D01*
X87487195Y-135666809D01*
X87315981Y-135252440D01*
X86999228Y-134935133D01*
X86585158Y-134763196D01*
X86136809Y-134762805D01*
X85722440Y-134934019D01*
X85405133Y-135250772D01*
X85233196Y-135664842D01*
X85232805Y-136113191D01*
X83568708Y-136113191D01*
X86788297Y-130584603D01*
X113253752Y-130584603D01*
X113470543Y-131109275D01*
X113871614Y-131511047D01*
X114395907Y-131728752D01*
X114963603Y-131729248D01*
X115488275Y-131512457D01*
X115660141Y-131340890D01*
X121321715Y-131340890D01*
X121431807Y-131549241D01*
X121966134Y-131741005D01*
X122533173Y-131713692D01*
X122930193Y-131549241D01*
X123040285Y-131340890D01*
X122181000Y-130481605D01*
X121321715Y-131340890D01*
X115660141Y-131340890D01*
X115890047Y-131111386D01*
X116107752Y-130587093D01*
X116108188Y-130087134D01*
X120741995Y-130087134D01*
X120769308Y-130654173D01*
X120933759Y-131051193D01*
X121142110Y-131161285D01*
X122001395Y-130302000D01*
X122360605Y-130302000D01*
X123219890Y-131161285D01*
X123428241Y-131051193D01*
X123620005Y-130516866D01*
X123592692Y-129949827D01*
X123428241Y-129552807D01*
X123219890Y-129442715D01*
X122360605Y-130302000D01*
X122001395Y-130302000D01*
X121142110Y-129442715D01*
X120933759Y-129552807D01*
X120741995Y-130087134D01*
X116108188Y-130087134D01*
X116108248Y-130019397D01*
X115891457Y-129494725D01*
X115660247Y-129263110D01*
X121321715Y-129263110D01*
X122181000Y-130122395D01*
X123040285Y-129263110D01*
X122930193Y-129054759D01*
X122395866Y-128862995D01*
X121828827Y-128890308D01*
X121431807Y-129054759D01*
X121321715Y-129263110D01*
X115660247Y-129263110D01*
X115490386Y-129092953D01*
X114966093Y-128875248D01*
X114398397Y-128874752D01*
X113873725Y-129091543D01*
X113471953Y-129492614D01*
X113254248Y-130016907D01*
X113253752Y-130584603D01*
X86788297Y-130584603D01*
X90724154Y-123826061D01*
X94793544Y-123826061D01*
X95050153Y-124159136D01*
X96018918Y-124551178D01*
X97063969Y-124542646D01*
X97444561Y-124385000D01*
X101524635Y-124385000D01*
X101524635Y-128345000D01*
X101554409Y-128503237D01*
X101647927Y-128648567D01*
X101790619Y-128746064D01*
X101960000Y-128780365D01*
X103940000Y-128780365D01*
X104098237Y-128750591D01*
X104243567Y-128657073D01*
X104341064Y-128514381D01*
X104375365Y-128345000D01*
X104375365Y-126492000D01*
X106533000Y-126492000D01*
X106533000Y-127482000D01*
X106689463Y-128014595D01*
X107037832Y-128446773D01*
X107525070Y-128712738D01*
X107603788Y-128729054D01*
X107823000Y-128659081D01*
X107823000Y-126492000D01*
X108077000Y-126492000D01*
X108077000Y-128659081D01*
X108296212Y-128729054D01*
X108374930Y-128712738D01*
X108862168Y-128446773D01*
X109210537Y-128014595D01*
X109367000Y-127482000D01*
X109367000Y-126492000D01*
X108077000Y-126492000D01*
X107823000Y-126492000D01*
X106533000Y-126492000D01*
X104375365Y-126492000D01*
X104375365Y-125248000D01*
X106533000Y-125248000D01*
X106533000Y-126238000D01*
X107823000Y-126238000D01*
X107823000Y-124070919D01*
X108077000Y-124070919D01*
X108077000Y-126238000D01*
X109367000Y-126238000D01*
X109367000Y-125248000D01*
X109210537Y-124715405D01*
X108862168Y-124283227D01*
X108374930Y-124017262D01*
X108296212Y-124000946D01*
X108077000Y-124070919D01*
X107823000Y-124070919D01*
X107603788Y-124000946D01*
X107525070Y-124017262D01*
X107037832Y-124283227D01*
X106689463Y-124715405D01*
X106533000Y-125248000D01*
X104375365Y-125248000D01*
X104375365Y-124385000D01*
X104345591Y-124226763D01*
X104252073Y-124081433D01*
X104109381Y-123983936D01*
X103956918Y-123953061D01*
X113843544Y-123953061D01*
X114100153Y-124286136D01*
X115068918Y-124678178D01*
X116113969Y-124669646D01*
X117039847Y-124286136D01*
X117296456Y-123953061D01*
X115570000Y-122226605D01*
X113843544Y-123953061D01*
X103956918Y-123953061D01*
X103940000Y-123949635D01*
X101960000Y-123949635D01*
X101801763Y-123979409D01*
X101656433Y-124072927D01*
X101558936Y-124215619D01*
X101524635Y-124385000D01*
X97444561Y-124385000D01*
X97989847Y-124159136D01*
X98246456Y-123826061D01*
X96520000Y-122099605D01*
X94793544Y-123826061D01*
X90724154Y-123826061D01*
X92125961Y-121418918D01*
X93888822Y-121418918D01*
X93897354Y-122463969D01*
X94280864Y-123389847D01*
X94613939Y-123646456D01*
X96340395Y-121920000D01*
X96699605Y-121920000D01*
X98426061Y-123646456D01*
X98759136Y-123389847D01*
X99151178Y-122421082D01*
X99144033Y-121545918D01*
X112938822Y-121545918D01*
X112947354Y-122590969D01*
X113330864Y-123516847D01*
X113663939Y-123773456D01*
X115390395Y-122047000D01*
X115749605Y-122047000D01*
X117476061Y-123773456D01*
X117809136Y-123516847D01*
X118201178Y-122548082D01*
X118192646Y-121503031D01*
X117809136Y-120577153D01*
X117476061Y-120320544D01*
X115749605Y-122047000D01*
X115390395Y-122047000D01*
X113663939Y-120320544D01*
X113330864Y-120577153D01*
X112938822Y-121545918D01*
X99144033Y-121545918D01*
X99142646Y-121376031D01*
X98759136Y-120450153D01*
X98426061Y-120193544D01*
X96699605Y-121920000D01*
X96340395Y-121920000D01*
X94613939Y-120193544D01*
X94280864Y-120450153D01*
X93888822Y-121418918D01*
X92125961Y-121418918D01*
X92944154Y-120013939D01*
X94793544Y-120013939D01*
X96520000Y-121740395D01*
X98119456Y-120140939D01*
X113843544Y-120140939D01*
X115570000Y-121867395D01*
X117296456Y-120140939D01*
X117039847Y-119807864D01*
X116071082Y-119415822D01*
X115026031Y-119424354D01*
X114100153Y-119807864D01*
X113843544Y-120140939D01*
X98119456Y-120140939D01*
X98246456Y-120013939D01*
X97989847Y-119680864D01*
X97021082Y-119288822D01*
X95976031Y-119297354D01*
X95050153Y-119680864D01*
X94793544Y-120013939D01*
X92944154Y-120013939D01*
X93760578Y-118612000D01*
X118075422Y-118612000D01*
X130356511Y-139700739D01*
M02*
