G04 #@! TF.FileFunction,Paste,Bot*
%FSLAX46Y46*%
G04 Gerber Fmt 4.6, Leading zero omitted, Abs format (unit mm)*
G04 Created by KiCad (PCBNEW 4.0.7) date 06/18/18 00:59:20*
%MOMM*%
%LPD*%
G01*
G04 APERTURE LIST*
%ADD10C,0.100000*%
%ADD11R,2.200000X0.600000*%
%ADD12R,1.000000X1.750000*%
%ADD13R,1.500000X1.300000*%
%ADD14R,1.550000X0.600000*%
%ADD15R,1.300000X1.500000*%
%ADD16R,2.500000X4.000000*%
%ADD17R,1.500000X1.250000*%
%ADD18R,1.600000X2.600000*%
%ADD19R,2.500000X2.000000*%
G04 APERTURE END LIST*
D10*
D11*
X189250000Y-81020000D03*
X184050000Y-81020000D03*
X189250000Y-79750000D03*
X189250000Y-82290000D03*
X189250000Y-83560000D03*
X184050000Y-79750000D03*
X184050000Y-82290000D03*
X184050000Y-83560000D03*
X189250000Y-86100000D03*
X184050000Y-86100000D03*
X189250000Y-84830000D03*
X189250000Y-87370000D03*
X184050000Y-84830000D03*
X184050000Y-87370000D03*
D12*
X283375000Y-95825000D03*
X279875000Y-95825000D03*
D13*
X303400000Y-85000000D03*
X306100000Y-85000000D03*
D11*
X284281000Y-108575000D03*
X289481000Y-108575000D03*
X284281000Y-109845000D03*
X284281000Y-107305000D03*
X284281000Y-106035000D03*
X289481000Y-109845000D03*
X289481000Y-107305000D03*
X289481000Y-106035000D03*
X284281000Y-103495000D03*
X289481000Y-103495000D03*
X284281000Y-104765000D03*
X284281000Y-102225000D03*
X289481000Y-104765000D03*
X289481000Y-102225000D03*
X220524152Y-109452988D03*
X225724152Y-109452988D03*
X220524152Y-110722988D03*
X220524152Y-108182988D03*
X220524152Y-106912988D03*
X225724152Y-110722988D03*
X225724152Y-108182988D03*
X225724152Y-106912988D03*
X220524152Y-104372988D03*
X225724152Y-104372988D03*
X220524152Y-105642988D03*
X220524152Y-103102988D03*
X225724152Y-105642988D03*
X225724152Y-103102988D03*
X169936000Y-101785000D03*
X164736000Y-101785000D03*
X169936000Y-100515000D03*
X169936000Y-103055000D03*
X169936000Y-104325000D03*
X164736000Y-100515000D03*
X164736000Y-103055000D03*
X164736000Y-104325000D03*
X169936000Y-106865000D03*
X164736000Y-106865000D03*
X169936000Y-105595000D03*
X169936000Y-108135000D03*
X164736000Y-105595000D03*
X164736000Y-108135000D03*
X293500000Y-80080000D03*
X288300000Y-80080000D03*
X293500000Y-78810000D03*
X293500000Y-81350000D03*
X293500000Y-82620000D03*
X288300000Y-78810000D03*
X288300000Y-81350000D03*
X288300000Y-82620000D03*
X293500000Y-85160000D03*
X288300000Y-85160000D03*
X293500000Y-83890000D03*
X293500000Y-86430000D03*
X288300000Y-83890000D03*
X288300000Y-86430000D03*
X258070859Y-80183030D03*
X252870859Y-80183030D03*
X258070859Y-78913030D03*
X258070859Y-81453030D03*
X258070859Y-82723030D03*
X252870859Y-78913030D03*
X252870859Y-81453030D03*
X252870859Y-82723030D03*
X258070859Y-85263030D03*
X252870859Y-85263030D03*
X258070859Y-83993030D03*
X258070859Y-86533030D03*
X252870859Y-83993030D03*
X252870859Y-86533030D03*
X222811000Y-80805000D03*
X217611000Y-80805000D03*
X222811000Y-79535000D03*
X222811000Y-82075000D03*
X222811000Y-83345000D03*
X217611000Y-79535000D03*
X217611000Y-82075000D03*
X217611000Y-83345000D03*
X222811000Y-85885000D03*
X217611000Y-85885000D03*
X222811000Y-84615000D03*
X222811000Y-87155000D03*
X217611000Y-84615000D03*
X217611000Y-87155000D03*
D14*
X121838600Y-106339200D03*
X121838600Y-105069200D03*
X121838600Y-103799200D03*
X121838600Y-102529200D03*
X127238600Y-102529200D03*
X127238600Y-103799200D03*
X127238600Y-105069200D03*
X127238600Y-106339200D03*
X121831000Y-114441800D03*
X121831000Y-113171800D03*
X121831000Y-111901800D03*
X121831000Y-110631800D03*
X127231000Y-110631800D03*
X127231000Y-111901800D03*
X127231000Y-113171800D03*
X127231000Y-114441800D03*
X121881800Y-122569800D03*
X121881800Y-121299800D03*
X121881800Y-120029800D03*
X121881800Y-118759800D03*
X127281800Y-118759800D03*
X127281800Y-120029800D03*
X127281800Y-121299800D03*
X127281800Y-122569800D03*
X122034200Y-130951800D03*
X122034200Y-129681800D03*
X122034200Y-128411800D03*
X122034200Y-127141800D03*
X127434200Y-127141800D03*
X127434200Y-128411800D03*
X127434200Y-129681800D03*
X127434200Y-130951800D03*
D13*
X294900000Y-141400000D03*
X292200000Y-141400000D03*
X255929000Y-141746800D03*
X253229000Y-141746800D03*
X274950000Y-141700000D03*
X272250000Y-141700000D03*
X113620000Y-166840000D03*
X116320000Y-166840000D03*
X236574200Y-141594400D03*
X233874200Y-141594400D03*
X177036600Y-140934000D03*
X174336600Y-140934000D03*
X216813000Y-141289600D03*
X214113000Y-141289600D03*
X157123000Y-141238800D03*
X154423000Y-141238800D03*
X196217400Y-140781600D03*
X193517400Y-140781600D03*
X137463400Y-141188000D03*
X134763400Y-141188000D03*
D15*
X307220000Y-99970000D03*
X307220000Y-97270000D03*
X265610000Y-98360000D03*
X265610000Y-95660000D03*
X303640000Y-99740000D03*
X303640000Y-97040000D03*
X271875000Y-98400000D03*
X271875000Y-95700000D03*
X299200000Y-97200000D03*
X299200000Y-99900000D03*
X275400000Y-95900000D03*
X275400000Y-98600000D03*
D13*
X293880000Y-106370000D03*
X296580000Y-106370000D03*
X280150000Y-103575000D03*
X277450000Y-103575000D03*
D15*
X267150000Y-112025000D03*
X267150000Y-114725000D03*
X247025000Y-112275000D03*
X247025000Y-114975000D03*
X244620000Y-98210000D03*
X244620000Y-95510000D03*
X271825000Y-112150000D03*
X271825000Y-114850000D03*
X240425000Y-112500000D03*
X240425000Y-115200000D03*
X239580000Y-98210000D03*
X239580000Y-95510000D03*
X276075000Y-115000000D03*
X276075000Y-112300000D03*
X235800000Y-115275000D03*
X235800000Y-112575000D03*
X235630000Y-95610000D03*
X235630000Y-98310000D03*
D13*
X280150000Y-107350000D03*
X277450000Y-107350000D03*
X231810000Y-109070000D03*
X234510000Y-109070000D03*
X229370000Y-102620000D03*
X232070000Y-102620000D03*
D15*
X200325000Y-101150000D03*
X200325000Y-98450000D03*
X198725000Y-115175000D03*
X198725000Y-117875000D03*
X151850000Y-97550000D03*
X151850000Y-94850000D03*
X152300000Y-111650000D03*
X152300000Y-114350000D03*
X205175000Y-101375000D03*
X205175000Y-98675000D03*
X206050000Y-115000000D03*
X206050000Y-117700000D03*
X154500000Y-97400000D03*
X154500000Y-94700000D03*
X155550000Y-111700000D03*
X155550000Y-114400000D03*
X210150000Y-98525000D03*
X210150000Y-101225000D03*
X210200000Y-117650000D03*
X210200000Y-114950000D03*
X157250000Y-94800000D03*
X157250000Y-97500000D03*
X158650000Y-114400000D03*
X158650000Y-111700000D03*
D13*
X214220000Y-105210000D03*
X211520000Y-105210000D03*
X213380000Y-109370000D03*
X210680000Y-109370000D03*
X162000000Y-101600000D03*
X159300000Y-101600000D03*
X162050000Y-107250000D03*
X159350000Y-107250000D03*
D15*
X169950000Y-112250000D03*
X169950000Y-114950000D03*
D13*
X182400000Y-114950000D03*
X179700000Y-114950000D03*
X179650000Y-109550000D03*
X182350000Y-109550000D03*
D15*
X169950000Y-94500000D03*
X169950000Y-97200000D03*
D13*
X181450000Y-96650000D03*
X178750000Y-96650000D03*
X178800000Y-101050000D03*
X181500000Y-101050000D03*
D15*
X287750000Y-73250000D03*
X287750000Y-75950000D03*
D13*
X274950000Y-73550000D03*
X277650000Y-73550000D03*
X277750000Y-78750000D03*
X275050000Y-78750000D03*
D15*
X288150000Y-92350000D03*
X288150000Y-89650000D03*
D13*
X275100000Y-84950000D03*
X277800000Y-84950000D03*
X277900000Y-89550000D03*
X275200000Y-89550000D03*
D15*
X293600000Y-89750000D03*
X293600000Y-92450000D03*
D13*
X306250000Y-89700000D03*
X303550000Y-89700000D03*
D15*
X293300000Y-75950000D03*
X293300000Y-73250000D03*
D13*
X306000000Y-73400000D03*
X303300000Y-73400000D03*
X303250000Y-78550000D03*
X305950000Y-78550000D03*
D15*
X252550000Y-73500000D03*
X252550000Y-76200000D03*
D13*
X241250000Y-78950000D03*
X243950000Y-78950000D03*
X243340000Y-71170000D03*
X240640000Y-71170000D03*
D15*
X252900000Y-92300000D03*
X252900000Y-89600000D03*
D13*
X240750000Y-89600000D03*
X243450000Y-89600000D03*
X243450000Y-85200000D03*
X240750000Y-85200000D03*
D15*
X258150000Y-92300000D03*
X258150000Y-89600000D03*
D13*
X270750000Y-85100000D03*
X268050000Y-85100000D03*
X268000000Y-89600000D03*
X270700000Y-89600000D03*
D15*
X258050000Y-73450000D03*
X258050000Y-76150000D03*
D13*
X270700000Y-73550000D03*
X268000000Y-73550000D03*
X268050000Y-78900000D03*
X270750000Y-78900000D03*
D15*
X217350000Y-73700000D03*
X217350000Y-76400000D03*
D13*
X205850000Y-73600000D03*
X208550000Y-73600000D03*
X205950000Y-78150000D03*
X208650000Y-78150000D03*
D15*
X217650000Y-93250000D03*
X217650000Y-90550000D03*
D13*
X205800000Y-85950000D03*
X208500000Y-85950000D03*
X208500000Y-90150000D03*
X205800000Y-90150000D03*
D15*
X222700000Y-93250000D03*
X222700000Y-90550000D03*
D13*
X235050000Y-90500000D03*
X232350000Y-90500000D03*
X232300000Y-86450000D03*
X235000000Y-86450000D03*
D15*
X222700000Y-73750000D03*
X222700000Y-76450000D03*
D13*
X234800000Y-79650000D03*
X232100000Y-79650000D03*
X231900000Y-73550000D03*
X234600000Y-73550000D03*
D15*
X183800000Y-74050000D03*
X183800000Y-76750000D03*
D13*
X169750000Y-74100000D03*
X172450000Y-74100000D03*
X172550000Y-80750000D03*
X169850000Y-80750000D03*
D15*
X183950000Y-93800000D03*
X183950000Y-91100000D03*
D13*
X169850000Y-85450000D03*
X172550000Y-85450000D03*
X172800000Y-90800000D03*
X170100000Y-90800000D03*
D15*
X189450000Y-91000000D03*
X189450000Y-93700000D03*
D13*
X199100000Y-89500000D03*
X201800000Y-89500000D03*
X199150000Y-85050000D03*
X201850000Y-85050000D03*
D15*
X189550000Y-76650000D03*
X189550000Y-73950000D03*
D13*
X198900000Y-73700000D03*
X201600000Y-73700000D03*
X199100000Y-78100000D03*
X201800000Y-78100000D03*
D12*
X291950000Y-96225000D03*
X295450000Y-96225000D03*
X295550000Y-100660000D03*
X292050000Y-100660000D03*
X279725000Y-100050000D03*
X283225000Y-100050000D03*
X283175000Y-116525000D03*
X279675000Y-116525000D03*
X228149152Y-115427988D03*
X231649152Y-115427988D03*
X229136000Y-94996000D03*
X232636000Y-94996000D03*
X279725000Y-112500000D03*
X283225000Y-112500000D03*
X231574152Y-112052988D03*
X228074152Y-112052988D03*
X231520000Y-98400000D03*
X228020000Y-98400000D03*
X218050000Y-98325000D03*
X214550000Y-98325000D03*
X218125000Y-116075000D03*
X214625000Y-116075000D03*
X214699152Y-101777988D03*
X218199152Y-101777988D03*
X164550000Y-114350000D03*
X161050000Y-114350000D03*
X214650000Y-112175000D03*
X218150000Y-112175000D03*
X163150000Y-94500000D03*
X159650000Y-94500000D03*
X159650000Y-98050000D03*
X163150000Y-98050000D03*
X161000000Y-110750000D03*
X164500000Y-110750000D03*
D16*
X133268600Y-185250000D03*
X133268600Y-177250000D03*
X121190000Y-174040000D03*
X121190000Y-182040000D03*
D17*
X305110000Y-106150000D03*
X307610000Y-106150000D03*
X263030000Y-102760000D03*
X265530000Y-102760000D03*
X302640000Y-109260000D03*
X300140000Y-109260000D03*
X273940000Y-101880000D03*
X271440000Y-101880000D03*
X263800000Y-107430000D03*
X266300000Y-107430000D03*
X249290000Y-108500000D03*
X246790000Y-108500000D03*
X249450000Y-104680000D03*
X246950000Y-104680000D03*
X274810000Y-108260000D03*
X272310000Y-108260000D03*
X237575000Y-108950000D03*
X240075000Y-108950000D03*
X237575000Y-104850000D03*
X240075000Y-104850000D03*
X200300000Y-104850000D03*
X202800000Y-104850000D03*
X199975000Y-110400000D03*
X202475000Y-110400000D03*
X148316000Y-100750000D03*
X145816000Y-100750000D03*
X149500000Y-108200000D03*
X152000000Y-108200000D03*
X209260000Y-104890000D03*
X206760000Y-104890000D03*
X207450000Y-110460000D03*
X204950000Y-110460000D03*
X154158000Y-101092000D03*
X151658000Y-101092000D03*
X157000000Y-108200000D03*
X154500000Y-108200000D03*
X173000000Y-109750000D03*
X175500000Y-109750000D03*
X173100000Y-114950000D03*
X175600000Y-114950000D03*
X173050000Y-96125000D03*
X175550000Y-96125000D03*
X173000000Y-99600000D03*
X175500000Y-99600000D03*
X284150000Y-78900000D03*
X281650000Y-78900000D03*
X284110000Y-71790000D03*
X281610000Y-71790000D03*
X284150000Y-89350000D03*
X281650000Y-89350000D03*
X284150000Y-84950000D03*
X281650000Y-84950000D03*
X297000000Y-89700000D03*
X299500000Y-89700000D03*
X296672000Y-86106000D03*
X299172000Y-86106000D03*
X296900000Y-78550000D03*
X299400000Y-78550000D03*
X297000000Y-73400000D03*
X299500000Y-73400000D03*
X249450000Y-78950000D03*
X246950000Y-78950000D03*
X248960000Y-71130000D03*
X246460000Y-71130000D03*
X249550000Y-89550000D03*
X247050000Y-89550000D03*
X249500000Y-85200000D03*
X247000000Y-85200000D03*
X262050000Y-89500000D03*
X264550000Y-89500000D03*
X262100000Y-85598000D03*
X264600000Y-85598000D03*
X262500000Y-77470000D03*
X265000000Y-77470000D03*
X262450000Y-73550000D03*
X264950000Y-73550000D03*
X214500000Y-77800000D03*
X212000000Y-77800000D03*
X214480000Y-70690000D03*
X211980000Y-70690000D03*
X214600000Y-90150000D03*
X212100000Y-90150000D03*
X214250000Y-85950000D03*
X211750000Y-85950000D03*
X226400000Y-90500000D03*
X228900000Y-90500000D03*
X226250000Y-86600000D03*
X228750000Y-86600000D03*
X225650000Y-73550000D03*
X228150000Y-73550000D03*
X226450000Y-79650000D03*
X228950000Y-79650000D03*
X178288000Y-75184000D03*
X175788000Y-75184000D03*
X178950000Y-78486000D03*
X176450000Y-78486000D03*
X178796000Y-86614000D03*
X176296000Y-86614000D03*
X179150000Y-90850000D03*
X176650000Y-90850000D03*
D16*
X134132200Y-121504000D03*
X134132200Y-129504000D03*
X134081400Y-86984400D03*
X134081400Y-78984400D03*
X134233800Y-106975200D03*
X134233800Y-114975200D03*
X134132200Y-101005200D03*
X134132200Y-93005200D03*
D18*
X117520600Y-105577200D03*
X117520600Y-101977200D03*
X117520600Y-113749200D03*
X117520600Y-110149200D03*
X117571400Y-121884000D03*
X117571400Y-118284000D03*
X117571400Y-130367600D03*
X117571400Y-126767600D03*
D19*
X111310000Y-86530000D03*
X111310000Y-90530000D03*
X110960000Y-67700000D03*
X110960000Y-71700000D03*
D17*
X192890000Y-86520000D03*
X195390000Y-86520000D03*
X192950000Y-89450000D03*
X195450000Y-89450000D03*
X192700000Y-73750000D03*
X195200000Y-73750000D03*
X193050000Y-78300000D03*
X195550000Y-78300000D03*
M02*
