M48
;DRILL file {KiCad 4.0.7} date 06/13/18 12:32:51
;FORMAT={-:-/ absolute / metric / decimal}
FMAT,2
METRIC,TZ
T1C0.800
T2C0.900
T3C1.000
T4C1.100
T5C3.200
%
G90
G05
M71
T1
X123.31Y-97.3
X124.3Y-196.2
X125.06Y-72.87
X128.849Y-145.506
X128.849Y-148.046
X128.849Y-150.586
X128.849Y-153.126
X128.849Y-155.666
X128.849Y-158.206
X128.849Y-160.746
X128.849Y-163.286
X128.849Y-165.826
X133.66Y-74.38
X136.469Y-145.506
X136.469Y-148.046
X136.469Y-150.586
X136.469Y-153.126
X136.469Y-155.666
X136.469Y-158.206
X136.469Y-160.746
X136.469Y-163.286
X136.469Y-165.826
X136.95Y-188.3
X141.224Y-94.742
X143.764Y-108.458
X143.764Y-114.046
X149.321Y-145.354
X149.321Y-147.894
X149.321Y-150.434
X149.321Y-152.974
X149.321Y-155.514
X149.321Y-158.054
X149.321Y-160.594
X149.321Y-163.134
X149.321Y-165.674
X150.114Y-104.394
X150.114Y-114.046
X153.162Y-104.394
X156.21Y-104.394
X156.941Y-145.354
X156.941Y-147.894
X156.941Y-150.434
X156.941Y-152.974
X156.941Y-155.514
X156.941Y-158.054
X156.941Y-160.594
X156.941Y-163.134
X156.941Y-165.674
X164.87Y-66.064
X169.032Y-145.557
X169.032Y-148.097
X169.032Y-150.637
X169.032Y-153.177
X169.032Y-155.717
X169.032Y-158.257
X169.032Y-160.797
X169.032Y-163.337
X169.032Y-165.877
X173.15Y-104.37
X176.652Y-145.557
X176.652Y-148.097
X176.652Y-150.637
X176.652Y-153.177
X176.652Y-155.717
X176.652Y-158.257
X176.652Y-160.797
X176.652Y-163.337
X176.652Y-165.877
X177.8Y-106.68
X179.578Y-82.296
X181.102Y-74.422
X188.844Y-145.557
X188.844Y-148.097
X188.844Y-150.637
X188.844Y-153.177
X188.844Y-155.717
X188.844Y-158.257
X188.844Y-160.797
X188.844Y-163.337
X188.844Y-165.877
X193.294Y-93.98
X193.91Y-82.76
X196.464Y-145.557
X196.464Y-148.097
X196.464Y-150.637
X196.464Y-153.177
X196.464Y-155.717
X196.464Y-158.257
X196.464Y-160.797
X196.464Y-163.337
X196.464Y-165.877
X204.82Y-107.27
X207.772Y-101.6
X208.656Y-145.608
X208.656Y-148.148
X208.656Y-150.688
X208.656Y-153.228
X208.656Y-155.768
X208.656Y-158.308
X208.656Y-160.848
X208.656Y-163.388
X208.656Y-165.928
X212.344Y-81.28
X214.52Y-74.77
X216.276Y-145.608
X216.276Y-148.148
X216.276Y-150.688
X216.276Y-153.228
X216.276Y-155.768
X216.276Y-158.308
X216.276Y-160.848
X216.276Y-163.388
X216.276Y-165.928
X222.07Y-99.92
X226.06Y-95.25
X226.71Y-83.34
X228.671Y-145.557
X228.671Y-148.097
X228.671Y-150.637
X228.671Y-153.177
X228.671Y-155.717
X228.671Y-158.257
X228.671Y-160.797
X228.671Y-163.337
X228.671Y-165.877
X231.12Y-105.52
X236.291Y-145.557
X236.291Y-148.097
X236.291Y-150.637
X236.291Y-153.177
X236.291Y-155.717
X236.291Y-158.257
X236.291Y-160.797
X236.291Y-163.337
X236.291Y-165.877
X240.13Y-101.93
X242.7Y-108.94
X247.32Y-75.12
X248.229Y-145.658
X248.229Y-148.198
X248.229Y-150.738
X248.229Y-153.278
X248.229Y-155.818
X248.229Y-158.358
X248.229Y-160.898
X248.229Y-163.438
X248.229Y-165.978
X249.936Y-82.042
X255.849Y-145.658
X255.849Y-148.198
X255.849Y-150.738
X255.849Y-153.278
X255.849Y-155.818
X255.849Y-158.358
X255.849Y-160.898
X255.849Y-163.438
X255.849Y-165.978
X259.69Y-96.16
X262.85Y-82.73
X267.635Y-145.658
X267.635Y-148.198
X267.635Y-150.738
X267.635Y-153.278
X267.635Y-155.818
X267.635Y-158.358
X267.635Y-160.898
X267.635Y-163.438
X267.635Y-165.978
X269.11Y-101.94
X272.87Y-104.8
X273.304Y-66.548
X275.255Y-145.658
X275.255Y-148.198
X275.255Y-150.738
X275.255Y-153.278
X275.255Y-155.818
X275.255Y-158.358
X275.255Y-160.898
X275.255Y-163.438
X275.255Y-165.978
X283.57Y-75.17
X284.48Y-81.788
X286.837Y-145.709
X286.837Y-148.249
X286.837Y-150.789
X286.837Y-153.329
X286.837Y-155.869
X286.837Y-158.409
X286.837Y-160.949
X286.837Y-163.489
X286.837Y-166.029
X286.92Y-99.21
X289.306Y-111.76
X294.457Y-145.709
X294.457Y-148.249
X294.457Y-150.789
X294.457Y-153.329
X294.457Y-155.869
X294.457Y-158.409
X294.457Y-160.949
X294.457Y-163.489
X294.457Y-166.029
X297.12Y-92.74
X297.18Y-82.55
X299.974Y-112.522
X309.81Y-78.486
T2
X141.955Y-128.234
X141.955Y-166.842
X141.955Y-174.564
X142.006Y-120.563
X142.006Y-135.956
X142.006Y-143.677
X142.006Y-151.399
X142.006Y-159.12
X142.006Y-182.285
X142.006Y-190.007
X144.495Y-128.234
X144.495Y-166.842
X144.495Y-174.564
X144.546Y-120.563
X144.546Y-135.956
X144.546Y-143.677
X144.546Y-151.399
X144.546Y-159.12
X144.546Y-182.285
X144.546Y-190.007
X161.615Y-174.411
X161.666Y-120.411
X161.666Y-128.132
X161.666Y-135.854
X161.666Y-143.576
X161.666Y-151.297
X161.666Y-159.019
X161.666Y-166.74
X161.666Y-182.133
X161.717Y-189.854
X164.155Y-174.411
X164.206Y-120.411
X164.206Y-128.132
X164.206Y-135.854
X164.206Y-143.576
X164.206Y-151.297
X164.206Y-159.019
X164.206Y-166.74
X164.206Y-182.133
X164.257Y-189.854
X181.427Y-120.512
X181.427Y-128.234
X181.478Y-135.956
X181.478Y-151.399
X181.478Y-166.842
X181.529Y-143.677
X181.529Y-159.12
X181.529Y-174.564
X181.529Y-182.285
X181.529Y-190.007
X183.967Y-120.512
X183.967Y-128.234
X184.018Y-135.956
X184.018Y-151.399
X184.018Y-166.842
X184.069Y-143.677
X184.069Y-159.12
X184.069Y-174.564
X184.069Y-182.285
X184.069Y-190.007
X201.29Y-128.285
X201.341Y-120.512
X201.341Y-135.956
X201.341Y-143.677
X201.341Y-151.399
X201.391Y-159.12
X201.391Y-166.842
X201.391Y-174.564
X201.442Y-182.285
X201.442Y-190.007
X203.83Y-128.285
X203.881Y-120.512
X203.881Y-135.956
X203.881Y-143.677
X203.881Y-151.399
X203.931Y-159.12
X203.931Y-166.842
X203.931Y-174.564
X203.982Y-182.285
X203.982Y-190.007
X221.153Y-128.234
X221.203Y-120.512
X221.203Y-135.956
X221.203Y-143.677
X221.254Y-151.399
X221.254Y-159.12
X221.254Y-166.842
X221.254Y-174.564
X221.305Y-182.285
X221.305Y-190.007
X223.693Y-128.234
X223.743Y-120.512
X223.743Y-135.956
X223.743Y-143.677
X223.794Y-151.399
X223.794Y-159.12
X223.794Y-166.842
X223.794Y-174.564
X223.845Y-182.285
X223.845Y-190.007
X241.015Y-120.512
X241.015Y-128.183
X241.015Y-135.956
X241.066Y-143.677
X241.066Y-151.399
X241.066Y-159.12
X241.117Y-166.842
X241.117Y-174.564
X241.117Y-190.007
X241.168Y-182.285
X243.555Y-120.512
X243.555Y-128.183
X243.555Y-135.956
X243.606Y-143.677
X243.606Y-151.399
X243.606Y-159.12
X243.657Y-166.842
X243.657Y-174.564
X243.657Y-190.007
X243.708Y-182.285
X260.421Y-120.563
X260.472Y-128.285
X260.472Y-136.006
X260.472Y-143.728
X260.523Y-151.45
X260.523Y-159.171
X260.523Y-166.893
X260.523Y-174.614
X260.523Y-190.007
X260.573Y-182.336
X262.961Y-120.563
X263.012Y-128.285
X263.012Y-136.006
X263.012Y-143.728
X263.063Y-151.45
X263.063Y-159.171
X263.063Y-166.893
X263.063Y-174.614
X263.063Y-190.007
X263.113Y-182.336
X279.623Y-120.563
X279.623Y-143.677
X279.674Y-128.234
X279.674Y-159.12
X279.725Y-135.956
X279.725Y-151.399
X279.725Y-166.842
X279.725Y-174.564
X279.725Y-182.285
X279.776Y-190.007
X282.163Y-120.563
X282.163Y-143.677
X282.214Y-128.234
X282.214Y-159.12
X282.265Y-135.956
X282.265Y-151.399
X282.265Y-166.842
X282.265Y-174.564
X282.265Y-182.285
X282.316Y-190.007
X298.826Y-120.614
X298.927Y-128.336
X298.927Y-136.057
X298.927Y-143.779
X298.978Y-151.5
X298.978Y-159.222
X298.978Y-166.944
X298.978Y-174.665
X298.978Y-190.108
X299.029Y-182.387
X301.366Y-120.614
X301.467Y-128.336
X301.467Y-136.057
X301.467Y-143.779
X301.518Y-151.5
X301.518Y-159.222
X301.518Y-166.944
X301.518Y-174.665
X301.518Y-190.108
X301.569Y-182.387
T3
X120.67Y-136.108
X120.67Y-138.648
X120.67Y-141.188
X120.77Y-151.96
X120.77Y-154.5
X120.77Y-157.04
T4
X156.811Y-88.735
X161.811Y-83.735
X166.811Y-88.735
T5
X119.748Y-189.23
X120.113Y-80.683
X152.953Y-120.553
X153.253Y-190.003
X290.45Y-120.7
X290.55Y-190.4
T3
X147.961Y-85.16G85X145.961Y-85.16
G05
X147.961Y-91.16G85X145.961Y-91.16
G05
X151.661Y-87.16G85X151.661Y-89.16
G05
T0
M30
