%FSLAX45Y45*%
G04 Gerber Fmt 4.5, Leading zero omitted, Abs format (unit mm)*
G04 Created by KiCad (PCBNEW 4.0.7) date 06/13/18 12:32:53*
%MOMM*%
%LPD*%
G01*
G04 APERTURE LIST*
%ADD10C,0.127000*%
%ADD11C,0.150000*%
%ADD12C,0.200000*%
%ADD13C,0.300000*%
G04 APERTURE END LIST*
D10*
D11*
X31490000Y-20000000D02*
X30990000Y-20000000D01*
X10990000Y-20000000D02*
X9997000Y-20000000D01*
X9996000Y-6000500D02*
X9997080Y-20000500D01*
X31496000Y-6000000D02*
X9996000Y-6000500D01*
X31491000Y-20000000D02*
X31496000Y-6000000D01*
X10990000Y-20000000D02*
X30990000Y-20000000D01*
D12*
X12291000Y-9690000D02*
X12371000Y-9770000D01*
X12371000Y-9690000D02*
X12291000Y-9770000D01*
X12390000Y-19580000D02*
X12470000Y-19660000D01*
X12470000Y-19580000D02*
X12390000Y-19660000D01*
X12466000Y-7247000D02*
X12546000Y-7327000D01*
X12546000Y-7247000D02*
X12466000Y-7327000D01*
X12844900Y-14510600D02*
X12924900Y-14590600D01*
X12924900Y-14510600D02*
X12844900Y-14590600D01*
X12844900Y-14764600D02*
X12924900Y-14844600D01*
X12924900Y-14764600D02*
X12844900Y-14844600D01*
X12844900Y-15018600D02*
X12924900Y-15098600D01*
X12924900Y-15018600D02*
X12844900Y-15098600D01*
X12844900Y-15272600D02*
X12924900Y-15352600D01*
X12924900Y-15272600D02*
X12844900Y-15352600D01*
X12844900Y-15526600D02*
X12924900Y-15606600D01*
X12924900Y-15526600D02*
X12844900Y-15606600D01*
X12844900Y-15780600D02*
X12924900Y-15860600D01*
X12924900Y-15780600D02*
X12844900Y-15860600D01*
X12844900Y-16034600D02*
X12924900Y-16114600D01*
X12924900Y-16034600D02*
X12844900Y-16114600D01*
X12844900Y-16288600D02*
X12924900Y-16368600D01*
X12924900Y-16288600D02*
X12844900Y-16368600D01*
X12844900Y-16542600D02*
X12924900Y-16622600D01*
X12924900Y-16542600D02*
X12844900Y-16622600D01*
X13326000Y-7398000D02*
X13406000Y-7478000D01*
X13406000Y-7398000D02*
X13326000Y-7478000D01*
X13606900Y-14510600D02*
X13686900Y-14590600D01*
X13686900Y-14510600D02*
X13606900Y-14590600D01*
X13606900Y-14764600D02*
X13686900Y-14844600D01*
X13686900Y-14764600D02*
X13606900Y-14844600D01*
X13606900Y-15018600D02*
X13686900Y-15098600D01*
X13686900Y-15018600D02*
X13606900Y-15098600D01*
X13606900Y-15272600D02*
X13686900Y-15352600D01*
X13686900Y-15272600D02*
X13606900Y-15352600D01*
X13606900Y-15526600D02*
X13686900Y-15606600D01*
X13686900Y-15526600D02*
X13606900Y-15606600D01*
X13606900Y-15780600D02*
X13686900Y-15860600D01*
X13686900Y-15780600D02*
X13606900Y-15860600D01*
X13606900Y-16034600D02*
X13686900Y-16114600D01*
X13686900Y-16034600D02*
X13606900Y-16114600D01*
X13606900Y-16288600D02*
X13686900Y-16368600D01*
X13686900Y-16288600D02*
X13606900Y-16368600D01*
X13606900Y-16542600D02*
X13686900Y-16622600D01*
X13686900Y-16542600D02*
X13606900Y-16622600D01*
X13655000Y-18790000D02*
X13735000Y-18870000D01*
X13735000Y-18790000D02*
X13655000Y-18870000D01*
X14082400Y-9434200D02*
X14162400Y-9514200D01*
X14162400Y-9434200D02*
X14082400Y-9514200D01*
X14336400Y-10805800D02*
X14416400Y-10885800D01*
X14416400Y-10805800D02*
X14336400Y-10885800D01*
X14336400Y-11364600D02*
X14416400Y-11444600D01*
X14416400Y-11364600D02*
X14336400Y-11444600D01*
X14892140Y-14495360D02*
X14972140Y-14575360D01*
X14972140Y-14495360D02*
X14892140Y-14575360D01*
X14892140Y-14749360D02*
X14972140Y-14829360D01*
X14972140Y-14749360D02*
X14892140Y-14829360D01*
X14892140Y-15003360D02*
X14972140Y-15083360D01*
X14972140Y-15003360D02*
X14892140Y-15083360D01*
X14892140Y-15257360D02*
X14972140Y-15337360D01*
X14972140Y-15257360D02*
X14892140Y-15337360D01*
X14892140Y-15511360D02*
X14972140Y-15591360D01*
X14972140Y-15511360D02*
X14892140Y-15591360D01*
X14892140Y-15765360D02*
X14972140Y-15845360D01*
X14972140Y-15765360D02*
X14892140Y-15845360D01*
X14892140Y-16019360D02*
X14972140Y-16099360D01*
X14972140Y-16019360D02*
X14892140Y-16099360D01*
X14892140Y-16273360D02*
X14972140Y-16353360D01*
X14972140Y-16273360D02*
X14892140Y-16353360D01*
X14892140Y-16527360D02*
X14972140Y-16607360D01*
X14972140Y-16527360D02*
X14892140Y-16607360D01*
X14971400Y-10399400D02*
X15051400Y-10479400D01*
X15051400Y-10399400D02*
X14971400Y-10479400D01*
X14971400Y-11364600D02*
X15051400Y-11444600D01*
X15051400Y-11364600D02*
X14971400Y-11444600D01*
X15276200Y-10399400D02*
X15356200Y-10479400D01*
X15356200Y-10399400D02*
X15276200Y-10479400D01*
X15581000Y-10399400D02*
X15661000Y-10479400D01*
X15661000Y-10399400D02*
X15581000Y-10479400D01*
X15654140Y-14495360D02*
X15734140Y-14575360D01*
X15734140Y-14495360D02*
X15654140Y-14575360D01*
X15654140Y-14749360D02*
X15734140Y-14829360D01*
X15734140Y-14749360D02*
X15654140Y-14829360D01*
X15654140Y-15003360D02*
X15734140Y-15083360D01*
X15734140Y-15003360D02*
X15654140Y-15083360D01*
X15654140Y-15257360D02*
X15734140Y-15337360D01*
X15734140Y-15257360D02*
X15654140Y-15337360D01*
X15654140Y-15511360D02*
X15734140Y-15591360D01*
X15734140Y-15511360D02*
X15654140Y-15591360D01*
X15654140Y-15765360D02*
X15734140Y-15845360D01*
X15734140Y-15765360D02*
X15654140Y-15845360D01*
X15654140Y-16019360D02*
X15734140Y-16099360D01*
X15734140Y-16019360D02*
X15654140Y-16099360D01*
X15654140Y-16273360D02*
X15734140Y-16353360D01*
X15734140Y-16273360D02*
X15654140Y-16353360D01*
X15654140Y-16527360D02*
X15734140Y-16607360D01*
X15734140Y-16527360D02*
X15654140Y-16607360D01*
X16447000Y-6566400D02*
X16527000Y-6646400D01*
X16527000Y-6566400D02*
X16447000Y-6646400D01*
X16863180Y-14515680D02*
X16943180Y-14595680D01*
X16943180Y-14515680D02*
X16863180Y-14595680D01*
X16863180Y-14769680D02*
X16943180Y-14849680D01*
X16943180Y-14769680D02*
X16863180Y-14849680D01*
X16863180Y-15023680D02*
X16943180Y-15103680D01*
X16943180Y-15023680D02*
X16863180Y-15103680D01*
X16863180Y-15277680D02*
X16943180Y-15357680D01*
X16943180Y-15277680D02*
X16863180Y-15357680D01*
X16863180Y-15531680D02*
X16943180Y-15611680D01*
X16943180Y-15531680D02*
X16863180Y-15611680D01*
X16863180Y-15785680D02*
X16943180Y-15865680D01*
X16943180Y-15785680D02*
X16863180Y-15865680D01*
X16863180Y-16039680D02*
X16943180Y-16119680D01*
X16943180Y-16039680D02*
X16863180Y-16119680D01*
X16863180Y-16293680D02*
X16943180Y-16373680D01*
X16943180Y-16293680D02*
X16863180Y-16373680D01*
X16863180Y-16547680D02*
X16943180Y-16627680D01*
X16943180Y-16547680D02*
X16863180Y-16627680D01*
X17275000Y-10397000D02*
X17355000Y-10477000D01*
X17355000Y-10397000D02*
X17275000Y-10477000D01*
X17625180Y-14515680D02*
X17705180Y-14595680D01*
X17705180Y-14515680D02*
X17625180Y-14595680D01*
X17625180Y-14769680D02*
X17705180Y-14849680D01*
X17705180Y-14769680D02*
X17625180Y-14849680D01*
X17625180Y-15023680D02*
X17705180Y-15103680D01*
X17705180Y-15023680D02*
X17625180Y-15103680D01*
X17625180Y-15277680D02*
X17705180Y-15357680D01*
X17705180Y-15277680D02*
X17625180Y-15357680D01*
X17625180Y-15531680D02*
X17705180Y-15611680D01*
X17705180Y-15531680D02*
X17625180Y-15611680D01*
X17625180Y-15785680D02*
X17705180Y-15865680D01*
X17705180Y-15785680D02*
X17625180Y-15865680D01*
X17625180Y-16039680D02*
X17705180Y-16119680D01*
X17705180Y-16039680D02*
X17625180Y-16119680D01*
X17625180Y-16293680D02*
X17705180Y-16373680D01*
X17705180Y-16293680D02*
X17625180Y-16373680D01*
X17625180Y-16547680D02*
X17705180Y-16627680D01*
X17705180Y-16547680D02*
X17625180Y-16627680D01*
X17740000Y-10628000D02*
X17820000Y-10708000D01*
X17820000Y-10628000D02*
X17740000Y-10708000D01*
X17917800Y-8189600D02*
X17997800Y-8269600D01*
X17997800Y-8189600D02*
X17917800Y-8269600D01*
X18070200Y-7402200D02*
X18150200Y-7482200D01*
X18150200Y-7402200D02*
X18070200Y-7482200D01*
X18844380Y-14515680D02*
X18924380Y-14595680D01*
X18924380Y-14515680D02*
X18844380Y-14595680D01*
X18844380Y-14769680D02*
X18924380Y-14849680D01*
X18924380Y-14769680D02*
X18844380Y-14849680D01*
X18844380Y-15023680D02*
X18924380Y-15103680D01*
X18924380Y-15023680D02*
X18844380Y-15103680D01*
X18844380Y-15277680D02*
X18924380Y-15357680D01*
X18924380Y-15277680D02*
X18844380Y-15357680D01*
X18844380Y-15531680D02*
X18924380Y-15611680D01*
X18924380Y-15531680D02*
X18844380Y-15611680D01*
X18844380Y-15785680D02*
X18924380Y-15865680D01*
X18924380Y-15785680D02*
X18844380Y-15865680D01*
X18844380Y-16039680D02*
X18924380Y-16119680D01*
X18924380Y-16039680D02*
X18844380Y-16119680D01*
X18844380Y-16293680D02*
X18924380Y-16373680D01*
X18924380Y-16293680D02*
X18844380Y-16373680D01*
X18844380Y-16547680D02*
X18924380Y-16627680D01*
X18924380Y-16547680D02*
X18844380Y-16627680D01*
X19289400Y-9358000D02*
X19369400Y-9438000D01*
X19369400Y-9358000D02*
X19289400Y-9438000D01*
X19351000Y-8236000D02*
X19431000Y-8316000D01*
X19431000Y-8236000D02*
X19351000Y-8316000D01*
X19606380Y-14515680D02*
X19686380Y-14595680D01*
X19686380Y-14515680D02*
X19606380Y-14595680D01*
X19606380Y-14769680D02*
X19686380Y-14849680D01*
X19686380Y-14769680D02*
X19606380Y-14849680D01*
X19606380Y-15023680D02*
X19686380Y-15103680D01*
X19686380Y-15023680D02*
X19606380Y-15103680D01*
X19606380Y-15277680D02*
X19686380Y-15357680D01*
X19686380Y-15277680D02*
X19606380Y-15357680D01*
X19606380Y-15531680D02*
X19686380Y-15611680D01*
X19686380Y-15531680D02*
X19606380Y-15611680D01*
X19606380Y-15785680D02*
X19686380Y-15865680D01*
X19686380Y-15785680D02*
X19606380Y-15865680D01*
X19606380Y-16039680D02*
X19686380Y-16119680D01*
X19686380Y-16039680D02*
X19606380Y-16119680D01*
X19606380Y-16293680D02*
X19686380Y-16373680D01*
X19686380Y-16293680D02*
X19606380Y-16373680D01*
X19606380Y-16547680D02*
X19686380Y-16627680D01*
X19686380Y-16547680D02*
X19606380Y-16627680D01*
X20442000Y-10687000D02*
X20522000Y-10767000D01*
X20522000Y-10687000D02*
X20442000Y-10767000D01*
X20737200Y-10120000D02*
X20817200Y-10200000D01*
X20817200Y-10120000D02*
X20737200Y-10200000D01*
X20825580Y-14520760D02*
X20905580Y-14600760D01*
X20905580Y-14520760D02*
X20825580Y-14600760D01*
X20825580Y-14774760D02*
X20905580Y-14854760D01*
X20905580Y-14774760D02*
X20825580Y-14854760D01*
X20825580Y-15028760D02*
X20905580Y-15108760D01*
X20905580Y-15028760D02*
X20825580Y-15108760D01*
X20825580Y-15282760D02*
X20905580Y-15362760D01*
X20905580Y-15282760D02*
X20825580Y-15362760D01*
X20825580Y-15536760D02*
X20905580Y-15616760D01*
X20905580Y-15536760D02*
X20825580Y-15616760D01*
X20825580Y-15790760D02*
X20905580Y-15870760D01*
X20905580Y-15790760D02*
X20825580Y-15870760D01*
X20825580Y-16044760D02*
X20905580Y-16124760D01*
X20905580Y-16044760D02*
X20825580Y-16124760D01*
X20825580Y-16298760D02*
X20905580Y-16378760D01*
X20905580Y-16298760D02*
X20825580Y-16378760D01*
X20825580Y-16552760D02*
X20905580Y-16632760D01*
X20905580Y-16552760D02*
X20825580Y-16632760D01*
X21194400Y-8088000D02*
X21274400Y-8168000D01*
X21274400Y-8088000D02*
X21194400Y-8168000D01*
X21412000Y-7437000D02*
X21492000Y-7517000D01*
X21492000Y-7437000D02*
X21412000Y-7517000D01*
X21587580Y-14520760D02*
X21667580Y-14600760D01*
X21667580Y-14520760D02*
X21587580Y-14600760D01*
X21587580Y-14774760D02*
X21667580Y-14854760D01*
X21667580Y-14774760D02*
X21587580Y-14854760D01*
X21587580Y-15028760D02*
X21667580Y-15108760D01*
X21667580Y-15028760D02*
X21587580Y-15108760D01*
X21587580Y-15282760D02*
X21667580Y-15362760D01*
X21667580Y-15282760D02*
X21587580Y-15362760D01*
X21587580Y-15536760D02*
X21667580Y-15616760D01*
X21667580Y-15536760D02*
X21587580Y-15616760D01*
X21587580Y-15790760D02*
X21667580Y-15870760D01*
X21667580Y-15790760D02*
X21587580Y-15870760D01*
X21587580Y-16044760D02*
X21667580Y-16124760D01*
X21667580Y-16044760D02*
X21587580Y-16124760D01*
X21587580Y-16298760D02*
X21667580Y-16378760D01*
X21667580Y-16298760D02*
X21587580Y-16378760D01*
X21587580Y-16552760D02*
X21667580Y-16632760D01*
X21667580Y-16552760D02*
X21587580Y-16632760D01*
X22167000Y-9952000D02*
X22247000Y-10032000D01*
X22247000Y-9952000D02*
X22167000Y-10032000D01*
X22566000Y-9485000D02*
X22646000Y-9565000D01*
X22646000Y-9485000D02*
X22566000Y-9565000D01*
X22631000Y-8294000D02*
X22711000Y-8374000D01*
X22711000Y-8294000D02*
X22631000Y-8374000D01*
X22827100Y-14515680D02*
X22907100Y-14595680D01*
X22907100Y-14515680D02*
X22827100Y-14595680D01*
X22827100Y-14769680D02*
X22907100Y-14849680D01*
X22907100Y-14769680D02*
X22827100Y-14849680D01*
X22827100Y-15023680D02*
X22907100Y-15103680D01*
X22907100Y-15023680D02*
X22827100Y-15103680D01*
X22827100Y-15277680D02*
X22907100Y-15357680D01*
X22907100Y-15277680D02*
X22827100Y-15357680D01*
X22827100Y-15531680D02*
X22907100Y-15611680D01*
X22907100Y-15531680D02*
X22827100Y-15611680D01*
X22827100Y-15785680D02*
X22907100Y-15865680D01*
X22907100Y-15785680D02*
X22827100Y-15865680D01*
X22827100Y-16039680D02*
X22907100Y-16119680D01*
X22907100Y-16039680D02*
X22827100Y-16119680D01*
X22827100Y-16293680D02*
X22907100Y-16373680D01*
X22907100Y-16293680D02*
X22827100Y-16373680D01*
X22827100Y-16547680D02*
X22907100Y-16627680D01*
X22907100Y-16547680D02*
X22827100Y-16627680D01*
X23072000Y-10512000D02*
X23152000Y-10592000D01*
X23152000Y-10512000D02*
X23072000Y-10592000D01*
X23589100Y-14515680D02*
X23669100Y-14595680D01*
X23669100Y-14515680D02*
X23589100Y-14595680D01*
X23589100Y-14769680D02*
X23669100Y-14849680D01*
X23669100Y-14769680D02*
X23589100Y-14849680D01*
X23589100Y-15023680D02*
X23669100Y-15103680D01*
X23669100Y-15023680D02*
X23589100Y-15103680D01*
X23589100Y-15277680D02*
X23669100Y-15357680D01*
X23669100Y-15277680D02*
X23589100Y-15357680D01*
X23589100Y-15531680D02*
X23669100Y-15611680D01*
X23669100Y-15531680D02*
X23589100Y-15611680D01*
X23589100Y-15785680D02*
X23669100Y-15865680D01*
X23669100Y-15785680D02*
X23589100Y-15865680D01*
X23589100Y-16039680D02*
X23669100Y-16119680D01*
X23669100Y-16039680D02*
X23589100Y-16119680D01*
X23589100Y-16293680D02*
X23669100Y-16373680D01*
X23669100Y-16293680D02*
X23589100Y-16373680D01*
X23589100Y-16547680D02*
X23669100Y-16627680D01*
X23669100Y-16547680D02*
X23589100Y-16627680D01*
X23973000Y-10153000D02*
X24053000Y-10233000D01*
X24053000Y-10153000D02*
X23973000Y-10233000D01*
X24230000Y-10854000D02*
X24310000Y-10934000D01*
X24310000Y-10854000D02*
X24230000Y-10934000D01*
X24692000Y-7472000D02*
X24772000Y-7552000D01*
X24772000Y-7472000D02*
X24692000Y-7552000D01*
X24782900Y-14525840D02*
X24862900Y-14605840D01*
X24862900Y-14525840D02*
X24782900Y-14605840D01*
X24782900Y-14779840D02*
X24862900Y-14859840D01*
X24862900Y-14779840D02*
X24782900Y-14859840D01*
X24782900Y-15033840D02*
X24862900Y-15113840D01*
X24862900Y-15033840D02*
X24782900Y-15113840D01*
X24782900Y-15287840D02*
X24862900Y-15367840D01*
X24862900Y-15287840D02*
X24782900Y-15367840D01*
X24782900Y-15541840D02*
X24862900Y-15621840D01*
X24862900Y-15541840D02*
X24782900Y-15621840D01*
X24782900Y-15795840D02*
X24862900Y-15875840D01*
X24862900Y-15795840D02*
X24782900Y-15875840D01*
X24782900Y-16049840D02*
X24862900Y-16129840D01*
X24862900Y-16049840D02*
X24782900Y-16129840D01*
X24782900Y-16303840D02*
X24862900Y-16383840D01*
X24862900Y-16303840D02*
X24782900Y-16383840D01*
X24782900Y-16557840D02*
X24862900Y-16637840D01*
X24862900Y-16557840D02*
X24782900Y-16637840D01*
X24953600Y-8164200D02*
X25033600Y-8244200D01*
X25033600Y-8164200D02*
X24953600Y-8244200D01*
X25544900Y-14525840D02*
X25624900Y-14605840D01*
X25624900Y-14525840D02*
X25544900Y-14605840D01*
X25544900Y-14779840D02*
X25624900Y-14859840D01*
X25624900Y-14779840D02*
X25544900Y-14859840D01*
X25544900Y-15033840D02*
X25624900Y-15113840D01*
X25624900Y-15033840D02*
X25544900Y-15113840D01*
X25544900Y-15287840D02*
X25624900Y-15367840D01*
X25624900Y-15287840D02*
X25544900Y-15367840D01*
X25544900Y-15541840D02*
X25624900Y-15621840D01*
X25624900Y-15541840D02*
X25544900Y-15621840D01*
X25544900Y-15795840D02*
X25624900Y-15875840D01*
X25624900Y-15795840D02*
X25544900Y-15875840D01*
X25544900Y-16049840D02*
X25624900Y-16129840D01*
X25624900Y-16049840D02*
X25544900Y-16129840D01*
X25544900Y-16303840D02*
X25624900Y-16383840D01*
X25624900Y-16303840D02*
X25544900Y-16383840D01*
X25544900Y-16557840D02*
X25624900Y-16637840D01*
X25624900Y-16557840D02*
X25544900Y-16637840D01*
X25929000Y-9576000D02*
X26009000Y-9656000D01*
X26009000Y-9576000D02*
X25929000Y-9656000D01*
X26245000Y-8233000D02*
X26325000Y-8313000D01*
X26325000Y-8233000D02*
X26245000Y-8313000D01*
X26723460Y-14525840D02*
X26803460Y-14605840D01*
X26803460Y-14525840D02*
X26723460Y-14605840D01*
X26723460Y-14779840D02*
X26803460Y-14859840D01*
X26803460Y-14779840D02*
X26723460Y-14859840D01*
X26723460Y-15033840D02*
X26803460Y-15113840D01*
X26803460Y-15033840D02*
X26723460Y-15113840D01*
X26723460Y-15287840D02*
X26803460Y-15367840D01*
X26803460Y-15287840D02*
X26723460Y-15367840D01*
X26723460Y-15541840D02*
X26803460Y-15621840D01*
X26803460Y-15541840D02*
X26723460Y-15621840D01*
X26723460Y-15795840D02*
X26803460Y-15875840D01*
X26803460Y-15795840D02*
X26723460Y-15875840D01*
X26723460Y-16049840D02*
X26803460Y-16129840D01*
X26803460Y-16049840D02*
X26723460Y-16129840D01*
X26723460Y-16303840D02*
X26803460Y-16383840D01*
X26803460Y-16303840D02*
X26723460Y-16383840D01*
X26723460Y-16557840D02*
X26803460Y-16637840D01*
X26803460Y-16557840D02*
X26723460Y-16637840D01*
X26871000Y-10154000D02*
X26951000Y-10234000D01*
X26951000Y-10154000D02*
X26871000Y-10234000D01*
X27247000Y-10440000D02*
X27327000Y-10520000D01*
X27327000Y-10440000D02*
X27247000Y-10520000D01*
X27290400Y-6614800D02*
X27370400Y-6694800D01*
X27370400Y-6614800D02*
X27290400Y-6694800D01*
X27485460Y-14525840D02*
X27565460Y-14605840D01*
X27565460Y-14525840D02*
X27485460Y-14605840D01*
X27485460Y-14779840D02*
X27565460Y-14859840D01*
X27565460Y-14779840D02*
X27485460Y-14859840D01*
X27485460Y-15033840D02*
X27565460Y-15113840D01*
X27565460Y-15033840D02*
X27485460Y-15113840D01*
X27485460Y-15287840D02*
X27565460Y-15367840D01*
X27565460Y-15287840D02*
X27485460Y-15367840D01*
X27485460Y-15541840D02*
X27565460Y-15621840D01*
X27565460Y-15541840D02*
X27485460Y-15621840D01*
X27485460Y-15795840D02*
X27565460Y-15875840D01*
X27565460Y-15795840D02*
X27485460Y-15875840D01*
X27485460Y-16049840D02*
X27565460Y-16129840D01*
X27565460Y-16049840D02*
X27485460Y-16129840D01*
X27485460Y-16303840D02*
X27565460Y-16383840D01*
X27565460Y-16303840D02*
X27485460Y-16383840D01*
X27485460Y-16557840D02*
X27565460Y-16637840D01*
X27565460Y-16557840D02*
X27485460Y-16637840D01*
X28317000Y-7477000D02*
X28397000Y-7557000D01*
X28397000Y-7477000D02*
X28317000Y-7557000D01*
X28408000Y-8138800D02*
X28488000Y-8218800D01*
X28488000Y-8138800D02*
X28408000Y-8218800D01*
X28643700Y-14530920D02*
X28723700Y-14610920D01*
X28723700Y-14530920D02*
X28643700Y-14610920D01*
X28643700Y-14784920D02*
X28723700Y-14864920D01*
X28723700Y-14784920D02*
X28643700Y-14864920D01*
X28643700Y-15038920D02*
X28723700Y-15118920D01*
X28723700Y-15038920D02*
X28643700Y-15118920D01*
X28643700Y-15292920D02*
X28723700Y-15372920D01*
X28723700Y-15292920D02*
X28643700Y-15372920D01*
X28643700Y-15546920D02*
X28723700Y-15626920D01*
X28723700Y-15546920D02*
X28643700Y-15626920D01*
X28643700Y-15800920D02*
X28723700Y-15880920D01*
X28723700Y-15800920D02*
X28643700Y-15880920D01*
X28643700Y-16054920D02*
X28723700Y-16134920D01*
X28723700Y-16054920D02*
X28643700Y-16134920D01*
X28643700Y-16308920D02*
X28723700Y-16388920D01*
X28723700Y-16308920D02*
X28643700Y-16388920D01*
X28643700Y-16562920D02*
X28723700Y-16642920D01*
X28723700Y-16562920D02*
X28643700Y-16642920D01*
X28652000Y-9881000D02*
X28732000Y-9961000D01*
X28732000Y-9881000D02*
X28652000Y-9961000D01*
X28890600Y-11136000D02*
X28970600Y-11216000D01*
X28970600Y-11136000D02*
X28890600Y-11216000D01*
X29405700Y-14530920D02*
X29485700Y-14610920D01*
X29485700Y-14530920D02*
X29405700Y-14610920D01*
X29405700Y-14784920D02*
X29485700Y-14864920D01*
X29485700Y-14784920D02*
X29405700Y-14864920D01*
X29405700Y-15038920D02*
X29485700Y-15118920D01*
X29485700Y-15038920D02*
X29405700Y-15118920D01*
X29405700Y-15292920D02*
X29485700Y-15372920D01*
X29485700Y-15292920D02*
X29405700Y-15372920D01*
X29405700Y-15546920D02*
X29485700Y-15626920D01*
X29485700Y-15546920D02*
X29405700Y-15626920D01*
X29405700Y-15800920D02*
X29485700Y-15880920D01*
X29485700Y-15800920D02*
X29405700Y-15880920D01*
X29405700Y-16054920D02*
X29485700Y-16134920D01*
X29485700Y-16054920D02*
X29405700Y-16134920D01*
X29405700Y-16308920D02*
X29485700Y-16388920D01*
X29485700Y-16308920D02*
X29405700Y-16388920D01*
X29405700Y-16562920D02*
X29485700Y-16642920D01*
X29485700Y-16562920D02*
X29405700Y-16642920D01*
X29672000Y-9234000D02*
X29752000Y-9314000D01*
X29752000Y-9234000D02*
X29672000Y-9314000D01*
X29678000Y-8215000D02*
X29758000Y-8295000D01*
X29758000Y-8215000D02*
X29678000Y-8295000D01*
X29957400Y-11212200D02*
X30037400Y-11292200D01*
X30037400Y-11212200D02*
X29957400Y-11292200D01*
X30941000Y-7808600D02*
X31021000Y-7888600D01*
X31021000Y-7808600D02*
X30941000Y-7888600D01*
X14240540Y-12823400D02*
G75*
G03X14240540Y-12823400I-45000J0D01*
G01*
X14240540Y-16684200D02*
G75*
G03X14240540Y-16684200I-45000J0D01*
G01*
X14240540Y-17456360D02*
G75*
G03X14240540Y-17456360I-45000J0D01*
G01*
X14245620Y-12056320D02*
G75*
G03X14245620Y-12056320I-45000J0D01*
G01*
X14245620Y-13595560D02*
G75*
G03X14245620Y-13595560I-45000J0D01*
G01*
X14245620Y-14367720D02*
G75*
G03X14245620Y-14367720I-45000J0D01*
G01*
X14245620Y-15139880D02*
G75*
G03X14245620Y-15139880I-45000J0D01*
G01*
X14245620Y-15912040D02*
G75*
G03X14245620Y-15912040I-45000J0D01*
G01*
X14245620Y-18228520D02*
G75*
G03X14245620Y-18228520I-45000J0D01*
G01*
X14245620Y-19000680D02*
G75*
G03X14245620Y-19000680I-45000J0D01*
G01*
X14494540Y-12823400D02*
G75*
G03X14494540Y-12823400I-45000J0D01*
G01*
X14494540Y-16684200D02*
G75*
G03X14494540Y-16684200I-45000J0D01*
G01*
X14494540Y-17456360D02*
G75*
G03X14494540Y-17456360I-45000J0D01*
G01*
X14499620Y-12056320D02*
G75*
G03X14499620Y-12056320I-45000J0D01*
G01*
X14499620Y-13595560D02*
G75*
G03X14499620Y-13595560I-45000J0D01*
G01*
X14499620Y-14367720D02*
G75*
G03X14499620Y-14367720I-45000J0D01*
G01*
X14499620Y-15139880D02*
G75*
G03X14499620Y-15139880I-45000J0D01*
G01*
X14499620Y-15912040D02*
G75*
G03X14499620Y-15912040I-45000J0D01*
G01*
X14499620Y-18228520D02*
G75*
G03X14499620Y-18228520I-45000J0D01*
G01*
X14499620Y-19000680D02*
G75*
G03X14499620Y-19000680I-45000J0D01*
G01*
X16206500Y-17441120D02*
G75*
G03X16206500Y-17441120I-45000J0D01*
G01*
X16211580Y-12041080D02*
G75*
G03X16211580Y-12041080I-45000J0D01*
G01*
X16211580Y-12813240D02*
G75*
G03X16211580Y-12813240I-45000J0D01*
G01*
X16211580Y-13585400D02*
G75*
G03X16211580Y-13585400I-45000J0D01*
G01*
X16211580Y-14357560D02*
G75*
G03X16211580Y-14357560I-45000J0D01*
G01*
X16211580Y-15129720D02*
G75*
G03X16211580Y-15129720I-45000J0D01*
G01*
X16211580Y-15901880D02*
G75*
G03X16211580Y-15901880I-45000J0D01*
G01*
X16211580Y-16674040D02*
G75*
G03X16211580Y-16674040I-45000J0D01*
G01*
X16211580Y-18213280D02*
G75*
G03X16211580Y-18213280I-45000J0D01*
G01*
X16216660Y-18985440D02*
G75*
G03X16216660Y-18985440I-45000J0D01*
G01*
X16460500Y-17441120D02*
G75*
G03X16460500Y-17441120I-45000J0D01*
G01*
X16465580Y-12041080D02*
G75*
G03X16465580Y-12041080I-45000J0D01*
G01*
X16465580Y-12813240D02*
G75*
G03X16465580Y-12813240I-45000J0D01*
G01*
X16465580Y-13585400D02*
G75*
G03X16465580Y-13585400I-45000J0D01*
G01*
X16465580Y-14357560D02*
G75*
G03X16465580Y-14357560I-45000J0D01*
G01*
X16465580Y-15129720D02*
G75*
G03X16465580Y-15129720I-45000J0D01*
G01*
X16465580Y-15901880D02*
G75*
G03X16465580Y-15901880I-45000J0D01*
G01*
X16465580Y-16674040D02*
G75*
G03X16465580Y-16674040I-45000J0D01*
G01*
X16465580Y-18213280D02*
G75*
G03X16465580Y-18213280I-45000J0D01*
G01*
X16470660Y-18985440D02*
G75*
G03X16470660Y-18985440I-45000J0D01*
G01*
X18187700Y-12051240D02*
G75*
G03X18187700Y-12051240I-45000J0D01*
G01*
X18187700Y-12823400D02*
G75*
G03X18187700Y-12823400I-45000J0D01*
G01*
X18192780Y-13595560D02*
G75*
G03X18192780Y-13595560I-45000J0D01*
G01*
X18192780Y-15139880D02*
G75*
G03X18192780Y-15139880I-45000J0D01*
G01*
X18192780Y-16684200D02*
G75*
G03X18192780Y-16684200I-45000J0D01*
G01*
X18197860Y-14367720D02*
G75*
G03X18197860Y-14367720I-45000J0D01*
G01*
X18197860Y-15912040D02*
G75*
G03X18197860Y-15912040I-45000J0D01*
G01*
X18197860Y-17456360D02*
G75*
G03X18197860Y-17456360I-45000J0D01*
G01*
X18197860Y-18228520D02*
G75*
G03X18197860Y-18228520I-45000J0D01*
G01*
X18197860Y-19000680D02*
G75*
G03X18197860Y-19000680I-45000J0D01*
G01*
X18441700Y-12051240D02*
G75*
G03X18441700Y-12051240I-45000J0D01*
G01*
X18441700Y-12823400D02*
G75*
G03X18441700Y-12823400I-45000J0D01*
G01*
X18446780Y-13595560D02*
G75*
G03X18446780Y-13595560I-45000J0D01*
G01*
X18446780Y-15139880D02*
G75*
G03X18446780Y-15139880I-45000J0D01*
G01*
X18446780Y-16684200D02*
G75*
G03X18446780Y-16684200I-45000J0D01*
G01*
X18451860Y-14367720D02*
G75*
G03X18451860Y-14367720I-45000J0D01*
G01*
X18451860Y-15912040D02*
G75*
G03X18451860Y-15912040I-45000J0D01*
G01*
X18451860Y-17456360D02*
G75*
G03X18451860Y-17456360I-45000J0D01*
G01*
X18451860Y-18228520D02*
G75*
G03X18451860Y-18228520I-45000J0D01*
G01*
X18451860Y-19000680D02*
G75*
G03X18451860Y-19000680I-45000J0D01*
G01*
X20173980Y-12828480D02*
G75*
G03X20173980Y-12828480I-45000J0D01*
G01*
X20179060Y-12051240D02*
G75*
G03X20179060Y-12051240I-45000J0D01*
G01*
X20179060Y-13595560D02*
G75*
G03X20179060Y-13595560I-45000J0D01*
G01*
X20179060Y-14367720D02*
G75*
G03X20179060Y-14367720I-45000J0D01*
G01*
X20179060Y-15139880D02*
G75*
G03X20179060Y-15139880I-45000J0D01*
G01*
X20184140Y-15912040D02*
G75*
G03X20184140Y-15912040I-45000J0D01*
G01*
X20184140Y-16684200D02*
G75*
G03X20184140Y-16684200I-45000J0D01*
G01*
X20184140Y-17456360D02*
G75*
G03X20184140Y-17456360I-45000J0D01*
G01*
X20189220Y-18228520D02*
G75*
G03X20189220Y-18228520I-45000J0D01*
G01*
X20189220Y-19000680D02*
G75*
G03X20189220Y-19000680I-45000J0D01*
G01*
X20427980Y-12828480D02*
G75*
G03X20427980Y-12828480I-45000J0D01*
G01*
X20433060Y-12051240D02*
G75*
G03X20433060Y-12051240I-45000J0D01*
G01*
X20433060Y-13595560D02*
G75*
G03X20433060Y-13595560I-45000J0D01*
G01*
X20433060Y-14367720D02*
G75*
G03X20433060Y-14367720I-45000J0D01*
G01*
X20433060Y-15139880D02*
G75*
G03X20433060Y-15139880I-45000J0D01*
G01*
X20438140Y-15912040D02*
G75*
G03X20438140Y-15912040I-45000J0D01*
G01*
X20438140Y-16684200D02*
G75*
G03X20438140Y-16684200I-45000J0D01*
G01*
X20438140Y-17456360D02*
G75*
G03X20438140Y-17456360I-45000J0D01*
G01*
X20443220Y-18228520D02*
G75*
G03X20443220Y-18228520I-45000J0D01*
G01*
X20443220Y-19000680D02*
G75*
G03X20443220Y-19000680I-45000J0D01*
G01*
X22160260Y-12823400D02*
G75*
G03X22160260Y-12823400I-45000J0D01*
G01*
X22165340Y-12051240D02*
G75*
G03X22165340Y-12051240I-45000J0D01*
G01*
X22165340Y-13595560D02*
G75*
G03X22165340Y-13595560I-45000J0D01*
G01*
X22165340Y-14367720D02*
G75*
G03X22165340Y-14367720I-45000J0D01*
G01*
X22170420Y-15139880D02*
G75*
G03X22170420Y-15139880I-45000J0D01*
G01*
X22170420Y-15912040D02*
G75*
G03X22170420Y-15912040I-45000J0D01*
G01*
X22170420Y-16684200D02*
G75*
G03X22170420Y-16684200I-45000J0D01*
G01*
X22170420Y-17456360D02*
G75*
G03X22170420Y-17456360I-45000J0D01*
G01*
X22175500Y-18228520D02*
G75*
G03X22175500Y-18228520I-45000J0D01*
G01*
X22175500Y-19000680D02*
G75*
G03X22175500Y-19000680I-45000J0D01*
G01*
X22414260Y-12823400D02*
G75*
G03X22414260Y-12823400I-45000J0D01*
G01*
X22419340Y-12051240D02*
G75*
G03X22419340Y-12051240I-45000J0D01*
G01*
X22419340Y-13595560D02*
G75*
G03X22419340Y-13595560I-45000J0D01*
G01*
X22419340Y-14367720D02*
G75*
G03X22419340Y-14367720I-45000J0D01*
G01*
X22424420Y-15139880D02*
G75*
G03X22424420Y-15139880I-45000J0D01*
G01*
X22424420Y-15912040D02*
G75*
G03X22424420Y-15912040I-45000J0D01*
G01*
X22424420Y-16684200D02*
G75*
G03X22424420Y-16684200I-45000J0D01*
G01*
X22424420Y-17456360D02*
G75*
G03X22424420Y-17456360I-45000J0D01*
G01*
X22429500Y-18228520D02*
G75*
G03X22429500Y-18228520I-45000J0D01*
G01*
X22429500Y-19000680D02*
G75*
G03X22429500Y-19000680I-45000J0D01*
G01*
X24146540Y-12051240D02*
G75*
G03X24146540Y-12051240I-45000J0D01*
G01*
X24146540Y-12818320D02*
G75*
G03X24146540Y-12818320I-45000J0D01*
G01*
X24146540Y-13595560D02*
G75*
G03X24146540Y-13595560I-45000J0D01*
G01*
X24151620Y-14367720D02*
G75*
G03X24151620Y-14367720I-45000J0D01*
G01*
X24151620Y-15139880D02*
G75*
G03X24151620Y-15139880I-45000J0D01*
G01*
X24151620Y-15912040D02*
G75*
G03X24151620Y-15912040I-45000J0D01*
G01*
X24156700Y-16684200D02*
G75*
G03X24156700Y-16684200I-45000J0D01*
G01*
X24156700Y-17456360D02*
G75*
G03X24156700Y-17456360I-45000J0D01*
G01*
X24156700Y-19000680D02*
G75*
G03X24156700Y-19000680I-45000J0D01*
G01*
X24161780Y-18228520D02*
G75*
G03X24161780Y-18228520I-45000J0D01*
G01*
X24400540Y-12051240D02*
G75*
G03X24400540Y-12051240I-45000J0D01*
G01*
X24400540Y-12818320D02*
G75*
G03X24400540Y-12818320I-45000J0D01*
G01*
X24400540Y-13595560D02*
G75*
G03X24400540Y-13595560I-45000J0D01*
G01*
X24405620Y-14367720D02*
G75*
G03X24405620Y-14367720I-45000J0D01*
G01*
X24405620Y-15139880D02*
G75*
G03X24405620Y-15139880I-45000J0D01*
G01*
X24405620Y-15912040D02*
G75*
G03X24405620Y-15912040I-45000J0D01*
G01*
X24410700Y-16684200D02*
G75*
G03X24410700Y-16684200I-45000J0D01*
G01*
X24410700Y-17456360D02*
G75*
G03X24410700Y-17456360I-45000J0D01*
G01*
X24410700Y-19000680D02*
G75*
G03X24410700Y-19000680I-45000J0D01*
G01*
X24415780Y-18228520D02*
G75*
G03X24415780Y-18228520I-45000J0D01*
G01*
X26087100Y-12056320D02*
G75*
G03X26087100Y-12056320I-45000J0D01*
G01*
X26092180Y-12828480D02*
G75*
G03X26092180Y-12828480I-45000J0D01*
G01*
X26092180Y-13600640D02*
G75*
G03X26092180Y-13600640I-45000J0D01*
G01*
X26092180Y-14372800D02*
G75*
G03X26092180Y-14372800I-45000J0D01*
G01*
X26097260Y-15144960D02*
G75*
G03X26097260Y-15144960I-45000J0D01*
G01*
X26097260Y-15917120D02*
G75*
G03X26097260Y-15917120I-45000J0D01*
G01*
X26097260Y-16689280D02*
G75*
G03X26097260Y-16689280I-45000J0D01*
G01*
X26097260Y-17461440D02*
G75*
G03X26097260Y-17461440I-45000J0D01*
G01*
X26097260Y-19000680D02*
G75*
G03X26097260Y-19000680I-45000J0D01*
G01*
X26102340Y-18233600D02*
G75*
G03X26102340Y-18233600I-45000J0D01*
G01*
X26341100Y-12056320D02*
G75*
G03X26341100Y-12056320I-45000J0D01*
G01*
X26346180Y-12828480D02*
G75*
G03X26346180Y-12828480I-45000J0D01*
G01*
X26346180Y-13600640D02*
G75*
G03X26346180Y-13600640I-45000J0D01*
G01*
X26346180Y-14372800D02*
G75*
G03X26346180Y-14372800I-45000J0D01*
G01*
X26351260Y-15144960D02*
G75*
G03X26351260Y-15144960I-45000J0D01*
G01*
X26351260Y-15917120D02*
G75*
G03X26351260Y-15917120I-45000J0D01*
G01*
X26351260Y-16689280D02*
G75*
G03X26351260Y-16689280I-45000J0D01*
G01*
X26351260Y-17461440D02*
G75*
G03X26351260Y-17461440I-45000J0D01*
G01*
X26351260Y-19000680D02*
G75*
G03X26351260Y-19000680I-45000J0D01*
G01*
X26356340Y-18233600D02*
G75*
G03X26356340Y-18233600I-45000J0D01*
G01*
X28007340Y-12056320D02*
G75*
G03X28007340Y-12056320I-45000J0D01*
G01*
X28007340Y-14367720D02*
G75*
G03X28007340Y-14367720I-45000J0D01*
G01*
X28012420Y-12823400D02*
G75*
G03X28012420Y-12823400I-45000J0D01*
G01*
X28012420Y-15912040D02*
G75*
G03X28012420Y-15912040I-45000J0D01*
G01*
X28017500Y-13595560D02*
G75*
G03X28017500Y-13595560I-45000J0D01*
G01*
X28017500Y-15139880D02*
G75*
G03X28017500Y-15139880I-45000J0D01*
G01*
X28017500Y-16684200D02*
G75*
G03X28017500Y-16684200I-45000J0D01*
G01*
X28017500Y-17456360D02*
G75*
G03X28017500Y-17456360I-45000J0D01*
G01*
X28017500Y-18228520D02*
G75*
G03X28017500Y-18228520I-45000J0D01*
G01*
X28022580Y-19000680D02*
G75*
G03X28022580Y-19000680I-45000J0D01*
G01*
X28261340Y-12056320D02*
G75*
G03X28261340Y-12056320I-45000J0D01*
G01*
X28261340Y-14367720D02*
G75*
G03X28261340Y-14367720I-45000J0D01*
G01*
X28266420Y-12823400D02*
G75*
G03X28266420Y-12823400I-45000J0D01*
G01*
X28266420Y-15912040D02*
G75*
G03X28266420Y-15912040I-45000J0D01*
G01*
X28271500Y-13595560D02*
G75*
G03X28271500Y-13595560I-45000J0D01*
G01*
X28271500Y-15139880D02*
G75*
G03X28271500Y-15139880I-45000J0D01*
G01*
X28271500Y-16684200D02*
G75*
G03X28271500Y-16684200I-45000J0D01*
G01*
X28271500Y-17456360D02*
G75*
G03X28271500Y-17456360I-45000J0D01*
G01*
X28271500Y-18228520D02*
G75*
G03X28271500Y-18228520I-45000J0D01*
G01*
X28276580Y-19000680D02*
G75*
G03X28276580Y-19000680I-45000J0D01*
G01*
X29927580Y-12061400D02*
G75*
G03X29927580Y-12061400I-45000J0D01*
G01*
X29937740Y-12833560D02*
G75*
G03X29937740Y-12833560I-45000J0D01*
G01*
X29937740Y-13605720D02*
G75*
G03X29937740Y-13605720I-45000J0D01*
G01*
X29937740Y-14377880D02*
G75*
G03X29937740Y-14377880I-45000J0D01*
G01*
X29942820Y-15150040D02*
G75*
G03X29942820Y-15150040I-45000J0D01*
G01*
X29942820Y-15922200D02*
G75*
G03X29942820Y-15922200I-45000J0D01*
G01*
X29942820Y-16694360D02*
G75*
G03X29942820Y-16694360I-45000J0D01*
G01*
X29942820Y-17466520D02*
G75*
G03X29942820Y-17466520I-45000J0D01*
G01*
X29942820Y-19010840D02*
G75*
G03X29942820Y-19010840I-45000J0D01*
G01*
X29947900Y-18238680D02*
G75*
G03X29947900Y-18238680I-45000J0D01*
G01*
X30181580Y-12061400D02*
G75*
G03X30181580Y-12061400I-45000J0D01*
G01*
X30191740Y-12833560D02*
G75*
G03X30191740Y-12833560I-45000J0D01*
G01*
X30191740Y-13605720D02*
G75*
G03X30191740Y-13605720I-45000J0D01*
G01*
X30191740Y-14377880D02*
G75*
G03X30191740Y-14377880I-45000J0D01*
G01*
X30196820Y-15150040D02*
G75*
G03X30196820Y-15150040I-45000J0D01*
G01*
X30196820Y-15922200D02*
G75*
G03X30196820Y-15922200I-45000J0D01*
G01*
X30196820Y-16694360D02*
G75*
G03X30196820Y-16694360I-45000J0D01*
G01*
X30196820Y-17466520D02*
G75*
G03X30196820Y-17466520I-45000J0D01*
G01*
X30196820Y-19010840D02*
G75*
G03X30196820Y-19010840I-45000J0D01*
G01*
X30201900Y-18238680D02*
G75*
G03X30201900Y-18238680I-45000J0D01*
G01*
X12067020Y-13560800D02*
X12067020Y-13660800D01*
X12017020Y-13610800D02*
X12117020Y-13610800D01*
X12067020Y-13814800D02*
X12067020Y-13914800D01*
X12017020Y-13864800D02*
X12117020Y-13864800D01*
X12067020Y-14068800D02*
X12067020Y-14168800D01*
X12017020Y-14118800D02*
X12117020Y-14118800D01*
X12077000Y-15146000D02*
X12077000Y-15246000D01*
X12027000Y-15196000D02*
X12127000Y-15196000D01*
X12077000Y-15400000D02*
X12077000Y-15500000D01*
X12027000Y-15450000D02*
X12127000Y-15450000D01*
X12077000Y-15654000D02*
X12077000Y-15754000D01*
X12027000Y-15704000D02*
X12127000Y-15704000D01*
X14696100Y-8466000D02*
X14696100Y-8566000D01*
X14646100Y-8516000D02*
X14746100Y-8516000D01*
X14796100Y-8476000D02*
X14596100Y-8476000D01*
X14796100Y-8556000D02*
X14596100Y-8556000D01*
X14596100Y-8476000D02*
G75*
G03X14596100Y-8556000I0J-40000D01*
G01*
X14796100Y-8556000D02*
G75*
G03X14796100Y-8476000I0J40000D01*
G01*
X14696100Y-9066000D02*
X14696100Y-9166000D01*
X14646100Y-9116000D02*
X14746100Y-9116000D01*
X14796100Y-9076000D02*
X14596100Y-9076000D01*
X14796100Y-9156000D02*
X14596100Y-9156000D01*
X14596100Y-9076000D02*
G75*
G03X14596100Y-9156000I0J-40000D01*
G01*
X14796100Y-9156000D02*
G75*
G03X14796100Y-9076000I0J40000D01*
G01*
X15166100Y-8766000D02*
X15166100Y-8866000D01*
X15116100Y-8816000D02*
X15216100Y-8816000D01*
X15126100Y-8716000D02*
X15126100Y-8916000D01*
X15206100Y-8716000D02*
X15206100Y-8916000D01*
X15126100Y-8916000D02*
G75*
G03X15206100Y-8916000I40000J0D01*
G01*
X15206100Y-8716000D02*
G75*
G03X15126100Y-8716000I-40000J0D01*
G01*
X15719991Y-8912391D02*
X15719991Y-8834609D01*
X15642209Y-8834609D01*
X15642209Y-8912391D01*
X15719991Y-8912391D01*
X16219991Y-8412391D02*
X16219991Y-8334609D01*
X16142209Y-8334609D01*
X16142209Y-8412391D01*
X16219991Y-8412391D01*
X16719991Y-8912391D02*
X16719991Y-8834609D01*
X16642209Y-8834609D01*
X16642209Y-8912391D01*
X16719991Y-8912391D01*
X11974800Y-19083000D02*
X12134800Y-18923000D01*
X11974800Y-18763000D01*
X11814800Y-18923000D01*
X11974800Y-19083000D01*
X12011294Y-8228294D02*
X12171294Y-8068294D01*
X12011294Y-7908294D01*
X11851294Y-8068294D01*
X12011294Y-8228294D01*
X15295294Y-12215294D02*
X15455294Y-12055294D01*
X15295294Y-11895294D01*
X15135294Y-12055294D01*
X15295294Y-12215294D01*
X15325294Y-19160294D02*
X15485294Y-19000294D01*
X15325294Y-18840294D01*
X15165294Y-19000294D01*
X15325294Y-19160294D01*
X29045000Y-12230000D02*
X29205000Y-12070000D01*
X29045000Y-11910000D01*
X28885000Y-12070000D01*
X29045000Y-12230000D01*
X29055000Y-19200000D02*
X29215000Y-19040000D01*
X29055000Y-18880000D01*
X28895000Y-19040000D01*
X29055000Y-19200000D01*
D13*
X10259929Y-20473714D02*
X10259929Y-20173714D01*
X10331357Y-20173714D01*
X10374214Y-20188000D01*
X10402786Y-20216572D01*
X10417071Y-20245143D01*
X10431357Y-20302286D01*
X10431357Y-20345143D01*
X10417071Y-20402286D01*
X10402786Y-20430857D01*
X10374214Y-20459429D01*
X10331357Y-20473714D01*
X10259929Y-20473714D01*
X10559929Y-20473714D02*
X10559929Y-20273714D01*
X10559929Y-20330857D02*
X10574214Y-20302286D01*
X10588500Y-20288000D01*
X10617071Y-20273714D01*
X10645643Y-20273714D01*
X10745643Y-20473714D02*
X10745643Y-20273714D01*
X10745643Y-20173714D02*
X10731357Y-20188000D01*
X10745643Y-20202286D01*
X10759929Y-20188000D01*
X10745643Y-20173714D01*
X10745643Y-20202286D01*
X10931357Y-20473714D02*
X10902786Y-20459429D01*
X10888500Y-20430857D01*
X10888500Y-20173714D01*
X11088500Y-20473714D02*
X11059929Y-20459429D01*
X11045643Y-20430857D01*
X11045643Y-20173714D01*
X11431357Y-20473714D02*
X11431357Y-20173714D01*
X11531357Y-20388000D01*
X11631357Y-20173714D01*
X11631357Y-20473714D01*
X11902786Y-20473714D02*
X11902786Y-20316572D01*
X11888500Y-20288000D01*
X11859928Y-20273714D01*
X11802786Y-20273714D01*
X11774214Y-20288000D01*
X11902786Y-20459429D02*
X11874214Y-20473714D01*
X11802786Y-20473714D01*
X11774214Y-20459429D01*
X11759928Y-20430857D01*
X11759928Y-20402286D01*
X11774214Y-20373714D01*
X11802786Y-20359429D01*
X11874214Y-20359429D01*
X11902786Y-20345143D01*
X12045643Y-20273714D02*
X12045643Y-20573714D01*
X12045643Y-20288000D02*
X12074214Y-20273714D01*
X12131357Y-20273714D01*
X12159928Y-20288000D01*
X12174214Y-20302286D01*
X12188500Y-20330857D01*
X12188500Y-20416572D01*
X12174214Y-20445143D01*
X12159928Y-20459429D01*
X12131357Y-20473714D01*
X12074214Y-20473714D01*
X12045643Y-20459429D01*
X12317071Y-20445143D02*
X12331357Y-20459429D01*
X12317071Y-20473714D01*
X12302786Y-20459429D01*
X12317071Y-20445143D01*
X12317071Y-20473714D01*
X12317071Y-20288000D02*
X12331357Y-20302286D01*
X12317071Y-20316572D01*
X12302786Y-20302286D01*
X12317071Y-20288000D01*
X12317071Y-20316572D01*
X9908500Y-20928000D02*
X9988500Y-21008000D01*
X9988500Y-20928000D02*
X9908500Y-21008000D01*
X10317071Y-20803714D02*
X10345643Y-20803714D01*
X10374214Y-20818000D01*
X10388500Y-20832286D01*
X10402786Y-20860857D01*
X10417071Y-20918000D01*
X10417071Y-20989429D01*
X10402786Y-21046572D01*
X10388500Y-21075143D01*
X10374214Y-21089429D01*
X10345643Y-21103714D01*
X10317071Y-21103714D01*
X10288500Y-21089429D01*
X10274214Y-21075143D01*
X10259929Y-21046572D01*
X10245643Y-20989429D01*
X10245643Y-20918000D01*
X10259929Y-20860857D01*
X10274214Y-20832286D01*
X10288500Y-20818000D01*
X10317071Y-20803714D01*
X10545643Y-21075143D02*
X10559929Y-21089429D01*
X10545643Y-21103714D01*
X10531357Y-21089429D01*
X10545643Y-21075143D01*
X10545643Y-21103714D01*
X10731357Y-20932286D02*
X10702786Y-20918000D01*
X10688500Y-20903714D01*
X10674214Y-20875143D01*
X10674214Y-20860857D01*
X10688500Y-20832286D01*
X10702786Y-20818000D01*
X10731357Y-20803714D01*
X10788500Y-20803714D01*
X10817071Y-20818000D01*
X10831357Y-20832286D01*
X10845643Y-20860857D01*
X10845643Y-20875143D01*
X10831357Y-20903714D01*
X10817071Y-20918000D01*
X10788500Y-20932286D01*
X10731357Y-20932286D01*
X10702786Y-20946572D01*
X10688500Y-20960857D01*
X10674214Y-20989429D01*
X10674214Y-21046572D01*
X10688500Y-21075143D01*
X10702786Y-21089429D01*
X10731357Y-21103714D01*
X10788500Y-21103714D01*
X10817071Y-21089429D01*
X10831357Y-21075143D01*
X10845643Y-21046572D01*
X10845643Y-20989429D01*
X10831357Y-20960857D01*
X10817071Y-20946572D01*
X10788500Y-20932286D01*
X11031357Y-20803714D02*
X11059929Y-20803714D01*
X11088500Y-20818000D01*
X11102786Y-20832286D01*
X11117071Y-20860857D01*
X11131357Y-20918000D01*
X11131357Y-20989429D01*
X11117071Y-21046572D01*
X11102786Y-21075143D01*
X11088500Y-21089429D01*
X11059929Y-21103714D01*
X11031357Y-21103714D01*
X11002786Y-21089429D01*
X10988500Y-21075143D01*
X10974214Y-21046572D01*
X10959929Y-20989429D01*
X10959929Y-20918000D01*
X10974214Y-20860857D01*
X10988500Y-20832286D01*
X11002786Y-20818000D01*
X11031357Y-20803714D01*
X11259928Y-21103714D02*
X11259928Y-20903714D01*
X11259928Y-20932286D02*
X11274214Y-20918000D01*
X11302786Y-20903714D01*
X11345643Y-20903714D01*
X11374214Y-20918000D01*
X11388500Y-20946572D01*
X11388500Y-21103714D01*
X11388500Y-20946572D02*
X11402786Y-20918000D01*
X11431357Y-20903714D01*
X11474214Y-20903714D01*
X11502786Y-20918000D01*
X11517071Y-20946572D01*
X11517071Y-21103714D01*
X11659928Y-21103714D02*
X11659928Y-20903714D01*
X11659928Y-20932286D02*
X11674214Y-20918000D01*
X11702786Y-20903714D01*
X11745643Y-20903714D01*
X11774214Y-20918000D01*
X11788500Y-20946572D01*
X11788500Y-21103714D01*
X11788500Y-20946572D02*
X11802786Y-20918000D01*
X11831357Y-20903714D01*
X11874214Y-20903714D01*
X11902786Y-20918000D01*
X11917071Y-20946572D01*
X11917071Y-21103714D01*
X12502786Y-20789429D02*
X12245643Y-21175143D01*
X12888500Y-20803714D02*
X12917071Y-20803714D01*
X12945643Y-20818000D01*
X12959928Y-20832286D01*
X12974214Y-20860857D01*
X12988500Y-20918000D01*
X12988500Y-20989429D01*
X12974214Y-21046572D01*
X12959928Y-21075143D01*
X12945643Y-21089429D01*
X12917071Y-21103714D01*
X12888500Y-21103714D01*
X12859928Y-21089429D01*
X12845643Y-21075143D01*
X12831357Y-21046572D01*
X12817071Y-20989429D01*
X12817071Y-20918000D01*
X12831357Y-20860857D01*
X12845643Y-20832286D01*
X12859928Y-20818000D01*
X12888500Y-20803714D01*
X13117071Y-21075143D02*
X13131357Y-21089429D01*
X13117071Y-21103714D01*
X13102786Y-21089429D01*
X13117071Y-21075143D01*
X13117071Y-21103714D01*
X13317071Y-20803714D02*
X13345643Y-20803714D01*
X13374214Y-20818000D01*
X13388500Y-20832286D01*
X13402785Y-20860857D01*
X13417071Y-20918000D01*
X13417071Y-20989429D01*
X13402785Y-21046572D01*
X13388500Y-21075143D01*
X13374214Y-21089429D01*
X13345643Y-21103714D01*
X13317071Y-21103714D01*
X13288500Y-21089429D01*
X13274214Y-21075143D01*
X13259928Y-21046572D01*
X13245643Y-20989429D01*
X13245643Y-20918000D01*
X13259928Y-20860857D01*
X13274214Y-20832286D01*
X13288500Y-20818000D01*
X13317071Y-20803714D01*
X13517071Y-20803714D02*
X13702785Y-20803714D01*
X13602785Y-20918000D01*
X13645643Y-20918000D01*
X13674214Y-20932286D01*
X13688500Y-20946572D01*
X13702785Y-20975143D01*
X13702785Y-21046572D01*
X13688500Y-21075143D01*
X13674214Y-21089429D01*
X13645643Y-21103714D01*
X13559928Y-21103714D01*
X13531357Y-21089429D01*
X13517071Y-21075143D01*
X13988500Y-21103714D02*
X13817071Y-21103714D01*
X13902785Y-21103714D02*
X13902785Y-20803714D01*
X13874214Y-20846572D01*
X13845643Y-20875143D01*
X13817071Y-20889429D01*
X14102786Y-20803714D02*
X14102786Y-20860857D01*
X14217071Y-20803714D02*
X14217071Y-20860857D01*
X14659928Y-21218000D02*
X14645643Y-21203714D01*
X14617071Y-21160857D01*
X14602785Y-21132286D01*
X14588500Y-21089429D01*
X14574214Y-21018000D01*
X14574214Y-20960857D01*
X14588500Y-20889429D01*
X14602785Y-20846572D01*
X14617071Y-20818000D01*
X14645643Y-20775143D01*
X14659928Y-20760857D01*
X14759928Y-20832286D02*
X14774214Y-20818000D01*
X14802785Y-20803714D01*
X14874214Y-20803714D01*
X14902785Y-20818000D01*
X14917071Y-20832286D01*
X14931357Y-20860857D01*
X14931357Y-20889429D01*
X14917071Y-20932286D01*
X14745643Y-21103714D01*
X14931357Y-21103714D01*
X15117071Y-20803714D02*
X15145643Y-20803714D01*
X15174214Y-20818000D01*
X15188500Y-20832286D01*
X15202785Y-20860857D01*
X15217071Y-20918000D01*
X15217071Y-20989429D01*
X15202785Y-21046572D01*
X15188500Y-21075143D01*
X15174214Y-21089429D01*
X15145643Y-21103714D01*
X15117071Y-21103714D01*
X15088500Y-21089429D01*
X15074214Y-21075143D01*
X15059928Y-21046572D01*
X15045643Y-20989429D01*
X15045643Y-20918000D01*
X15059928Y-20860857D01*
X15074214Y-20832286D01*
X15088500Y-20818000D01*
X15117071Y-20803714D01*
X15474214Y-20803714D02*
X15417071Y-20803714D01*
X15388500Y-20818000D01*
X15374214Y-20832286D01*
X15345643Y-20875143D01*
X15331357Y-20932286D01*
X15331357Y-21046572D01*
X15345643Y-21075143D01*
X15359928Y-21089429D01*
X15388500Y-21103714D01*
X15445643Y-21103714D01*
X15474214Y-21089429D01*
X15488500Y-21075143D01*
X15502785Y-21046572D01*
X15502785Y-20975143D01*
X15488500Y-20946572D01*
X15474214Y-20932286D01*
X15445643Y-20918000D01*
X15388500Y-20918000D01*
X15359928Y-20932286D01*
X15345643Y-20946572D01*
X15331357Y-20975143D01*
X15859928Y-21103714D02*
X15859928Y-20803714D01*
X15988500Y-21103714D02*
X15988500Y-20946572D01*
X15974214Y-20918000D01*
X15945643Y-20903714D01*
X15902785Y-20903714D01*
X15874214Y-20918000D01*
X15859928Y-20932286D01*
X16174214Y-21103714D02*
X16145643Y-21089429D01*
X16131357Y-21075143D01*
X16117071Y-21046572D01*
X16117071Y-20960857D01*
X16131357Y-20932286D01*
X16145643Y-20918000D01*
X16174214Y-20903714D01*
X16217071Y-20903714D01*
X16245643Y-20918000D01*
X16259928Y-20932286D01*
X16274214Y-20960857D01*
X16274214Y-21046572D01*
X16259928Y-21075143D01*
X16245643Y-21089429D01*
X16217071Y-21103714D01*
X16174214Y-21103714D01*
X16445643Y-21103714D02*
X16417071Y-21089429D01*
X16402786Y-21060857D01*
X16402786Y-20803714D01*
X16674214Y-21089429D02*
X16645643Y-21103714D01*
X16588500Y-21103714D01*
X16559928Y-21089429D01*
X16545643Y-21060857D01*
X16545643Y-20946572D01*
X16559928Y-20918000D01*
X16588500Y-20903714D01*
X16645643Y-20903714D01*
X16674214Y-20918000D01*
X16688500Y-20946572D01*
X16688500Y-20975143D01*
X16545643Y-21003714D01*
X16802786Y-21089429D02*
X16831357Y-21103714D01*
X16888500Y-21103714D01*
X16917071Y-21089429D01*
X16931357Y-21060857D01*
X16931357Y-21046572D01*
X16917071Y-21018000D01*
X16888500Y-21003714D01*
X16845643Y-21003714D01*
X16817071Y-20989429D01*
X16802786Y-20960857D01*
X16802786Y-20946572D01*
X16817071Y-20918000D01*
X16845643Y-20903714D01*
X16888500Y-20903714D01*
X16917071Y-20918000D01*
X17031357Y-21218000D02*
X17045643Y-21203714D01*
X17074214Y-21160857D01*
X17088500Y-21132286D01*
X17102786Y-21089429D01*
X17117071Y-21018000D01*
X17117071Y-20960857D01*
X17102786Y-20889429D01*
X17088500Y-20846572D01*
X17074214Y-20818000D01*
X17045643Y-20775143D01*
X17031357Y-20760857D01*
X9988500Y-21364000D02*
G75*
G03X9988500Y-21364000I-45000J0D01*
G01*
X10317071Y-21199714D02*
X10345643Y-21199714D01*
X10374214Y-21214000D01*
X10388500Y-21228286D01*
X10402786Y-21256857D01*
X10417071Y-21314000D01*
X10417071Y-21385429D01*
X10402786Y-21442572D01*
X10388500Y-21471143D01*
X10374214Y-21485429D01*
X10345643Y-21499714D01*
X10317071Y-21499714D01*
X10288500Y-21485429D01*
X10274214Y-21471143D01*
X10259929Y-21442572D01*
X10245643Y-21385429D01*
X10245643Y-21314000D01*
X10259929Y-21256857D01*
X10274214Y-21228286D01*
X10288500Y-21214000D01*
X10317071Y-21199714D01*
X10545643Y-21471143D02*
X10559929Y-21485429D01*
X10545643Y-21499714D01*
X10531357Y-21485429D01*
X10545643Y-21471143D01*
X10545643Y-21499714D01*
X10702786Y-21499714D02*
X10759928Y-21499714D01*
X10788500Y-21485429D01*
X10802786Y-21471143D01*
X10831357Y-21428286D01*
X10845643Y-21371143D01*
X10845643Y-21256857D01*
X10831357Y-21228286D01*
X10817071Y-21214000D01*
X10788500Y-21199714D01*
X10731357Y-21199714D01*
X10702786Y-21214000D01*
X10688500Y-21228286D01*
X10674214Y-21256857D01*
X10674214Y-21328286D01*
X10688500Y-21356857D01*
X10702786Y-21371143D01*
X10731357Y-21385429D01*
X10788500Y-21385429D01*
X10817071Y-21371143D01*
X10831357Y-21356857D01*
X10845643Y-21328286D01*
X11031357Y-21199714D02*
X11059929Y-21199714D01*
X11088500Y-21214000D01*
X11102786Y-21228286D01*
X11117071Y-21256857D01*
X11131357Y-21314000D01*
X11131357Y-21385429D01*
X11117071Y-21442572D01*
X11102786Y-21471143D01*
X11088500Y-21485429D01*
X11059929Y-21499714D01*
X11031357Y-21499714D01*
X11002786Y-21485429D01*
X10988500Y-21471143D01*
X10974214Y-21442572D01*
X10959929Y-21385429D01*
X10959929Y-21314000D01*
X10974214Y-21256857D01*
X10988500Y-21228286D01*
X11002786Y-21214000D01*
X11031357Y-21199714D01*
X11259928Y-21499714D02*
X11259928Y-21299714D01*
X11259928Y-21328286D02*
X11274214Y-21314000D01*
X11302786Y-21299714D01*
X11345643Y-21299714D01*
X11374214Y-21314000D01*
X11388500Y-21342572D01*
X11388500Y-21499714D01*
X11388500Y-21342572D02*
X11402786Y-21314000D01*
X11431357Y-21299714D01*
X11474214Y-21299714D01*
X11502786Y-21314000D01*
X11517071Y-21342572D01*
X11517071Y-21499714D01*
X11659928Y-21499714D02*
X11659928Y-21299714D01*
X11659928Y-21328286D02*
X11674214Y-21314000D01*
X11702786Y-21299714D01*
X11745643Y-21299714D01*
X11774214Y-21314000D01*
X11788500Y-21342572D01*
X11788500Y-21499714D01*
X11788500Y-21342572D02*
X11802786Y-21314000D01*
X11831357Y-21299714D01*
X11874214Y-21299714D01*
X11902786Y-21314000D01*
X11917071Y-21342572D01*
X11917071Y-21499714D01*
X12502786Y-21185429D02*
X12245643Y-21571143D01*
X12888500Y-21199714D02*
X12917071Y-21199714D01*
X12945643Y-21214000D01*
X12959928Y-21228286D01*
X12974214Y-21256857D01*
X12988500Y-21314000D01*
X12988500Y-21385429D01*
X12974214Y-21442572D01*
X12959928Y-21471143D01*
X12945643Y-21485429D01*
X12917071Y-21499714D01*
X12888500Y-21499714D01*
X12859928Y-21485429D01*
X12845643Y-21471143D01*
X12831357Y-21442572D01*
X12817071Y-21385429D01*
X12817071Y-21314000D01*
X12831357Y-21256857D01*
X12845643Y-21228286D01*
X12859928Y-21214000D01*
X12888500Y-21199714D01*
X13117071Y-21471143D02*
X13131357Y-21485429D01*
X13117071Y-21499714D01*
X13102786Y-21485429D01*
X13117071Y-21471143D01*
X13117071Y-21499714D01*
X13317071Y-21199714D02*
X13345643Y-21199714D01*
X13374214Y-21214000D01*
X13388500Y-21228286D01*
X13402785Y-21256857D01*
X13417071Y-21314000D01*
X13417071Y-21385429D01*
X13402785Y-21442572D01*
X13388500Y-21471143D01*
X13374214Y-21485429D01*
X13345643Y-21499714D01*
X13317071Y-21499714D01*
X13288500Y-21485429D01*
X13274214Y-21471143D01*
X13259928Y-21442572D01*
X13245643Y-21385429D01*
X13245643Y-21314000D01*
X13259928Y-21256857D01*
X13274214Y-21228286D01*
X13288500Y-21214000D01*
X13317071Y-21199714D01*
X13517071Y-21199714D02*
X13702785Y-21199714D01*
X13602785Y-21314000D01*
X13645643Y-21314000D01*
X13674214Y-21328286D01*
X13688500Y-21342572D01*
X13702785Y-21371143D01*
X13702785Y-21442572D01*
X13688500Y-21471143D01*
X13674214Y-21485429D01*
X13645643Y-21499714D01*
X13559928Y-21499714D01*
X13531357Y-21485429D01*
X13517071Y-21471143D01*
X13974214Y-21199714D02*
X13831357Y-21199714D01*
X13817071Y-21342572D01*
X13831357Y-21328286D01*
X13859928Y-21314000D01*
X13931357Y-21314000D01*
X13959928Y-21328286D01*
X13974214Y-21342572D01*
X13988500Y-21371143D01*
X13988500Y-21442572D01*
X13974214Y-21471143D01*
X13959928Y-21485429D01*
X13931357Y-21499714D01*
X13859928Y-21499714D01*
X13831357Y-21485429D01*
X13817071Y-21471143D01*
X14102786Y-21199714D02*
X14102786Y-21256857D01*
X14217071Y-21199714D02*
X14217071Y-21256857D01*
X14659928Y-21614000D02*
X14645643Y-21599714D01*
X14617071Y-21556857D01*
X14602785Y-21528286D01*
X14588500Y-21485429D01*
X14574214Y-21414000D01*
X14574214Y-21356857D01*
X14588500Y-21285429D01*
X14602785Y-21242572D01*
X14617071Y-21214000D01*
X14645643Y-21171143D01*
X14659928Y-21156857D01*
X14931357Y-21499714D02*
X14759928Y-21499714D01*
X14845643Y-21499714D02*
X14845643Y-21199714D01*
X14817071Y-21242572D01*
X14788500Y-21271143D01*
X14759928Y-21285429D01*
X15102785Y-21328286D02*
X15074214Y-21314000D01*
X15059928Y-21299714D01*
X15045643Y-21271143D01*
X15045643Y-21256857D01*
X15059928Y-21228286D01*
X15074214Y-21214000D01*
X15102785Y-21199714D01*
X15159928Y-21199714D01*
X15188500Y-21214000D01*
X15202785Y-21228286D01*
X15217071Y-21256857D01*
X15217071Y-21271143D01*
X15202785Y-21299714D01*
X15188500Y-21314000D01*
X15159928Y-21328286D01*
X15102785Y-21328286D01*
X15074214Y-21342572D01*
X15059928Y-21356857D01*
X15045643Y-21385429D01*
X15045643Y-21442572D01*
X15059928Y-21471143D01*
X15074214Y-21485429D01*
X15102785Y-21499714D01*
X15159928Y-21499714D01*
X15188500Y-21485429D01*
X15202785Y-21471143D01*
X15217071Y-21442572D01*
X15217071Y-21385429D01*
X15202785Y-21356857D01*
X15188500Y-21342572D01*
X15159928Y-21328286D01*
X15402785Y-21199714D02*
X15431357Y-21199714D01*
X15459928Y-21214000D01*
X15474214Y-21228286D01*
X15488500Y-21256857D01*
X15502785Y-21314000D01*
X15502785Y-21385429D01*
X15488500Y-21442572D01*
X15474214Y-21471143D01*
X15459928Y-21485429D01*
X15431357Y-21499714D01*
X15402785Y-21499714D01*
X15374214Y-21485429D01*
X15359928Y-21471143D01*
X15345643Y-21442572D01*
X15331357Y-21385429D01*
X15331357Y-21314000D01*
X15345643Y-21256857D01*
X15359928Y-21228286D01*
X15374214Y-21214000D01*
X15402785Y-21199714D01*
X15859928Y-21499714D02*
X15859928Y-21199714D01*
X15988500Y-21499714D02*
X15988500Y-21342572D01*
X15974214Y-21314000D01*
X15945643Y-21299714D01*
X15902785Y-21299714D01*
X15874214Y-21314000D01*
X15859928Y-21328286D01*
X16174214Y-21499714D02*
X16145643Y-21485429D01*
X16131357Y-21471143D01*
X16117071Y-21442572D01*
X16117071Y-21356857D01*
X16131357Y-21328286D01*
X16145643Y-21314000D01*
X16174214Y-21299714D01*
X16217071Y-21299714D01*
X16245643Y-21314000D01*
X16259928Y-21328286D01*
X16274214Y-21356857D01*
X16274214Y-21442572D01*
X16259928Y-21471143D01*
X16245643Y-21485429D01*
X16217071Y-21499714D01*
X16174214Y-21499714D01*
X16445643Y-21499714D02*
X16417071Y-21485429D01*
X16402786Y-21456857D01*
X16402786Y-21199714D01*
X16674214Y-21485429D02*
X16645643Y-21499714D01*
X16588500Y-21499714D01*
X16559928Y-21485429D01*
X16545643Y-21456857D01*
X16545643Y-21342572D01*
X16559928Y-21314000D01*
X16588500Y-21299714D01*
X16645643Y-21299714D01*
X16674214Y-21314000D01*
X16688500Y-21342572D01*
X16688500Y-21371143D01*
X16545643Y-21399714D01*
X16802786Y-21485429D02*
X16831357Y-21499714D01*
X16888500Y-21499714D01*
X16917071Y-21485429D01*
X16931357Y-21456857D01*
X16931357Y-21442572D01*
X16917071Y-21414000D01*
X16888500Y-21399714D01*
X16845643Y-21399714D01*
X16817071Y-21385429D01*
X16802786Y-21356857D01*
X16802786Y-21342572D01*
X16817071Y-21314000D01*
X16845643Y-21299714D01*
X16888500Y-21299714D01*
X16917071Y-21314000D01*
X17031357Y-21614000D02*
X17045643Y-21599714D01*
X17074214Y-21556857D01*
X17088500Y-21528286D01*
X17102786Y-21485429D01*
X17117071Y-21414000D01*
X17117071Y-21356857D01*
X17102786Y-21285429D01*
X17088500Y-21242572D01*
X17074214Y-21214000D01*
X17045643Y-21171143D01*
X17031357Y-21156857D01*
X9938500Y-21710000D02*
X9938500Y-21810000D01*
X9888500Y-21760000D02*
X9988500Y-21760000D01*
X10417071Y-21895714D02*
X10245643Y-21895714D01*
X10331357Y-21895714D02*
X10331357Y-21595714D01*
X10302786Y-21638572D01*
X10274214Y-21667143D01*
X10245643Y-21681429D01*
X10545643Y-21867143D02*
X10559929Y-21881429D01*
X10545643Y-21895714D01*
X10531357Y-21881429D01*
X10545643Y-21867143D01*
X10545643Y-21895714D01*
X10745643Y-21595714D02*
X10774214Y-21595714D01*
X10802786Y-21610000D01*
X10817071Y-21624286D01*
X10831357Y-21652857D01*
X10845643Y-21710000D01*
X10845643Y-21781429D01*
X10831357Y-21838572D01*
X10817071Y-21867143D01*
X10802786Y-21881429D01*
X10774214Y-21895714D01*
X10745643Y-21895714D01*
X10717071Y-21881429D01*
X10702786Y-21867143D01*
X10688500Y-21838572D01*
X10674214Y-21781429D01*
X10674214Y-21710000D01*
X10688500Y-21652857D01*
X10702786Y-21624286D01*
X10717071Y-21610000D01*
X10745643Y-21595714D01*
X11031357Y-21595714D02*
X11059929Y-21595714D01*
X11088500Y-21610000D01*
X11102786Y-21624286D01*
X11117071Y-21652857D01*
X11131357Y-21710000D01*
X11131357Y-21781429D01*
X11117071Y-21838572D01*
X11102786Y-21867143D01*
X11088500Y-21881429D01*
X11059929Y-21895714D01*
X11031357Y-21895714D01*
X11002786Y-21881429D01*
X10988500Y-21867143D01*
X10974214Y-21838572D01*
X10959929Y-21781429D01*
X10959929Y-21710000D01*
X10974214Y-21652857D01*
X10988500Y-21624286D01*
X11002786Y-21610000D01*
X11031357Y-21595714D01*
X11259928Y-21895714D02*
X11259928Y-21695714D01*
X11259928Y-21724286D02*
X11274214Y-21710000D01*
X11302786Y-21695714D01*
X11345643Y-21695714D01*
X11374214Y-21710000D01*
X11388500Y-21738572D01*
X11388500Y-21895714D01*
X11388500Y-21738572D02*
X11402786Y-21710000D01*
X11431357Y-21695714D01*
X11474214Y-21695714D01*
X11502786Y-21710000D01*
X11517071Y-21738572D01*
X11517071Y-21895714D01*
X11659928Y-21895714D02*
X11659928Y-21695714D01*
X11659928Y-21724286D02*
X11674214Y-21710000D01*
X11702786Y-21695714D01*
X11745643Y-21695714D01*
X11774214Y-21710000D01*
X11788500Y-21738572D01*
X11788500Y-21895714D01*
X11788500Y-21738572D02*
X11802786Y-21710000D01*
X11831357Y-21695714D01*
X11874214Y-21695714D01*
X11902786Y-21710000D01*
X11917071Y-21738572D01*
X11917071Y-21895714D01*
X12502786Y-21581429D02*
X12245643Y-21967143D01*
X12888500Y-21595714D02*
X12917071Y-21595714D01*
X12945643Y-21610000D01*
X12959928Y-21624286D01*
X12974214Y-21652857D01*
X12988500Y-21710000D01*
X12988500Y-21781429D01*
X12974214Y-21838572D01*
X12959928Y-21867143D01*
X12945643Y-21881429D01*
X12917071Y-21895714D01*
X12888500Y-21895714D01*
X12859928Y-21881429D01*
X12845643Y-21867143D01*
X12831357Y-21838572D01*
X12817071Y-21781429D01*
X12817071Y-21710000D01*
X12831357Y-21652857D01*
X12845643Y-21624286D01*
X12859928Y-21610000D01*
X12888500Y-21595714D01*
X13117071Y-21867143D02*
X13131357Y-21881429D01*
X13117071Y-21895714D01*
X13102786Y-21881429D01*
X13117071Y-21867143D01*
X13117071Y-21895714D01*
X13317071Y-21595714D02*
X13345643Y-21595714D01*
X13374214Y-21610000D01*
X13388500Y-21624286D01*
X13402785Y-21652857D01*
X13417071Y-21710000D01*
X13417071Y-21781429D01*
X13402785Y-21838572D01*
X13388500Y-21867143D01*
X13374214Y-21881429D01*
X13345643Y-21895714D01*
X13317071Y-21895714D01*
X13288500Y-21881429D01*
X13274214Y-21867143D01*
X13259928Y-21838572D01*
X13245643Y-21781429D01*
X13245643Y-21710000D01*
X13259928Y-21652857D01*
X13274214Y-21624286D01*
X13288500Y-21610000D01*
X13317071Y-21595714D01*
X13517071Y-21595714D02*
X13702785Y-21595714D01*
X13602785Y-21710000D01*
X13645643Y-21710000D01*
X13674214Y-21724286D01*
X13688500Y-21738572D01*
X13702785Y-21767143D01*
X13702785Y-21838572D01*
X13688500Y-21867143D01*
X13674214Y-21881429D01*
X13645643Y-21895714D01*
X13559928Y-21895714D01*
X13531357Y-21881429D01*
X13517071Y-21867143D01*
X13845643Y-21895714D02*
X13902785Y-21895714D01*
X13931357Y-21881429D01*
X13945643Y-21867143D01*
X13974214Y-21824286D01*
X13988500Y-21767143D01*
X13988500Y-21652857D01*
X13974214Y-21624286D01*
X13959928Y-21610000D01*
X13931357Y-21595714D01*
X13874214Y-21595714D01*
X13845643Y-21610000D01*
X13831357Y-21624286D01*
X13817071Y-21652857D01*
X13817071Y-21724286D01*
X13831357Y-21752857D01*
X13845643Y-21767143D01*
X13874214Y-21781429D01*
X13931357Y-21781429D01*
X13959928Y-21767143D01*
X13974214Y-21752857D01*
X13988500Y-21724286D01*
X14102786Y-21595714D02*
X14102786Y-21652857D01*
X14217071Y-21595714D02*
X14217071Y-21652857D01*
X14659928Y-22010000D02*
X14645643Y-21995714D01*
X14617071Y-21952857D01*
X14602785Y-21924286D01*
X14588500Y-21881429D01*
X14574214Y-21810000D01*
X14574214Y-21752857D01*
X14588500Y-21681429D01*
X14602785Y-21638572D01*
X14617071Y-21610000D01*
X14645643Y-21567143D01*
X14659928Y-21552857D01*
X14902785Y-21595714D02*
X14845643Y-21595714D01*
X14817071Y-21610000D01*
X14802785Y-21624286D01*
X14774214Y-21667143D01*
X14759928Y-21724286D01*
X14759928Y-21838572D01*
X14774214Y-21867143D01*
X14788500Y-21881429D01*
X14817071Y-21895714D01*
X14874214Y-21895714D01*
X14902785Y-21881429D01*
X14917071Y-21867143D01*
X14931357Y-21838572D01*
X14931357Y-21767143D01*
X14917071Y-21738572D01*
X14902785Y-21724286D01*
X14874214Y-21710000D01*
X14817071Y-21710000D01*
X14788500Y-21724286D01*
X14774214Y-21738572D01*
X14759928Y-21767143D01*
X15288500Y-21895714D02*
X15288500Y-21595714D01*
X15417071Y-21895714D02*
X15417071Y-21738572D01*
X15402785Y-21710000D01*
X15374214Y-21695714D01*
X15331357Y-21695714D01*
X15302785Y-21710000D01*
X15288500Y-21724286D01*
X15602785Y-21895714D02*
X15574214Y-21881429D01*
X15559928Y-21867143D01*
X15545643Y-21838572D01*
X15545643Y-21752857D01*
X15559928Y-21724286D01*
X15574214Y-21710000D01*
X15602785Y-21695714D01*
X15645643Y-21695714D01*
X15674214Y-21710000D01*
X15688500Y-21724286D01*
X15702785Y-21752857D01*
X15702785Y-21838572D01*
X15688500Y-21867143D01*
X15674214Y-21881429D01*
X15645643Y-21895714D01*
X15602785Y-21895714D01*
X15874214Y-21895714D02*
X15845643Y-21881429D01*
X15831357Y-21852857D01*
X15831357Y-21595714D01*
X16102786Y-21881429D02*
X16074214Y-21895714D01*
X16017071Y-21895714D01*
X15988500Y-21881429D01*
X15974214Y-21852857D01*
X15974214Y-21738572D01*
X15988500Y-21710000D01*
X16017071Y-21695714D01*
X16074214Y-21695714D01*
X16102786Y-21710000D01*
X16117071Y-21738572D01*
X16117071Y-21767143D01*
X15974214Y-21795714D01*
X16231357Y-21881429D02*
X16259928Y-21895714D01*
X16317071Y-21895714D01*
X16345643Y-21881429D01*
X16359928Y-21852857D01*
X16359928Y-21838572D01*
X16345643Y-21810000D01*
X16317071Y-21795714D01*
X16274214Y-21795714D01*
X16245643Y-21781429D01*
X16231357Y-21752857D01*
X16231357Y-21738572D01*
X16245643Y-21710000D01*
X16274214Y-21695714D01*
X16317071Y-21695714D01*
X16345643Y-21710000D01*
X16717071Y-21781429D02*
X16945643Y-21781429D01*
X16831357Y-21895714D02*
X16831357Y-21667143D01*
X17288500Y-21595714D02*
X17474214Y-21595714D01*
X17374214Y-21710000D01*
X17417071Y-21710000D01*
X17445643Y-21724286D01*
X17459928Y-21738572D01*
X17474214Y-21767143D01*
X17474214Y-21838572D01*
X17459928Y-21867143D01*
X17445643Y-21881429D01*
X17417071Y-21895714D01*
X17331357Y-21895714D01*
X17302786Y-21881429D01*
X17288500Y-21867143D01*
X17817071Y-21881429D02*
X17845643Y-21895714D01*
X17902786Y-21895714D01*
X17931357Y-21881429D01*
X17945643Y-21852857D01*
X17945643Y-21838572D01*
X17931357Y-21810000D01*
X17902786Y-21795714D01*
X17859928Y-21795714D01*
X17831357Y-21781429D01*
X17817071Y-21752857D01*
X17817071Y-21738572D01*
X17831357Y-21710000D01*
X17859928Y-21695714D01*
X17902786Y-21695714D01*
X17931357Y-21710000D01*
X18117071Y-21895714D02*
X18088500Y-21881429D01*
X18074214Y-21852857D01*
X18074214Y-21595714D01*
X18274214Y-21895714D02*
X18245643Y-21881429D01*
X18231357Y-21867143D01*
X18217071Y-21838572D01*
X18217071Y-21752857D01*
X18231357Y-21724286D01*
X18245643Y-21710000D01*
X18274214Y-21695714D01*
X18317071Y-21695714D01*
X18345643Y-21710000D01*
X18359928Y-21724286D01*
X18374214Y-21752857D01*
X18374214Y-21838572D01*
X18359928Y-21867143D01*
X18345643Y-21881429D01*
X18317071Y-21895714D01*
X18274214Y-21895714D01*
X18459928Y-21695714D02*
X18574214Y-21695714D01*
X18502786Y-21595714D02*
X18502786Y-21852857D01*
X18517071Y-21881429D01*
X18545643Y-21895714D01*
X18574214Y-21895714D01*
X18659929Y-21881429D02*
X18688500Y-21895714D01*
X18745643Y-21895714D01*
X18774214Y-21881429D01*
X18788500Y-21852857D01*
X18788500Y-21838572D01*
X18774214Y-21810000D01*
X18745643Y-21795714D01*
X18702786Y-21795714D01*
X18674214Y-21781429D01*
X18659929Y-21752857D01*
X18659929Y-21738572D01*
X18674214Y-21710000D01*
X18702786Y-21695714D01*
X18745643Y-21695714D01*
X18774214Y-21710000D01*
X18888500Y-22010000D02*
X18902786Y-21995714D01*
X18931357Y-21952857D01*
X18945643Y-21924286D01*
X18959928Y-21881429D01*
X18974214Y-21810000D01*
X18974214Y-21752857D01*
X18959928Y-21681429D01*
X18945643Y-21638572D01*
X18931357Y-21610000D01*
X18902786Y-21567143D01*
X18888500Y-21552857D01*
X9972391Y-22194891D02*
X9972391Y-22117109D01*
X9894609Y-22117109D01*
X9894609Y-22194891D01*
X9972391Y-22194891D01*
X10417071Y-22291714D02*
X10245643Y-22291714D01*
X10331357Y-22291714D02*
X10331357Y-21991714D01*
X10302786Y-22034572D01*
X10274214Y-22063143D01*
X10245643Y-22077429D01*
X10545643Y-22263143D02*
X10559929Y-22277429D01*
X10545643Y-22291714D01*
X10531357Y-22277429D01*
X10545643Y-22263143D01*
X10545643Y-22291714D01*
X10845643Y-22291714D02*
X10674214Y-22291714D01*
X10759928Y-22291714D02*
X10759928Y-21991714D01*
X10731357Y-22034572D01*
X10702786Y-22063143D01*
X10674214Y-22077429D01*
X11031357Y-21991714D02*
X11059929Y-21991714D01*
X11088500Y-22006000D01*
X11102786Y-22020286D01*
X11117071Y-22048857D01*
X11131357Y-22106000D01*
X11131357Y-22177429D01*
X11117071Y-22234572D01*
X11102786Y-22263143D01*
X11088500Y-22277429D01*
X11059929Y-22291714D01*
X11031357Y-22291714D01*
X11002786Y-22277429D01*
X10988500Y-22263143D01*
X10974214Y-22234572D01*
X10959929Y-22177429D01*
X10959929Y-22106000D01*
X10974214Y-22048857D01*
X10988500Y-22020286D01*
X11002786Y-22006000D01*
X11031357Y-21991714D01*
X11259928Y-22291714D02*
X11259928Y-22091714D01*
X11259928Y-22120286D02*
X11274214Y-22106000D01*
X11302786Y-22091714D01*
X11345643Y-22091714D01*
X11374214Y-22106000D01*
X11388500Y-22134572D01*
X11388500Y-22291714D01*
X11388500Y-22134572D02*
X11402786Y-22106000D01*
X11431357Y-22091714D01*
X11474214Y-22091714D01*
X11502786Y-22106000D01*
X11517071Y-22134572D01*
X11517071Y-22291714D01*
X11659928Y-22291714D02*
X11659928Y-22091714D01*
X11659928Y-22120286D02*
X11674214Y-22106000D01*
X11702786Y-22091714D01*
X11745643Y-22091714D01*
X11774214Y-22106000D01*
X11788500Y-22134572D01*
X11788500Y-22291714D01*
X11788500Y-22134572D02*
X11802786Y-22106000D01*
X11831357Y-22091714D01*
X11874214Y-22091714D01*
X11902786Y-22106000D01*
X11917071Y-22134572D01*
X11917071Y-22291714D01*
X12502786Y-21977429D02*
X12245643Y-22363143D01*
X12888500Y-21991714D02*
X12917071Y-21991714D01*
X12945643Y-22006000D01*
X12959928Y-22020286D01*
X12974214Y-22048857D01*
X12988500Y-22106000D01*
X12988500Y-22177429D01*
X12974214Y-22234572D01*
X12959928Y-22263143D01*
X12945643Y-22277429D01*
X12917071Y-22291714D01*
X12888500Y-22291714D01*
X12859928Y-22277429D01*
X12845643Y-22263143D01*
X12831357Y-22234572D01*
X12817071Y-22177429D01*
X12817071Y-22106000D01*
X12831357Y-22048857D01*
X12845643Y-22020286D01*
X12859928Y-22006000D01*
X12888500Y-21991714D01*
X13117071Y-22263143D02*
X13131357Y-22277429D01*
X13117071Y-22291714D01*
X13102786Y-22277429D01*
X13117071Y-22263143D01*
X13117071Y-22291714D01*
X13317071Y-21991714D02*
X13345643Y-21991714D01*
X13374214Y-22006000D01*
X13388500Y-22020286D01*
X13402785Y-22048857D01*
X13417071Y-22106000D01*
X13417071Y-22177429D01*
X13402785Y-22234572D01*
X13388500Y-22263143D01*
X13374214Y-22277429D01*
X13345643Y-22291714D01*
X13317071Y-22291714D01*
X13288500Y-22277429D01*
X13274214Y-22263143D01*
X13259928Y-22234572D01*
X13245643Y-22177429D01*
X13245643Y-22106000D01*
X13259928Y-22048857D01*
X13274214Y-22020286D01*
X13288500Y-22006000D01*
X13317071Y-21991714D01*
X13674214Y-22091714D02*
X13674214Y-22291714D01*
X13602785Y-21977429D02*
X13531357Y-22191714D01*
X13717071Y-22191714D01*
X13802785Y-21991714D02*
X13988500Y-21991714D01*
X13888500Y-22106000D01*
X13931357Y-22106000D01*
X13959928Y-22120286D01*
X13974214Y-22134572D01*
X13988500Y-22163143D01*
X13988500Y-22234572D01*
X13974214Y-22263143D01*
X13959928Y-22277429D01*
X13931357Y-22291714D01*
X13845643Y-22291714D01*
X13817071Y-22277429D01*
X13802785Y-22263143D01*
X14102786Y-21991714D02*
X14102786Y-22048857D01*
X14217071Y-21991714D02*
X14217071Y-22048857D01*
X14659928Y-22406000D02*
X14645643Y-22391714D01*
X14617071Y-22348857D01*
X14602785Y-22320286D01*
X14588500Y-22277429D01*
X14574214Y-22206000D01*
X14574214Y-22148857D01*
X14588500Y-22077429D01*
X14602785Y-22034572D01*
X14617071Y-22006000D01*
X14645643Y-21963143D01*
X14659928Y-21948857D01*
X14745643Y-21991714D02*
X14931357Y-21991714D01*
X14831357Y-22106000D01*
X14874214Y-22106000D01*
X14902785Y-22120286D01*
X14917071Y-22134572D01*
X14931357Y-22163143D01*
X14931357Y-22234572D01*
X14917071Y-22263143D01*
X14902785Y-22277429D01*
X14874214Y-22291714D01*
X14788500Y-22291714D01*
X14759928Y-22277429D01*
X14745643Y-22263143D01*
X15288500Y-22291714D02*
X15288500Y-21991714D01*
X15417071Y-22291714D02*
X15417071Y-22134572D01*
X15402785Y-22106000D01*
X15374214Y-22091714D01*
X15331357Y-22091714D01*
X15302785Y-22106000D01*
X15288500Y-22120286D01*
X15602785Y-22291714D02*
X15574214Y-22277429D01*
X15559928Y-22263143D01*
X15545643Y-22234572D01*
X15545643Y-22148857D01*
X15559928Y-22120286D01*
X15574214Y-22106000D01*
X15602785Y-22091714D01*
X15645643Y-22091714D01*
X15674214Y-22106000D01*
X15688500Y-22120286D01*
X15702785Y-22148857D01*
X15702785Y-22234572D01*
X15688500Y-22263143D01*
X15674214Y-22277429D01*
X15645643Y-22291714D01*
X15602785Y-22291714D01*
X15874214Y-22291714D02*
X15845643Y-22277429D01*
X15831357Y-22248857D01*
X15831357Y-21991714D01*
X16102786Y-22277429D02*
X16074214Y-22291714D01*
X16017071Y-22291714D01*
X15988500Y-22277429D01*
X15974214Y-22248857D01*
X15974214Y-22134572D01*
X15988500Y-22106000D01*
X16017071Y-22091714D01*
X16074214Y-22091714D01*
X16102786Y-22106000D01*
X16117071Y-22134572D01*
X16117071Y-22163143D01*
X15974214Y-22191714D01*
X16231357Y-22277429D02*
X16259928Y-22291714D01*
X16317071Y-22291714D01*
X16345643Y-22277429D01*
X16359928Y-22248857D01*
X16359928Y-22234572D01*
X16345643Y-22206000D01*
X16317071Y-22191714D01*
X16274214Y-22191714D01*
X16245643Y-22177429D01*
X16231357Y-22148857D01*
X16231357Y-22134572D01*
X16245643Y-22106000D01*
X16274214Y-22091714D01*
X16317071Y-22091714D01*
X16345643Y-22106000D01*
X16459928Y-22406000D02*
X16474214Y-22391714D01*
X16502786Y-22348857D01*
X16517071Y-22320286D01*
X16531357Y-22277429D01*
X16545643Y-22206000D01*
X16545643Y-22148857D01*
X16531357Y-22077429D01*
X16517071Y-22034572D01*
X16502786Y-22006000D01*
X16474214Y-21963143D01*
X16459928Y-21948857D01*
X9828500Y-22712000D02*
X9988500Y-22552000D01*
X9828500Y-22392000D01*
X9668500Y-22552000D01*
X9828500Y-22712000D01*
X10231357Y-22387714D02*
X10417071Y-22387714D01*
X10317071Y-22502000D01*
X10359929Y-22502000D01*
X10388500Y-22516286D01*
X10402786Y-22530571D01*
X10417071Y-22559143D01*
X10417071Y-22630571D01*
X10402786Y-22659143D01*
X10388500Y-22673429D01*
X10359929Y-22687714D01*
X10274214Y-22687714D01*
X10245643Y-22673429D01*
X10231357Y-22659143D01*
X10545643Y-22659143D02*
X10559929Y-22673429D01*
X10545643Y-22687714D01*
X10531357Y-22673429D01*
X10545643Y-22659143D01*
X10545643Y-22687714D01*
X10674214Y-22416286D02*
X10688500Y-22402000D01*
X10717071Y-22387714D01*
X10788500Y-22387714D01*
X10817071Y-22402000D01*
X10831357Y-22416286D01*
X10845643Y-22444857D01*
X10845643Y-22473429D01*
X10831357Y-22516286D01*
X10659928Y-22687714D01*
X10845643Y-22687714D01*
X11031357Y-22387714D02*
X11059929Y-22387714D01*
X11088500Y-22402000D01*
X11102786Y-22416286D01*
X11117071Y-22444857D01*
X11131357Y-22502000D01*
X11131357Y-22573429D01*
X11117071Y-22630571D01*
X11102786Y-22659143D01*
X11088500Y-22673429D01*
X11059929Y-22687714D01*
X11031357Y-22687714D01*
X11002786Y-22673429D01*
X10988500Y-22659143D01*
X10974214Y-22630571D01*
X10959929Y-22573429D01*
X10959929Y-22502000D01*
X10974214Y-22444857D01*
X10988500Y-22416286D01*
X11002786Y-22402000D01*
X11031357Y-22387714D01*
X11259928Y-22687714D02*
X11259928Y-22487714D01*
X11259928Y-22516286D02*
X11274214Y-22502000D01*
X11302786Y-22487714D01*
X11345643Y-22487714D01*
X11374214Y-22502000D01*
X11388500Y-22530571D01*
X11388500Y-22687714D01*
X11388500Y-22530571D02*
X11402786Y-22502000D01*
X11431357Y-22487714D01*
X11474214Y-22487714D01*
X11502786Y-22502000D01*
X11517071Y-22530571D01*
X11517071Y-22687714D01*
X11659928Y-22687714D02*
X11659928Y-22487714D01*
X11659928Y-22516286D02*
X11674214Y-22502000D01*
X11702786Y-22487714D01*
X11745643Y-22487714D01*
X11774214Y-22502000D01*
X11788500Y-22530571D01*
X11788500Y-22687714D01*
X11788500Y-22530571D02*
X11802786Y-22502000D01*
X11831357Y-22487714D01*
X11874214Y-22487714D01*
X11902786Y-22502000D01*
X11917071Y-22530571D01*
X11917071Y-22687714D01*
X12502786Y-22373429D02*
X12245643Y-22759143D01*
X12888500Y-22387714D02*
X12917071Y-22387714D01*
X12945643Y-22402000D01*
X12959928Y-22416286D01*
X12974214Y-22444857D01*
X12988500Y-22502000D01*
X12988500Y-22573429D01*
X12974214Y-22630571D01*
X12959928Y-22659143D01*
X12945643Y-22673429D01*
X12917071Y-22687714D01*
X12888500Y-22687714D01*
X12859928Y-22673429D01*
X12845643Y-22659143D01*
X12831357Y-22630571D01*
X12817071Y-22573429D01*
X12817071Y-22502000D01*
X12831357Y-22444857D01*
X12845643Y-22416286D01*
X12859928Y-22402000D01*
X12888500Y-22387714D01*
X13117071Y-22659143D02*
X13131357Y-22673429D01*
X13117071Y-22687714D01*
X13102786Y-22673429D01*
X13117071Y-22659143D01*
X13117071Y-22687714D01*
X13417071Y-22687714D02*
X13245643Y-22687714D01*
X13331357Y-22687714D02*
X13331357Y-22387714D01*
X13302785Y-22430571D01*
X13274214Y-22459143D01*
X13245643Y-22473429D01*
X13531357Y-22416286D02*
X13545643Y-22402000D01*
X13574214Y-22387714D01*
X13645643Y-22387714D01*
X13674214Y-22402000D01*
X13688500Y-22416286D01*
X13702785Y-22444857D01*
X13702785Y-22473429D01*
X13688500Y-22516286D01*
X13517071Y-22687714D01*
X13702785Y-22687714D01*
X13959928Y-22387714D02*
X13902785Y-22387714D01*
X13874214Y-22402000D01*
X13859928Y-22416286D01*
X13831357Y-22459143D01*
X13817071Y-22516286D01*
X13817071Y-22630571D01*
X13831357Y-22659143D01*
X13845643Y-22673429D01*
X13874214Y-22687714D01*
X13931357Y-22687714D01*
X13959928Y-22673429D01*
X13974214Y-22659143D01*
X13988500Y-22630571D01*
X13988500Y-22559143D01*
X13974214Y-22530571D01*
X13959928Y-22516286D01*
X13931357Y-22502000D01*
X13874214Y-22502000D01*
X13845643Y-22516286D01*
X13831357Y-22530571D01*
X13817071Y-22559143D01*
X14102786Y-22387714D02*
X14102786Y-22444857D01*
X14217071Y-22387714D02*
X14217071Y-22444857D01*
X14659928Y-22802000D02*
X14645643Y-22787714D01*
X14617071Y-22744857D01*
X14602785Y-22716286D01*
X14588500Y-22673429D01*
X14574214Y-22602000D01*
X14574214Y-22544857D01*
X14588500Y-22473429D01*
X14602785Y-22430571D01*
X14617071Y-22402000D01*
X14645643Y-22359143D01*
X14659928Y-22344857D01*
X14902785Y-22387714D02*
X14845643Y-22387714D01*
X14817071Y-22402000D01*
X14802785Y-22416286D01*
X14774214Y-22459143D01*
X14759928Y-22516286D01*
X14759928Y-22630571D01*
X14774214Y-22659143D01*
X14788500Y-22673429D01*
X14817071Y-22687714D01*
X14874214Y-22687714D01*
X14902785Y-22673429D01*
X14917071Y-22659143D01*
X14931357Y-22630571D01*
X14931357Y-22559143D01*
X14917071Y-22530571D01*
X14902785Y-22516286D01*
X14874214Y-22502000D01*
X14817071Y-22502000D01*
X14788500Y-22516286D01*
X14774214Y-22530571D01*
X14759928Y-22559143D01*
X15288500Y-22687714D02*
X15288500Y-22387714D01*
X15417071Y-22687714D02*
X15417071Y-22530571D01*
X15402785Y-22502000D01*
X15374214Y-22487714D01*
X15331357Y-22487714D01*
X15302785Y-22502000D01*
X15288500Y-22516286D01*
X15602785Y-22687714D02*
X15574214Y-22673429D01*
X15559928Y-22659143D01*
X15545643Y-22630571D01*
X15545643Y-22544857D01*
X15559928Y-22516286D01*
X15574214Y-22502000D01*
X15602785Y-22487714D01*
X15645643Y-22487714D01*
X15674214Y-22502000D01*
X15688500Y-22516286D01*
X15702785Y-22544857D01*
X15702785Y-22630571D01*
X15688500Y-22659143D01*
X15674214Y-22673429D01*
X15645643Y-22687714D01*
X15602785Y-22687714D01*
X15874214Y-22687714D02*
X15845643Y-22673429D01*
X15831357Y-22644857D01*
X15831357Y-22387714D01*
X16102786Y-22673429D02*
X16074214Y-22687714D01*
X16017071Y-22687714D01*
X15988500Y-22673429D01*
X15974214Y-22644857D01*
X15974214Y-22530571D01*
X15988500Y-22502000D01*
X16017071Y-22487714D01*
X16074214Y-22487714D01*
X16102786Y-22502000D01*
X16117071Y-22530571D01*
X16117071Y-22559143D01*
X15974214Y-22587714D01*
X16231357Y-22673429D02*
X16259928Y-22687714D01*
X16317071Y-22687714D01*
X16345643Y-22673429D01*
X16359928Y-22644857D01*
X16359928Y-22630571D01*
X16345643Y-22602000D01*
X16317071Y-22587714D01*
X16274214Y-22587714D01*
X16245643Y-22573429D01*
X16231357Y-22544857D01*
X16231357Y-22530571D01*
X16245643Y-22502000D01*
X16274214Y-22487714D01*
X16317071Y-22487714D01*
X16345643Y-22502000D01*
X16459928Y-22802000D02*
X16474214Y-22787714D01*
X16502786Y-22744857D01*
X16517071Y-22716286D01*
X16531357Y-22673429D01*
X16545643Y-22602000D01*
X16545643Y-22544857D01*
X16531357Y-22473429D01*
X16517071Y-22430571D01*
X16502786Y-22402000D01*
X16474214Y-22359143D01*
X16459928Y-22344857D01*
M02*
