G04 #@! TF.FileFunction,Legend,Top*
%FSLAX46Y46*%
G04 Gerber Fmt 4.6, Leading zero omitted, Abs format (unit mm)*
G04 Created by KiCad (PCBNEW 4.0.7) date 06/13/18 12:32:35*
%MOMM*%
%LPD*%
G01*
G04 APERTURE LIST*
%ADD10C,0.100000*%
%ADD11C,0.120000*%
%ADD12C,0.150000*%
G04 APERTURE END LIST*
D10*
D11*
X303085800Y-120614462D02*
G75*
G03X297535800Y-119069170I-2990000J462D01*
G01*
X303085800Y-120613538D02*
G75*
G02X297535800Y-122158830I-2990000J-462D01*
G01*
X302595800Y-120614000D02*
G75*
G03X302595800Y-120614000I-2500000J0D01*
G01*
X297535800Y-119069000D02*
X297535800Y-122159000D01*
X303187400Y-128336062D02*
G75*
G03X297637400Y-126790770I-2990000J462D01*
G01*
X303187400Y-128335138D02*
G75*
G02X297637400Y-129880430I-2990000J-462D01*
G01*
X302697400Y-128335600D02*
G75*
G03X302697400Y-128335600I-2500000J0D01*
G01*
X297637400Y-126790600D02*
X297637400Y-129880600D01*
X303187400Y-136057662D02*
G75*
G03X297637400Y-134512370I-2990000J462D01*
G01*
X303187400Y-136056738D02*
G75*
G02X297637400Y-137602030I-2990000J-462D01*
G01*
X302697400Y-136057200D02*
G75*
G03X302697400Y-136057200I-2500000J0D01*
G01*
X297637400Y-134512200D02*
X297637400Y-137602200D01*
X303187400Y-143779262D02*
G75*
G03X297637400Y-142233970I-2990000J462D01*
G01*
X303187400Y-143778338D02*
G75*
G02X297637400Y-145323630I-2990000J-462D01*
G01*
X302697400Y-143778800D02*
G75*
G03X302697400Y-143778800I-2500000J0D01*
G01*
X297637400Y-142233800D02*
X297637400Y-145323800D01*
X303238200Y-151500862D02*
G75*
G03X297688200Y-149955570I-2990000J462D01*
G01*
X303238200Y-151499938D02*
G75*
G02X297688200Y-153045230I-2990000J-462D01*
G01*
X302748200Y-151500400D02*
G75*
G03X302748200Y-151500400I-2500000J0D01*
G01*
X297688200Y-149955400D02*
X297688200Y-153045400D01*
X303238200Y-159222462D02*
G75*
G03X297688200Y-157677170I-2990000J462D01*
G01*
X303238200Y-159221538D02*
G75*
G02X297688200Y-160766830I-2990000J-462D01*
G01*
X302748200Y-159222000D02*
G75*
G03X302748200Y-159222000I-2500000J0D01*
G01*
X297688200Y-157677000D02*
X297688200Y-160767000D01*
X303238200Y-166944062D02*
G75*
G03X297688200Y-165398770I-2990000J462D01*
G01*
X303238200Y-166943138D02*
G75*
G02X297688200Y-168488430I-2990000J-462D01*
G01*
X302748200Y-166943600D02*
G75*
G03X302748200Y-166943600I-2500000J0D01*
G01*
X297688200Y-165398600D02*
X297688200Y-168488600D01*
X303238200Y-174665662D02*
G75*
G03X297688200Y-173120370I-2990000J462D01*
G01*
X303238200Y-174664738D02*
G75*
G02X297688200Y-176210030I-2990000J-462D01*
G01*
X302748200Y-174665200D02*
G75*
G03X302748200Y-174665200I-2500000J0D01*
G01*
X297688200Y-173120200D02*
X297688200Y-176210200D01*
X303289000Y-182387262D02*
G75*
G03X297739000Y-180841970I-2990000J462D01*
G01*
X303289000Y-182386338D02*
G75*
G02X297739000Y-183931630I-2990000J-462D01*
G01*
X302799000Y-182386800D02*
G75*
G03X302799000Y-182386800I-2500000J0D01*
G01*
X297739000Y-180841800D02*
X297739000Y-183931800D01*
X303238200Y-190108862D02*
G75*
G03X297688200Y-188563570I-2990000J462D01*
G01*
X303238200Y-190107938D02*
G75*
G02X297688200Y-191653230I-2990000J-462D01*
G01*
X302748200Y-190108400D02*
G75*
G03X302748200Y-190108400I-2500000J0D01*
G01*
X297688200Y-188563400D02*
X297688200Y-191653400D01*
X264681000Y-120563662D02*
G75*
G03X259131000Y-119018370I-2990000J462D01*
G01*
X264681000Y-120562738D02*
G75*
G02X259131000Y-122108030I-2990000J-462D01*
G01*
X264191000Y-120563200D02*
G75*
G03X264191000Y-120563200I-2500000J0D01*
G01*
X259131000Y-119018200D02*
X259131000Y-122108200D01*
X264731800Y-128285262D02*
G75*
G03X259181800Y-126739970I-2990000J462D01*
G01*
X264731800Y-128284338D02*
G75*
G02X259181800Y-129829630I-2990000J-462D01*
G01*
X264241800Y-128284800D02*
G75*
G03X264241800Y-128284800I-2500000J0D01*
G01*
X259181800Y-126739800D02*
X259181800Y-129829800D01*
X264731800Y-136006862D02*
G75*
G03X259181800Y-134461570I-2990000J462D01*
G01*
X264731800Y-136005938D02*
G75*
G02X259181800Y-137551230I-2990000J-462D01*
G01*
X264241800Y-136006400D02*
G75*
G03X264241800Y-136006400I-2500000J0D01*
G01*
X259181800Y-134461400D02*
X259181800Y-137551400D01*
X264731800Y-143728462D02*
G75*
G03X259181800Y-142183170I-2990000J462D01*
G01*
X264731800Y-143727538D02*
G75*
G02X259181800Y-145272830I-2990000J-462D01*
G01*
X264241800Y-143728000D02*
G75*
G03X264241800Y-143728000I-2500000J0D01*
G01*
X259181800Y-142183000D02*
X259181800Y-145273000D01*
X264782600Y-151450062D02*
G75*
G03X259232600Y-149904770I-2990000J462D01*
G01*
X264782600Y-151449138D02*
G75*
G02X259232600Y-152994430I-2990000J-462D01*
G01*
X264292600Y-151449600D02*
G75*
G03X264292600Y-151449600I-2500000J0D01*
G01*
X259232600Y-149904600D02*
X259232600Y-152994600D01*
X264782600Y-159171662D02*
G75*
G03X259232600Y-157626370I-2990000J462D01*
G01*
X264782600Y-159170738D02*
G75*
G02X259232600Y-160716030I-2990000J-462D01*
G01*
X264292600Y-159171200D02*
G75*
G03X264292600Y-159171200I-2500000J0D01*
G01*
X259232600Y-157626200D02*
X259232600Y-160716200D01*
X264782600Y-166893262D02*
G75*
G03X259232600Y-165347970I-2990000J462D01*
G01*
X264782600Y-166892338D02*
G75*
G02X259232600Y-168437630I-2990000J-462D01*
G01*
X264292600Y-166892800D02*
G75*
G03X264292600Y-166892800I-2500000J0D01*
G01*
X259232600Y-165347800D02*
X259232600Y-168437800D01*
X264782600Y-174614862D02*
G75*
G03X259232600Y-173069570I-2990000J462D01*
G01*
X264782600Y-174613938D02*
G75*
G02X259232600Y-176159230I-2990000J-462D01*
G01*
X264292600Y-174614400D02*
G75*
G03X264292600Y-174614400I-2500000J0D01*
G01*
X259232600Y-173069400D02*
X259232600Y-176159400D01*
X264833400Y-182336462D02*
G75*
G03X259283400Y-180791170I-2990000J462D01*
G01*
X264833400Y-182335538D02*
G75*
G02X259283400Y-183880830I-2990000J-462D01*
G01*
X264343400Y-182336000D02*
G75*
G03X264343400Y-182336000I-2500000J0D01*
G01*
X259283400Y-180791000D02*
X259283400Y-183881000D01*
X264782600Y-190007262D02*
G75*
G03X259232600Y-188461970I-2990000J462D01*
G01*
X264782600Y-190006338D02*
G75*
G02X259232600Y-191551630I-2990000J-462D01*
G01*
X264292600Y-190006800D02*
G75*
G03X264292600Y-190006800I-2500000J0D01*
G01*
X259232600Y-188461800D02*
X259232600Y-191551800D01*
X283883400Y-120563662D02*
G75*
G03X278333400Y-119018370I-2990000J462D01*
G01*
X283883400Y-120562738D02*
G75*
G02X278333400Y-122108030I-2990000J-462D01*
G01*
X283393400Y-120563200D02*
G75*
G03X283393400Y-120563200I-2500000J0D01*
G01*
X278333400Y-119018200D02*
X278333400Y-122108200D01*
X283934200Y-128234462D02*
G75*
G03X278384200Y-126689170I-2990000J462D01*
G01*
X283934200Y-128233538D02*
G75*
G02X278384200Y-129778830I-2990000J-462D01*
G01*
X283444200Y-128234000D02*
G75*
G03X283444200Y-128234000I-2500000J0D01*
G01*
X278384200Y-126689000D02*
X278384200Y-129779000D01*
X283985000Y-135956062D02*
G75*
G03X278435000Y-134410770I-2990000J462D01*
G01*
X283985000Y-135955138D02*
G75*
G02X278435000Y-137500430I-2990000J-462D01*
G01*
X283495000Y-135955600D02*
G75*
G03X283495000Y-135955600I-2500000J0D01*
G01*
X278435000Y-134410600D02*
X278435000Y-137500600D01*
X283883400Y-143677662D02*
G75*
G03X278333400Y-142132370I-2990000J462D01*
G01*
X283883400Y-143676738D02*
G75*
G02X278333400Y-145222030I-2990000J-462D01*
G01*
X283393400Y-143677200D02*
G75*
G03X283393400Y-143677200I-2500000J0D01*
G01*
X278333400Y-142132200D02*
X278333400Y-145222200D01*
X283985000Y-151399262D02*
G75*
G03X278435000Y-149853970I-2990000J462D01*
G01*
X283985000Y-151398338D02*
G75*
G02X278435000Y-152943630I-2990000J-462D01*
G01*
X283495000Y-151398800D02*
G75*
G03X283495000Y-151398800I-2500000J0D01*
G01*
X278435000Y-149853800D02*
X278435000Y-152943800D01*
X283934200Y-159120862D02*
G75*
G03X278384200Y-157575570I-2990000J462D01*
G01*
X283934200Y-159119938D02*
G75*
G02X278384200Y-160665230I-2990000J-462D01*
G01*
X283444200Y-159120400D02*
G75*
G03X283444200Y-159120400I-2500000J0D01*
G01*
X278384200Y-157575400D02*
X278384200Y-160665400D01*
X283985000Y-166842462D02*
G75*
G03X278435000Y-165297170I-2990000J462D01*
G01*
X283985000Y-166841538D02*
G75*
G02X278435000Y-168386830I-2990000J-462D01*
G01*
X283495000Y-166842000D02*
G75*
G03X283495000Y-166842000I-2500000J0D01*
G01*
X278435000Y-165297000D02*
X278435000Y-168387000D01*
X283985000Y-174564062D02*
G75*
G03X278435000Y-173018770I-2990000J462D01*
G01*
X283985000Y-174563138D02*
G75*
G02X278435000Y-176108430I-2990000J-462D01*
G01*
X283495000Y-174563600D02*
G75*
G03X283495000Y-174563600I-2500000J0D01*
G01*
X278435000Y-173018600D02*
X278435000Y-176108600D01*
X283985000Y-182285662D02*
G75*
G03X278435000Y-180740370I-2990000J462D01*
G01*
X283985000Y-182284738D02*
G75*
G02X278435000Y-183830030I-2990000J-462D01*
G01*
X283495000Y-182285200D02*
G75*
G03X283495000Y-182285200I-2500000J0D01*
G01*
X278435000Y-180740200D02*
X278435000Y-183830200D01*
X284035800Y-190007262D02*
G75*
G03X278485800Y-188461970I-2990000J462D01*
G01*
X284035800Y-190006338D02*
G75*
G02X278485800Y-191551630I-2990000J-462D01*
G01*
X283545800Y-190006800D02*
G75*
G03X283545800Y-190006800I-2500000J0D01*
G01*
X278485800Y-188461800D02*
X278485800Y-191551800D01*
X245275400Y-120512862D02*
G75*
G03X239725400Y-118967570I-2990000J462D01*
G01*
X245275400Y-120511938D02*
G75*
G02X239725400Y-122057230I-2990000J-462D01*
G01*
X244785400Y-120512400D02*
G75*
G03X244785400Y-120512400I-2500000J0D01*
G01*
X239725400Y-118967400D02*
X239725400Y-122057400D01*
X185687000Y-120512862D02*
G75*
G03X180137000Y-118967570I-2990000J462D01*
G01*
X185687000Y-120511938D02*
G75*
G02X180137000Y-122057230I-2990000J-462D01*
G01*
X185197000Y-120512400D02*
G75*
G03X185197000Y-120512400I-2500000J0D01*
G01*
X180137000Y-118967400D02*
X180137000Y-122057400D01*
X245275400Y-128183662D02*
G75*
G03X239725400Y-126638370I-2990000J462D01*
G01*
X245275400Y-128182738D02*
G75*
G02X239725400Y-129728030I-2990000J-462D01*
G01*
X244785400Y-128183200D02*
G75*
G03X244785400Y-128183200I-2500000J0D01*
G01*
X239725400Y-126638200D02*
X239725400Y-129728200D01*
X185687000Y-128234462D02*
G75*
G03X180137000Y-126689170I-2990000J462D01*
G01*
X185687000Y-128233538D02*
G75*
G02X180137000Y-129778830I-2990000J-462D01*
G01*
X185197000Y-128234000D02*
G75*
G03X185197000Y-128234000I-2500000J0D01*
G01*
X180137000Y-126689000D02*
X180137000Y-129779000D01*
X245275400Y-135956062D02*
G75*
G03X239725400Y-134410770I-2990000J462D01*
G01*
X245275400Y-135955138D02*
G75*
G02X239725400Y-137500430I-2990000J-462D01*
G01*
X244785400Y-135955600D02*
G75*
G03X244785400Y-135955600I-2500000J0D01*
G01*
X239725400Y-134410600D02*
X239725400Y-137500600D01*
X185737800Y-135956062D02*
G75*
G03X180187800Y-134410770I-2990000J462D01*
G01*
X185737800Y-135955138D02*
G75*
G02X180187800Y-137500430I-2990000J-462D01*
G01*
X185247800Y-135955600D02*
G75*
G03X185247800Y-135955600I-2500000J0D01*
G01*
X180187800Y-134410600D02*
X180187800Y-137500600D01*
X245326200Y-143677662D02*
G75*
G03X239776200Y-142132370I-2990000J462D01*
G01*
X245326200Y-143676738D02*
G75*
G02X239776200Y-145222030I-2990000J-462D01*
G01*
X244836200Y-143677200D02*
G75*
G03X244836200Y-143677200I-2500000J0D01*
G01*
X239776200Y-142132200D02*
X239776200Y-145222200D01*
X185788600Y-143677662D02*
G75*
G03X180238600Y-142132370I-2990000J462D01*
G01*
X185788600Y-143676738D02*
G75*
G02X180238600Y-145222030I-2990000J-462D01*
G01*
X185298600Y-143677200D02*
G75*
G03X185298600Y-143677200I-2500000J0D01*
G01*
X180238600Y-142132200D02*
X180238600Y-145222200D01*
X245326200Y-151399262D02*
G75*
G03X239776200Y-149853970I-2990000J462D01*
G01*
X245326200Y-151398338D02*
G75*
G02X239776200Y-152943630I-2990000J-462D01*
G01*
X244836200Y-151398800D02*
G75*
G03X244836200Y-151398800I-2500000J0D01*
G01*
X239776200Y-149853800D02*
X239776200Y-152943800D01*
X185737800Y-151399262D02*
G75*
G03X180187800Y-149853970I-2990000J462D01*
G01*
X185737800Y-151398338D02*
G75*
G02X180187800Y-152943630I-2990000J-462D01*
G01*
X185247800Y-151398800D02*
G75*
G03X185247800Y-151398800I-2500000J0D01*
G01*
X180187800Y-149853800D02*
X180187800Y-152943800D01*
X245326200Y-159120862D02*
G75*
G03X239776200Y-157575570I-2990000J462D01*
G01*
X245326200Y-159119938D02*
G75*
G02X239776200Y-160665230I-2990000J-462D01*
G01*
X244836200Y-159120400D02*
G75*
G03X244836200Y-159120400I-2500000J0D01*
G01*
X239776200Y-157575400D02*
X239776200Y-160665400D01*
X185788600Y-159120862D02*
G75*
G03X180238600Y-157575570I-2990000J462D01*
G01*
X185788600Y-159119938D02*
G75*
G02X180238600Y-160665230I-2990000J-462D01*
G01*
X185298600Y-159120400D02*
G75*
G03X185298600Y-159120400I-2500000J0D01*
G01*
X180238600Y-157575400D02*
X180238600Y-160665400D01*
X245377000Y-166842462D02*
G75*
G03X239827000Y-165297170I-2990000J462D01*
G01*
X245377000Y-166841538D02*
G75*
G02X239827000Y-168386830I-2990000J-462D01*
G01*
X244887000Y-166842000D02*
G75*
G03X244887000Y-166842000I-2500000J0D01*
G01*
X239827000Y-165297000D02*
X239827000Y-168387000D01*
X185737800Y-166842462D02*
G75*
G03X180187800Y-165297170I-2990000J462D01*
G01*
X185737800Y-166841538D02*
G75*
G02X180187800Y-168386830I-2990000J-462D01*
G01*
X185247800Y-166842000D02*
G75*
G03X185247800Y-166842000I-2500000J0D01*
G01*
X180187800Y-165297000D02*
X180187800Y-168387000D01*
X245377000Y-174564062D02*
G75*
G03X239827000Y-173018770I-2990000J462D01*
G01*
X245377000Y-174563138D02*
G75*
G02X239827000Y-176108430I-2990000J-462D01*
G01*
X244887000Y-174563600D02*
G75*
G03X244887000Y-174563600I-2500000J0D01*
G01*
X239827000Y-173018600D02*
X239827000Y-176108600D01*
X185788600Y-174564062D02*
G75*
G03X180238600Y-173018770I-2990000J462D01*
G01*
X185788600Y-174563138D02*
G75*
G02X180238600Y-176108430I-2990000J-462D01*
G01*
X185298600Y-174563600D02*
G75*
G03X185298600Y-174563600I-2500000J0D01*
G01*
X180238600Y-173018600D02*
X180238600Y-176108600D01*
X245427800Y-182285662D02*
G75*
G03X239877800Y-180740370I-2990000J462D01*
G01*
X245427800Y-182284738D02*
G75*
G02X239877800Y-183830030I-2990000J-462D01*
G01*
X244937800Y-182285200D02*
G75*
G03X244937800Y-182285200I-2500000J0D01*
G01*
X239877800Y-180740200D02*
X239877800Y-183830200D01*
X185788600Y-182285662D02*
G75*
G03X180238600Y-180740370I-2990000J462D01*
G01*
X185788600Y-182284738D02*
G75*
G02X180238600Y-183830030I-2990000J-462D01*
G01*
X185298600Y-182285200D02*
G75*
G03X185298600Y-182285200I-2500000J0D01*
G01*
X180238600Y-180740200D02*
X180238600Y-183830200D01*
X245377000Y-190007262D02*
G75*
G03X239827000Y-188461970I-2990000J462D01*
G01*
X245377000Y-190006338D02*
G75*
G02X239827000Y-191551630I-2990000J-462D01*
G01*
X244887000Y-190006800D02*
G75*
G03X244887000Y-190006800I-2500000J0D01*
G01*
X239827000Y-188461800D02*
X239827000Y-191551800D01*
X185788600Y-190007262D02*
G75*
G03X180238600Y-188461970I-2990000J462D01*
G01*
X185788600Y-190006338D02*
G75*
G02X180238600Y-191551630I-2990000J-462D01*
G01*
X185298600Y-190006800D02*
G75*
G03X185298600Y-190006800I-2500000J0D01*
G01*
X180238600Y-188461800D02*
X180238600Y-191551800D01*
X225463400Y-120512862D02*
G75*
G03X219913400Y-118967570I-2990000J462D01*
G01*
X225463400Y-120511938D02*
G75*
G02X219913400Y-122057230I-2990000J-462D01*
G01*
X224973400Y-120512400D02*
G75*
G03X224973400Y-120512400I-2500000J0D01*
G01*
X219913400Y-118967400D02*
X219913400Y-122057400D01*
X165925800Y-120411262D02*
G75*
G03X160375800Y-118865970I-2990000J462D01*
G01*
X165925800Y-120410338D02*
G75*
G02X160375800Y-121955630I-2990000J-462D01*
G01*
X165435800Y-120410800D02*
G75*
G03X165435800Y-120410800I-2500000J0D01*
G01*
X160375800Y-118865800D02*
X160375800Y-121955800D01*
X225412600Y-128234462D02*
G75*
G03X219862600Y-126689170I-2990000J462D01*
G01*
X225412600Y-128233538D02*
G75*
G02X219862600Y-129778830I-2990000J-462D01*
G01*
X224922600Y-128234000D02*
G75*
G03X224922600Y-128234000I-2500000J0D01*
G01*
X219862600Y-126689000D02*
X219862600Y-129779000D01*
X165925800Y-128132862D02*
G75*
G03X160375800Y-126587570I-2990000J462D01*
G01*
X165925800Y-128131938D02*
G75*
G02X160375800Y-129677230I-2990000J-462D01*
G01*
X165435800Y-128132400D02*
G75*
G03X165435800Y-128132400I-2500000J0D01*
G01*
X160375800Y-126587400D02*
X160375800Y-129677400D01*
X225463400Y-135956062D02*
G75*
G03X219913400Y-134410770I-2990000J462D01*
G01*
X225463400Y-135955138D02*
G75*
G02X219913400Y-137500430I-2990000J-462D01*
G01*
X224973400Y-135955600D02*
G75*
G03X224973400Y-135955600I-2500000J0D01*
G01*
X219913400Y-134410600D02*
X219913400Y-137500600D01*
X165925800Y-135854462D02*
G75*
G03X160375800Y-134309170I-2990000J462D01*
G01*
X165925800Y-135853538D02*
G75*
G02X160375800Y-137398830I-2990000J-462D01*
G01*
X165435800Y-135854000D02*
G75*
G03X165435800Y-135854000I-2500000J0D01*
G01*
X160375800Y-134309000D02*
X160375800Y-137399000D01*
X225463400Y-143677662D02*
G75*
G03X219913400Y-142132370I-2990000J462D01*
G01*
X225463400Y-143676738D02*
G75*
G02X219913400Y-145222030I-2990000J-462D01*
G01*
X224973400Y-143677200D02*
G75*
G03X224973400Y-143677200I-2500000J0D01*
G01*
X219913400Y-142132200D02*
X219913400Y-145222200D01*
X165925800Y-143576062D02*
G75*
G03X160375800Y-142030770I-2990000J462D01*
G01*
X165925800Y-143575138D02*
G75*
G02X160375800Y-145120430I-2990000J-462D01*
G01*
X165435800Y-143575600D02*
G75*
G03X165435800Y-143575600I-2500000J0D01*
G01*
X160375800Y-142030600D02*
X160375800Y-145120600D01*
X225514200Y-151399262D02*
G75*
G03X219964200Y-149853970I-2990000J462D01*
G01*
X225514200Y-151398338D02*
G75*
G02X219964200Y-152943630I-2990000J-462D01*
G01*
X225024200Y-151398800D02*
G75*
G03X225024200Y-151398800I-2500000J0D01*
G01*
X219964200Y-149853800D02*
X219964200Y-152943800D01*
X165925800Y-151297662D02*
G75*
G03X160375800Y-149752370I-2990000J462D01*
G01*
X165925800Y-151296738D02*
G75*
G02X160375800Y-152842030I-2990000J-462D01*
G01*
X165435800Y-151297200D02*
G75*
G03X165435800Y-151297200I-2500000J0D01*
G01*
X160375800Y-149752200D02*
X160375800Y-152842200D01*
X225514200Y-159120862D02*
G75*
G03X219964200Y-157575570I-2990000J462D01*
G01*
X225514200Y-159119938D02*
G75*
G02X219964200Y-160665230I-2990000J-462D01*
G01*
X225024200Y-159120400D02*
G75*
G03X225024200Y-159120400I-2500000J0D01*
G01*
X219964200Y-157575400D02*
X219964200Y-160665400D01*
X165925800Y-159019262D02*
G75*
G03X160375800Y-157473970I-2990000J462D01*
G01*
X165925800Y-159018338D02*
G75*
G02X160375800Y-160563630I-2990000J-462D01*
G01*
X165435800Y-159018800D02*
G75*
G03X165435800Y-159018800I-2500000J0D01*
G01*
X160375800Y-157473800D02*
X160375800Y-160563800D01*
X225514200Y-166842462D02*
G75*
G03X219964200Y-165297170I-2990000J462D01*
G01*
X225514200Y-166841538D02*
G75*
G02X219964200Y-168386830I-2990000J-462D01*
G01*
X225024200Y-166842000D02*
G75*
G03X225024200Y-166842000I-2500000J0D01*
G01*
X219964200Y-165297000D02*
X219964200Y-168387000D01*
X165925800Y-166740862D02*
G75*
G03X160375800Y-165195570I-2990000J462D01*
G01*
X165925800Y-166739938D02*
G75*
G02X160375800Y-168285230I-2990000J-462D01*
G01*
X165435800Y-166740400D02*
G75*
G03X165435800Y-166740400I-2500000J0D01*
G01*
X160375800Y-165195400D02*
X160375800Y-168285400D01*
X225514200Y-174564062D02*
G75*
G03X219964200Y-173018770I-2990000J462D01*
G01*
X225514200Y-174563138D02*
G75*
G02X219964200Y-176108430I-2990000J-462D01*
G01*
X225024200Y-174563600D02*
G75*
G03X225024200Y-174563600I-2500000J0D01*
G01*
X219964200Y-173018600D02*
X219964200Y-176108600D01*
X165875000Y-174411662D02*
G75*
G03X160325000Y-172866370I-2990000J462D01*
G01*
X165875000Y-174410738D02*
G75*
G02X160325000Y-175956030I-2990000J-462D01*
G01*
X165385000Y-174411200D02*
G75*
G03X165385000Y-174411200I-2500000J0D01*
G01*
X160325000Y-172866200D02*
X160325000Y-175956200D01*
X225565000Y-182285662D02*
G75*
G03X220015000Y-180740370I-2990000J462D01*
G01*
X225565000Y-182284738D02*
G75*
G02X220015000Y-183830030I-2990000J-462D01*
G01*
X225075000Y-182285200D02*
G75*
G03X225075000Y-182285200I-2500000J0D01*
G01*
X220015000Y-180740200D02*
X220015000Y-183830200D01*
X165925800Y-182133262D02*
G75*
G03X160375800Y-180587970I-2990000J462D01*
G01*
X165925800Y-182132338D02*
G75*
G02X160375800Y-183677630I-2990000J-462D01*
G01*
X165435800Y-182132800D02*
G75*
G03X165435800Y-182132800I-2500000J0D01*
G01*
X160375800Y-180587800D02*
X160375800Y-183677800D01*
X225565000Y-190007262D02*
G75*
G03X220015000Y-188461970I-2990000J462D01*
G01*
X225565000Y-190006338D02*
G75*
G02X220015000Y-191551630I-2990000J-462D01*
G01*
X225075000Y-190006800D02*
G75*
G03X225075000Y-190006800I-2500000J0D01*
G01*
X220015000Y-188461800D02*
X220015000Y-191551800D01*
X165976600Y-189854862D02*
G75*
G03X160426600Y-188309570I-2990000J462D01*
G01*
X165976600Y-189853938D02*
G75*
G02X160426600Y-191399230I-2990000J-462D01*
G01*
X165486600Y-189854400D02*
G75*
G03X165486600Y-189854400I-2500000J0D01*
G01*
X160426600Y-188309400D02*
X160426600Y-191399400D01*
X205600600Y-120512862D02*
G75*
G03X200050600Y-118967570I-2990000J462D01*
G01*
X205600600Y-120511938D02*
G75*
G02X200050600Y-122057230I-2990000J-462D01*
G01*
X205110600Y-120512400D02*
G75*
G03X205110600Y-120512400I-2500000J0D01*
G01*
X200050600Y-118967400D02*
X200050600Y-122057400D01*
X146266200Y-120563662D02*
G75*
G03X140716200Y-119018370I-2990000J462D01*
G01*
X146266200Y-120562738D02*
G75*
G02X140716200Y-122108030I-2990000J-462D01*
G01*
X145776200Y-120563200D02*
G75*
G03X145776200Y-120563200I-2500000J0D01*
G01*
X140716200Y-119018200D02*
X140716200Y-122108200D01*
X205549800Y-128285262D02*
G75*
G03X199999800Y-126739970I-2990000J462D01*
G01*
X205549800Y-128284338D02*
G75*
G02X199999800Y-129829630I-2990000J-462D01*
G01*
X205059800Y-128284800D02*
G75*
G03X205059800Y-128284800I-2500000J0D01*
G01*
X199999800Y-126739800D02*
X199999800Y-129829800D01*
X146215400Y-128234462D02*
G75*
G03X140665400Y-126689170I-2990000J462D01*
G01*
X146215400Y-128233538D02*
G75*
G02X140665400Y-129778830I-2990000J-462D01*
G01*
X145725400Y-128234000D02*
G75*
G03X145725400Y-128234000I-2500000J0D01*
G01*
X140665400Y-126689000D02*
X140665400Y-129779000D01*
X205600600Y-135956062D02*
G75*
G03X200050600Y-134410770I-2990000J462D01*
G01*
X205600600Y-135955138D02*
G75*
G02X200050600Y-137500430I-2990000J-462D01*
G01*
X205110600Y-135955600D02*
G75*
G03X205110600Y-135955600I-2500000J0D01*
G01*
X200050600Y-134410600D02*
X200050600Y-137500600D01*
X146266200Y-135956062D02*
G75*
G03X140716200Y-134410770I-2990000J462D01*
G01*
X146266200Y-135955138D02*
G75*
G02X140716200Y-137500430I-2990000J-462D01*
G01*
X145776200Y-135955600D02*
G75*
G03X145776200Y-135955600I-2500000J0D01*
G01*
X140716200Y-134410600D02*
X140716200Y-137500600D01*
X205600600Y-143677662D02*
G75*
G03X200050600Y-142132370I-2990000J462D01*
G01*
X205600600Y-143676738D02*
G75*
G02X200050600Y-145222030I-2990000J-462D01*
G01*
X205110600Y-143677200D02*
G75*
G03X205110600Y-143677200I-2500000J0D01*
G01*
X200050600Y-142132200D02*
X200050600Y-145222200D01*
X146266200Y-143677662D02*
G75*
G03X140716200Y-142132370I-2990000J462D01*
G01*
X146266200Y-143676738D02*
G75*
G02X140716200Y-145222030I-2990000J-462D01*
G01*
X145776200Y-143677200D02*
G75*
G03X145776200Y-143677200I-2500000J0D01*
G01*
X140716200Y-142132200D02*
X140716200Y-145222200D01*
X205600600Y-151399262D02*
G75*
G03X200050600Y-149853970I-2990000J462D01*
G01*
X205600600Y-151398338D02*
G75*
G02X200050600Y-152943630I-2990000J-462D01*
G01*
X205110600Y-151398800D02*
G75*
G03X205110600Y-151398800I-2500000J0D01*
G01*
X200050600Y-149853800D02*
X200050600Y-152943800D01*
X146266200Y-151399262D02*
G75*
G03X140716200Y-149853970I-2990000J462D01*
G01*
X146266200Y-151398338D02*
G75*
G02X140716200Y-152943630I-2990000J-462D01*
G01*
X145776200Y-151398800D02*
G75*
G03X145776200Y-151398800I-2500000J0D01*
G01*
X140716200Y-149853800D02*
X140716200Y-152943800D01*
X205651400Y-159120862D02*
G75*
G03X200101400Y-157575570I-2990000J462D01*
G01*
X205651400Y-159119938D02*
G75*
G02X200101400Y-160665230I-2990000J-462D01*
G01*
X205161400Y-159120400D02*
G75*
G03X205161400Y-159120400I-2500000J0D01*
G01*
X200101400Y-157575400D02*
X200101400Y-160665400D01*
X146266200Y-159120862D02*
G75*
G03X140716200Y-157575570I-2990000J462D01*
G01*
X146266200Y-159119938D02*
G75*
G02X140716200Y-160665230I-2990000J-462D01*
G01*
X145776200Y-159120400D02*
G75*
G03X145776200Y-159120400I-2500000J0D01*
G01*
X140716200Y-157575400D02*
X140716200Y-160665400D01*
X205651400Y-166842462D02*
G75*
G03X200101400Y-165297170I-2990000J462D01*
G01*
X205651400Y-166841538D02*
G75*
G02X200101400Y-168386830I-2990000J-462D01*
G01*
X205161400Y-166842000D02*
G75*
G03X205161400Y-166842000I-2500000J0D01*
G01*
X200101400Y-165297000D02*
X200101400Y-168387000D01*
X146215400Y-166842462D02*
G75*
G03X140665400Y-165297170I-2990000J462D01*
G01*
X146215400Y-166841538D02*
G75*
G02X140665400Y-168386830I-2990000J-462D01*
G01*
X145725400Y-166842000D02*
G75*
G03X145725400Y-166842000I-2500000J0D01*
G01*
X140665400Y-165297000D02*
X140665400Y-168387000D01*
X205651400Y-174564062D02*
G75*
G03X200101400Y-173018770I-2990000J462D01*
G01*
X205651400Y-174563138D02*
G75*
G02X200101400Y-176108430I-2990000J-462D01*
G01*
X205161400Y-174563600D02*
G75*
G03X205161400Y-174563600I-2500000J0D01*
G01*
X200101400Y-173018600D02*
X200101400Y-176108600D01*
X146215400Y-174564062D02*
G75*
G03X140665400Y-173018770I-2990000J462D01*
G01*
X146215400Y-174563138D02*
G75*
G02X140665400Y-176108430I-2990000J-462D01*
G01*
X145725400Y-174563600D02*
G75*
G03X145725400Y-174563600I-2500000J0D01*
G01*
X140665400Y-173018600D02*
X140665400Y-176108600D01*
X205702200Y-182285662D02*
G75*
G03X200152200Y-180740370I-2990000J462D01*
G01*
X205702200Y-182284738D02*
G75*
G02X200152200Y-183830030I-2990000J-462D01*
G01*
X205212200Y-182285200D02*
G75*
G03X205212200Y-182285200I-2500000J0D01*
G01*
X200152200Y-180740200D02*
X200152200Y-183830200D01*
X146266200Y-182285662D02*
G75*
G03X140716200Y-180740370I-2990000J462D01*
G01*
X146266200Y-182284738D02*
G75*
G02X140716200Y-183830030I-2990000J-462D01*
G01*
X145776200Y-182285200D02*
G75*
G03X145776200Y-182285200I-2500000J0D01*
G01*
X140716200Y-180740200D02*
X140716200Y-183830200D01*
X205702200Y-190007262D02*
G75*
G03X200152200Y-188461970I-2990000J462D01*
G01*
X205702200Y-190006338D02*
G75*
G02X200152200Y-191551630I-2990000J-462D01*
G01*
X205212200Y-190006800D02*
G75*
G03X205212200Y-190006800I-2500000J0D01*
G01*
X200152200Y-188461800D02*
X200152200Y-191551800D01*
X146266200Y-190007262D02*
G75*
G03X140716200Y-188461970I-2990000J462D01*
G01*
X146266200Y-190006338D02*
G75*
G02X140716200Y-191551630I-2990000J-462D01*
G01*
X145776200Y-190006800D02*
G75*
G03X145776200Y-190006800I-2500000J0D01*
G01*
X140716200Y-188461800D02*
X140716200Y-191551800D01*
D12*
X290216667Y-185652381D02*
X290216667Y-186366667D01*
X290169047Y-186509524D01*
X290073809Y-186604762D01*
X289930952Y-186652381D01*
X289835714Y-186652381D01*
X291169048Y-185652381D02*
X290692857Y-185652381D01*
X290645238Y-186128571D01*
X290692857Y-186080952D01*
X290788095Y-186033333D01*
X291026191Y-186033333D01*
X291121429Y-186080952D01*
X291169048Y-186128571D01*
X291216667Y-186223810D01*
X291216667Y-186461905D01*
X291169048Y-186557143D01*
X291121429Y-186604762D01*
X291026191Y-186652381D01*
X290788095Y-186652381D01*
X290692857Y-186604762D01*
X290645238Y-186557143D01*
X299776924Y-117256381D02*
X299776924Y-116256381D01*
X300015019Y-116256381D01*
X300157877Y-116304000D01*
X300253115Y-116399238D01*
X300300734Y-116494476D01*
X300348353Y-116684952D01*
X300348353Y-116827810D01*
X300300734Y-117018286D01*
X300253115Y-117113524D01*
X300157877Y-117208762D01*
X300015019Y-117256381D01*
X299776924Y-117256381D01*
X301300734Y-117256381D02*
X300729305Y-117256381D01*
X301015019Y-117256381D02*
X301015019Y-116256381D01*
X300919781Y-116399238D01*
X300824543Y-116494476D01*
X300729305Y-116542095D01*
X301919781Y-116256381D02*
X302015020Y-116256381D01*
X302110258Y-116304000D01*
X302157877Y-116351619D01*
X302205496Y-116446857D01*
X302253115Y-116637333D01*
X302253115Y-116875429D01*
X302205496Y-117065905D01*
X302157877Y-117161143D01*
X302110258Y-117208762D01*
X302015020Y-117256381D01*
X301919781Y-117256381D01*
X301824543Y-117208762D01*
X301776924Y-117161143D01*
X301729305Y-117065905D01*
X301681686Y-116875429D01*
X301681686Y-116637333D01*
X301729305Y-116446857D01*
X301776924Y-116351619D01*
X301824543Y-116304000D01*
X301919781Y-116256381D01*
X302824543Y-116684952D02*
X302729305Y-116637333D01*
X302681686Y-116589714D01*
X302634067Y-116494476D01*
X302634067Y-116446857D01*
X302681686Y-116351619D01*
X302729305Y-116304000D01*
X302824543Y-116256381D01*
X303015020Y-116256381D01*
X303110258Y-116304000D01*
X303157877Y-116351619D01*
X303205496Y-116446857D01*
X303205496Y-116494476D01*
X303157877Y-116589714D01*
X303110258Y-116637333D01*
X303015020Y-116684952D01*
X302824543Y-116684952D01*
X302729305Y-116732571D01*
X302681686Y-116780190D01*
X302634067Y-116875429D01*
X302634067Y-117065905D01*
X302681686Y-117161143D01*
X302729305Y-117208762D01*
X302824543Y-117256381D01*
X303015020Y-117256381D01*
X303110258Y-117208762D01*
X303157877Y-117161143D01*
X303205496Y-117065905D01*
X303205496Y-116875429D01*
X303157877Y-116780190D01*
X303110258Y-116732571D01*
X303015020Y-116684952D01*
X299929324Y-124977981D02*
X299929324Y-123977981D01*
X300167419Y-123977981D01*
X300310277Y-124025600D01*
X300405515Y-124120838D01*
X300453134Y-124216076D01*
X300500753Y-124406552D01*
X300500753Y-124549410D01*
X300453134Y-124739886D01*
X300405515Y-124835124D01*
X300310277Y-124930362D01*
X300167419Y-124977981D01*
X299929324Y-124977981D01*
X301453134Y-124977981D02*
X300881705Y-124977981D01*
X301167419Y-124977981D02*
X301167419Y-123977981D01*
X301072181Y-124120838D01*
X300976943Y-124216076D01*
X300881705Y-124263695D01*
X302072181Y-123977981D02*
X302167420Y-123977981D01*
X302262658Y-124025600D01*
X302310277Y-124073219D01*
X302357896Y-124168457D01*
X302405515Y-124358933D01*
X302405515Y-124597029D01*
X302357896Y-124787505D01*
X302310277Y-124882743D01*
X302262658Y-124930362D01*
X302167420Y-124977981D01*
X302072181Y-124977981D01*
X301976943Y-124930362D01*
X301929324Y-124882743D01*
X301881705Y-124787505D01*
X301834086Y-124597029D01*
X301834086Y-124358933D01*
X301881705Y-124168457D01*
X301929324Y-124073219D01*
X301976943Y-124025600D01*
X302072181Y-123977981D01*
X302738848Y-123977981D02*
X303405515Y-123977981D01*
X302976943Y-124977981D01*
X299827724Y-132699581D02*
X299827724Y-131699581D01*
X300065819Y-131699581D01*
X300208677Y-131747200D01*
X300303915Y-131842438D01*
X300351534Y-131937676D01*
X300399153Y-132128152D01*
X300399153Y-132271010D01*
X300351534Y-132461486D01*
X300303915Y-132556724D01*
X300208677Y-132651962D01*
X300065819Y-132699581D01*
X299827724Y-132699581D01*
X301351534Y-132699581D02*
X300780105Y-132699581D01*
X301065819Y-132699581D02*
X301065819Y-131699581D01*
X300970581Y-131842438D01*
X300875343Y-131937676D01*
X300780105Y-131985295D01*
X301970581Y-131699581D02*
X302065820Y-131699581D01*
X302161058Y-131747200D01*
X302208677Y-131794819D01*
X302256296Y-131890057D01*
X302303915Y-132080533D01*
X302303915Y-132318629D01*
X302256296Y-132509105D01*
X302208677Y-132604343D01*
X302161058Y-132651962D01*
X302065820Y-132699581D01*
X301970581Y-132699581D01*
X301875343Y-132651962D01*
X301827724Y-132604343D01*
X301780105Y-132509105D01*
X301732486Y-132318629D01*
X301732486Y-132080533D01*
X301780105Y-131890057D01*
X301827724Y-131794819D01*
X301875343Y-131747200D01*
X301970581Y-131699581D01*
X303161058Y-131699581D02*
X302970581Y-131699581D01*
X302875343Y-131747200D01*
X302827724Y-131794819D01*
X302732486Y-131937676D01*
X302684867Y-132128152D01*
X302684867Y-132509105D01*
X302732486Y-132604343D01*
X302780105Y-132651962D01*
X302875343Y-132699581D01*
X303065820Y-132699581D01*
X303161058Y-132651962D01*
X303208677Y-132604343D01*
X303256296Y-132509105D01*
X303256296Y-132271010D01*
X303208677Y-132175771D01*
X303161058Y-132128152D01*
X303065820Y-132080533D01*
X302875343Y-132080533D01*
X302780105Y-132128152D01*
X302732486Y-132175771D01*
X302684867Y-132271010D01*
X299776924Y-140421181D02*
X299776924Y-139421181D01*
X300015019Y-139421181D01*
X300157877Y-139468800D01*
X300253115Y-139564038D01*
X300300734Y-139659276D01*
X300348353Y-139849752D01*
X300348353Y-139992610D01*
X300300734Y-140183086D01*
X300253115Y-140278324D01*
X300157877Y-140373562D01*
X300015019Y-140421181D01*
X299776924Y-140421181D01*
X301300734Y-140421181D02*
X300729305Y-140421181D01*
X301015019Y-140421181D02*
X301015019Y-139421181D01*
X300919781Y-139564038D01*
X300824543Y-139659276D01*
X300729305Y-139706895D01*
X301919781Y-139421181D02*
X302015020Y-139421181D01*
X302110258Y-139468800D01*
X302157877Y-139516419D01*
X302205496Y-139611657D01*
X302253115Y-139802133D01*
X302253115Y-140040229D01*
X302205496Y-140230705D01*
X302157877Y-140325943D01*
X302110258Y-140373562D01*
X302015020Y-140421181D01*
X301919781Y-140421181D01*
X301824543Y-140373562D01*
X301776924Y-140325943D01*
X301729305Y-140230705D01*
X301681686Y-140040229D01*
X301681686Y-139802133D01*
X301729305Y-139611657D01*
X301776924Y-139516419D01*
X301824543Y-139468800D01*
X301919781Y-139421181D01*
X303157877Y-139421181D02*
X302681686Y-139421181D01*
X302634067Y-139897371D01*
X302681686Y-139849752D01*
X302776924Y-139802133D01*
X303015020Y-139802133D01*
X303110258Y-139849752D01*
X303157877Y-139897371D01*
X303205496Y-139992610D01*
X303205496Y-140230705D01*
X303157877Y-140325943D01*
X303110258Y-140373562D01*
X303015020Y-140421181D01*
X302776924Y-140421181D01*
X302681686Y-140373562D01*
X302634067Y-140325943D01*
X299827724Y-148142781D02*
X299827724Y-147142781D01*
X300065819Y-147142781D01*
X300208677Y-147190400D01*
X300303915Y-147285638D01*
X300351534Y-147380876D01*
X300399153Y-147571352D01*
X300399153Y-147714210D01*
X300351534Y-147904686D01*
X300303915Y-147999924D01*
X300208677Y-148095162D01*
X300065819Y-148142781D01*
X299827724Y-148142781D01*
X301351534Y-148142781D02*
X300780105Y-148142781D01*
X301065819Y-148142781D02*
X301065819Y-147142781D01*
X300970581Y-147285638D01*
X300875343Y-147380876D01*
X300780105Y-147428495D01*
X301970581Y-147142781D02*
X302065820Y-147142781D01*
X302161058Y-147190400D01*
X302208677Y-147238019D01*
X302256296Y-147333257D01*
X302303915Y-147523733D01*
X302303915Y-147761829D01*
X302256296Y-147952305D01*
X302208677Y-148047543D01*
X302161058Y-148095162D01*
X302065820Y-148142781D01*
X301970581Y-148142781D01*
X301875343Y-148095162D01*
X301827724Y-148047543D01*
X301780105Y-147952305D01*
X301732486Y-147761829D01*
X301732486Y-147523733D01*
X301780105Y-147333257D01*
X301827724Y-147238019D01*
X301875343Y-147190400D01*
X301970581Y-147142781D01*
X303161058Y-147476114D02*
X303161058Y-148142781D01*
X302922962Y-147095162D02*
X302684867Y-147809448D01*
X303303915Y-147809448D01*
X299878524Y-155864381D02*
X299878524Y-154864381D01*
X300116619Y-154864381D01*
X300259477Y-154912000D01*
X300354715Y-155007238D01*
X300402334Y-155102476D01*
X300449953Y-155292952D01*
X300449953Y-155435810D01*
X300402334Y-155626286D01*
X300354715Y-155721524D01*
X300259477Y-155816762D01*
X300116619Y-155864381D01*
X299878524Y-155864381D01*
X301402334Y-155864381D02*
X300830905Y-155864381D01*
X301116619Y-155864381D02*
X301116619Y-154864381D01*
X301021381Y-155007238D01*
X300926143Y-155102476D01*
X300830905Y-155150095D01*
X302021381Y-154864381D02*
X302116620Y-154864381D01*
X302211858Y-154912000D01*
X302259477Y-154959619D01*
X302307096Y-155054857D01*
X302354715Y-155245333D01*
X302354715Y-155483429D01*
X302307096Y-155673905D01*
X302259477Y-155769143D01*
X302211858Y-155816762D01*
X302116620Y-155864381D01*
X302021381Y-155864381D01*
X301926143Y-155816762D01*
X301878524Y-155769143D01*
X301830905Y-155673905D01*
X301783286Y-155483429D01*
X301783286Y-155245333D01*
X301830905Y-155054857D01*
X301878524Y-154959619D01*
X301926143Y-154912000D01*
X302021381Y-154864381D01*
X302688048Y-154864381D02*
X303307096Y-154864381D01*
X302973762Y-155245333D01*
X303116620Y-155245333D01*
X303211858Y-155292952D01*
X303259477Y-155340571D01*
X303307096Y-155435810D01*
X303307096Y-155673905D01*
X303259477Y-155769143D01*
X303211858Y-155816762D01*
X303116620Y-155864381D01*
X302830905Y-155864381D01*
X302735667Y-155816762D01*
X302688048Y-155769143D01*
X299929324Y-163585981D02*
X299929324Y-162585981D01*
X300167419Y-162585981D01*
X300310277Y-162633600D01*
X300405515Y-162728838D01*
X300453134Y-162824076D01*
X300500753Y-163014552D01*
X300500753Y-163157410D01*
X300453134Y-163347886D01*
X300405515Y-163443124D01*
X300310277Y-163538362D01*
X300167419Y-163585981D01*
X299929324Y-163585981D01*
X301453134Y-163585981D02*
X300881705Y-163585981D01*
X301167419Y-163585981D02*
X301167419Y-162585981D01*
X301072181Y-162728838D01*
X300976943Y-162824076D01*
X300881705Y-162871695D01*
X302072181Y-162585981D02*
X302167420Y-162585981D01*
X302262658Y-162633600D01*
X302310277Y-162681219D01*
X302357896Y-162776457D01*
X302405515Y-162966933D01*
X302405515Y-163205029D01*
X302357896Y-163395505D01*
X302310277Y-163490743D01*
X302262658Y-163538362D01*
X302167420Y-163585981D01*
X302072181Y-163585981D01*
X301976943Y-163538362D01*
X301929324Y-163490743D01*
X301881705Y-163395505D01*
X301834086Y-163205029D01*
X301834086Y-162966933D01*
X301881705Y-162776457D01*
X301929324Y-162681219D01*
X301976943Y-162633600D01*
X302072181Y-162585981D01*
X302786467Y-162681219D02*
X302834086Y-162633600D01*
X302929324Y-162585981D01*
X303167420Y-162585981D01*
X303262658Y-162633600D01*
X303310277Y-162681219D01*
X303357896Y-162776457D01*
X303357896Y-162871695D01*
X303310277Y-163014552D01*
X302738848Y-163585981D01*
X303357896Y-163585981D01*
X299878524Y-171307581D02*
X299878524Y-170307581D01*
X300116619Y-170307581D01*
X300259477Y-170355200D01*
X300354715Y-170450438D01*
X300402334Y-170545676D01*
X300449953Y-170736152D01*
X300449953Y-170879010D01*
X300402334Y-171069486D01*
X300354715Y-171164724D01*
X300259477Y-171259962D01*
X300116619Y-171307581D01*
X299878524Y-171307581D01*
X301402334Y-171307581D02*
X300830905Y-171307581D01*
X301116619Y-171307581D02*
X301116619Y-170307581D01*
X301021381Y-170450438D01*
X300926143Y-170545676D01*
X300830905Y-170593295D01*
X302021381Y-170307581D02*
X302116620Y-170307581D01*
X302211858Y-170355200D01*
X302259477Y-170402819D01*
X302307096Y-170498057D01*
X302354715Y-170688533D01*
X302354715Y-170926629D01*
X302307096Y-171117105D01*
X302259477Y-171212343D01*
X302211858Y-171259962D01*
X302116620Y-171307581D01*
X302021381Y-171307581D01*
X301926143Y-171259962D01*
X301878524Y-171212343D01*
X301830905Y-171117105D01*
X301783286Y-170926629D01*
X301783286Y-170688533D01*
X301830905Y-170498057D01*
X301878524Y-170402819D01*
X301926143Y-170355200D01*
X302021381Y-170307581D01*
X303307096Y-171307581D02*
X302735667Y-171307581D01*
X303021381Y-171307581D02*
X303021381Y-170307581D01*
X302926143Y-170450438D01*
X302830905Y-170545676D01*
X302735667Y-170593295D01*
X300030924Y-179029181D02*
X300030924Y-178029181D01*
X300269019Y-178029181D01*
X300411877Y-178076800D01*
X300507115Y-178172038D01*
X300554734Y-178267276D01*
X300602353Y-178457752D01*
X300602353Y-178600610D01*
X300554734Y-178791086D01*
X300507115Y-178886324D01*
X300411877Y-178981562D01*
X300269019Y-179029181D01*
X300030924Y-179029181D01*
X301554734Y-179029181D02*
X300983305Y-179029181D01*
X301269019Y-179029181D02*
X301269019Y-178029181D01*
X301173781Y-178172038D01*
X301078543Y-178267276D01*
X300983305Y-178314895D01*
X302173781Y-178029181D02*
X302269020Y-178029181D01*
X302364258Y-178076800D01*
X302411877Y-178124419D01*
X302459496Y-178219657D01*
X302507115Y-178410133D01*
X302507115Y-178648229D01*
X302459496Y-178838705D01*
X302411877Y-178933943D01*
X302364258Y-178981562D01*
X302269020Y-179029181D01*
X302173781Y-179029181D01*
X302078543Y-178981562D01*
X302030924Y-178933943D01*
X301983305Y-178838705D01*
X301935686Y-178648229D01*
X301935686Y-178410133D01*
X301983305Y-178219657D01*
X302030924Y-178124419D01*
X302078543Y-178076800D01*
X302173781Y-178029181D01*
X303126162Y-178029181D02*
X303221401Y-178029181D01*
X303316639Y-178076800D01*
X303364258Y-178124419D01*
X303411877Y-178219657D01*
X303459496Y-178410133D01*
X303459496Y-178648229D01*
X303411877Y-178838705D01*
X303364258Y-178933943D01*
X303316639Y-178981562D01*
X303221401Y-179029181D01*
X303126162Y-179029181D01*
X303030924Y-178981562D01*
X302983305Y-178933943D01*
X302935686Y-178838705D01*
X302888067Y-178648229D01*
X302888067Y-178410133D01*
X302935686Y-178219657D01*
X302983305Y-178124419D01*
X303030924Y-178076800D01*
X303126162Y-178029181D01*
X300862714Y-186750781D02*
X300862714Y-185750781D01*
X301100809Y-185750781D01*
X301243667Y-185798400D01*
X301338905Y-185893638D01*
X301386524Y-185988876D01*
X301434143Y-186179352D01*
X301434143Y-186322210D01*
X301386524Y-186512686D01*
X301338905Y-186607924D01*
X301243667Y-186703162D01*
X301100809Y-186750781D01*
X300862714Y-186750781D01*
X301910333Y-186750781D02*
X302100809Y-186750781D01*
X302196048Y-186703162D01*
X302243667Y-186655543D01*
X302338905Y-186512686D01*
X302386524Y-186322210D01*
X302386524Y-185941257D01*
X302338905Y-185846019D01*
X302291286Y-185798400D01*
X302196048Y-185750781D01*
X302005571Y-185750781D01*
X301910333Y-185798400D01*
X301862714Y-185846019D01*
X301815095Y-185941257D01*
X301815095Y-186179352D01*
X301862714Y-186274590D01*
X301910333Y-186322210D01*
X302005571Y-186369829D01*
X302196048Y-186369829D01*
X302291286Y-186322210D01*
X302338905Y-186274590D01*
X302386524Y-186179352D01*
X302862714Y-186750781D02*
X303053190Y-186750781D01*
X303148429Y-186703162D01*
X303196048Y-186655543D01*
X303291286Y-186512686D01*
X303338905Y-186322210D01*
X303338905Y-185941257D01*
X303291286Y-185846019D01*
X303243667Y-185798400D01*
X303148429Y-185750781D01*
X302957952Y-185750781D01*
X302862714Y-185798400D01*
X302815095Y-185846019D01*
X302767476Y-185941257D01*
X302767476Y-186179352D01*
X302815095Y-186274590D01*
X302862714Y-186322210D01*
X302957952Y-186369829D01*
X303148429Y-186369829D01*
X303243667Y-186322210D01*
X303291286Y-186274590D01*
X303338905Y-186179352D01*
X262305514Y-117205581D02*
X262305514Y-116205581D01*
X262543609Y-116205581D01*
X262686467Y-116253200D01*
X262781705Y-116348438D01*
X262829324Y-116443676D01*
X262876943Y-116634152D01*
X262876943Y-116777010D01*
X262829324Y-116967486D01*
X262781705Y-117062724D01*
X262686467Y-117157962D01*
X262543609Y-117205581D01*
X262305514Y-117205581D01*
X263353133Y-117205581D02*
X263543609Y-117205581D01*
X263638848Y-117157962D01*
X263686467Y-117110343D01*
X263781705Y-116967486D01*
X263829324Y-116777010D01*
X263829324Y-116396057D01*
X263781705Y-116300819D01*
X263734086Y-116253200D01*
X263638848Y-116205581D01*
X263448371Y-116205581D01*
X263353133Y-116253200D01*
X263305514Y-116300819D01*
X263257895Y-116396057D01*
X263257895Y-116634152D01*
X263305514Y-116729390D01*
X263353133Y-116777010D01*
X263448371Y-116824629D01*
X263638848Y-116824629D01*
X263734086Y-116777010D01*
X263781705Y-116729390D01*
X263829324Y-116634152D01*
X264400752Y-116634152D02*
X264305514Y-116586533D01*
X264257895Y-116538914D01*
X264210276Y-116443676D01*
X264210276Y-116396057D01*
X264257895Y-116300819D01*
X264305514Y-116253200D01*
X264400752Y-116205581D01*
X264591229Y-116205581D01*
X264686467Y-116253200D01*
X264734086Y-116300819D01*
X264781705Y-116396057D01*
X264781705Y-116443676D01*
X264734086Y-116538914D01*
X264686467Y-116586533D01*
X264591229Y-116634152D01*
X264400752Y-116634152D01*
X264305514Y-116681771D01*
X264257895Y-116729390D01*
X264210276Y-116824629D01*
X264210276Y-117015105D01*
X264257895Y-117110343D01*
X264305514Y-117157962D01*
X264400752Y-117205581D01*
X264591229Y-117205581D01*
X264686467Y-117157962D01*
X264734086Y-117110343D01*
X264781705Y-117015105D01*
X264781705Y-116824629D01*
X264734086Y-116729390D01*
X264686467Y-116681771D01*
X264591229Y-116634152D01*
X262356314Y-124927181D02*
X262356314Y-123927181D01*
X262594409Y-123927181D01*
X262737267Y-123974800D01*
X262832505Y-124070038D01*
X262880124Y-124165276D01*
X262927743Y-124355752D01*
X262927743Y-124498610D01*
X262880124Y-124689086D01*
X262832505Y-124784324D01*
X262737267Y-124879562D01*
X262594409Y-124927181D01*
X262356314Y-124927181D01*
X263403933Y-124927181D02*
X263594409Y-124927181D01*
X263689648Y-124879562D01*
X263737267Y-124831943D01*
X263832505Y-124689086D01*
X263880124Y-124498610D01*
X263880124Y-124117657D01*
X263832505Y-124022419D01*
X263784886Y-123974800D01*
X263689648Y-123927181D01*
X263499171Y-123927181D01*
X263403933Y-123974800D01*
X263356314Y-124022419D01*
X263308695Y-124117657D01*
X263308695Y-124355752D01*
X263356314Y-124450990D01*
X263403933Y-124498610D01*
X263499171Y-124546229D01*
X263689648Y-124546229D01*
X263784886Y-124498610D01*
X263832505Y-124450990D01*
X263880124Y-124355752D01*
X264213457Y-123927181D02*
X264880124Y-123927181D01*
X264451552Y-124927181D01*
X262457914Y-132648781D02*
X262457914Y-131648781D01*
X262696009Y-131648781D01*
X262838867Y-131696400D01*
X262934105Y-131791638D01*
X262981724Y-131886876D01*
X263029343Y-132077352D01*
X263029343Y-132220210D01*
X262981724Y-132410686D01*
X262934105Y-132505924D01*
X262838867Y-132601162D01*
X262696009Y-132648781D01*
X262457914Y-132648781D01*
X263505533Y-132648781D02*
X263696009Y-132648781D01*
X263791248Y-132601162D01*
X263838867Y-132553543D01*
X263934105Y-132410686D01*
X263981724Y-132220210D01*
X263981724Y-131839257D01*
X263934105Y-131744019D01*
X263886486Y-131696400D01*
X263791248Y-131648781D01*
X263600771Y-131648781D01*
X263505533Y-131696400D01*
X263457914Y-131744019D01*
X263410295Y-131839257D01*
X263410295Y-132077352D01*
X263457914Y-132172590D01*
X263505533Y-132220210D01*
X263600771Y-132267829D01*
X263791248Y-132267829D01*
X263886486Y-132220210D01*
X263934105Y-132172590D01*
X263981724Y-132077352D01*
X264838867Y-131648781D02*
X264648390Y-131648781D01*
X264553152Y-131696400D01*
X264505533Y-131744019D01*
X264410295Y-131886876D01*
X264362676Y-132077352D01*
X264362676Y-132458305D01*
X264410295Y-132553543D01*
X264457914Y-132601162D01*
X264553152Y-132648781D01*
X264743629Y-132648781D01*
X264838867Y-132601162D01*
X264886486Y-132553543D01*
X264934105Y-132458305D01*
X264934105Y-132220210D01*
X264886486Y-132124971D01*
X264838867Y-132077352D01*
X264743629Y-132029733D01*
X264553152Y-132029733D01*
X264457914Y-132077352D01*
X264410295Y-132124971D01*
X264362676Y-132220210D01*
X262407114Y-140370381D02*
X262407114Y-139370381D01*
X262645209Y-139370381D01*
X262788067Y-139418000D01*
X262883305Y-139513238D01*
X262930924Y-139608476D01*
X262978543Y-139798952D01*
X262978543Y-139941810D01*
X262930924Y-140132286D01*
X262883305Y-140227524D01*
X262788067Y-140322762D01*
X262645209Y-140370381D01*
X262407114Y-140370381D01*
X263454733Y-140370381D02*
X263645209Y-140370381D01*
X263740448Y-140322762D01*
X263788067Y-140275143D01*
X263883305Y-140132286D01*
X263930924Y-139941810D01*
X263930924Y-139560857D01*
X263883305Y-139465619D01*
X263835686Y-139418000D01*
X263740448Y-139370381D01*
X263549971Y-139370381D01*
X263454733Y-139418000D01*
X263407114Y-139465619D01*
X263359495Y-139560857D01*
X263359495Y-139798952D01*
X263407114Y-139894190D01*
X263454733Y-139941810D01*
X263549971Y-139989429D01*
X263740448Y-139989429D01*
X263835686Y-139941810D01*
X263883305Y-139894190D01*
X263930924Y-139798952D01*
X264835686Y-139370381D02*
X264359495Y-139370381D01*
X264311876Y-139846571D01*
X264359495Y-139798952D01*
X264454733Y-139751333D01*
X264692829Y-139751333D01*
X264788067Y-139798952D01*
X264835686Y-139846571D01*
X264883305Y-139941810D01*
X264883305Y-140179905D01*
X264835686Y-140275143D01*
X264788067Y-140322762D01*
X264692829Y-140370381D01*
X264454733Y-140370381D01*
X264359495Y-140322762D01*
X264311876Y-140275143D01*
X262356314Y-148091981D02*
X262356314Y-147091981D01*
X262594409Y-147091981D01*
X262737267Y-147139600D01*
X262832505Y-147234838D01*
X262880124Y-147330076D01*
X262927743Y-147520552D01*
X262927743Y-147663410D01*
X262880124Y-147853886D01*
X262832505Y-147949124D01*
X262737267Y-148044362D01*
X262594409Y-148091981D01*
X262356314Y-148091981D01*
X263403933Y-148091981D02*
X263594409Y-148091981D01*
X263689648Y-148044362D01*
X263737267Y-147996743D01*
X263832505Y-147853886D01*
X263880124Y-147663410D01*
X263880124Y-147282457D01*
X263832505Y-147187219D01*
X263784886Y-147139600D01*
X263689648Y-147091981D01*
X263499171Y-147091981D01*
X263403933Y-147139600D01*
X263356314Y-147187219D01*
X263308695Y-147282457D01*
X263308695Y-147520552D01*
X263356314Y-147615790D01*
X263403933Y-147663410D01*
X263499171Y-147711029D01*
X263689648Y-147711029D01*
X263784886Y-147663410D01*
X263832505Y-147615790D01*
X263880124Y-147520552D01*
X264737267Y-147425314D02*
X264737267Y-148091981D01*
X264499171Y-147044362D02*
X264261076Y-147758648D01*
X264880124Y-147758648D01*
X262356314Y-155813581D02*
X262356314Y-154813581D01*
X262594409Y-154813581D01*
X262737267Y-154861200D01*
X262832505Y-154956438D01*
X262880124Y-155051676D01*
X262927743Y-155242152D01*
X262927743Y-155385010D01*
X262880124Y-155575486D01*
X262832505Y-155670724D01*
X262737267Y-155765962D01*
X262594409Y-155813581D01*
X262356314Y-155813581D01*
X263403933Y-155813581D02*
X263594409Y-155813581D01*
X263689648Y-155765962D01*
X263737267Y-155718343D01*
X263832505Y-155575486D01*
X263880124Y-155385010D01*
X263880124Y-155004057D01*
X263832505Y-154908819D01*
X263784886Y-154861200D01*
X263689648Y-154813581D01*
X263499171Y-154813581D01*
X263403933Y-154861200D01*
X263356314Y-154908819D01*
X263308695Y-155004057D01*
X263308695Y-155242152D01*
X263356314Y-155337390D01*
X263403933Y-155385010D01*
X263499171Y-155432629D01*
X263689648Y-155432629D01*
X263784886Y-155385010D01*
X263832505Y-155337390D01*
X263880124Y-155242152D01*
X264213457Y-154813581D02*
X264832505Y-154813581D01*
X264499171Y-155194533D01*
X264642029Y-155194533D01*
X264737267Y-155242152D01*
X264784886Y-155289771D01*
X264832505Y-155385010D01*
X264832505Y-155623105D01*
X264784886Y-155718343D01*
X264737267Y-155765962D01*
X264642029Y-155813581D01*
X264356314Y-155813581D01*
X264261076Y-155765962D01*
X264213457Y-155718343D01*
X262356314Y-163535181D02*
X262356314Y-162535181D01*
X262594409Y-162535181D01*
X262737267Y-162582800D01*
X262832505Y-162678038D01*
X262880124Y-162773276D01*
X262927743Y-162963752D01*
X262927743Y-163106610D01*
X262880124Y-163297086D01*
X262832505Y-163392324D01*
X262737267Y-163487562D01*
X262594409Y-163535181D01*
X262356314Y-163535181D01*
X263403933Y-163535181D02*
X263594409Y-163535181D01*
X263689648Y-163487562D01*
X263737267Y-163439943D01*
X263832505Y-163297086D01*
X263880124Y-163106610D01*
X263880124Y-162725657D01*
X263832505Y-162630419D01*
X263784886Y-162582800D01*
X263689648Y-162535181D01*
X263499171Y-162535181D01*
X263403933Y-162582800D01*
X263356314Y-162630419D01*
X263308695Y-162725657D01*
X263308695Y-162963752D01*
X263356314Y-163058990D01*
X263403933Y-163106610D01*
X263499171Y-163154229D01*
X263689648Y-163154229D01*
X263784886Y-163106610D01*
X263832505Y-163058990D01*
X263880124Y-162963752D01*
X264261076Y-162630419D02*
X264308695Y-162582800D01*
X264403933Y-162535181D01*
X264642029Y-162535181D01*
X264737267Y-162582800D01*
X264784886Y-162630419D01*
X264832505Y-162725657D01*
X264832505Y-162820895D01*
X264784886Y-162963752D01*
X264213457Y-163535181D01*
X264832505Y-163535181D01*
X262407114Y-171256781D02*
X262407114Y-170256781D01*
X262645209Y-170256781D01*
X262788067Y-170304400D01*
X262883305Y-170399638D01*
X262930924Y-170494876D01*
X262978543Y-170685352D01*
X262978543Y-170828210D01*
X262930924Y-171018686D01*
X262883305Y-171113924D01*
X262788067Y-171209162D01*
X262645209Y-171256781D01*
X262407114Y-171256781D01*
X263454733Y-171256781D02*
X263645209Y-171256781D01*
X263740448Y-171209162D01*
X263788067Y-171161543D01*
X263883305Y-171018686D01*
X263930924Y-170828210D01*
X263930924Y-170447257D01*
X263883305Y-170352019D01*
X263835686Y-170304400D01*
X263740448Y-170256781D01*
X263549971Y-170256781D01*
X263454733Y-170304400D01*
X263407114Y-170352019D01*
X263359495Y-170447257D01*
X263359495Y-170685352D01*
X263407114Y-170780590D01*
X263454733Y-170828210D01*
X263549971Y-170875829D01*
X263740448Y-170875829D01*
X263835686Y-170828210D01*
X263883305Y-170780590D01*
X263930924Y-170685352D01*
X264883305Y-171256781D02*
X264311876Y-171256781D01*
X264597590Y-171256781D02*
X264597590Y-170256781D01*
X264502352Y-170399638D01*
X264407114Y-170494876D01*
X264311876Y-170542495D01*
X262356314Y-178978381D02*
X262356314Y-177978381D01*
X262594409Y-177978381D01*
X262737267Y-178026000D01*
X262832505Y-178121238D01*
X262880124Y-178216476D01*
X262927743Y-178406952D01*
X262927743Y-178549810D01*
X262880124Y-178740286D01*
X262832505Y-178835524D01*
X262737267Y-178930762D01*
X262594409Y-178978381D01*
X262356314Y-178978381D01*
X263403933Y-178978381D02*
X263594409Y-178978381D01*
X263689648Y-178930762D01*
X263737267Y-178883143D01*
X263832505Y-178740286D01*
X263880124Y-178549810D01*
X263880124Y-178168857D01*
X263832505Y-178073619D01*
X263784886Y-178026000D01*
X263689648Y-177978381D01*
X263499171Y-177978381D01*
X263403933Y-178026000D01*
X263356314Y-178073619D01*
X263308695Y-178168857D01*
X263308695Y-178406952D01*
X263356314Y-178502190D01*
X263403933Y-178549810D01*
X263499171Y-178597429D01*
X263689648Y-178597429D01*
X263784886Y-178549810D01*
X263832505Y-178502190D01*
X263880124Y-178406952D01*
X264499171Y-177978381D02*
X264594410Y-177978381D01*
X264689648Y-178026000D01*
X264737267Y-178073619D01*
X264784886Y-178168857D01*
X264832505Y-178359333D01*
X264832505Y-178597429D01*
X264784886Y-178787905D01*
X264737267Y-178883143D01*
X264689648Y-178930762D01*
X264594410Y-178978381D01*
X264499171Y-178978381D01*
X264403933Y-178930762D01*
X264356314Y-178883143D01*
X264308695Y-178787905D01*
X264261076Y-178597429D01*
X264261076Y-178359333D01*
X264308695Y-178168857D01*
X264356314Y-178073619D01*
X264403933Y-178026000D01*
X264499171Y-177978381D01*
X262356314Y-186649181D02*
X262356314Y-185649181D01*
X262594409Y-185649181D01*
X262737267Y-185696800D01*
X262832505Y-185792038D01*
X262880124Y-185887276D01*
X262927743Y-186077752D01*
X262927743Y-186220610D01*
X262880124Y-186411086D01*
X262832505Y-186506324D01*
X262737267Y-186601562D01*
X262594409Y-186649181D01*
X262356314Y-186649181D01*
X263499171Y-186077752D02*
X263403933Y-186030133D01*
X263356314Y-185982514D01*
X263308695Y-185887276D01*
X263308695Y-185839657D01*
X263356314Y-185744419D01*
X263403933Y-185696800D01*
X263499171Y-185649181D01*
X263689648Y-185649181D01*
X263784886Y-185696800D01*
X263832505Y-185744419D01*
X263880124Y-185839657D01*
X263880124Y-185887276D01*
X263832505Y-185982514D01*
X263784886Y-186030133D01*
X263689648Y-186077752D01*
X263499171Y-186077752D01*
X263403933Y-186125371D01*
X263356314Y-186172990D01*
X263308695Y-186268229D01*
X263308695Y-186458705D01*
X263356314Y-186553943D01*
X263403933Y-186601562D01*
X263499171Y-186649181D01*
X263689648Y-186649181D01*
X263784886Y-186601562D01*
X263832505Y-186553943D01*
X263880124Y-186458705D01*
X263880124Y-186268229D01*
X263832505Y-186172990D01*
X263784886Y-186125371D01*
X263689648Y-186077752D01*
X264356314Y-186649181D02*
X264546790Y-186649181D01*
X264642029Y-186601562D01*
X264689648Y-186553943D01*
X264784886Y-186411086D01*
X264832505Y-186220610D01*
X264832505Y-185839657D01*
X264784886Y-185744419D01*
X264737267Y-185696800D01*
X264642029Y-185649181D01*
X264451552Y-185649181D01*
X264356314Y-185696800D01*
X264308695Y-185744419D01*
X264261076Y-185839657D01*
X264261076Y-186077752D01*
X264308695Y-186172990D01*
X264356314Y-186220610D01*
X264451552Y-186268229D01*
X264642029Y-186268229D01*
X264737267Y-186220610D01*
X264784886Y-186172990D01*
X264832505Y-186077752D01*
X281507914Y-117205581D02*
X281507914Y-116205581D01*
X281746009Y-116205581D01*
X281888867Y-116253200D01*
X281984105Y-116348438D01*
X282031724Y-116443676D01*
X282079343Y-116634152D01*
X282079343Y-116777010D01*
X282031724Y-116967486D01*
X281984105Y-117062724D01*
X281888867Y-117157962D01*
X281746009Y-117205581D01*
X281507914Y-117205581D01*
X282650771Y-116634152D02*
X282555533Y-116586533D01*
X282507914Y-116538914D01*
X282460295Y-116443676D01*
X282460295Y-116396057D01*
X282507914Y-116300819D01*
X282555533Y-116253200D01*
X282650771Y-116205581D01*
X282841248Y-116205581D01*
X282936486Y-116253200D01*
X282984105Y-116300819D01*
X283031724Y-116396057D01*
X283031724Y-116443676D01*
X282984105Y-116538914D01*
X282936486Y-116586533D01*
X282841248Y-116634152D01*
X282650771Y-116634152D01*
X282555533Y-116681771D01*
X282507914Y-116729390D01*
X282460295Y-116824629D01*
X282460295Y-117015105D01*
X282507914Y-117110343D01*
X282555533Y-117157962D01*
X282650771Y-117205581D01*
X282841248Y-117205581D01*
X282936486Y-117157962D01*
X282984105Y-117110343D01*
X283031724Y-117015105D01*
X283031724Y-116824629D01*
X282984105Y-116729390D01*
X282936486Y-116681771D01*
X282841248Y-116634152D01*
X283603152Y-116634152D02*
X283507914Y-116586533D01*
X283460295Y-116538914D01*
X283412676Y-116443676D01*
X283412676Y-116396057D01*
X283460295Y-116300819D01*
X283507914Y-116253200D01*
X283603152Y-116205581D01*
X283793629Y-116205581D01*
X283888867Y-116253200D01*
X283936486Y-116300819D01*
X283984105Y-116396057D01*
X283984105Y-116443676D01*
X283936486Y-116538914D01*
X283888867Y-116586533D01*
X283793629Y-116634152D01*
X283603152Y-116634152D01*
X283507914Y-116681771D01*
X283460295Y-116729390D01*
X283412676Y-116824629D01*
X283412676Y-117015105D01*
X283460295Y-117110343D01*
X283507914Y-117157962D01*
X283603152Y-117205581D01*
X283793629Y-117205581D01*
X283888867Y-117157962D01*
X283936486Y-117110343D01*
X283984105Y-117015105D01*
X283984105Y-116824629D01*
X283936486Y-116729390D01*
X283888867Y-116681771D01*
X283793629Y-116634152D01*
X281558714Y-124876381D02*
X281558714Y-123876381D01*
X281796809Y-123876381D01*
X281939667Y-123924000D01*
X282034905Y-124019238D01*
X282082524Y-124114476D01*
X282130143Y-124304952D01*
X282130143Y-124447810D01*
X282082524Y-124638286D01*
X282034905Y-124733524D01*
X281939667Y-124828762D01*
X281796809Y-124876381D01*
X281558714Y-124876381D01*
X282701571Y-124304952D02*
X282606333Y-124257333D01*
X282558714Y-124209714D01*
X282511095Y-124114476D01*
X282511095Y-124066857D01*
X282558714Y-123971619D01*
X282606333Y-123924000D01*
X282701571Y-123876381D01*
X282892048Y-123876381D01*
X282987286Y-123924000D01*
X283034905Y-123971619D01*
X283082524Y-124066857D01*
X283082524Y-124114476D01*
X283034905Y-124209714D01*
X282987286Y-124257333D01*
X282892048Y-124304952D01*
X282701571Y-124304952D01*
X282606333Y-124352571D01*
X282558714Y-124400190D01*
X282511095Y-124495429D01*
X282511095Y-124685905D01*
X282558714Y-124781143D01*
X282606333Y-124828762D01*
X282701571Y-124876381D01*
X282892048Y-124876381D01*
X282987286Y-124828762D01*
X283034905Y-124781143D01*
X283082524Y-124685905D01*
X283082524Y-124495429D01*
X283034905Y-124400190D01*
X282987286Y-124352571D01*
X282892048Y-124304952D01*
X283415857Y-123876381D02*
X284082524Y-123876381D01*
X283653952Y-124876381D01*
X281660314Y-132597981D02*
X281660314Y-131597981D01*
X281898409Y-131597981D01*
X282041267Y-131645600D01*
X282136505Y-131740838D01*
X282184124Y-131836076D01*
X282231743Y-132026552D01*
X282231743Y-132169410D01*
X282184124Y-132359886D01*
X282136505Y-132455124D01*
X282041267Y-132550362D01*
X281898409Y-132597981D01*
X281660314Y-132597981D01*
X282803171Y-132026552D02*
X282707933Y-131978933D01*
X282660314Y-131931314D01*
X282612695Y-131836076D01*
X282612695Y-131788457D01*
X282660314Y-131693219D01*
X282707933Y-131645600D01*
X282803171Y-131597981D01*
X282993648Y-131597981D01*
X283088886Y-131645600D01*
X283136505Y-131693219D01*
X283184124Y-131788457D01*
X283184124Y-131836076D01*
X283136505Y-131931314D01*
X283088886Y-131978933D01*
X282993648Y-132026552D01*
X282803171Y-132026552D01*
X282707933Y-132074171D01*
X282660314Y-132121790D01*
X282612695Y-132217029D01*
X282612695Y-132407505D01*
X282660314Y-132502743D01*
X282707933Y-132550362D01*
X282803171Y-132597981D01*
X282993648Y-132597981D01*
X283088886Y-132550362D01*
X283136505Y-132502743D01*
X283184124Y-132407505D01*
X283184124Y-132217029D01*
X283136505Y-132121790D01*
X283088886Y-132074171D01*
X282993648Y-132026552D01*
X284041267Y-131597981D02*
X283850790Y-131597981D01*
X283755552Y-131645600D01*
X283707933Y-131693219D01*
X283612695Y-131836076D01*
X283565076Y-132026552D01*
X283565076Y-132407505D01*
X283612695Y-132502743D01*
X283660314Y-132550362D01*
X283755552Y-132597981D01*
X283946029Y-132597981D01*
X284041267Y-132550362D01*
X284088886Y-132502743D01*
X284136505Y-132407505D01*
X284136505Y-132169410D01*
X284088886Y-132074171D01*
X284041267Y-132026552D01*
X283946029Y-131978933D01*
X283755552Y-131978933D01*
X283660314Y-132026552D01*
X283612695Y-132074171D01*
X283565076Y-132169410D01*
X281609514Y-140319581D02*
X281609514Y-139319581D01*
X281847609Y-139319581D01*
X281990467Y-139367200D01*
X282085705Y-139462438D01*
X282133324Y-139557676D01*
X282180943Y-139748152D01*
X282180943Y-139891010D01*
X282133324Y-140081486D01*
X282085705Y-140176724D01*
X281990467Y-140271962D01*
X281847609Y-140319581D01*
X281609514Y-140319581D01*
X282752371Y-139748152D02*
X282657133Y-139700533D01*
X282609514Y-139652914D01*
X282561895Y-139557676D01*
X282561895Y-139510057D01*
X282609514Y-139414819D01*
X282657133Y-139367200D01*
X282752371Y-139319581D01*
X282942848Y-139319581D01*
X283038086Y-139367200D01*
X283085705Y-139414819D01*
X283133324Y-139510057D01*
X283133324Y-139557676D01*
X283085705Y-139652914D01*
X283038086Y-139700533D01*
X282942848Y-139748152D01*
X282752371Y-139748152D01*
X282657133Y-139795771D01*
X282609514Y-139843390D01*
X282561895Y-139938629D01*
X282561895Y-140129105D01*
X282609514Y-140224343D01*
X282657133Y-140271962D01*
X282752371Y-140319581D01*
X282942848Y-140319581D01*
X283038086Y-140271962D01*
X283085705Y-140224343D01*
X283133324Y-140129105D01*
X283133324Y-139938629D01*
X283085705Y-139843390D01*
X283038086Y-139795771D01*
X282942848Y-139748152D01*
X284038086Y-139319581D02*
X283561895Y-139319581D01*
X283514276Y-139795771D01*
X283561895Y-139748152D01*
X283657133Y-139700533D01*
X283895229Y-139700533D01*
X283990467Y-139748152D01*
X284038086Y-139795771D01*
X284085705Y-139891010D01*
X284085705Y-140129105D01*
X284038086Y-140224343D01*
X283990467Y-140271962D01*
X283895229Y-140319581D01*
X283657133Y-140319581D01*
X283561895Y-140271962D01*
X283514276Y-140224343D01*
X281609514Y-148041181D02*
X281609514Y-147041181D01*
X281847609Y-147041181D01*
X281990467Y-147088800D01*
X282085705Y-147184038D01*
X282133324Y-147279276D01*
X282180943Y-147469752D01*
X282180943Y-147612610D01*
X282133324Y-147803086D01*
X282085705Y-147898324D01*
X281990467Y-147993562D01*
X281847609Y-148041181D01*
X281609514Y-148041181D01*
X282752371Y-147469752D02*
X282657133Y-147422133D01*
X282609514Y-147374514D01*
X282561895Y-147279276D01*
X282561895Y-147231657D01*
X282609514Y-147136419D01*
X282657133Y-147088800D01*
X282752371Y-147041181D01*
X282942848Y-147041181D01*
X283038086Y-147088800D01*
X283085705Y-147136419D01*
X283133324Y-147231657D01*
X283133324Y-147279276D01*
X283085705Y-147374514D01*
X283038086Y-147422133D01*
X282942848Y-147469752D01*
X282752371Y-147469752D01*
X282657133Y-147517371D01*
X282609514Y-147564990D01*
X282561895Y-147660229D01*
X282561895Y-147850705D01*
X282609514Y-147945943D01*
X282657133Y-147993562D01*
X282752371Y-148041181D01*
X282942848Y-148041181D01*
X283038086Y-147993562D01*
X283085705Y-147945943D01*
X283133324Y-147850705D01*
X283133324Y-147660229D01*
X283085705Y-147564990D01*
X283038086Y-147517371D01*
X282942848Y-147469752D01*
X283990467Y-147374514D02*
X283990467Y-148041181D01*
X283752371Y-146993562D02*
X283514276Y-147707848D01*
X284133324Y-147707848D01*
X281457114Y-155762781D02*
X281457114Y-154762781D01*
X281695209Y-154762781D01*
X281838067Y-154810400D01*
X281933305Y-154905638D01*
X281980924Y-155000876D01*
X282028543Y-155191352D01*
X282028543Y-155334210D01*
X281980924Y-155524686D01*
X281933305Y-155619924D01*
X281838067Y-155715162D01*
X281695209Y-155762781D01*
X281457114Y-155762781D01*
X282599971Y-155191352D02*
X282504733Y-155143733D01*
X282457114Y-155096114D01*
X282409495Y-155000876D01*
X282409495Y-154953257D01*
X282457114Y-154858019D01*
X282504733Y-154810400D01*
X282599971Y-154762781D01*
X282790448Y-154762781D01*
X282885686Y-154810400D01*
X282933305Y-154858019D01*
X282980924Y-154953257D01*
X282980924Y-155000876D01*
X282933305Y-155096114D01*
X282885686Y-155143733D01*
X282790448Y-155191352D01*
X282599971Y-155191352D01*
X282504733Y-155238971D01*
X282457114Y-155286590D01*
X282409495Y-155381829D01*
X282409495Y-155572305D01*
X282457114Y-155667543D01*
X282504733Y-155715162D01*
X282599971Y-155762781D01*
X282790448Y-155762781D01*
X282885686Y-155715162D01*
X282933305Y-155667543D01*
X282980924Y-155572305D01*
X282980924Y-155381829D01*
X282933305Y-155286590D01*
X282885686Y-155238971D01*
X282790448Y-155191352D01*
X283314257Y-154762781D02*
X283933305Y-154762781D01*
X283599971Y-155143733D01*
X283742829Y-155143733D01*
X283838067Y-155191352D01*
X283885686Y-155238971D01*
X283933305Y-155334210D01*
X283933305Y-155572305D01*
X283885686Y-155667543D01*
X283838067Y-155715162D01*
X283742829Y-155762781D01*
X283457114Y-155762781D01*
X283361876Y-155715162D01*
X283314257Y-155667543D01*
X281558714Y-163484381D02*
X281558714Y-162484381D01*
X281796809Y-162484381D01*
X281939667Y-162532000D01*
X282034905Y-162627238D01*
X282082524Y-162722476D01*
X282130143Y-162912952D01*
X282130143Y-163055810D01*
X282082524Y-163246286D01*
X282034905Y-163341524D01*
X281939667Y-163436762D01*
X281796809Y-163484381D01*
X281558714Y-163484381D01*
X282701571Y-162912952D02*
X282606333Y-162865333D01*
X282558714Y-162817714D01*
X282511095Y-162722476D01*
X282511095Y-162674857D01*
X282558714Y-162579619D01*
X282606333Y-162532000D01*
X282701571Y-162484381D01*
X282892048Y-162484381D01*
X282987286Y-162532000D01*
X283034905Y-162579619D01*
X283082524Y-162674857D01*
X283082524Y-162722476D01*
X283034905Y-162817714D01*
X282987286Y-162865333D01*
X282892048Y-162912952D01*
X282701571Y-162912952D01*
X282606333Y-162960571D01*
X282558714Y-163008190D01*
X282511095Y-163103429D01*
X282511095Y-163293905D01*
X282558714Y-163389143D01*
X282606333Y-163436762D01*
X282701571Y-163484381D01*
X282892048Y-163484381D01*
X282987286Y-163436762D01*
X283034905Y-163389143D01*
X283082524Y-163293905D01*
X283082524Y-163103429D01*
X283034905Y-163008190D01*
X282987286Y-162960571D01*
X282892048Y-162912952D01*
X283463476Y-162579619D02*
X283511095Y-162532000D01*
X283606333Y-162484381D01*
X283844429Y-162484381D01*
X283939667Y-162532000D01*
X283987286Y-162579619D01*
X284034905Y-162674857D01*
X284034905Y-162770095D01*
X283987286Y-162912952D01*
X283415857Y-163484381D01*
X284034905Y-163484381D01*
X281609514Y-171205981D02*
X281609514Y-170205981D01*
X281847609Y-170205981D01*
X281990467Y-170253600D01*
X282085705Y-170348838D01*
X282133324Y-170444076D01*
X282180943Y-170634552D01*
X282180943Y-170777410D01*
X282133324Y-170967886D01*
X282085705Y-171063124D01*
X281990467Y-171158362D01*
X281847609Y-171205981D01*
X281609514Y-171205981D01*
X282752371Y-170634552D02*
X282657133Y-170586933D01*
X282609514Y-170539314D01*
X282561895Y-170444076D01*
X282561895Y-170396457D01*
X282609514Y-170301219D01*
X282657133Y-170253600D01*
X282752371Y-170205981D01*
X282942848Y-170205981D01*
X283038086Y-170253600D01*
X283085705Y-170301219D01*
X283133324Y-170396457D01*
X283133324Y-170444076D01*
X283085705Y-170539314D01*
X283038086Y-170586933D01*
X282942848Y-170634552D01*
X282752371Y-170634552D01*
X282657133Y-170682171D01*
X282609514Y-170729790D01*
X282561895Y-170825029D01*
X282561895Y-171015505D01*
X282609514Y-171110743D01*
X282657133Y-171158362D01*
X282752371Y-171205981D01*
X282942848Y-171205981D01*
X283038086Y-171158362D01*
X283085705Y-171110743D01*
X283133324Y-171015505D01*
X283133324Y-170825029D01*
X283085705Y-170729790D01*
X283038086Y-170682171D01*
X282942848Y-170634552D01*
X284085705Y-171205981D02*
X283514276Y-171205981D01*
X283799990Y-171205981D02*
X283799990Y-170205981D01*
X283704752Y-170348838D01*
X283609514Y-170444076D01*
X283514276Y-170491695D01*
X281609514Y-178927581D02*
X281609514Y-177927581D01*
X281847609Y-177927581D01*
X281990467Y-177975200D01*
X282085705Y-178070438D01*
X282133324Y-178165676D01*
X282180943Y-178356152D01*
X282180943Y-178499010D01*
X282133324Y-178689486D01*
X282085705Y-178784724D01*
X281990467Y-178879962D01*
X281847609Y-178927581D01*
X281609514Y-178927581D01*
X282752371Y-178356152D02*
X282657133Y-178308533D01*
X282609514Y-178260914D01*
X282561895Y-178165676D01*
X282561895Y-178118057D01*
X282609514Y-178022819D01*
X282657133Y-177975200D01*
X282752371Y-177927581D01*
X282942848Y-177927581D01*
X283038086Y-177975200D01*
X283085705Y-178022819D01*
X283133324Y-178118057D01*
X283133324Y-178165676D01*
X283085705Y-178260914D01*
X283038086Y-178308533D01*
X282942848Y-178356152D01*
X282752371Y-178356152D01*
X282657133Y-178403771D01*
X282609514Y-178451390D01*
X282561895Y-178546629D01*
X282561895Y-178737105D01*
X282609514Y-178832343D01*
X282657133Y-178879962D01*
X282752371Y-178927581D01*
X282942848Y-178927581D01*
X283038086Y-178879962D01*
X283085705Y-178832343D01*
X283133324Y-178737105D01*
X283133324Y-178546629D01*
X283085705Y-178451390D01*
X283038086Y-178403771D01*
X282942848Y-178356152D01*
X283752371Y-177927581D02*
X283847610Y-177927581D01*
X283942848Y-177975200D01*
X283990467Y-178022819D01*
X284038086Y-178118057D01*
X284085705Y-178308533D01*
X284085705Y-178546629D01*
X284038086Y-178737105D01*
X283990467Y-178832343D01*
X283942848Y-178879962D01*
X283847610Y-178927581D01*
X283752371Y-178927581D01*
X283657133Y-178879962D01*
X283609514Y-178832343D01*
X283561895Y-178737105D01*
X283514276Y-178546629D01*
X283514276Y-178308533D01*
X283561895Y-178118057D01*
X283609514Y-178022819D01*
X283657133Y-177975200D01*
X283752371Y-177927581D01*
X281660314Y-186649181D02*
X281660314Y-185649181D01*
X281898409Y-185649181D01*
X282041267Y-185696800D01*
X282136505Y-185792038D01*
X282184124Y-185887276D01*
X282231743Y-186077752D01*
X282231743Y-186220610D01*
X282184124Y-186411086D01*
X282136505Y-186506324D01*
X282041267Y-186601562D01*
X281898409Y-186649181D01*
X281660314Y-186649181D01*
X282565076Y-185649181D02*
X283231743Y-185649181D01*
X282803171Y-186649181D01*
X283660314Y-186649181D02*
X283850790Y-186649181D01*
X283946029Y-186601562D01*
X283993648Y-186553943D01*
X284088886Y-186411086D01*
X284136505Y-186220610D01*
X284136505Y-185839657D01*
X284088886Y-185744419D01*
X284041267Y-185696800D01*
X283946029Y-185649181D01*
X283755552Y-185649181D01*
X283660314Y-185696800D01*
X283612695Y-185744419D01*
X283565076Y-185839657D01*
X283565076Y-186077752D01*
X283612695Y-186172990D01*
X283660314Y-186220610D01*
X283755552Y-186268229D01*
X283946029Y-186268229D01*
X284041267Y-186220610D01*
X284088886Y-186172990D01*
X284136505Y-186077752D01*
X242849114Y-117154781D02*
X242849114Y-116154781D01*
X243087209Y-116154781D01*
X243230067Y-116202400D01*
X243325305Y-116297638D01*
X243372924Y-116392876D01*
X243420543Y-116583352D01*
X243420543Y-116726210D01*
X243372924Y-116916686D01*
X243325305Y-117011924D01*
X243230067Y-117107162D01*
X243087209Y-117154781D01*
X242849114Y-117154781D01*
X243753876Y-116154781D02*
X244420543Y-116154781D01*
X243991971Y-117154781D01*
X244944352Y-116583352D02*
X244849114Y-116535733D01*
X244801495Y-116488114D01*
X244753876Y-116392876D01*
X244753876Y-116345257D01*
X244801495Y-116250019D01*
X244849114Y-116202400D01*
X244944352Y-116154781D01*
X245134829Y-116154781D01*
X245230067Y-116202400D01*
X245277686Y-116250019D01*
X245325305Y-116345257D01*
X245325305Y-116392876D01*
X245277686Y-116488114D01*
X245230067Y-116535733D01*
X245134829Y-116583352D01*
X244944352Y-116583352D01*
X244849114Y-116630971D01*
X244801495Y-116678590D01*
X244753876Y-116773829D01*
X244753876Y-116964305D01*
X244801495Y-117059543D01*
X244849114Y-117107162D01*
X244944352Y-117154781D01*
X245134829Y-117154781D01*
X245230067Y-117107162D01*
X245277686Y-117059543D01*
X245325305Y-116964305D01*
X245325305Y-116773829D01*
X245277686Y-116678590D01*
X245230067Y-116630971D01*
X245134829Y-116583352D01*
X183362314Y-117154781D02*
X183362314Y-116154781D01*
X183600409Y-116154781D01*
X183743267Y-116202400D01*
X183838505Y-116297638D01*
X183886124Y-116392876D01*
X183933743Y-116583352D01*
X183933743Y-116726210D01*
X183886124Y-116916686D01*
X183838505Y-117011924D01*
X183743267Y-117107162D01*
X183600409Y-117154781D01*
X183362314Y-117154781D01*
X184267076Y-116154781D02*
X184933743Y-116154781D01*
X184505171Y-117154781D01*
X185219457Y-116154781D02*
X185886124Y-116154781D01*
X185457552Y-117154781D01*
X242798314Y-124825581D02*
X242798314Y-123825581D01*
X243036409Y-123825581D01*
X243179267Y-123873200D01*
X243274505Y-123968438D01*
X243322124Y-124063676D01*
X243369743Y-124254152D01*
X243369743Y-124397010D01*
X243322124Y-124587486D01*
X243274505Y-124682724D01*
X243179267Y-124777962D01*
X243036409Y-124825581D01*
X242798314Y-124825581D01*
X243703076Y-123825581D02*
X244369743Y-123825581D01*
X243941171Y-124825581D01*
X245179267Y-123825581D02*
X244988790Y-123825581D01*
X244893552Y-123873200D01*
X244845933Y-123920819D01*
X244750695Y-124063676D01*
X244703076Y-124254152D01*
X244703076Y-124635105D01*
X244750695Y-124730343D01*
X244798314Y-124777962D01*
X244893552Y-124825581D01*
X245084029Y-124825581D01*
X245179267Y-124777962D01*
X245226886Y-124730343D01*
X245274505Y-124635105D01*
X245274505Y-124397010D01*
X245226886Y-124301771D01*
X245179267Y-124254152D01*
X245084029Y-124206533D01*
X244893552Y-124206533D01*
X244798314Y-124254152D01*
X244750695Y-124301771D01*
X244703076Y-124397010D01*
X183260714Y-124876381D02*
X183260714Y-123876381D01*
X183498809Y-123876381D01*
X183641667Y-123924000D01*
X183736905Y-124019238D01*
X183784524Y-124114476D01*
X183832143Y-124304952D01*
X183832143Y-124447810D01*
X183784524Y-124638286D01*
X183736905Y-124733524D01*
X183641667Y-124828762D01*
X183498809Y-124876381D01*
X183260714Y-124876381D01*
X184165476Y-123876381D02*
X184832143Y-123876381D01*
X184403571Y-124876381D01*
X185689286Y-123876381D02*
X185213095Y-123876381D01*
X185165476Y-124352571D01*
X185213095Y-124304952D01*
X185308333Y-124257333D01*
X185546429Y-124257333D01*
X185641667Y-124304952D01*
X185689286Y-124352571D01*
X185736905Y-124447810D01*
X185736905Y-124685905D01*
X185689286Y-124781143D01*
X185641667Y-124828762D01*
X185546429Y-124876381D01*
X185308333Y-124876381D01*
X185213095Y-124828762D01*
X185165476Y-124781143D01*
X242798314Y-132597981D02*
X242798314Y-131597981D01*
X243036409Y-131597981D01*
X243179267Y-131645600D01*
X243274505Y-131740838D01*
X243322124Y-131836076D01*
X243369743Y-132026552D01*
X243369743Y-132169410D01*
X243322124Y-132359886D01*
X243274505Y-132455124D01*
X243179267Y-132550362D01*
X243036409Y-132597981D01*
X242798314Y-132597981D01*
X243703076Y-131597981D02*
X244369743Y-131597981D01*
X243941171Y-132597981D01*
X245179267Y-131931314D02*
X245179267Y-132597981D01*
X244941171Y-131550362D02*
X244703076Y-132264648D01*
X245322124Y-132264648D01*
X183362314Y-132597981D02*
X183362314Y-131597981D01*
X183600409Y-131597981D01*
X183743267Y-131645600D01*
X183838505Y-131740838D01*
X183886124Y-131836076D01*
X183933743Y-132026552D01*
X183933743Y-132169410D01*
X183886124Y-132359886D01*
X183838505Y-132455124D01*
X183743267Y-132550362D01*
X183600409Y-132597981D01*
X183362314Y-132597981D01*
X184267076Y-131597981D02*
X184933743Y-131597981D01*
X184505171Y-132597981D01*
X185219457Y-131597981D02*
X185838505Y-131597981D01*
X185505171Y-131978933D01*
X185648029Y-131978933D01*
X185743267Y-132026552D01*
X185790886Y-132074171D01*
X185838505Y-132169410D01*
X185838505Y-132407505D01*
X185790886Y-132502743D01*
X185743267Y-132550362D01*
X185648029Y-132597981D01*
X185362314Y-132597981D01*
X185267076Y-132550362D01*
X185219457Y-132502743D01*
X242899914Y-140319581D02*
X242899914Y-139319581D01*
X243138009Y-139319581D01*
X243280867Y-139367200D01*
X243376105Y-139462438D01*
X243423724Y-139557676D01*
X243471343Y-139748152D01*
X243471343Y-139891010D01*
X243423724Y-140081486D01*
X243376105Y-140176724D01*
X243280867Y-140271962D01*
X243138009Y-140319581D01*
X242899914Y-140319581D01*
X243804676Y-139319581D02*
X244471343Y-139319581D01*
X244042771Y-140319581D01*
X244804676Y-139414819D02*
X244852295Y-139367200D01*
X244947533Y-139319581D01*
X245185629Y-139319581D01*
X245280867Y-139367200D01*
X245328486Y-139414819D01*
X245376105Y-139510057D01*
X245376105Y-139605295D01*
X245328486Y-139748152D01*
X244757057Y-140319581D01*
X245376105Y-140319581D01*
X183311514Y-140319581D02*
X183311514Y-139319581D01*
X183549609Y-139319581D01*
X183692467Y-139367200D01*
X183787705Y-139462438D01*
X183835324Y-139557676D01*
X183882943Y-139748152D01*
X183882943Y-139891010D01*
X183835324Y-140081486D01*
X183787705Y-140176724D01*
X183692467Y-140271962D01*
X183549609Y-140319581D01*
X183311514Y-140319581D01*
X184216276Y-139319581D02*
X184882943Y-139319581D01*
X184454371Y-140319581D01*
X185787705Y-140319581D02*
X185216276Y-140319581D01*
X185501990Y-140319581D02*
X185501990Y-139319581D01*
X185406752Y-139462438D01*
X185311514Y-139557676D01*
X185216276Y-139605295D01*
X242950714Y-148041181D02*
X242950714Y-147041181D01*
X243188809Y-147041181D01*
X243331667Y-147088800D01*
X243426905Y-147184038D01*
X243474524Y-147279276D01*
X243522143Y-147469752D01*
X243522143Y-147612610D01*
X243474524Y-147803086D01*
X243426905Y-147898324D01*
X243331667Y-147993562D01*
X243188809Y-148041181D01*
X242950714Y-148041181D01*
X243855476Y-147041181D02*
X244522143Y-147041181D01*
X244093571Y-148041181D01*
X245093571Y-147041181D02*
X245188810Y-147041181D01*
X245284048Y-147088800D01*
X245331667Y-147136419D01*
X245379286Y-147231657D01*
X245426905Y-147422133D01*
X245426905Y-147660229D01*
X245379286Y-147850705D01*
X245331667Y-147945943D01*
X245284048Y-147993562D01*
X245188810Y-148041181D01*
X245093571Y-148041181D01*
X244998333Y-147993562D01*
X244950714Y-147945943D01*
X244903095Y-147850705D01*
X244855476Y-147660229D01*
X244855476Y-147422133D01*
X244903095Y-147231657D01*
X244950714Y-147136419D01*
X244998333Y-147088800D01*
X245093571Y-147041181D01*
X183463914Y-148041181D02*
X183463914Y-147041181D01*
X183702009Y-147041181D01*
X183844867Y-147088800D01*
X183940105Y-147184038D01*
X183987724Y-147279276D01*
X184035343Y-147469752D01*
X184035343Y-147612610D01*
X183987724Y-147803086D01*
X183940105Y-147898324D01*
X183844867Y-147993562D01*
X183702009Y-148041181D01*
X183463914Y-148041181D01*
X184892486Y-147041181D02*
X184702009Y-147041181D01*
X184606771Y-147088800D01*
X184559152Y-147136419D01*
X184463914Y-147279276D01*
X184416295Y-147469752D01*
X184416295Y-147850705D01*
X184463914Y-147945943D01*
X184511533Y-147993562D01*
X184606771Y-148041181D01*
X184797248Y-148041181D01*
X184892486Y-147993562D01*
X184940105Y-147945943D01*
X184987724Y-147850705D01*
X184987724Y-147612610D01*
X184940105Y-147517371D01*
X184892486Y-147469752D01*
X184797248Y-147422133D01*
X184606771Y-147422133D01*
X184511533Y-147469752D01*
X184463914Y-147517371D01*
X184416295Y-147612610D01*
X185463914Y-148041181D02*
X185654390Y-148041181D01*
X185749629Y-147993562D01*
X185797248Y-147945943D01*
X185892486Y-147803086D01*
X185940105Y-147612610D01*
X185940105Y-147231657D01*
X185892486Y-147136419D01*
X185844867Y-147088800D01*
X185749629Y-147041181D01*
X185559152Y-147041181D01*
X185463914Y-147088800D01*
X185416295Y-147136419D01*
X185368676Y-147231657D01*
X185368676Y-147469752D01*
X185416295Y-147564990D01*
X185463914Y-147612610D01*
X185559152Y-147660229D01*
X185749629Y-147660229D01*
X185844867Y-147612610D01*
X185892486Y-147564990D01*
X185940105Y-147469752D01*
X243001514Y-155762781D02*
X243001514Y-154762781D01*
X243239609Y-154762781D01*
X243382467Y-154810400D01*
X243477705Y-154905638D01*
X243525324Y-155000876D01*
X243572943Y-155191352D01*
X243572943Y-155334210D01*
X243525324Y-155524686D01*
X243477705Y-155619924D01*
X243382467Y-155715162D01*
X243239609Y-155762781D01*
X243001514Y-155762781D01*
X244430086Y-154762781D02*
X244239609Y-154762781D01*
X244144371Y-154810400D01*
X244096752Y-154858019D01*
X244001514Y-155000876D01*
X243953895Y-155191352D01*
X243953895Y-155572305D01*
X244001514Y-155667543D01*
X244049133Y-155715162D01*
X244144371Y-155762781D01*
X244334848Y-155762781D01*
X244430086Y-155715162D01*
X244477705Y-155667543D01*
X244525324Y-155572305D01*
X244525324Y-155334210D01*
X244477705Y-155238971D01*
X244430086Y-155191352D01*
X244334848Y-155143733D01*
X244144371Y-155143733D01*
X244049133Y-155191352D01*
X244001514Y-155238971D01*
X243953895Y-155334210D01*
X245096752Y-155191352D02*
X245001514Y-155143733D01*
X244953895Y-155096114D01*
X244906276Y-155000876D01*
X244906276Y-154953257D01*
X244953895Y-154858019D01*
X245001514Y-154810400D01*
X245096752Y-154762781D01*
X245287229Y-154762781D01*
X245382467Y-154810400D01*
X245430086Y-154858019D01*
X245477705Y-154953257D01*
X245477705Y-155000876D01*
X245430086Y-155096114D01*
X245382467Y-155143733D01*
X245287229Y-155191352D01*
X245096752Y-155191352D01*
X245001514Y-155238971D01*
X244953895Y-155286590D01*
X244906276Y-155381829D01*
X244906276Y-155572305D01*
X244953895Y-155667543D01*
X245001514Y-155715162D01*
X245096752Y-155762781D01*
X245287229Y-155762781D01*
X245382467Y-155715162D01*
X245430086Y-155667543D01*
X245477705Y-155572305D01*
X245477705Y-155381829D01*
X245430086Y-155286590D01*
X245382467Y-155238971D01*
X245287229Y-155191352D01*
X183413114Y-155762781D02*
X183413114Y-154762781D01*
X183651209Y-154762781D01*
X183794067Y-154810400D01*
X183889305Y-154905638D01*
X183936924Y-155000876D01*
X183984543Y-155191352D01*
X183984543Y-155334210D01*
X183936924Y-155524686D01*
X183889305Y-155619924D01*
X183794067Y-155715162D01*
X183651209Y-155762781D01*
X183413114Y-155762781D01*
X184841686Y-154762781D02*
X184651209Y-154762781D01*
X184555971Y-154810400D01*
X184508352Y-154858019D01*
X184413114Y-155000876D01*
X184365495Y-155191352D01*
X184365495Y-155572305D01*
X184413114Y-155667543D01*
X184460733Y-155715162D01*
X184555971Y-155762781D01*
X184746448Y-155762781D01*
X184841686Y-155715162D01*
X184889305Y-155667543D01*
X184936924Y-155572305D01*
X184936924Y-155334210D01*
X184889305Y-155238971D01*
X184841686Y-155191352D01*
X184746448Y-155143733D01*
X184555971Y-155143733D01*
X184460733Y-155191352D01*
X184413114Y-155238971D01*
X184365495Y-155334210D01*
X185270257Y-154762781D02*
X185936924Y-154762781D01*
X185508352Y-155762781D01*
X243052314Y-163484381D02*
X243052314Y-162484381D01*
X243290409Y-162484381D01*
X243433267Y-162532000D01*
X243528505Y-162627238D01*
X243576124Y-162722476D01*
X243623743Y-162912952D01*
X243623743Y-163055810D01*
X243576124Y-163246286D01*
X243528505Y-163341524D01*
X243433267Y-163436762D01*
X243290409Y-163484381D01*
X243052314Y-163484381D01*
X244480886Y-162484381D02*
X244290409Y-162484381D01*
X244195171Y-162532000D01*
X244147552Y-162579619D01*
X244052314Y-162722476D01*
X244004695Y-162912952D01*
X244004695Y-163293905D01*
X244052314Y-163389143D01*
X244099933Y-163436762D01*
X244195171Y-163484381D01*
X244385648Y-163484381D01*
X244480886Y-163436762D01*
X244528505Y-163389143D01*
X244576124Y-163293905D01*
X244576124Y-163055810D01*
X244528505Y-162960571D01*
X244480886Y-162912952D01*
X244385648Y-162865333D01*
X244195171Y-162865333D01*
X244099933Y-162912952D01*
X244052314Y-162960571D01*
X244004695Y-163055810D01*
X245433267Y-162484381D02*
X245242790Y-162484381D01*
X245147552Y-162532000D01*
X245099933Y-162579619D01*
X245004695Y-162722476D01*
X244957076Y-162912952D01*
X244957076Y-163293905D01*
X245004695Y-163389143D01*
X245052314Y-163436762D01*
X245147552Y-163484381D01*
X245338029Y-163484381D01*
X245433267Y-163436762D01*
X245480886Y-163389143D01*
X245528505Y-163293905D01*
X245528505Y-163055810D01*
X245480886Y-162960571D01*
X245433267Y-162912952D01*
X245338029Y-162865333D01*
X245147552Y-162865333D01*
X245052314Y-162912952D01*
X245004695Y-162960571D01*
X244957076Y-163055810D01*
X183362314Y-163484381D02*
X183362314Y-162484381D01*
X183600409Y-162484381D01*
X183743267Y-162532000D01*
X183838505Y-162627238D01*
X183886124Y-162722476D01*
X183933743Y-162912952D01*
X183933743Y-163055810D01*
X183886124Y-163246286D01*
X183838505Y-163341524D01*
X183743267Y-163436762D01*
X183600409Y-163484381D01*
X183362314Y-163484381D01*
X184790886Y-162484381D02*
X184600409Y-162484381D01*
X184505171Y-162532000D01*
X184457552Y-162579619D01*
X184362314Y-162722476D01*
X184314695Y-162912952D01*
X184314695Y-163293905D01*
X184362314Y-163389143D01*
X184409933Y-163436762D01*
X184505171Y-163484381D01*
X184695648Y-163484381D01*
X184790886Y-163436762D01*
X184838505Y-163389143D01*
X184886124Y-163293905D01*
X184886124Y-163055810D01*
X184838505Y-162960571D01*
X184790886Y-162912952D01*
X184695648Y-162865333D01*
X184505171Y-162865333D01*
X184409933Y-162912952D01*
X184362314Y-162960571D01*
X184314695Y-163055810D01*
X185790886Y-162484381D02*
X185314695Y-162484381D01*
X185267076Y-162960571D01*
X185314695Y-162912952D01*
X185409933Y-162865333D01*
X185648029Y-162865333D01*
X185743267Y-162912952D01*
X185790886Y-162960571D01*
X185838505Y-163055810D01*
X185838505Y-163293905D01*
X185790886Y-163389143D01*
X185743267Y-163436762D01*
X185648029Y-163484381D01*
X185409933Y-163484381D01*
X185314695Y-163436762D01*
X185267076Y-163389143D01*
X243001514Y-171205981D02*
X243001514Y-170205981D01*
X243239609Y-170205981D01*
X243382467Y-170253600D01*
X243477705Y-170348838D01*
X243525324Y-170444076D01*
X243572943Y-170634552D01*
X243572943Y-170777410D01*
X243525324Y-170967886D01*
X243477705Y-171063124D01*
X243382467Y-171158362D01*
X243239609Y-171205981D01*
X243001514Y-171205981D01*
X244430086Y-170205981D02*
X244239609Y-170205981D01*
X244144371Y-170253600D01*
X244096752Y-170301219D01*
X244001514Y-170444076D01*
X243953895Y-170634552D01*
X243953895Y-171015505D01*
X244001514Y-171110743D01*
X244049133Y-171158362D01*
X244144371Y-171205981D01*
X244334848Y-171205981D01*
X244430086Y-171158362D01*
X244477705Y-171110743D01*
X244525324Y-171015505D01*
X244525324Y-170777410D01*
X244477705Y-170682171D01*
X244430086Y-170634552D01*
X244334848Y-170586933D01*
X244144371Y-170586933D01*
X244049133Y-170634552D01*
X244001514Y-170682171D01*
X243953895Y-170777410D01*
X245382467Y-170539314D02*
X245382467Y-171205981D01*
X245144371Y-170158362D02*
X244906276Y-170872648D01*
X245525324Y-170872648D01*
X183463914Y-171205981D02*
X183463914Y-170205981D01*
X183702009Y-170205981D01*
X183844867Y-170253600D01*
X183940105Y-170348838D01*
X183987724Y-170444076D01*
X184035343Y-170634552D01*
X184035343Y-170777410D01*
X183987724Y-170967886D01*
X183940105Y-171063124D01*
X183844867Y-171158362D01*
X183702009Y-171205981D01*
X183463914Y-171205981D01*
X184892486Y-170205981D02*
X184702009Y-170205981D01*
X184606771Y-170253600D01*
X184559152Y-170301219D01*
X184463914Y-170444076D01*
X184416295Y-170634552D01*
X184416295Y-171015505D01*
X184463914Y-171110743D01*
X184511533Y-171158362D01*
X184606771Y-171205981D01*
X184797248Y-171205981D01*
X184892486Y-171158362D01*
X184940105Y-171110743D01*
X184987724Y-171015505D01*
X184987724Y-170777410D01*
X184940105Y-170682171D01*
X184892486Y-170634552D01*
X184797248Y-170586933D01*
X184606771Y-170586933D01*
X184511533Y-170634552D01*
X184463914Y-170682171D01*
X184416295Y-170777410D01*
X185321057Y-170205981D02*
X185940105Y-170205981D01*
X185606771Y-170586933D01*
X185749629Y-170586933D01*
X185844867Y-170634552D01*
X185892486Y-170682171D01*
X185940105Y-170777410D01*
X185940105Y-171015505D01*
X185892486Y-171110743D01*
X185844867Y-171158362D01*
X185749629Y-171205981D01*
X185463914Y-171205981D01*
X185368676Y-171158362D01*
X185321057Y-171110743D01*
X243001514Y-178927581D02*
X243001514Y-177927581D01*
X243239609Y-177927581D01*
X243382467Y-177975200D01*
X243477705Y-178070438D01*
X243525324Y-178165676D01*
X243572943Y-178356152D01*
X243572943Y-178499010D01*
X243525324Y-178689486D01*
X243477705Y-178784724D01*
X243382467Y-178879962D01*
X243239609Y-178927581D01*
X243001514Y-178927581D01*
X244430086Y-177927581D02*
X244239609Y-177927581D01*
X244144371Y-177975200D01*
X244096752Y-178022819D01*
X244001514Y-178165676D01*
X243953895Y-178356152D01*
X243953895Y-178737105D01*
X244001514Y-178832343D01*
X244049133Y-178879962D01*
X244144371Y-178927581D01*
X244334848Y-178927581D01*
X244430086Y-178879962D01*
X244477705Y-178832343D01*
X244525324Y-178737105D01*
X244525324Y-178499010D01*
X244477705Y-178403771D01*
X244430086Y-178356152D01*
X244334848Y-178308533D01*
X244144371Y-178308533D01*
X244049133Y-178356152D01*
X244001514Y-178403771D01*
X243953895Y-178499010D01*
X244906276Y-178022819D02*
X244953895Y-177975200D01*
X245049133Y-177927581D01*
X245287229Y-177927581D01*
X245382467Y-177975200D01*
X245430086Y-178022819D01*
X245477705Y-178118057D01*
X245477705Y-178213295D01*
X245430086Y-178356152D01*
X244858657Y-178927581D01*
X245477705Y-178927581D01*
X183413114Y-178927581D02*
X183413114Y-177927581D01*
X183651209Y-177927581D01*
X183794067Y-177975200D01*
X183889305Y-178070438D01*
X183936924Y-178165676D01*
X183984543Y-178356152D01*
X183984543Y-178499010D01*
X183936924Y-178689486D01*
X183889305Y-178784724D01*
X183794067Y-178879962D01*
X183651209Y-178927581D01*
X183413114Y-178927581D01*
X184841686Y-177927581D02*
X184651209Y-177927581D01*
X184555971Y-177975200D01*
X184508352Y-178022819D01*
X184413114Y-178165676D01*
X184365495Y-178356152D01*
X184365495Y-178737105D01*
X184413114Y-178832343D01*
X184460733Y-178879962D01*
X184555971Y-178927581D01*
X184746448Y-178927581D01*
X184841686Y-178879962D01*
X184889305Y-178832343D01*
X184936924Y-178737105D01*
X184936924Y-178499010D01*
X184889305Y-178403771D01*
X184841686Y-178356152D01*
X184746448Y-178308533D01*
X184555971Y-178308533D01*
X184460733Y-178356152D01*
X184413114Y-178403771D01*
X184365495Y-178499010D01*
X185889305Y-178927581D02*
X185317876Y-178927581D01*
X185603590Y-178927581D02*
X185603590Y-177927581D01*
X185508352Y-178070438D01*
X185413114Y-178165676D01*
X185317876Y-178213295D01*
X243103114Y-186649181D02*
X243103114Y-185649181D01*
X243341209Y-185649181D01*
X243484067Y-185696800D01*
X243579305Y-185792038D01*
X243626924Y-185887276D01*
X243674543Y-186077752D01*
X243674543Y-186220610D01*
X243626924Y-186411086D01*
X243579305Y-186506324D01*
X243484067Y-186601562D01*
X243341209Y-186649181D01*
X243103114Y-186649181D01*
X244531686Y-185649181D02*
X244341209Y-185649181D01*
X244245971Y-185696800D01*
X244198352Y-185744419D01*
X244103114Y-185887276D01*
X244055495Y-186077752D01*
X244055495Y-186458705D01*
X244103114Y-186553943D01*
X244150733Y-186601562D01*
X244245971Y-186649181D01*
X244436448Y-186649181D01*
X244531686Y-186601562D01*
X244579305Y-186553943D01*
X244626924Y-186458705D01*
X244626924Y-186220610D01*
X244579305Y-186125371D01*
X244531686Y-186077752D01*
X244436448Y-186030133D01*
X244245971Y-186030133D01*
X244150733Y-186077752D01*
X244103114Y-186125371D01*
X244055495Y-186220610D01*
X245245971Y-185649181D02*
X245341210Y-185649181D01*
X245436448Y-185696800D01*
X245484067Y-185744419D01*
X245531686Y-185839657D01*
X245579305Y-186030133D01*
X245579305Y-186268229D01*
X245531686Y-186458705D01*
X245484067Y-186553943D01*
X245436448Y-186601562D01*
X245341210Y-186649181D01*
X245245971Y-186649181D01*
X245150733Y-186601562D01*
X245103114Y-186553943D01*
X245055495Y-186458705D01*
X245007876Y-186268229D01*
X245007876Y-186030133D01*
X245055495Y-185839657D01*
X245103114Y-185744419D01*
X245150733Y-185696800D01*
X245245971Y-185649181D01*
X183565514Y-186649181D02*
X183565514Y-185649181D01*
X183803609Y-185649181D01*
X183946467Y-185696800D01*
X184041705Y-185792038D01*
X184089324Y-185887276D01*
X184136943Y-186077752D01*
X184136943Y-186220610D01*
X184089324Y-186411086D01*
X184041705Y-186506324D01*
X183946467Y-186601562D01*
X183803609Y-186649181D01*
X183565514Y-186649181D01*
X185041705Y-185649181D02*
X184565514Y-185649181D01*
X184517895Y-186125371D01*
X184565514Y-186077752D01*
X184660752Y-186030133D01*
X184898848Y-186030133D01*
X184994086Y-186077752D01*
X185041705Y-186125371D01*
X185089324Y-186220610D01*
X185089324Y-186458705D01*
X185041705Y-186553943D01*
X184994086Y-186601562D01*
X184898848Y-186649181D01*
X184660752Y-186649181D01*
X184565514Y-186601562D01*
X184517895Y-186553943D01*
X185565514Y-186649181D02*
X185755990Y-186649181D01*
X185851229Y-186601562D01*
X185898848Y-186553943D01*
X185994086Y-186411086D01*
X186041705Y-186220610D01*
X186041705Y-185839657D01*
X185994086Y-185744419D01*
X185946467Y-185696800D01*
X185851229Y-185649181D01*
X185660752Y-185649181D01*
X185565514Y-185696800D01*
X185517895Y-185744419D01*
X185470276Y-185839657D01*
X185470276Y-186077752D01*
X185517895Y-186172990D01*
X185565514Y-186220610D01*
X185660752Y-186268229D01*
X185851229Y-186268229D01*
X185946467Y-186220610D01*
X185994086Y-186172990D01*
X186041705Y-186077752D01*
X223138714Y-117154781D02*
X223138714Y-116154781D01*
X223376809Y-116154781D01*
X223519667Y-116202400D01*
X223614905Y-116297638D01*
X223662524Y-116392876D01*
X223710143Y-116583352D01*
X223710143Y-116726210D01*
X223662524Y-116916686D01*
X223614905Y-117011924D01*
X223519667Y-117107162D01*
X223376809Y-117154781D01*
X223138714Y-117154781D01*
X224614905Y-116154781D02*
X224138714Y-116154781D01*
X224091095Y-116630971D01*
X224138714Y-116583352D01*
X224233952Y-116535733D01*
X224472048Y-116535733D01*
X224567286Y-116583352D01*
X224614905Y-116630971D01*
X224662524Y-116726210D01*
X224662524Y-116964305D01*
X224614905Y-117059543D01*
X224567286Y-117107162D01*
X224472048Y-117154781D01*
X224233952Y-117154781D01*
X224138714Y-117107162D01*
X224091095Y-117059543D01*
X225233952Y-116583352D02*
X225138714Y-116535733D01*
X225091095Y-116488114D01*
X225043476Y-116392876D01*
X225043476Y-116345257D01*
X225091095Y-116250019D01*
X225138714Y-116202400D01*
X225233952Y-116154781D01*
X225424429Y-116154781D01*
X225519667Y-116202400D01*
X225567286Y-116250019D01*
X225614905Y-116345257D01*
X225614905Y-116392876D01*
X225567286Y-116488114D01*
X225519667Y-116535733D01*
X225424429Y-116583352D01*
X225233952Y-116583352D01*
X225138714Y-116630971D01*
X225091095Y-116678590D01*
X225043476Y-116773829D01*
X225043476Y-116964305D01*
X225091095Y-117059543D01*
X225138714Y-117107162D01*
X225233952Y-117154781D01*
X225424429Y-117154781D01*
X225519667Y-117107162D01*
X225567286Y-117059543D01*
X225614905Y-116964305D01*
X225614905Y-116773829D01*
X225567286Y-116678590D01*
X225519667Y-116630971D01*
X225424429Y-116583352D01*
X163651914Y-117053181D02*
X163651914Y-116053181D01*
X163890009Y-116053181D01*
X164032867Y-116100800D01*
X164128105Y-116196038D01*
X164175724Y-116291276D01*
X164223343Y-116481752D01*
X164223343Y-116624610D01*
X164175724Y-116815086D01*
X164128105Y-116910324D01*
X164032867Y-117005562D01*
X163890009Y-117053181D01*
X163651914Y-117053181D01*
X165128105Y-116053181D02*
X164651914Y-116053181D01*
X164604295Y-116529371D01*
X164651914Y-116481752D01*
X164747152Y-116434133D01*
X164985248Y-116434133D01*
X165080486Y-116481752D01*
X165128105Y-116529371D01*
X165175724Y-116624610D01*
X165175724Y-116862705D01*
X165128105Y-116957943D01*
X165080486Y-117005562D01*
X164985248Y-117053181D01*
X164747152Y-117053181D01*
X164651914Y-117005562D01*
X164604295Y-116957943D01*
X165509057Y-116053181D02*
X166175724Y-116053181D01*
X165747152Y-117053181D01*
X223087914Y-124876381D02*
X223087914Y-123876381D01*
X223326009Y-123876381D01*
X223468867Y-123924000D01*
X223564105Y-124019238D01*
X223611724Y-124114476D01*
X223659343Y-124304952D01*
X223659343Y-124447810D01*
X223611724Y-124638286D01*
X223564105Y-124733524D01*
X223468867Y-124828762D01*
X223326009Y-124876381D01*
X223087914Y-124876381D01*
X224564105Y-123876381D02*
X224087914Y-123876381D01*
X224040295Y-124352571D01*
X224087914Y-124304952D01*
X224183152Y-124257333D01*
X224421248Y-124257333D01*
X224516486Y-124304952D01*
X224564105Y-124352571D01*
X224611724Y-124447810D01*
X224611724Y-124685905D01*
X224564105Y-124781143D01*
X224516486Y-124828762D01*
X224421248Y-124876381D01*
X224183152Y-124876381D01*
X224087914Y-124828762D01*
X224040295Y-124781143D01*
X225468867Y-123876381D02*
X225278390Y-123876381D01*
X225183152Y-123924000D01*
X225135533Y-123971619D01*
X225040295Y-124114476D01*
X224992676Y-124304952D01*
X224992676Y-124685905D01*
X225040295Y-124781143D01*
X225087914Y-124828762D01*
X225183152Y-124876381D01*
X225373629Y-124876381D01*
X225468867Y-124828762D01*
X225516486Y-124781143D01*
X225564105Y-124685905D01*
X225564105Y-124447810D01*
X225516486Y-124352571D01*
X225468867Y-124304952D01*
X225373629Y-124257333D01*
X225183152Y-124257333D01*
X225087914Y-124304952D01*
X225040295Y-124352571D01*
X224992676Y-124447810D01*
X163651914Y-124774781D02*
X163651914Y-123774781D01*
X163890009Y-123774781D01*
X164032867Y-123822400D01*
X164128105Y-123917638D01*
X164175724Y-124012876D01*
X164223343Y-124203352D01*
X164223343Y-124346210D01*
X164175724Y-124536686D01*
X164128105Y-124631924D01*
X164032867Y-124727162D01*
X163890009Y-124774781D01*
X163651914Y-124774781D01*
X165128105Y-123774781D02*
X164651914Y-123774781D01*
X164604295Y-124250971D01*
X164651914Y-124203352D01*
X164747152Y-124155733D01*
X164985248Y-124155733D01*
X165080486Y-124203352D01*
X165128105Y-124250971D01*
X165175724Y-124346210D01*
X165175724Y-124584305D01*
X165128105Y-124679543D01*
X165080486Y-124727162D01*
X164985248Y-124774781D01*
X164747152Y-124774781D01*
X164651914Y-124727162D01*
X164604295Y-124679543D01*
X166080486Y-123774781D02*
X165604295Y-123774781D01*
X165556676Y-124250971D01*
X165604295Y-124203352D01*
X165699533Y-124155733D01*
X165937629Y-124155733D01*
X166032867Y-124203352D01*
X166080486Y-124250971D01*
X166128105Y-124346210D01*
X166128105Y-124584305D01*
X166080486Y-124679543D01*
X166032867Y-124727162D01*
X165937629Y-124774781D01*
X165699533Y-124774781D01*
X165604295Y-124727162D01*
X165556676Y-124679543D01*
X223087914Y-132597981D02*
X223087914Y-131597981D01*
X223326009Y-131597981D01*
X223468867Y-131645600D01*
X223564105Y-131740838D01*
X223611724Y-131836076D01*
X223659343Y-132026552D01*
X223659343Y-132169410D01*
X223611724Y-132359886D01*
X223564105Y-132455124D01*
X223468867Y-132550362D01*
X223326009Y-132597981D01*
X223087914Y-132597981D01*
X224564105Y-131597981D02*
X224087914Y-131597981D01*
X224040295Y-132074171D01*
X224087914Y-132026552D01*
X224183152Y-131978933D01*
X224421248Y-131978933D01*
X224516486Y-132026552D01*
X224564105Y-132074171D01*
X224611724Y-132169410D01*
X224611724Y-132407505D01*
X224564105Y-132502743D01*
X224516486Y-132550362D01*
X224421248Y-132597981D01*
X224183152Y-132597981D01*
X224087914Y-132550362D01*
X224040295Y-132502743D01*
X225468867Y-131931314D02*
X225468867Y-132597981D01*
X225230771Y-131550362D02*
X224992676Y-132264648D01*
X225611724Y-132264648D01*
X163550314Y-132496381D02*
X163550314Y-131496381D01*
X163788409Y-131496381D01*
X163931267Y-131544000D01*
X164026505Y-131639238D01*
X164074124Y-131734476D01*
X164121743Y-131924952D01*
X164121743Y-132067810D01*
X164074124Y-132258286D01*
X164026505Y-132353524D01*
X163931267Y-132448762D01*
X163788409Y-132496381D01*
X163550314Y-132496381D01*
X165026505Y-131496381D02*
X164550314Y-131496381D01*
X164502695Y-131972571D01*
X164550314Y-131924952D01*
X164645552Y-131877333D01*
X164883648Y-131877333D01*
X164978886Y-131924952D01*
X165026505Y-131972571D01*
X165074124Y-132067810D01*
X165074124Y-132305905D01*
X165026505Y-132401143D01*
X164978886Y-132448762D01*
X164883648Y-132496381D01*
X164645552Y-132496381D01*
X164550314Y-132448762D01*
X164502695Y-132401143D01*
X165407457Y-131496381D02*
X166026505Y-131496381D01*
X165693171Y-131877333D01*
X165836029Y-131877333D01*
X165931267Y-131924952D01*
X165978886Y-131972571D01*
X166026505Y-132067810D01*
X166026505Y-132305905D01*
X165978886Y-132401143D01*
X165931267Y-132448762D01*
X165836029Y-132496381D01*
X165550314Y-132496381D01*
X165455076Y-132448762D01*
X165407457Y-132401143D01*
X222986314Y-140319581D02*
X222986314Y-139319581D01*
X223224409Y-139319581D01*
X223367267Y-139367200D01*
X223462505Y-139462438D01*
X223510124Y-139557676D01*
X223557743Y-139748152D01*
X223557743Y-139891010D01*
X223510124Y-140081486D01*
X223462505Y-140176724D01*
X223367267Y-140271962D01*
X223224409Y-140319581D01*
X222986314Y-140319581D01*
X224462505Y-139319581D02*
X223986314Y-139319581D01*
X223938695Y-139795771D01*
X223986314Y-139748152D01*
X224081552Y-139700533D01*
X224319648Y-139700533D01*
X224414886Y-139748152D01*
X224462505Y-139795771D01*
X224510124Y-139891010D01*
X224510124Y-140129105D01*
X224462505Y-140224343D01*
X224414886Y-140271962D01*
X224319648Y-140319581D01*
X224081552Y-140319581D01*
X223986314Y-140271962D01*
X223938695Y-140224343D01*
X224891076Y-139414819D02*
X224938695Y-139367200D01*
X225033933Y-139319581D01*
X225272029Y-139319581D01*
X225367267Y-139367200D01*
X225414886Y-139414819D01*
X225462505Y-139510057D01*
X225462505Y-139605295D01*
X225414886Y-139748152D01*
X224843457Y-140319581D01*
X225462505Y-140319581D01*
X163499514Y-140217981D02*
X163499514Y-139217981D01*
X163737609Y-139217981D01*
X163880467Y-139265600D01*
X163975705Y-139360838D01*
X164023324Y-139456076D01*
X164070943Y-139646552D01*
X164070943Y-139789410D01*
X164023324Y-139979886D01*
X163975705Y-140075124D01*
X163880467Y-140170362D01*
X163737609Y-140217981D01*
X163499514Y-140217981D01*
X164975705Y-139217981D02*
X164499514Y-139217981D01*
X164451895Y-139694171D01*
X164499514Y-139646552D01*
X164594752Y-139598933D01*
X164832848Y-139598933D01*
X164928086Y-139646552D01*
X164975705Y-139694171D01*
X165023324Y-139789410D01*
X165023324Y-140027505D01*
X164975705Y-140122743D01*
X164928086Y-140170362D01*
X164832848Y-140217981D01*
X164594752Y-140217981D01*
X164499514Y-140170362D01*
X164451895Y-140122743D01*
X165975705Y-140217981D02*
X165404276Y-140217981D01*
X165689990Y-140217981D02*
X165689990Y-139217981D01*
X165594752Y-139360838D01*
X165499514Y-139456076D01*
X165404276Y-139503695D01*
X223240314Y-148041181D02*
X223240314Y-147041181D01*
X223478409Y-147041181D01*
X223621267Y-147088800D01*
X223716505Y-147184038D01*
X223764124Y-147279276D01*
X223811743Y-147469752D01*
X223811743Y-147612610D01*
X223764124Y-147803086D01*
X223716505Y-147898324D01*
X223621267Y-147993562D01*
X223478409Y-148041181D01*
X223240314Y-148041181D01*
X224716505Y-147041181D02*
X224240314Y-147041181D01*
X224192695Y-147517371D01*
X224240314Y-147469752D01*
X224335552Y-147422133D01*
X224573648Y-147422133D01*
X224668886Y-147469752D01*
X224716505Y-147517371D01*
X224764124Y-147612610D01*
X224764124Y-147850705D01*
X224716505Y-147945943D01*
X224668886Y-147993562D01*
X224573648Y-148041181D01*
X224335552Y-148041181D01*
X224240314Y-147993562D01*
X224192695Y-147945943D01*
X225383171Y-147041181D02*
X225478410Y-147041181D01*
X225573648Y-147088800D01*
X225621267Y-147136419D01*
X225668886Y-147231657D01*
X225716505Y-147422133D01*
X225716505Y-147660229D01*
X225668886Y-147850705D01*
X225621267Y-147945943D01*
X225573648Y-147993562D01*
X225478410Y-148041181D01*
X225383171Y-148041181D01*
X225287933Y-147993562D01*
X225240314Y-147945943D01*
X225192695Y-147850705D01*
X225145076Y-147660229D01*
X225145076Y-147422133D01*
X225192695Y-147231657D01*
X225240314Y-147136419D01*
X225287933Y-147088800D01*
X225383171Y-147041181D01*
X163550314Y-147939581D02*
X163550314Y-146939581D01*
X163788409Y-146939581D01*
X163931267Y-146987200D01*
X164026505Y-147082438D01*
X164074124Y-147177676D01*
X164121743Y-147368152D01*
X164121743Y-147511010D01*
X164074124Y-147701486D01*
X164026505Y-147796724D01*
X163931267Y-147891962D01*
X163788409Y-147939581D01*
X163550314Y-147939581D01*
X164978886Y-147272914D02*
X164978886Y-147939581D01*
X164740790Y-146891962D02*
X164502695Y-147606248D01*
X165121743Y-147606248D01*
X165550314Y-147939581D02*
X165740790Y-147939581D01*
X165836029Y-147891962D01*
X165883648Y-147844343D01*
X165978886Y-147701486D01*
X166026505Y-147511010D01*
X166026505Y-147130057D01*
X165978886Y-147034819D01*
X165931267Y-146987200D01*
X165836029Y-146939581D01*
X165645552Y-146939581D01*
X165550314Y-146987200D01*
X165502695Y-147034819D01*
X165455076Y-147130057D01*
X165455076Y-147368152D01*
X165502695Y-147463390D01*
X165550314Y-147511010D01*
X165645552Y-147558629D01*
X165836029Y-147558629D01*
X165931267Y-147511010D01*
X165978886Y-147463390D01*
X166026505Y-147368152D01*
X223189514Y-155762781D02*
X223189514Y-154762781D01*
X223427609Y-154762781D01*
X223570467Y-154810400D01*
X223665705Y-154905638D01*
X223713324Y-155000876D01*
X223760943Y-155191352D01*
X223760943Y-155334210D01*
X223713324Y-155524686D01*
X223665705Y-155619924D01*
X223570467Y-155715162D01*
X223427609Y-155762781D01*
X223189514Y-155762781D01*
X224618086Y-155096114D02*
X224618086Y-155762781D01*
X224379990Y-154715162D02*
X224141895Y-155429448D01*
X224760943Y-155429448D01*
X225284752Y-155191352D02*
X225189514Y-155143733D01*
X225141895Y-155096114D01*
X225094276Y-155000876D01*
X225094276Y-154953257D01*
X225141895Y-154858019D01*
X225189514Y-154810400D01*
X225284752Y-154762781D01*
X225475229Y-154762781D01*
X225570467Y-154810400D01*
X225618086Y-154858019D01*
X225665705Y-154953257D01*
X225665705Y-155000876D01*
X225618086Y-155096114D01*
X225570467Y-155143733D01*
X225475229Y-155191352D01*
X225284752Y-155191352D01*
X225189514Y-155238971D01*
X225141895Y-155286590D01*
X225094276Y-155381829D01*
X225094276Y-155572305D01*
X225141895Y-155667543D01*
X225189514Y-155715162D01*
X225284752Y-155762781D01*
X225475229Y-155762781D01*
X225570467Y-155715162D01*
X225618086Y-155667543D01*
X225665705Y-155572305D01*
X225665705Y-155381829D01*
X225618086Y-155286590D01*
X225570467Y-155238971D01*
X225475229Y-155191352D01*
X163601114Y-155661181D02*
X163601114Y-154661181D01*
X163839209Y-154661181D01*
X163982067Y-154708800D01*
X164077305Y-154804038D01*
X164124924Y-154899276D01*
X164172543Y-155089752D01*
X164172543Y-155232610D01*
X164124924Y-155423086D01*
X164077305Y-155518324D01*
X163982067Y-155613562D01*
X163839209Y-155661181D01*
X163601114Y-155661181D01*
X165029686Y-154994514D02*
X165029686Y-155661181D01*
X164791590Y-154613562D02*
X164553495Y-155327848D01*
X165172543Y-155327848D01*
X165458257Y-154661181D02*
X166124924Y-154661181D01*
X165696352Y-155661181D01*
X223138714Y-163484381D02*
X223138714Y-162484381D01*
X223376809Y-162484381D01*
X223519667Y-162532000D01*
X223614905Y-162627238D01*
X223662524Y-162722476D01*
X223710143Y-162912952D01*
X223710143Y-163055810D01*
X223662524Y-163246286D01*
X223614905Y-163341524D01*
X223519667Y-163436762D01*
X223376809Y-163484381D01*
X223138714Y-163484381D01*
X224567286Y-162817714D02*
X224567286Y-163484381D01*
X224329190Y-162436762D02*
X224091095Y-163151048D01*
X224710143Y-163151048D01*
X225519667Y-162484381D02*
X225329190Y-162484381D01*
X225233952Y-162532000D01*
X225186333Y-162579619D01*
X225091095Y-162722476D01*
X225043476Y-162912952D01*
X225043476Y-163293905D01*
X225091095Y-163389143D01*
X225138714Y-163436762D01*
X225233952Y-163484381D01*
X225424429Y-163484381D01*
X225519667Y-163436762D01*
X225567286Y-163389143D01*
X225614905Y-163293905D01*
X225614905Y-163055810D01*
X225567286Y-162960571D01*
X225519667Y-162912952D01*
X225424429Y-162865333D01*
X225233952Y-162865333D01*
X225138714Y-162912952D01*
X225091095Y-162960571D01*
X225043476Y-163055810D01*
X163550314Y-163382781D02*
X163550314Y-162382781D01*
X163788409Y-162382781D01*
X163931267Y-162430400D01*
X164026505Y-162525638D01*
X164074124Y-162620876D01*
X164121743Y-162811352D01*
X164121743Y-162954210D01*
X164074124Y-163144686D01*
X164026505Y-163239924D01*
X163931267Y-163335162D01*
X163788409Y-163382781D01*
X163550314Y-163382781D01*
X164978886Y-162716114D02*
X164978886Y-163382781D01*
X164740790Y-162335162D02*
X164502695Y-163049448D01*
X165121743Y-163049448D01*
X165978886Y-162382781D02*
X165502695Y-162382781D01*
X165455076Y-162858971D01*
X165502695Y-162811352D01*
X165597933Y-162763733D01*
X165836029Y-162763733D01*
X165931267Y-162811352D01*
X165978886Y-162858971D01*
X166026505Y-162954210D01*
X166026505Y-163192305D01*
X165978886Y-163287543D01*
X165931267Y-163335162D01*
X165836029Y-163382781D01*
X165597933Y-163382781D01*
X165502695Y-163335162D01*
X165455076Y-163287543D01*
X223087914Y-171205981D02*
X223087914Y-170205981D01*
X223326009Y-170205981D01*
X223468867Y-170253600D01*
X223564105Y-170348838D01*
X223611724Y-170444076D01*
X223659343Y-170634552D01*
X223659343Y-170777410D01*
X223611724Y-170967886D01*
X223564105Y-171063124D01*
X223468867Y-171158362D01*
X223326009Y-171205981D01*
X223087914Y-171205981D01*
X224516486Y-170539314D02*
X224516486Y-171205981D01*
X224278390Y-170158362D02*
X224040295Y-170872648D01*
X224659343Y-170872648D01*
X225468867Y-170539314D02*
X225468867Y-171205981D01*
X225230771Y-170158362D02*
X224992676Y-170872648D01*
X225611724Y-170872648D01*
X163499514Y-171053581D02*
X163499514Y-170053581D01*
X163737609Y-170053581D01*
X163880467Y-170101200D01*
X163975705Y-170196438D01*
X164023324Y-170291676D01*
X164070943Y-170482152D01*
X164070943Y-170625010D01*
X164023324Y-170815486D01*
X163975705Y-170910724D01*
X163880467Y-171005962D01*
X163737609Y-171053581D01*
X163499514Y-171053581D01*
X164928086Y-170386914D02*
X164928086Y-171053581D01*
X164689990Y-170005962D02*
X164451895Y-170720248D01*
X165070943Y-170720248D01*
X165356657Y-170053581D02*
X165975705Y-170053581D01*
X165642371Y-170434533D01*
X165785229Y-170434533D01*
X165880467Y-170482152D01*
X165928086Y-170529771D01*
X165975705Y-170625010D01*
X165975705Y-170863105D01*
X165928086Y-170958343D01*
X165880467Y-171005962D01*
X165785229Y-171053581D01*
X165499514Y-171053581D01*
X165404276Y-171005962D01*
X165356657Y-170958343D01*
X223189514Y-178927581D02*
X223189514Y-177927581D01*
X223427609Y-177927581D01*
X223570467Y-177975200D01*
X223665705Y-178070438D01*
X223713324Y-178165676D01*
X223760943Y-178356152D01*
X223760943Y-178499010D01*
X223713324Y-178689486D01*
X223665705Y-178784724D01*
X223570467Y-178879962D01*
X223427609Y-178927581D01*
X223189514Y-178927581D01*
X224618086Y-178260914D02*
X224618086Y-178927581D01*
X224379990Y-177879962D02*
X224141895Y-178594248D01*
X224760943Y-178594248D01*
X225094276Y-178022819D02*
X225141895Y-177975200D01*
X225237133Y-177927581D01*
X225475229Y-177927581D01*
X225570467Y-177975200D01*
X225618086Y-178022819D01*
X225665705Y-178118057D01*
X225665705Y-178213295D01*
X225618086Y-178356152D01*
X225046657Y-178927581D01*
X225665705Y-178927581D01*
X163499514Y-178775181D02*
X163499514Y-177775181D01*
X163737609Y-177775181D01*
X163880467Y-177822800D01*
X163975705Y-177918038D01*
X164023324Y-178013276D01*
X164070943Y-178203752D01*
X164070943Y-178346610D01*
X164023324Y-178537086D01*
X163975705Y-178632324D01*
X163880467Y-178727562D01*
X163737609Y-178775181D01*
X163499514Y-178775181D01*
X164928086Y-178108514D02*
X164928086Y-178775181D01*
X164689990Y-177727562D02*
X164451895Y-178441848D01*
X165070943Y-178441848D01*
X165975705Y-178775181D02*
X165404276Y-178775181D01*
X165689990Y-178775181D02*
X165689990Y-177775181D01*
X165594752Y-177918038D01*
X165499514Y-178013276D01*
X165404276Y-178060895D01*
X223240314Y-186649181D02*
X223240314Y-185649181D01*
X223478409Y-185649181D01*
X223621267Y-185696800D01*
X223716505Y-185792038D01*
X223764124Y-185887276D01*
X223811743Y-186077752D01*
X223811743Y-186220610D01*
X223764124Y-186411086D01*
X223716505Y-186506324D01*
X223621267Y-186601562D01*
X223478409Y-186649181D01*
X223240314Y-186649181D01*
X224668886Y-185982514D02*
X224668886Y-186649181D01*
X224430790Y-185601562D02*
X224192695Y-186315848D01*
X224811743Y-186315848D01*
X225383171Y-185649181D02*
X225478410Y-185649181D01*
X225573648Y-185696800D01*
X225621267Y-185744419D01*
X225668886Y-185839657D01*
X225716505Y-186030133D01*
X225716505Y-186268229D01*
X225668886Y-186458705D01*
X225621267Y-186553943D01*
X225573648Y-186601562D01*
X225478410Y-186649181D01*
X225383171Y-186649181D01*
X225287933Y-186601562D01*
X225240314Y-186553943D01*
X225192695Y-186458705D01*
X225145076Y-186268229D01*
X225145076Y-186030133D01*
X225192695Y-185839657D01*
X225240314Y-185744419D01*
X225287933Y-185696800D01*
X225383171Y-185649181D01*
X163651914Y-186496781D02*
X163651914Y-185496781D01*
X163890009Y-185496781D01*
X164032867Y-185544400D01*
X164128105Y-185639638D01*
X164175724Y-185734876D01*
X164223343Y-185925352D01*
X164223343Y-186068210D01*
X164175724Y-186258686D01*
X164128105Y-186353924D01*
X164032867Y-186449162D01*
X163890009Y-186496781D01*
X163651914Y-186496781D01*
X164556676Y-185496781D02*
X165175724Y-185496781D01*
X164842390Y-185877733D01*
X164985248Y-185877733D01*
X165080486Y-185925352D01*
X165128105Y-185972971D01*
X165175724Y-186068210D01*
X165175724Y-186306305D01*
X165128105Y-186401543D01*
X165080486Y-186449162D01*
X164985248Y-186496781D01*
X164699533Y-186496781D01*
X164604295Y-186449162D01*
X164556676Y-186401543D01*
X165651914Y-186496781D02*
X165842390Y-186496781D01*
X165937629Y-186449162D01*
X165985248Y-186401543D01*
X166080486Y-186258686D01*
X166128105Y-186068210D01*
X166128105Y-185687257D01*
X166080486Y-185592019D01*
X166032867Y-185544400D01*
X165937629Y-185496781D01*
X165747152Y-185496781D01*
X165651914Y-185544400D01*
X165604295Y-185592019D01*
X165556676Y-185687257D01*
X165556676Y-185925352D01*
X165604295Y-186020590D01*
X165651914Y-186068210D01*
X165747152Y-186115829D01*
X165937629Y-186115829D01*
X166032867Y-186068210D01*
X166080486Y-186020590D01*
X166128105Y-185925352D01*
X203326714Y-117154781D02*
X203326714Y-116154781D01*
X203564809Y-116154781D01*
X203707667Y-116202400D01*
X203802905Y-116297638D01*
X203850524Y-116392876D01*
X203898143Y-116583352D01*
X203898143Y-116726210D01*
X203850524Y-116916686D01*
X203802905Y-117011924D01*
X203707667Y-117107162D01*
X203564809Y-117154781D01*
X203326714Y-117154781D01*
X204231476Y-116154781D02*
X204850524Y-116154781D01*
X204517190Y-116535733D01*
X204660048Y-116535733D01*
X204755286Y-116583352D01*
X204802905Y-116630971D01*
X204850524Y-116726210D01*
X204850524Y-116964305D01*
X204802905Y-117059543D01*
X204755286Y-117107162D01*
X204660048Y-117154781D01*
X204374333Y-117154781D01*
X204279095Y-117107162D01*
X204231476Y-117059543D01*
X205421952Y-116583352D02*
X205326714Y-116535733D01*
X205279095Y-116488114D01*
X205231476Y-116392876D01*
X205231476Y-116345257D01*
X205279095Y-116250019D01*
X205326714Y-116202400D01*
X205421952Y-116154781D01*
X205612429Y-116154781D01*
X205707667Y-116202400D01*
X205755286Y-116250019D01*
X205802905Y-116345257D01*
X205802905Y-116392876D01*
X205755286Y-116488114D01*
X205707667Y-116535733D01*
X205612429Y-116583352D01*
X205421952Y-116583352D01*
X205326714Y-116630971D01*
X205279095Y-116678590D01*
X205231476Y-116773829D01*
X205231476Y-116964305D01*
X205279095Y-117059543D01*
X205326714Y-117107162D01*
X205421952Y-117154781D01*
X205612429Y-117154781D01*
X205707667Y-117107162D01*
X205755286Y-117059543D01*
X205802905Y-116964305D01*
X205802905Y-116773829D01*
X205755286Y-116678590D01*
X205707667Y-116630971D01*
X205612429Y-116583352D01*
X143839914Y-117205581D02*
X143839914Y-116205581D01*
X144078009Y-116205581D01*
X144220867Y-116253200D01*
X144316105Y-116348438D01*
X144363724Y-116443676D01*
X144411343Y-116634152D01*
X144411343Y-116777010D01*
X144363724Y-116967486D01*
X144316105Y-117062724D01*
X144220867Y-117157962D01*
X144078009Y-117205581D01*
X143839914Y-117205581D01*
X144744676Y-116205581D02*
X145363724Y-116205581D01*
X145030390Y-116586533D01*
X145173248Y-116586533D01*
X145268486Y-116634152D01*
X145316105Y-116681771D01*
X145363724Y-116777010D01*
X145363724Y-117015105D01*
X145316105Y-117110343D01*
X145268486Y-117157962D01*
X145173248Y-117205581D01*
X144887533Y-117205581D01*
X144792295Y-117157962D01*
X144744676Y-117110343D01*
X145697057Y-116205581D02*
X146363724Y-116205581D01*
X145935152Y-117205581D01*
X203225114Y-124927181D02*
X203225114Y-123927181D01*
X203463209Y-123927181D01*
X203606067Y-123974800D01*
X203701305Y-124070038D01*
X203748924Y-124165276D01*
X203796543Y-124355752D01*
X203796543Y-124498610D01*
X203748924Y-124689086D01*
X203701305Y-124784324D01*
X203606067Y-124879562D01*
X203463209Y-124927181D01*
X203225114Y-124927181D01*
X204129876Y-123927181D02*
X204748924Y-123927181D01*
X204415590Y-124308133D01*
X204558448Y-124308133D01*
X204653686Y-124355752D01*
X204701305Y-124403371D01*
X204748924Y-124498610D01*
X204748924Y-124736705D01*
X204701305Y-124831943D01*
X204653686Y-124879562D01*
X204558448Y-124927181D01*
X204272733Y-124927181D01*
X204177495Y-124879562D01*
X204129876Y-124831943D01*
X205606067Y-123927181D02*
X205415590Y-123927181D01*
X205320352Y-123974800D01*
X205272733Y-124022419D01*
X205177495Y-124165276D01*
X205129876Y-124355752D01*
X205129876Y-124736705D01*
X205177495Y-124831943D01*
X205225114Y-124879562D01*
X205320352Y-124927181D01*
X205510829Y-124927181D01*
X205606067Y-124879562D01*
X205653686Y-124831943D01*
X205701305Y-124736705D01*
X205701305Y-124498610D01*
X205653686Y-124403371D01*
X205606067Y-124355752D01*
X205510829Y-124308133D01*
X205320352Y-124308133D01*
X205225114Y-124355752D01*
X205177495Y-124403371D01*
X205129876Y-124498610D01*
X143890714Y-124876381D02*
X143890714Y-123876381D01*
X144128809Y-123876381D01*
X144271667Y-123924000D01*
X144366905Y-124019238D01*
X144414524Y-124114476D01*
X144462143Y-124304952D01*
X144462143Y-124447810D01*
X144414524Y-124638286D01*
X144366905Y-124733524D01*
X144271667Y-124828762D01*
X144128809Y-124876381D01*
X143890714Y-124876381D01*
X144795476Y-123876381D02*
X145414524Y-123876381D01*
X145081190Y-124257333D01*
X145224048Y-124257333D01*
X145319286Y-124304952D01*
X145366905Y-124352571D01*
X145414524Y-124447810D01*
X145414524Y-124685905D01*
X145366905Y-124781143D01*
X145319286Y-124828762D01*
X145224048Y-124876381D01*
X144938333Y-124876381D01*
X144843095Y-124828762D01*
X144795476Y-124781143D01*
X146319286Y-123876381D02*
X145843095Y-123876381D01*
X145795476Y-124352571D01*
X145843095Y-124304952D01*
X145938333Y-124257333D01*
X146176429Y-124257333D01*
X146271667Y-124304952D01*
X146319286Y-124352571D01*
X146366905Y-124447810D01*
X146366905Y-124685905D01*
X146319286Y-124781143D01*
X146271667Y-124828762D01*
X146176429Y-124876381D01*
X145938333Y-124876381D01*
X145843095Y-124828762D01*
X145795476Y-124781143D01*
X203225114Y-132597981D02*
X203225114Y-131597981D01*
X203463209Y-131597981D01*
X203606067Y-131645600D01*
X203701305Y-131740838D01*
X203748924Y-131836076D01*
X203796543Y-132026552D01*
X203796543Y-132169410D01*
X203748924Y-132359886D01*
X203701305Y-132455124D01*
X203606067Y-132550362D01*
X203463209Y-132597981D01*
X203225114Y-132597981D01*
X204129876Y-131597981D02*
X204748924Y-131597981D01*
X204415590Y-131978933D01*
X204558448Y-131978933D01*
X204653686Y-132026552D01*
X204701305Y-132074171D01*
X204748924Y-132169410D01*
X204748924Y-132407505D01*
X204701305Y-132502743D01*
X204653686Y-132550362D01*
X204558448Y-132597981D01*
X204272733Y-132597981D01*
X204177495Y-132550362D01*
X204129876Y-132502743D01*
X205606067Y-131931314D02*
X205606067Y-132597981D01*
X205367971Y-131550362D02*
X205129876Y-132264648D01*
X205748924Y-132264648D01*
X143890714Y-132597981D02*
X143890714Y-131597981D01*
X144128809Y-131597981D01*
X144271667Y-131645600D01*
X144366905Y-131740838D01*
X144414524Y-131836076D01*
X144462143Y-132026552D01*
X144462143Y-132169410D01*
X144414524Y-132359886D01*
X144366905Y-132455124D01*
X144271667Y-132550362D01*
X144128809Y-132597981D01*
X143890714Y-132597981D01*
X144795476Y-131597981D02*
X145414524Y-131597981D01*
X145081190Y-131978933D01*
X145224048Y-131978933D01*
X145319286Y-132026552D01*
X145366905Y-132074171D01*
X145414524Y-132169410D01*
X145414524Y-132407505D01*
X145366905Y-132502743D01*
X145319286Y-132550362D01*
X145224048Y-132597981D01*
X144938333Y-132597981D01*
X144843095Y-132550362D01*
X144795476Y-132502743D01*
X145747857Y-131597981D02*
X146366905Y-131597981D01*
X146033571Y-131978933D01*
X146176429Y-131978933D01*
X146271667Y-132026552D01*
X146319286Y-132074171D01*
X146366905Y-132169410D01*
X146366905Y-132407505D01*
X146319286Y-132502743D01*
X146271667Y-132550362D01*
X146176429Y-132597981D01*
X145890714Y-132597981D01*
X145795476Y-132550362D01*
X145747857Y-132502743D01*
X203225114Y-140319581D02*
X203225114Y-139319581D01*
X203463209Y-139319581D01*
X203606067Y-139367200D01*
X203701305Y-139462438D01*
X203748924Y-139557676D01*
X203796543Y-139748152D01*
X203796543Y-139891010D01*
X203748924Y-140081486D01*
X203701305Y-140176724D01*
X203606067Y-140271962D01*
X203463209Y-140319581D01*
X203225114Y-140319581D01*
X204129876Y-139319581D02*
X204748924Y-139319581D01*
X204415590Y-139700533D01*
X204558448Y-139700533D01*
X204653686Y-139748152D01*
X204701305Y-139795771D01*
X204748924Y-139891010D01*
X204748924Y-140129105D01*
X204701305Y-140224343D01*
X204653686Y-140271962D01*
X204558448Y-140319581D01*
X204272733Y-140319581D01*
X204177495Y-140271962D01*
X204129876Y-140224343D01*
X205129876Y-139414819D02*
X205177495Y-139367200D01*
X205272733Y-139319581D01*
X205510829Y-139319581D01*
X205606067Y-139367200D01*
X205653686Y-139414819D01*
X205701305Y-139510057D01*
X205701305Y-139605295D01*
X205653686Y-139748152D01*
X205082257Y-140319581D01*
X205701305Y-140319581D01*
X143687514Y-140319581D02*
X143687514Y-139319581D01*
X143925609Y-139319581D01*
X144068467Y-139367200D01*
X144163705Y-139462438D01*
X144211324Y-139557676D01*
X144258943Y-139748152D01*
X144258943Y-139891010D01*
X144211324Y-140081486D01*
X144163705Y-140176724D01*
X144068467Y-140271962D01*
X143925609Y-140319581D01*
X143687514Y-140319581D01*
X144592276Y-139319581D02*
X145211324Y-139319581D01*
X144877990Y-139700533D01*
X145020848Y-139700533D01*
X145116086Y-139748152D01*
X145163705Y-139795771D01*
X145211324Y-139891010D01*
X145211324Y-140129105D01*
X145163705Y-140224343D01*
X145116086Y-140271962D01*
X145020848Y-140319581D01*
X144735133Y-140319581D01*
X144639895Y-140271962D01*
X144592276Y-140224343D01*
X146163705Y-140319581D02*
X145592276Y-140319581D01*
X145877990Y-140319581D02*
X145877990Y-139319581D01*
X145782752Y-139462438D01*
X145687514Y-139557676D01*
X145592276Y-139605295D01*
X203225114Y-148041181D02*
X203225114Y-147041181D01*
X203463209Y-147041181D01*
X203606067Y-147088800D01*
X203701305Y-147184038D01*
X203748924Y-147279276D01*
X203796543Y-147469752D01*
X203796543Y-147612610D01*
X203748924Y-147803086D01*
X203701305Y-147898324D01*
X203606067Y-147993562D01*
X203463209Y-148041181D01*
X203225114Y-148041181D01*
X204129876Y-147041181D02*
X204748924Y-147041181D01*
X204415590Y-147422133D01*
X204558448Y-147422133D01*
X204653686Y-147469752D01*
X204701305Y-147517371D01*
X204748924Y-147612610D01*
X204748924Y-147850705D01*
X204701305Y-147945943D01*
X204653686Y-147993562D01*
X204558448Y-148041181D01*
X204272733Y-148041181D01*
X204177495Y-147993562D01*
X204129876Y-147945943D01*
X205367971Y-147041181D02*
X205463210Y-147041181D01*
X205558448Y-147088800D01*
X205606067Y-147136419D01*
X205653686Y-147231657D01*
X205701305Y-147422133D01*
X205701305Y-147660229D01*
X205653686Y-147850705D01*
X205606067Y-147945943D01*
X205558448Y-147993562D01*
X205463210Y-148041181D01*
X205367971Y-148041181D01*
X205272733Y-147993562D01*
X205225114Y-147945943D01*
X205177495Y-147850705D01*
X205129876Y-147660229D01*
X205129876Y-147422133D01*
X205177495Y-147231657D01*
X205225114Y-147136419D01*
X205272733Y-147088800D01*
X205367971Y-147041181D01*
X143890714Y-148041181D02*
X143890714Y-147041181D01*
X144128809Y-147041181D01*
X144271667Y-147088800D01*
X144366905Y-147184038D01*
X144414524Y-147279276D01*
X144462143Y-147469752D01*
X144462143Y-147612610D01*
X144414524Y-147803086D01*
X144366905Y-147898324D01*
X144271667Y-147993562D01*
X144128809Y-148041181D01*
X143890714Y-148041181D01*
X144843095Y-147136419D02*
X144890714Y-147088800D01*
X144985952Y-147041181D01*
X145224048Y-147041181D01*
X145319286Y-147088800D01*
X145366905Y-147136419D01*
X145414524Y-147231657D01*
X145414524Y-147326895D01*
X145366905Y-147469752D01*
X144795476Y-148041181D01*
X145414524Y-148041181D01*
X145890714Y-148041181D02*
X146081190Y-148041181D01*
X146176429Y-147993562D01*
X146224048Y-147945943D01*
X146319286Y-147803086D01*
X146366905Y-147612610D01*
X146366905Y-147231657D01*
X146319286Y-147136419D01*
X146271667Y-147088800D01*
X146176429Y-147041181D01*
X145985952Y-147041181D01*
X145890714Y-147088800D01*
X145843095Y-147136419D01*
X145795476Y-147231657D01*
X145795476Y-147469752D01*
X145843095Y-147564990D01*
X145890714Y-147612610D01*
X145985952Y-147660229D01*
X146176429Y-147660229D01*
X146271667Y-147612610D01*
X146319286Y-147564990D01*
X146366905Y-147469752D01*
X203326714Y-155762781D02*
X203326714Y-154762781D01*
X203564809Y-154762781D01*
X203707667Y-154810400D01*
X203802905Y-154905638D01*
X203850524Y-155000876D01*
X203898143Y-155191352D01*
X203898143Y-155334210D01*
X203850524Y-155524686D01*
X203802905Y-155619924D01*
X203707667Y-155715162D01*
X203564809Y-155762781D01*
X203326714Y-155762781D01*
X204279095Y-154858019D02*
X204326714Y-154810400D01*
X204421952Y-154762781D01*
X204660048Y-154762781D01*
X204755286Y-154810400D01*
X204802905Y-154858019D01*
X204850524Y-154953257D01*
X204850524Y-155048495D01*
X204802905Y-155191352D01*
X204231476Y-155762781D01*
X204850524Y-155762781D01*
X205421952Y-155191352D02*
X205326714Y-155143733D01*
X205279095Y-155096114D01*
X205231476Y-155000876D01*
X205231476Y-154953257D01*
X205279095Y-154858019D01*
X205326714Y-154810400D01*
X205421952Y-154762781D01*
X205612429Y-154762781D01*
X205707667Y-154810400D01*
X205755286Y-154858019D01*
X205802905Y-154953257D01*
X205802905Y-155000876D01*
X205755286Y-155096114D01*
X205707667Y-155143733D01*
X205612429Y-155191352D01*
X205421952Y-155191352D01*
X205326714Y-155238971D01*
X205279095Y-155286590D01*
X205231476Y-155381829D01*
X205231476Y-155572305D01*
X205279095Y-155667543D01*
X205326714Y-155715162D01*
X205421952Y-155762781D01*
X205612429Y-155762781D01*
X205707667Y-155715162D01*
X205755286Y-155667543D01*
X205802905Y-155572305D01*
X205802905Y-155381829D01*
X205755286Y-155286590D01*
X205707667Y-155238971D01*
X205612429Y-155191352D01*
X143890714Y-155762781D02*
X143890714Y-154762781D01*
X144128809Y-154762781D01*
X144271667Y-154810400D01*
X144366905Y-154905638D01*
X144414524Y-155000876D01*
X144462143Y-155191352D01*
X144462143Y-155334210D01*
X144414524Y-155524686D01*
X144366905Y-155619924D01*
X144271667Y-155715162D01*
X144128809Y-155762781D01*
X143890714Y-155762781D01*
X144843095Y-154858019D02*
X144890714Y-154810400D01*
X144985952Y-154762781D01*
X145224048Y-154762781D01*
X145319286Y-154810400D01*
X145366905Y-154858019D01*
X145414524Y-154953257D01*
X145414524Y-155048495D01*
X145366905Y-155191352D01*
X144795476Y-155762781D01*
X145414524Y-155762781D01*
X145747857Y-154762781D02*
X146414524Y-154762781D01*
X145985952Y-155762781D01*
X203275914Y-163484381D02*
X203275914Y-162484381D01*
X203514009Y-162484381D01*
X203656867Y-162532000D01*
X203752105Y-162627238D01*
X203799724Y-162722476D01*
X203847343Y-162912952D01*
X203847343Y-163055810D01*
X203799724Y-163246286D01*
X203752105Y-163341524D01*
X203656867Y-163436762D01*
X203514009Y-163484381D01*
X203275914Y-163484381D01*
X204228295Y-162579619D02*
X204275914Y-162532000D01*
X204371152Y-162484381D01*
X204609248Y-162484381D01*
X204704486Y-162532000D01*
X204752105Y-162579619D01*
X204799724Y-162674857D01*
X204799724Y-162770095D01*
X204752105Y-162912952D01*
X204180676Y-163484381D01*
X204799724Y-163484381D01*
X205656867Y-162484381D02*
X205466390Y-162484381D01*
X205371152Y-162532000D01*
X205323533Y-162579619D01*
X205228295Y-162722476D01*
X205180676Y-162912952D01*
X205180676Y-163293905D01*
X205228295Y-163389143D01*
X205275914Y-163436762D01*
X205371152Y-163484381D01*
X205561629Y-163484381D01*
X205656867Y-163436762D01*
X205704486Y-163389143D01*
X205752105Y-163293905D01*
X205752105Y-163055810D01*
X205704486Y-162960571D01*
X205656867Y-162912952D01*
X205561629Y-162865333D01*
X205371152Y-162865333D01*
X205275914Y-162912952D01*
X205228295Y-162960571D01*
X205180676Y-163055810D01*
X143839914Y-163484381D02*
X143839914Y-162484381D01*
X144078009Y-162484381D01*
X144220867Y-162532000D01*
X144316105Y-162627238D01*
X144363724Y-162722476D01*
X144411343Y-162912952D01*
X144411343Y-163055810D01*
X144363724Y-163246286D01*
X144316105Y-163341524D01*
X144220867Y-163436762D01*
X144078009Y-163484381D01*
X143839914Y-163484381D01*
X144792295Y-162579619D02*
X144839914Y-162532000D01*
X144935152Y-162484381D01*
X145173248Y-162484381D01*
X145268486Y-162532000D01*
X145316105Y-162579619D01*
X145363724Y-162674857D01*
X145363724Y-162770095D01*
X145316105Y-162912952D01*
X144744676Y-163484381D01*
X145363724Y-163484381D01*
X146268486Y-162484381D02*
X145792295Y-162484381D01*
X145744676Y-162960571D01*
X145792295Y-162912952D01*
X145887533Y-162865333D01*
X146125629Y-162865333D01*
X146220867Y-162912952D01*
X146268486Y-162960571D01*
X146316105Y-163055810D01*
X146316105Y-163293905D01*
X146268486Y-163389143D01*
X146220867Y-163436762D01*
X146125629Y-163484381D01*
X145887533Y-163484381D01*
X145792295Y-163436762D01*
X145744676Y-163389143D01*
X203225114Y-171205981D02*
X203225114Y-170205981D01*
X203463209Y-170205981D01*
X203606067Y-170253600D01*
X203701305Y-170348838D01*
X203748924Y-170444076D01*
X203796543Y-170634552D01*
X203796543Y-170777410D01*
X203748924Y-170967886D01*
X203701305Y-171063124D01*
X203606067Y-171158362D01*
X203463209Y-171205981D01*
X203225114Y-171205981D01*
X204177495Y-170301219D02*
X204225114Y-170253600D01*
X204320352Y-170205981D01*
X204558448Y-170205981D01*
X204653686Y-170253600D01*
X204701305Y-170301219D01*
X204748924Y-170396457D01*
X204748924Y-170491695D01*
X204701305Y-170634552D01*
X204129876Y-171205981D01*
X204748924Y-171205981D01*
X205606067Y-170539314D02*
X205606067Y-171205981D01*
X205367971Y-170158362D02*
X205129876Y-170872648D01*
X205748924Y-170872648D01*
X143890714Y-171205981D02*
X143890714Y-170205981D01*
X144128809Y-170205981D01*
X144271667Y-170253600D01*
X144366905Y-170348838D01*
X144414524Y-170444076D01*
X144462143Y-170634552D01*
X144462143Y-170777410D01*
X144414524Y-170967886D01*
X144366905Y-171063124D01*
X144271667Y-171158362D01*
X144128809Y-171205981D01*
X143890714Y-171205981D01*
X144843095Y-170301219D02*
X144890714Y-170253600D01*
X144985952Y-170205981D01*
X145224048Y-170205981D01*
X145319286Y-170253600D01*
X145366905Y-170301219D01*
X145414524Y-170396457D01*
X145414524Y-170491695D01*
X145366905Y-170634552D01*
X144795476Y-171205981D01*
X145414524Y-171205981D01*
X145747857Y-170205981D02*
X146366905Y-170205981D01*
X146033571Y-170586933D01*
X146176429Y-170586933D01*
X146271667Y-170634552D01*
X146319286Y-170682171D01*
X146366905Y-170777410D01*
X146366905Y-171015505D01*
X146319286Y-171110743D01*
X146271667Y-171158362D01*
X146176429Y-171205981D01*
X145890714Y-171205981D01*
X145795476Y-171158362D01*
X145747857Y-171110743D01*
X203326714Y-178927581D02*
X203326714Y-177927581D01*
X203564809Y-177927581D01*
X203707667Y-177975200D01*
X203802905Y-178070438D01*
X203850524Y-178165676D01*
X203898143Y-178356152D01*
X203898143Y-178499010D01*
X203850524Y-178689486D01*
X203802905Y-178784724D01*
X203707667Y-178879962D01*
X203564809Y-178927581D01*
X203326714Y-178927581D01*
X204279095Y-178022819D02*
X204326714Y-177975200D01*
X204421952Y-177927581D01*
X204660048Y-177927581D01*
X204755286Y-177975200D01*
X204802905Y-178022819D01*
X204850524Y-178118057D01*
X204850524Y-178213295D01*
X204802905Y-178356152D01*
X204231476Y-178927581D01*
X204850524Y-178927581D01*
X205231476Y-178022819D02*
X205279095Y-177975200D01*
X205374333Y-177927581D01*
X205612429Y-177927581D01*
X205707667Y-177975200D01*
X205755286Y-178022819D01*
X205802905Y-178118057D01*
X205802905Y-178213295D01*
X205755286Y-178356152D01*
X205183857Y-178927581D01*
X205802905Y-178927581D01*
X143890714Y-178952981D02*
X143890714Y-177952981D01*
X144128809Y-177952981D01*
X144271667Y-178000600D01*
X144366905Y-178095838D01*
X144414524Y-178191076D01*
X144462143Y-178381552D01*
X144462143Y-178524410D01*
X144414524Y-178714886D01*
X144366905Y-178810124D01*
X144271667Y-178905362D01*
X144128809Y-178952981D01*
X143890714Y-178952981D01*
X144843095Y-178048219D02*
X144890714Y-178000600D01*
X144985952Y-177952981D01*
X145224048Y-177952981D01*
X145319286Y-178000600D01*
X145366905Y-178048219D01*
X145414524Y-178143457D01*
X145414524Y-178238695D01*
X145366905Y-178381552D01*
X144795476Y-178952981D01*
X145414524Y-178952981D01*
X146366905Y-178952981D02*
X145795476Y-178952981D01*
X146081190Y-178952981D02*
X146081190Y-177952981D01*
X145985952Y-178095838D01*
X145890714Y-178191076D01*
X145795476Y-178238695D01*
X203377514Y-186649181D02*
X203377514Y-185649181D01*
X203615609Y-185649181D01*
X203758467Y-185696800D01*
X203853705Y-185792038D01*
X203901324Y-185887276D01*
X203948943Y-186077752D01*
X203948943Y-186220610D01*
X203901324Y-186411086D01*
X203853705Y-186506324D01*
X203758467Y-186601562D01*
X203615609Y-186649181D01*
X203377514Y-186649181D01*
X204329895Y-185744419D02*
X204377514Y-185696800D01*
X204472752Y-185649181D01*
X204710848Y-185649181D01*
X204806086Y-185696800D01*
X204853705Y-185744419D01*
X204901324Y-185839657D01*
X204901324Y-185934895D01*
X204853705Y-186077752D01*
X204282276Y-186649181D01*
X204901324Y-186649181D01*
X205520371Y-185649181D02*
X205615610Y-185649181D01*
X205710848Y-185696800D01*
X205758467Y-185744419D01*
X205806086Y-185839657D01*
X205853705Y-186030133D01*
X205853705Y-186268229D01*
X205806086Y-186458705D01*
X205758467Y-186553943D01*
X205710848Y-186601562D01*
X205615610Y-186649181D01*
X205520371Y-186649181D01*
X205425133Y-186601562D01*
X205377514Y-186553943D01*
X205329895Y-186458705D01*
X205282276Y-186268229D01*
X205282276Y-186030133D01*
X205329895Y-185839657D01*
X205377514Y-185744419D01*
X205425133Y-185696800D01*
X205520371Y-185649181D01*
X143966914Y-186649181D02*
X143966914Y-185649181D01*
X144205009Y-185649181D01*
X144347867Y-185696800D01*
X144443105Y-185792038D01*
X144490724Y-185887276D01*
X144538343Y-186077752D01*
X144538343Y-186220610D01*
X144490724Y-186411086D01*
X144443105Y-186506324D01*
X144347867Y-186601562D01*
X144205009Y-186649181D01*
X143966914Y-186649181D01*
X145490724Y-186649181D02*
X144919295Y-186649181D01*
X145205009Y-186649181D02*
X145205009Y-185649181D01*
X145109771Y-185792038D01*
X145014533Y-185887276D01*
X144919295Y-185934895D01*
X145966914Y-186649181D02*
X146157390Y-186649181D01*
X146252629Y-186601562D01*
X146300248Y-186553943D01*
X146395486Y-186411086D01*
X146443105Y-186220610D01*
X146443105Y-185839657D01*
X146395486Y-185744419D01*
X146347867Y-185696800D01*
X146252629Y-185649181D01*
X146062152Y-185649181D01*
X145966914Y-185696800D01*
X145919295Y-185744419D01*
X145871676Y-185839657D01*
X145871676Y-186077752D01*
X145919295Y-186172990D01*
X145966914Y-186220610D01*
X146062152Y-186268229D01*
X146252629Y-186268229D01*
X146347867Y-186220610D01*
X146395486Y-186172990D01*
X146443105Y-186077752D01*
X119414667Y-184482381D02*
X119414667Y-185196667D01*
X119367047Y-185339524D01*
X119271809Y-185434762D01*
X119128952Y-185482381D01*
X119033714Y-185482381D01*
X119795619Y-184482381D02*
X120414667Y-184482381D01*
X120081333Y-184863333D01*
X120224191Y-184863333D01*
X120319429Y-184910952D01*
X120367048Y-184958571D01*
X120414667Y-185053810D01*
X120414667Y-185291905D01*
X120367048Y-185387143D01*
X120319429Y-185434762D01*
X120224191Y-185482381D01*
X119938476Y-185482381D01*
X119843238Y-185434762D01*
X119795619Y-185387143D01*
X119779611Y-75935325D02*
X119779611Y-76649611D01*
X119731991Y-76792468D01*
X119636753Y-76887706D01*
X119493896Y-76935325D01*
X119398658Y-76935325D01*
X120684373Y-76268658D02*
X120684373Y-76935325D01*
X120446277Y-75887706D02*
X120208182Y-76601992D01*
X120827230Y-76601992D01*
X290116667Y-115952381D02*
X290116667Y-116666667D01*
X290069047Y-116809524D01*
X289973809Y-116904762D01*
X289830952Y-116952381D01*
X289735714Y-116952381D01*
X291021429Y-115952381D02*
X290830952Y-115952381D01*
X290735714Y-116000000D01*
X290688095Y-116047619D01*
X290592857Y-116190476D01*
X290545238Y-116380952D01*
X290545238Y-116761905D01*
X290592857Y-116857143D01*
X290640476Y-116904762D01*
X290735714Y-116952381D01*
X290926191Y-116952381D01*
X291021429Y-116904762D01*
X291069048Y-116857143D01*
X291116667Y-116761905D01*
X291116667Y-116523810D01*
X291069048Y-116428571D01*
X291021429Y-116380952D01*
X290926191Y-116333333D01*
X290735714Y-116333333D01*
X290640476Y-116380952D01*
X290592857Y-116428571D01*
X290545238Y-116523810D01*
X152919611Y-185255325D02*
X152919611Y-185969611D01*
X152871991Y-186112468D01*
X152776753Y-186207706D01*
X152633896Y-186255325D01*
X152538658Y-186255325D01*
X153300563Y-185255325D02*
X153967230Y-185255325D01*
X153538658Y-186255325D01*
X152619611Y-115805325D02*
X152619611Y-116519611D01*
X152571991Y-116662468D01*
X152476753Y-116757706D01*
X152333896Y-116805325D01*
X152238658Y-116805325D01*
X153238658Y-116233896D02*
X153143420Y-116186277D01*
X153095801Y-116138658D01*
X153048182Y-116043420D01*
X153048182Y-115995801D01*
X153095801Y-115900563D01*
X153143420Y-115852944D01*
X153238658Y-115805325D01*
X153429135Y-115805325D01*
X153524373Y-115852944D01*
X153571992Y-115900563D01*
X153619611Y-115995801D01*
X153619611Y-116043420D01*
X153571992Y-116138658D01*
X153524373Y-116186277D01*
X153429135Y-116233896D01*
X153238658Y-116233896D01*
X153143420Y-116281515D01*
X153095801Y-116329134D01*
X153048182Y-116424373D01*
X153048182Y-116614849D01*
X153095801Y-116710087D01*
X153143420Y-116757706D01*
X153238658Y-116805325D01*
X153429135Y-116805325D01*
X153524373Y-116757706D01*
X153571992Y-116710087D01*
X153619611Y-116614849D01*
X153619611Y-116424373D01*
X153571992Y-116329134D01*
X153524373Y-116281515D01*
X153429135Y-116233896D01*
X138266667Y-186552381D02*
X138266667Y-187266667D01*
X138219047Y-187409524D01*
X138123809Y-187504762D01*
X137980952Y-187552381D01*
X137885714Y-187552381D01*
X138790476Y-187552381D02*
X138980952Y-187552381D01*
X139076191Y-187504762D01*
X139123810Y-187457143D01*
X139219048Y-187314286D01*
X139266667Y-187123810D01*
X139266667Y-186742857D01*
X139219048Y-186647619D01*
X139171429Y-186600000D01*
X139076191Y-186552381D01*
X138885714Y-186552381D01*
X138790476Y-186600000D01*
X138742857Y-186647619D01*
X138695238Y-186742857D01*
X138695238Y-186980952D01*
X138742857Y-187076190D01*
X138790476Y-187123810D01*
X138885714Y-187171429D01*
X139076191Y-187171429D01*
X139171429Y-187123810D01*
X139219048Y-187076190D01*
X139266667Y-186980952D01*
X120990477Y-194802381D02*
X120990477Y-195516667D01*
X120942857Y-195659524D01*
X120847619Y-195754762D01*
X120704762Y-195802381D01*
X120609524Y-195802381D01*
X121990477Y-195802381D02*
X121419048Y-195802381D01*
X121704762Y-195802381D02*
X121704762Y-194802381D01*
X121609524Y-194945238D01*
X121514286Y-195040476D01*
X121419048Y-195088095D01*
X122609524Y-194802381D02*
X122704763Y-194802381D01*
X122800001Y-194850000D01*
X122847620Y-194897619D01*
X122895239Y-194992857D01*
X122942858Y-195183333D01*
X122942858Y-195421429D01*
X122895239Y-195611905D01*
X122847620Y-195707143D01*
X122800001Y-195754762D01*
X122704763Y-195802381D01*
X122609524Y-195802381D01*
X122514286Y-195754762D01*
X122466667Y-195707143D01*
X122419048Y-195611905D01*
X122371429Y-195421429D01*
X122371429Y-195183333D01*
X122419048Y-194992857D01*
X122466667Y-194897619D01*
X122514286Y-194850000D01*
X122609524Y-194802381D01*
X309000477Y-76160381D02*
X309000477Y-76874667D01*
X308952857Y-77017524D01*
X308857619Y-77112762D01*
X308714762Y-77160381D01*
X308619524Y-77160381D01*
X310000477Y-77160381D02*
X309429048Y-77160381D01*
X309714762Y-77160381D02*
X309714762Y-76160381D01*
X309619524Y-76303238D01*
X309524286Y-76398476D01*
X309429048Y-76446095D01*
X310905239Y-76160381D02*
X310429048Y-76160381D01*
X310381429Y-76636571D01*
X310429048Y-76588952D01*
X310524286Y-76541333D01*
X310762382Y-76541333D01*
X310857620Y-76588952D01*
X310905239Y-76636571D01*
X310952858Y-76731810D01*
X310952858Y-76969905D01*
X310905239Y-77065143D01*
X310857620Y-77112762D01*
X310762382Y-77160381D01*
X310524286Y-77160381D01*
X310429048Y-77112762D01*
X310381429Y-77065143D01*
X272494477Y-64000381D02*
X272494477Y-64714667D01*
X272446857Y-64857524D01*
X272351619Y-64952762D01*
X272208762Y-65000381D01*
X272113524Y-65000381D01*
X273494477Y-65000381D02*
X272923048Y-65000381D01*
X273208762Y-65000381D02*
X273208762Y-64000381D01*
X273113524Y-64143238D01*
X273018286Y-64238476D01*
X272923048Y-64286095D01*
X274351620Y-64000381D02*
X274161143Y-64000381D01*
X274065905Y-64048000D01*
X274018286Y-64095619D01*
X273923048Y-64238476D01*
X273875429Y-64428952D01*
X273875429Y-64809905D01*
X273923048Y-64905143D01*
X273970667Y-64952762D01*
X274065905Y-65000381D01*
X274256382Y-65000381D01*
X274351620Y-64952762D01*
X274399239Y-64905143D01*
X274446858Y-64809905D01*
X274446858Y-64571810D01*
X274399239Y-64476571D01*
X274351620Y-64428952D01*
X274256382Y-64381333D01*
X274065905Y-64381333D01*
X273970667Y-64428952D01*
X273923048Y-64476571D01*
X273875429Y-64571810D01*
X164060477Y-63516381D02*
X164060477Y-64230667D01*
X164012857Y-64373524D01*
X163917619Y-64468762D01*
X163774762Y-64516381D01*
X163679524Y-64516381D01*
X165060477Y-64516381D02*
X164489048Y-64516381D01*
X164774762Y-64516381D02*
X164774762Y-63516381D01*
X164679524Y-63659238D01*
X164584286Y-63754476D01*
X164489048Y-63802095D01*
X165393810Y-63516381D02*
X166060477Y-63516381D01*
X165631905Y-64516381D01*
X262040477Y-80182381D02*
X262040477Y-80896667D01*
X261992857Y-81039524D01*
X261897619Y-81134762D01*
X261754762Y-81182381D01*
X261659524Y-81182381D01*
X262469048Y-80277619D02*
X262516667Y-80230000D01*
X262611905Y-80182381D01*
X262850001Y-80182381D01*
X262945239Y-80230000D01*
X262992858Y-80277619D01*
X263040477Y-80372857D01*
X263040477Y-80468095D01*
X262992858Y-80610952D01*
X262421429Y-81182381D01*
X263040477Y-81182381D01*
X263992858Y-81182381D02*
X263421429Y-81182381D01*
X263707143Y-81182381D02*
X263707143Y-80182381D01*
X263611905Y-80325238D01*
X263516667Y-80420476D01*
X263421429Y-80468095D01*
X172040477Y-102022381D02*
X172040477Y-102736667D01*
X171992857Y-102879524D01*
X171897619Y-102974762D01*
X171754762Y-103022381D01*
X171659524Y-103022381D01*
X172469048Y-102117619D02*
X172516667Y-102070000D01*
X172611905Y-102022381D01*
X172850001Y-102022381D01*
X172945239Y-102070000D01*
X172992858Y-102117619D01*
X173040477Y-102212857D01*
X173040477Y-102308095D01*
X172992858Y-102450952D01*
X172421429Y-103022381D01*
X173040477Y-103022381D01*
X173421429Y-102117619D02*
X173469048Y-102070000D01*
X173564286Y-102022381D01*
X173802382Y-102022381D01*
X173897620Y-102070000D01*
X173945239Y-102117619D01*
X173992858Y-102212857D01*
X173992858Y-102308095D01*
X173945239Y-102450952D01*
X173373810Y-103022381D01*
X173992858Y-103022381D01*
X122500477Y-94752381D02*
X122500477Y-95466667D01*
X122452857Y-95609524D01*
X122357619Y-95704762D01*
X122214762Y-95752381D01*
X122119524Y-95752381D01*
X122929048Y-94847619D02*
X122976667Y-94800000D01*
X123071905Y-94752381D01*
X123310001Y-94752381D01*
X123405239Y-94800000D01*
X123452858Y-94847619D01*
X123500477Y-94942857D01*
X123500477Y-95038095D01*
X123452858Y-95180952D01*
X122881429Y-95752381D01*
X123500477Y-95752381D01*
X123833810Y-94752381D02*
X124452858Y-94752381D01*
X124119524Y-95133333D01*
X124262382Y-95133333D01*
X124357620Y-95180952D01*
X124405239Y-95228571D01*
X124452858Y-95323810D01*
X124452858Y-95561905D01*
X124405239Y-95657143D01*
X124357620Y-95704762D01*
X124262382Y-95752381D01*
X123976667Y-95752381D01*
X123881429Y-95704762D01*
X123833810Y-95657143D01*
X296370477Y-80224381D02*
X296370477Y-80938667D01*
X296322857Y-81081524D01*
X296227619Y-81176762D01*
X296084762Y-81224381D01*
X295989524Y-81224381D01*
X296799048Y-80319619D02*
X296846667Y-80272000D01*
X296941905Y-80224381D01*
X297180001Y-80224381D01*
X297275239Y-80272000D01*
X297322858Y-80319619D01*
X297370477Y-80414857D01*
X297370477Y-80510095D01*
X297322858Y-80652952D01*
X296751429Y-81224381D01*
X297370477Y-81224381D01*
X298227620Y-80557714D02*
X298227620Y-81224381D01*
X297989524Y-80176762D02*
X297751429Y-80891048D01*
X298370477Y-80891048D01*
X286110477Y-96662381D02*
X286110477Y-97376667D01*
X286062857Y-97519524D01*
X285967619Y-97614762D01*
X285824762Y-97662381D01*
X285729524Y-97662381D01*
X286539048Y-96757619D02*
X286586667Y-96710000D01*
X286681905Y-96662381D01*
X286920001Y-96662381D01*
X287015239Y-96710000D01*
X287062858Y-96757619D01*
X287110477Y-96852857D01*
X287110477Y-96948095D01*
X287062858Y-97090952D01*
X286491429Y-97662381D01*
X287110477Y-97662381D01*
X288015239Y-96662381D02*
X287539048Y-96662381D01*
X287491429Y-97138571D01*
X287539048Y-97090952D01*
X287634286Y-97043333D01*
X287872382Y-97043333D01*
X287967620Y-97090952D01*
X288015239Y-97138571D01*
X288062858Y-97233810D01*
X288062858Y-97471905D01*
X288015239Y-97567143D01*
X287967620Y-97614762D01*
X287872382Y-97662381D01*
X287634286Y-97662381D01*
X287539048Y-97614762D01*
X287491429Y-97567143D01*
X178768477Y-79970381D02*
X178768477Y-80684667D01*
X178720857Y-80827524D01*
X178625619Y-80922762D01*
X178482762Y-80970381D01*
X178387524Y-80970381D01*
X179197048Y-80065619D02*
X179244667Y-80018000D01*
X179339905Y-79970381D01*
X179578001Y-79970381D01*
X179673239Y-80018000D01*
X179720858Y-80065619D01*
X179768477Y-80160857D01*
X179768477Y-80256095D01*
X179720858Y-80398952D01*
X179149429Y-80970381D01*
X179768477Y-80970381D01*
X180625620Y-79970381D02*
X180435143Y-79970381D01*
X180339905Y-80018000D01*
X180292286Y-80065619D01*
X180197048Y-80208476D01*
X180149429Y-80398952D01*
X180149429Y-80779905D01*
X180197048Y-80875143D01*
X180244667Y-80922762D01*
X180339905Y-80970381D01*
X180530382Y-80970381D01*
X180625620Y-80922762D01*
X180673239Y-80875143D01*
X180720858Y-80779905D01*
X180720858Y-80541810D01*
X180673239Y-80446571D01*
X180625620Y-80398952D01*
X180530382Y-80351333D01*
X180339905Y-80351333D01*
X180244667Y-80398952D01*
X180197048Y-80446571D01*
X180149429Y-80541810D01*
X211534477Y-78954381D02*
X211534477Y-79668667D01*
X211486857Y-79811524D01*
X211391619Y-79906762D01*
X211248762Y-79954381D01*
X211153524Y-79954381D01*
X211963048Y-79049619D02*
X212010667Y-79002000D01*
X212105905Y-78954381D01*
X212344001Y-78954381D01*
X212439239Y-79002000D01*
X212486858Y-79049619D01*
X212534477Y-79144857D01*
X212534477Y-79240095D01*
X212486858Y-79382952D01*
X211915429Y-79954381D01*
X212534477Y-79954381D01*
X212867810Y-78954381D02*
X213534477Y-78954381D01*
X213105905Y-79954381D01*
X281892477Y-79970381D02*
X281892477Y-80684667D01*
X281844857Y-80827524D01*
X281749619Y-80922762D01*
X281606762Y-80970381D01*
X281511524Y-80970381D01*
X282321048Y-80065619D02*
X282368667Y-80018000D01*
X282463905Y-79970381D01*
X282702001Y-79970381D01*
X282797239Y-80018000D01*
X282844858Y-80065619D01*
X282892477Y-80160857D01*
X282892477Y-80256095D01*
X282844858Y-80398952D01*
X282273429Y-80970381D01*
X282892477Y-80970381D01*
X283463905Y-80398952D02*
X283368667Y-80351333D01*
X283321048Y-80303714D01*
X283273429Y-80208476D01*
X283273429Y-80160857D01*
X283321048Y-80065619D01*
X283368667Y-80018000D01*
X283463905Y-79970381D01*
X283654382Y-79970381D01*
X283749620Y-80018000D01*
X283797239Y-80065619D01*
X283844858Y-80160857D01*
X283844858Y-80208476D01*
X283797239Y-80303714D01*
X283749620Y-80351333D01*
X283654382Y-80398952D01*
X283463905Y-80398952D01*
X283368667Y-80446571D01*
X283321048Y-80494190D01*
X283273429Y-80589429D01*
X283273429Y-80779905D01*
X283321048Y-80875143D01*
X283368667Y-80922762D01*
X283463905Y-80970381D01*
X283654382Y-80970381D01*
X283749620Y-80922762D01*
X283797239Y-80875143D01*
X283844858Y-80779905D01*
X283844858Y-80589429D01*
X283797239Y-80494190D01*
X283749620Y-80446571D01*
X283654382Y-80398952D01*
X142954477Y-105910381D02*
X142954477Y-106624667D01*
X142906857Y-106767524D01*
X142811619Y-106862762D01*
X142668762Y-106910381D01*
X142573524Y-106910381D01*
X143383048Y-106005619D02*
X143430667Y-105958000D01*
X143525905Y-105910381D01*
X143764001Y-105910381D01*
X143859239Y-105958000D01*
X143906858Y-106005619D01*
X143954477Y-106100857D01*
X143954477Y-106196095D01*
X143906858Y-106338952D01*
X143335429Y-106910381D01*
X143954477Y-106910381D01*
X144430667Y-106910381D02*
X144621143Y-106910381D01*
X144716382Y-106862762D01*
X144764001Y-106815143D01*
X144859239Y-106672286D01*
X144906858Y-106481810D01*
X144906858Y-106100857D01*
X144859239Y-106005619D01*
X144811620Y-105958000D01*
X144716382Y-105910381D01*
X144525905Y-105910381D01*
X144430667Y-105958000D01*
X144383048Y-106005619D01*
X144335429Y-106100857D01*
X144335429Y-106338952D01*
X144383048Y-106434190D01*
X144430667Y-106481810D01*
X144525905Y-106529429D01*
X144716382Y-106529429D01*
X144811620Y-106481810D01*
X144859239Y-106434190D01*
X144906858Y-106338952D01*
X140414477Y-92416381D02*
X140414477Y-93130667D01*
X140366857Y-93273524D01*
X140271619Y-93368762D01*
X140128762Y-93416381D01*
X140033524Y-93416381D01*
X140795429Y-92416381D02*
X141414477Y-92416381D01*
X141081143Y-92797333D01*
X141224001Y-92797333D01*
X141319239Y-92844952D01*
X141366858Y-92892571D01*
X141414477Y-92987810D01*
X141414477Y-93225905D01*
X141366858Y-93321143D01*
X141319239Y-93368762D01*
X141224001Y-93416381D01*
X140938286Y-93416381D01*
X140843048Y-93368762D01*
X140795429Y-93321143D01*
X142033524Y-92416381D02*
X142128763Y-92416381D01*
X142224001Y-92464000D01*
X142271620Y-92511619D01*
X142319239Y-92606857D01*
X142366858Y-92797333D01*
X142366858Y-93035429D01*
X142319239Y-93225905D01*
X142271620Y-93321143D01*
X142224001Y-93368762D01*
X142128763Y-93416381D01*
X142033524Y-93416381D01*
X141938286Y-93368762D01*
X141890667Y-93321143D01*
X141843048Y-93225905D01*
X141795429Y-93035429D01*
X141795429Y-92797333D01*
X141843048Y-92606857D01*
X141890667Y-92511619D01*
X141938286Y-92464000D01*
X142033524Y-92416381D01*
X286210477Y-110704381D02*
X286210477Y-111418667D01*
X286162857Y-111561524D01*
X286067619Y-111656762D01*
X285924762Y-111704381D01*
X285829524Y-111704381D01*
X286591429Y-110704381D02*
X287210477Y-110704381D01*
X286877143Y-111085333D01*
X287020001Y-111085333D01*
X287115239Y-111132952D01*
X287162858Y-111180571D01*
X287210477Y-111275810D01*
X287210477Y-111513905D01*
X287162858Y-111609143D01*
X287115239Y-111656762D01*
X287020001Y-111704381D01*
X286734286Y-111704381D01*
X286639048Y-111656762D01*
X286591429Y-111609143D01*
X288162858Y-111704381D02*
X287591429Y-111704381D01*
X287877143Y-111704381D02*
X287877143Y-110704381D01*
X287781905Y-110847238D01*
X287686667Y-110942476D01*
X287591429Y-110990095D01*
X232510477Y-103842381D02*
X232510477Y-104556667D01*
X232462857Y-104699524D01*
X232367619Y-104794762D01*
X232224762Y-104842381D01*
X232129524Y-104842381D01*
X232891429Y-103842381D02*
X233510477Y-103842381D01*
X233177143Y-104223333D01*
X233320001Y-104223333D01*
X233415239Y-104270952D01*
X233462858Y-104318571D01*
X233510477Y-104413810D01*
X233510477Y-104651905D01*
X233462858Y-104747143D01*
X233415239Y-104794762D01*
X233320001Y-104842381D01*
X233034286Y-104842381D01*
X232939048Y-104794762D01*
X232891429Y-104747143D01*
X233891429Y-103937619D02*
X233939048Y-103890000D01*
X234034286Y-103842381D01*
X234272382Y-103842381D01*
X234367620Y-103890000D01*
X234415239Y-103937619D01*
X234462858Y-104032857D01*
X234462858Y-104128095D01*
X234415239Y-104270952D01*
X233843810Y-104842381D01*
X234462858Y-104842381D01*
X132660477Y-72122381D02*
X132660477Y-72836667D01*
X132612857Y-72979524D01*
X132517619Y-73074762D01*
X132374762Y-73122381D01*
X132279524Y-73122381D01*
X133041429Y-72122381D02*
X133660477Y-72122381D01*
X133327143Y-72503333D01*
X133470001Y-72503333D01*
X133565239Y-72550952D01*
X133612858Y-72598571D01*
X133660477Y-72693810D01*
X133660477Y-72931905D01*
X133612858Y-73027143D01*
X133565239Y-73074762D01*
X133470001Y-73122381D01*
X133184286Y-73122381D01*
X133089048Y-73074762D01*
X133041429Y-73027143D01*
X133993810Y-72122381D02*
X134612858Y-72122381D01*
X134279524Y-72503333D01*
X134422382Y-72503333D01*
X134517620Y-72550952D01*
X134565239Y-72598571D01*
X134612858Y-72693810D01*
X134612858Y-72931905D01*
X134565239Y-73027143D01*
X134517620Y-73074762D01*
X134422382Y-73122381D01*
X134136667Y-73122381D01*
X134041429Y-73074762D01*
X133993810Y-73027143D01*
X299164477Y-110450381D02*
X299164477Y-111164667D01*
X299116857Y-111307524D01*
X299021619Y-111402762D01*
X298878762Y-111450381D01*
X298783524Y-111450381D01*
X299545429Y-110450381D02*
X300164477Y-110450381D01*
X299831143Y-110831333D01*
X299974001Y-110831333D01*
X300069239Y-110878952D01*
X300116858Y-110926571D01*
X300164477Y-111021810D01*
X300164477Y-111259905D01*
X300116858Y-111355143D01*
X300069239Y-111402762D01*
X299974001Y-111450381D01*
X299688286Y-111450381D01*
X299593048Y-111402762D01*
X299545429Y-111355143D01*
X301069239Y-110450381D02*
X300593048Y-110450381D01*
X300545429Y-110926571D01*
X300593048Y-110878952D01*
X300688286Y-110831333D01*
X300926382Y-110831333D01*
X301021620Y-110878952D01*
X301069239Y-110926571D01*
X301116858Y-111021810D01*
X301116858Y-111259905D01*
X301069239Y-111355143D01*
X301021620Y-111402762D01*
X300926382Y-111450381D01*
X300688286Y-111450381D01*
X300593048Y-111402762D01*
X300545429Y-111355143D01*
X176482477Y-104608381D02*
X176482477Y-105322667D01*
X176434857Y-105465524D01*
X176339619Y-105560762D01*
X176196762Y-105608381D01*
X176101524Y-105608381D01*
X176863429Y-104608381D02*
X177482477Y-104608381D01*
X177149143Y-104989333D01*
X177292001Y-104989333D01*
X177387239Y-105036952D01*
X177434858Y-105084571D01*
X177482477Y-105179810D01*
X177482477Y-105417905D01*
X177434858Y-105513143D01*
X177387239Y-105560762D01*
X177292001Y-105608381D01*
X177006286Y-105608381D01*
X176911048Y-105560762D01*
X176863429Y-105513143D01*
X178339620Y-104608381D02*
X178149143Y-104608381D01*
X178053905Y-104656000D01*
X178006286Y-104703619D01*
X177911048Y-104846476D01*
X177863429Y-105036952D01*
X177863429Y-105417905D01*
X177911048Y-105513143D01*
X177958667Y-105560762D01*
X178053905Y-105608381D01*
X178244382Y-105608381D01*
X178339620Y-105560762D01*
X178387239Y-105513143D01*
X178434858Y-105417905D01*
X178434858Y-105179810D01*
X178387239Y-105084571D01*
X178339620Y-105036952D01*
X178244382Y-104989333D01*
X178053905Y-104989333D01*
X177958667Y-105036952D01*
X177911048Y-105084571D01*
X177863429Y-105179810D01*
X155146477Y-102322381D02*
X155146477Y-103036667D01*
X155098857Y-103179524D01*
X155003619Y-103274762D01*
X154860762Y-103322381D01*
X154765524Y-103322381D01*
X155527429Y-102322381D02*
X156146477Y-102322381D01*
X155813143Y-102703333D01*
X155956001Y-102703333D01*
X156051239Y-102750952D01*
X156098858Y-102798571D01*
X156146477Y-102893810D01*
X156146477Y-103131905D01*
X156098858Y-103227143D01*
X156051239Y-103274762D01*
X155956001Y-103322381D01*
X155670286Y-103322381D01*
X155575048Y-103274762D01*
X155527429Y-103227143D01*
X156479810Y-102322381D02*
X157146477Y-102322381D01*
X156717905Y-103322381D01*
X247602477Y-80224381D02*
X247602477Y-80938667D01*
X247554857Y-81081524D01*
X247459619Y-81176762D01*
X247316762Y-81224381D01*
X247221524Y-81224381D01*
X247983429Y-80224381D02*
X248602477Y-80224381D01*
X248269143Y-80605333D01*
X248412001Y-80605333D01*
X248507239Y-80652952D01*
X248554858Y-80700571D01*
X248602477Y-80795810D01*
X248602477Y-81033905D01*
X248554858Y-81129143D01*
X248507239Y-81176762D01*
X248412001Y-81224381D01*
X248126286Y-81224381D01*
X248031048Y-81176762D01*
X247983429Y-81129143D01*
X249173905Y-80652952D02*
X249078667Y-80605333D01*
X249031048Y-80557714D01*
X248983429Y-80462476D01*
X248983429Y-80414857D01*
X249031048Y-80319619D01*
X249078667Y-80272000D01*
X249173905Y-80224381D01*
X249364382Y-80224381D01*
X249459620Y-80272000D01*
X249507239Y-80319619D01*
X249554858Y-80414857D01*
X249554858Y-80462476D01*
X249507239Y-80557714D01*
X249459620Y-80605333D01*
X249364382Y-80652952D01*
X249173905Y-80652952D01*
X249078667Y-80700571D01*
X249031048Y-80748190D01*
X248983429Y-80843429D01*
X248983429Y-81033905D01*
X249031048Y-81129143D01*
X249078667Y-81176762D01*
X249173905Y-81224381D01*
X249364382Y-81224381D01*
X249459620Y-81176762D01*
X249507239Y-81129143D01*
X249554858Y-81033905D01*
X249554858Y-80843429D01*
X249507239Y-80748190D01*
X249459620Y-80700571D01*
X249364382Y-80652952D01*
X152352477Y-102322381D02*
X152352477Y-103036667D01*
X152304857Y-103179524D01*
X152209619Y-103274762D01*
X152066762Y-103322381D01*
X151971524Y-103322381D01*
X153352477Y-103322381D02*
X152781048Y-103322381D01*
X153066762Y-103322381D02*
X153066762Y-102322381D01*
X152971524Y-102465238D01*
X152876286Y-102560476D01*
X152781048Y-102608095D01*
X154304858Y-103322381D02*
X153733429Y-103322381D01*
X154019143Y-103322381D02*
X154019143Y-102322381D01*
X153923905Y-102465238D01*
X153828667Y-102560476D01*
X153733429Y-102608095D01*
X192484477Y-91654381D02*
X192484477Y-92368667D01*
X192436857Y-92511524D01*
X192341619Y-92606762D01*
X192198762Y-92654381D01*
X192103524Y-92654381D01*
X193484477Y-92654381D02*
X192913048Y-92654381D01*
X193198762Y-92654381D02*
X193198762Y-91654381D01*
X193103524Y-91797238D01*
X193008286Y-91892476D01*
X192913048Y-91940095D01*
X193865429Y-91749619D02*
X193913048Y-91702000D01*
X194008286Y-91654381D01*
X194246382Y-91654381D01*
X194341620Y-91702000D01*
X194389239Y-91749619D01*
X194436858Y-91844857D01*
X194436858Y-91940095D01*
X194389239Y-92082952D01*
X193817810Y-92654381D01*
X194436858Y-92654381D01*
X149304477Y-102322381D02*
X149304477Y-103036667D01*
X149256857Y-103179524D01*
X149161619Y-103274762D01*
X149018762Y-103322381D01*
X148923524Y-103322381D01*
X150304477Y-103322381D02*
X149733048Y-103322381D01*
X150018762Y-103322381D02*
X150018762Y-102322381D01*
X149923524Y-102465238D01*
X149828286Y-102560476D01*
X149733048Y-102608095D01*
X150637810Y-102322381D02*
X151256858Y-102322381D01*
X150923524Y-102703333D01*
X151066382Y-102703333D01*
X151161620Y-102750952D01*
X151209239Y-102798571D01*
X151256858Y-102893810D01*
X151256858Y-103131905D01*
X151209239Y-103227143D01*
X151161620Y-103274762D01*
X151066382Y-103322381D01*
X150780667Y-103322381D01*
X150685429Y-103274762D01*
X150637810Y-103227143D01*
X180292477Y-72350381D02*
X180292477Y-73064667D01*
X180244857Y-73207524D01*
X180149619Y-73302762D01*
X180006762Y-73350381D01*
X179911524Y-73350381D01*
X181292477Y-73350381D02*
X180721048Y-73350381D01*
X181006762Y-73350381D02*
X181006762Y-72350381D01*
X180911524Y-72493238D01*
X180816286Y-72588476D01*
X180721048Y-72636095D01*
X182149620Y-72683714D02*
X182149620Y-73350381D01*
X181911524Y-72302762D02*
X181673429Y-73017048D01*
X182292477Y-73017048D01*
X225250477Y-93178381D02*
X225250477Y-93892667D01*
X225202857Y-94035524D01*
X225107619Y-94130762D01*
X224964762Y-94178381D01*
X224869524Y-94178381D01*
X226250477Y-94178381D02*
X225679048Y-94178381D01*
X225964762Y-94178381D02*
X225964762Y-93178381D01*
X225869524Y-93321238D01*
X225774286Y-93416476D01*
X225679048Y-93464095D01*
X226821905Y-93606952D02*
X226726667Y-93559333D01*
X226679048Y-93511714D01*
X226631429Y-93416476D01*
X226631429Y-93368857D01*
X226679048Y-93273619D01*
X226726667Y-93226000D01*
X226821905Y-93178381D01*
X227012382Y-93178381D01*
X227107620Y-93226000D01*
X227155239Y-93273619D01*
X227202858Y-93368857D01*
X227202858Y-93416476D01*
X227155239Y-93511714D01*
X227107620Y-93559333D01*
X227012382Y-93606952D01*
X226821905Y-93606952D01*
X226726667Y-93654571D01*
X226679048Y-93702190D01*
X226631429Y-93797429D01*
X226631429Y-93987905D01*
X226679048Y-94083143D01*
X226726667Y-94130762D01*
X226821905Y-94178381D01*
X227012382Y-94178381D01*
X227107620Y-94130762D01*
X227155239Y-94083143D01*
X227202858Y-93987905D01*
X227202858Y-93797429D01*
X227155239Y-93702190D01*
X227107620Y-93654571D01*
X227012382Y-93606952D01*
X206962477Y-99274381D02*
X206962477Y-99988667D01*
X206914857Y-100131524D01*
X206819619Y-100226762D01*
X206676762Y-100274381D01*
X206581524Y-100274381D01*
X207962477Y-100274381D02*
X207391048Y-100274381D01*
X207676762Y-100274381D02*
X207676762Y-99274381D01*
X207581524Y-99417238D01*
X207486286Y-99512476D01*
X207391048Y-99560095D01*
X208438667Y-100274381D02*
X208629143Y-100274381D01*
X208724382Y-100226762D01*
X208772001Y-100179143D01*
X208867239Y-100036286D01*
X208914858Y-99845810D01*
X208914858Y-99464857D01*
X208867239Y-99369619D01*
X208819620Y-99322000D01*
X208724382Y-99274381D01*
X208533905Y-99274381D01*
X208438667Y-99322000D01*
X208391048Y-99369619D01*
X208343429Y-99464857D01*
X208343429Y-99702952D01*
X208391048Y-99798190D01*
X208438667Y-99845810D01*
X208533905Y-99893429D01*
X208724382Y-99893429D01*
X208819620Y-99845810D01*
X208867239Y-99798190D01*
X208914858Y-99702952D01*
X211600477Y-72992381D02*
X211600477Y-73706667D01*
X211552857Y-73849524D01*
X211457619Y-73944762D01*
X211314762Y-73992381D01*
X211219524Y-73992381D01*
X212029048Y-73087619D02*
X212076667Y-73040000D01*
X212171905Y-72992381D01*
X212410001Y-72992381D01*
X212505239Y-73040000D01*
X212552858Y-73087619D01*
X212600477Y-73182857D01*
X212600477Y-73278095D01*
X212552858Y-73420952D01*
X211981429Y-73992381D01*
X212600477Y-73992381D01*
X213219524Y-72992381D02*
X213314763Y-72992381D01*
X213410001Y-73040000D01*
X213457620Y-73087619D01*
X213505239Y-73182857D01*
X213552858Y-73373333D01*
X213552858Y-73611429D01*
X213505239Y-73801905D01*
X213457620Y-73897143D01*
X213410001Y-73944762D01*
X213314763Y-73992381D01*
X213219524Y-73992381D01*
X213124286Y-73944762D01*
X213076667Y-73897143D01*
X213029048Y-73801905D01*
X212981429Y-73611429D01*
X212981429Y-73373333D01*
X213029048Y-73182857D01*
X213076667Y-73087619D01*
X213124286Y-73040000D01*
X213219524Y-72992381D01*
X204010477Y-104722381D02*
X204010477Y-105436667D01*
X203962857Y-105579524D01*
X203867619Y-105674762D01*
X203724762Y-105722381D01*
X203629524Y-105722381D01*
X204391429Y-104722381D02*
X205010477Y-104722381D01*
X204677143Y-105103333D01*
X204820001Y-105103333D01*
X204915239Y-105150952D01*
X204962858Y-105198571D01*
X205010477Y-105293810D01*
X205010477Y-105531905D01*
X204962858Y-105627143D01*
X204915239Y-105674762D01*
X204820001Y-105722381D01*
X204534286Y-105722381D01*
X204439048Y-105674762D01*
X204391429Y-105627143D01*
X205867620Y-105055714D02*
X205867620Y-105722381D01*
X205629524Y-104674762D02*
X205391429Y-105389048D01*
X206010477Y-105389048D01*
X258880477Y-93612381D02*
X258880477Y-94326667D01*
X258832857Y-94469524D01*
X258737619Y-94564762D01*
X258594762Y-94612381D01*
X258499524Y-94612381D01*
X259261429Y-93612381D02*
X259880477Y-93612381D01*
X259547143Y-93993333D01*
X259690001Y-93993333D01*
X259785239Y-94040952D01*
X259832858Y-94088571D01*
X259880477Y-94183810D01*
X259880477Y-94421905D01*
X259832858Y-94517143D01*
X259785239Y-94564762D01*
X259690001Y-94612381D01*
X259404286Y-94612381D01*
X259309048Y-94564762D01*
X259261429Y-94517143D01*
X260356667Y-94612381D02*
X260547143Y-94612381D01*
X260642382Y-94564762D01*
X260690001Y-94517143D01*
X260785239Y-94374286D01*
X260832858Y-94183810D01*
X260832858Y-93802857D01*
X260785239Y-93707619D01*
X260737620Y-93660000D01*
X260642382Y-93612381D01*
X260451905Y-93612381D01*
X260356667Y-93660000D01*
X260309048Y-93707619D01*
X260261429Y-93802857D01*
X260261429Y-94040952D01*
X260309048Y-94136190D01*
X260356667Y-94183810D01*
X260451905Y-94231429D01*
X260642382Y-94231429D01*
X260737620Y-94183810D01*
X260785239Y-94136190D01*
X260832858Y-94040952D01*
X239240477Y-99782381D02*
X239240477Y-100496667D01*
X239192857Y-100639524D01*
X239097619Y-100734762D01*
X238954762Y-100782381D01*
X238859524Y-100782381D01*
X240145239Y-100115714D02*
X240145239Y-100782381D01*
X239907143Y-99734762D02*
X239669048Y-100449048D01*
X240288096Y-100449048D01*
X240859524Y-99782381D02*
X240954763Y-99782381D01*
X241050001Y-99830000D01*
X241097620Y-99877619D01*
X241145239Y-99972857D01*
X241192858Y-100163333D01*
X241192858Y-100401429D01*
X241145239Y-100591905D01*
X241097620Y-100687143D01*
X241050001Y-100734762D01*
X240954763Y-100782381D01*
X240859524Y-100782381D01*
X240764286Y-100734762D01*
X240716667Y-100687143D01*
X240669048Y-100591905D01*
X240621429Y-100401429D01*
X240621429Y-100163333D01*
X240669048Y-99972857D01*
X240716667Y-99877619D01*
X240764286Y-99830000D01*
X240859524Y-99782381D01*
X242020477Y-106892381D02*
X242020477Y-107606667D01*
X241972857Y-107749524D01*
X241877619Y-107844762D01*
X241734762Y-107892381D01*
X241639524Y-107892381D01*
X242925239Y-107225714D02*
X242925239Y-107892381D01*
X242687143Y-106844762D02*
X242449048Y-107559048D01*
X243068096Y-107559048D01*
X243972858Y-107892381D02*
X243401429Y-107892381D01*
X243687143Y-107892381D02*
X243687143Y-106892381D01*
X243591905Y-107035238D01*
X243496667Y-107130476D01*
X243401429Y-107178095D01*
X246510477Y-72572381D02*
X246510477Y-73286667D01*
X246462857Y-73429524D01*
X246367619Y-73524762D01*
X246224762Y-73572381D01*
X246129524Y-73572381D01*
X247415239Y-72905714D02*
X247415239Y-73572381D01*
X247177143Y-72524762D02*
X246939048Y-73239048D01*
X247558096Y-73239048D01*
X247891429Y-72667619D02*
X247939048Y-72620000D01*
X248034286Y-72572381D01*
X248272382Y-72572381D01*
X248367620Y-72620000D01*
X248415239Y-72667619D01*
X248462858Y-72762857D01*
X248462858Y-72858095D01*
X248415239Y-73000952D01*
X247843810Y-73572381D01*
X248462858Y-73572381D01*
X269870477Y-103262381D02*
X269870477Y-103976667D01*
X269822857Y-104119524D01*
X269727619Y-104214762D01*
X269584762Y-104262381D01*
X269489524Y-104262381D01*
X270775239Y-103595714D02*
X270775239Y-104262381D01*
X270537143Y-103214762D02*
X270299048Y-103929048D01*
X270918096Y-103929048D01*
X271203810Y-103262381D02*
X271822858Y-103262381D01*
X271489524Y-103643333D01*
X271632382Y-103643333D01*
X271727620Y-103690952D01*
X271775239Y-103738571D01*
X271822858Y-103833810D01*
X271822858Y-104071905D01*
X271775239Y-104167143D01*
X271727620Y-104214762D01*
X271632382Y-104262381D01*
X271346667Y-104262381D01*
X271251429Y-104214762D01*
X271203810Y-104167143D01*
X298460477Y-90822381D02*
X298460477Y-91536667D01*
X298412857Y-91679524D01*
X298317619Y-91774762D01*
X298174762Y-91822381D01*
X298079524Y-91822381D01*
X299365239Y-91155714D02*
X299365239Y-91822381D01*
X299127143Y-90774762D02*
X298889048Y-91489048D01*
X299508096Y-91489048D01*
X300317620Y-91155714D02*
X300317620Y-91822381D01*
X300079524Y-90774762D02*
X299841429Y-91489048D01*
X300460477Y-91489048D01*
X282490477Y-72982381D02*
X282490477Y-73696667D01*
X282442857Y-73839524D01*
X282347619Y-73934762D01*
X282204762Y-73982381D01*
X282109524Y-73982381D01*
X283395239Y-73315714D02*
X283395239Y-73982381D01*
X283157143Y-72934762D02*
X282919048Y-73649048D01*
X283538096Y-73649048D01*
X284395239Y-72982381D02*
X283919048Y-72982381D01*
X283871429Y-73458571D01*
X283919048Y-73410952D01*
X284014286Y-73363333D01*
X284252382Y-73363333D01*
X284347620Y-73410952D01*
X284395239Y-73458571D01*
X284442858Y-73553810D01*
X284442858Y-73791905D01*
X284395239Y-73887143D01*
X284347620Y-73934762D01*
X284252382Y-73982381D01*
X284014286Y-73982381D01*
X283919048Y-73934762D01*
X283871429Y-73887143D01*
X268100477Y-99732381D02*
X268100477Y-100446667D01*
X268052857Y-100589524D01*
X267957619Y-100684762D01*
X267814762Y-100732381D01*
X267719524Y-100732381D01*
X269005239Y-100065714D02*
X269005239Y-100732381D01*
X268767143Y-99684762D02*
X268529048Y-100399048D01*
X269148096Y-100399048D01*
X269957620Y-99732381D02*
X269767143Y-99732381D01*
X269671905Y-99780000D01*
X269624286Y-99827619D01*
X269529048Y-99970476D01*
X269481429Y-100160952D01*
X269481429Y-100541905D01*
X269529048Y-100637143D01*
X269576667Y-100684762D01*
X269671905Y-100732381D01*
X269862382Y-100732381D01*
X269957620Y-100684762D01*
X270005239Y-100637143D01*
X270052858Y-100541905D01*
X270052858Y-100303810D01*
X270005239Y-100208571D01*
X269957620Y-100160952D01*
X269862382Y-100113333D01*
X269671905Y-100113333D01*
X269576667Y-100160952D01*
X269529048Y-100208571D01*
X269481429Y-100303810D01*
X221210477Y-97772381D02*
X221210477Y-98486667D01*
X221162857Y-98629524D01*
X221067619Y-98724762D01*
X220924762Y-98772381D01*
X220829524Y-98772381D01*
X222115239Y-98105714D02*
X222115239Y-98772381D01*
X221877143Y-97724762D02*
X221639048Y-98439048D01*
X222258096Y-98439048D01*
X222543810Y-97772381D02*
X223210477Y-97772381D01*
X222781905Y-98772381D01*
X192810477Y-80572381D02*
X192810477Y-81286667D01*
X192762857Y-81429524D01*
X192667619Y-81524762D01*
X192524762Y-81572381D01*
X192429524Y-81572381D01*
X193715239Y-80905714D02*
X193715239Y-81572381D01*
X193477143Y-80524762D02*
X193239048Y-81239048D01*
X193858096Y-81239048D01*
X194381905Y-81000952D02*
X194286667Y-80953333D01*
X194239048Y-80905714D01*
X194191429Y-80810476D01*
X194191429Y-80762857D01*
X194239048Y-80667619D01*
X194286667Y-80620000D01*
X194381905Y-80572381D01*
X194572382Y-80572381D01*
X194667620Y-80620000D01*
X194715239Y-80667619D01*
X194762858Y-80762857D01*
X194762858Y-80810476D01*
X194715239Y-80905714D01*
X194667620Y-80953333D01*
X194572382Y-81000952D01*
X194381905Y-81000952D01*
X194286667Y-81048571D01*
X194239048Y-81096190D01*
X194191429Y-81191429D01*
X194191429Y-81381905D01*
X194239048Y-81477143D01*
X194286667Y-81524762D01*
X194381905Y-81572381D01*
X194572382Y-81572381D01*
X194667620Y-81524762D01*
X194715239Y-81477143D01*
X194762858Y-81381905D01*
X194762858Y-81191429D01*
X194715239Y-81096190D01*
X194667620Y-81048571D01*
X194572382Y-81000952D01*
X225620477Y-81132381D02*
X225620477Y-81846667D01*
X225572857Y-81989524D01*
X225477619Y-82084762D01*
X225334762Y-82132381D01*
X225239524Y-82132381D01*
X226525239Y-81465714D02*
X226525239Y-82132381D01*
X226287143Y-81084762D02*
X226049048Y-81799048D01*
X226668096Y-81799048D01*
X227096667Y-82132381D02*
X227287143Y-82132381D01*
X227382382Y-82084762D01*
X227430001Y-82037143D01*
X227525239Y-81894286D01*
X227572858Y-81703810D01*
X227572858Y-81322857D01*
X227525239Y-81227619D01*
X227477620Y-81180000D01*
X227382382Y-81132381D01*
X227191905Y-81132381D01*
X227096667Y-81180000D01*
X227049048Y-81227619D01*
X227001429Y-81322857D01*
X227001429Y-81560952D01*
X227049048Y-81656190D01*
X227096667Y-81703810D01*
X227191905Y-81751429D01*
X227382382Y-81751429D01*
X227477620Y-81703810D01*
X227525239Y-81656190D01*
X227572858Y-81560952D01*
X142954477Y-111498381D02*
X142954477Y-112212667D01*
X142906857Y-112355524D01*
X142811619Y-112450762D01*
X142668762Y-112498381D01*
X142573524Y-112498381D01*
X143906858Y-111498381D02*
X143430667Y-111498381D01*
X143383048Y-111974571D01*
X143430667Y-111926952D01*
X143525905Y-111879333D01*
X143764001Y-111879333D01*
X143859239Y-111926952D01*
X143906858Y-111974571D01*
X143954477Y-112069810D01*
X143954477Y-112307905D01*
X143906858Y-112403143D01*
X143859239Y-112450762D01*
X143764001Y-112498381D01*
X143525905Y-112498381D01*
X143430667Y-112450762D01*
X143383048Y-112403143D01*
X144573524Y-111498381D02*
X144668763Y-111498381D01*
X144764001Y-111546000D01*
X144811620Y-111593619D01*
X144859239Y-111688857D01*
X144906858Y-111879333D01*
X144906858Y-112117429D01*
X144859239Y-112307905D01*
X144811620Y-112403143D01*
X144764001Y-112450762D01*
X144668763Y-112498381D01*
X144573524Y-112498381D01*
X144478286Y-112450762D01*
X144430667Y-112403143D01*
X144383048Y-112307905D01*
X144335429Y-112117429D01*
X144335429Y-111879333D01*
X144383048Y-111688857D01*
X144430667Y-111593619D01*
X144478286Y-111546000D01*
X144573524Y-111498381D01*
X124250477Y-70322381D02*
X124250477Y-71036667D01*
X124202857Y-71179524D01*
X124107619Y-71274762D01*
X123964762Y-71322381D01*
X123869524Y-71322381D01*
X125202858Y-70322381D02*
X124726667Y-70322381D01*
X124679048Y-70798571D01*
X124726667Y-70750952D01*
X124821905Y-70703333D01*
X125060001Y-70703333D01*
X125155239Y-70750952D01*
X125202858Y-70798571D01*
X125250477Y-70893810D01*
X125250477Y-71131905D01*
X125202858Y-71227143D01*
X125155239Y-71274762D01*
X125060001Y-71322381D01*
X124821905Y-71322381D01*
X124726667Y-71274762D01*
X124679048Y-71227143D01*
X126202858Y-71322381D02*
X125631429Y-71322381D01*
X125917143Y-71322381D02*
X125917143Y-70322381D01*
X125821905Y-70465238D01*
X125726667Y-70560476D01*
X125631429Y-70608095D01*
X149304477Y-111720381D02*
X149304477Y-112434667D01*
X149256857Y-112577524D01*
X149161619Y-112672762D01*
X149018762Y-112720381D01*
X148923524Y-112720381D01*
X150256858Y-111720381D02*
X149780667Y-111720381D01*
X149733048Y-112196571D01*
X149780667Y-112148952D01*
X149875905Y-112101333D01*
X150114001Y-112101333D01*
X150209239Y-112148952D01*
X150256858Y-112196571D01*
X150304477Y-112291810D01*
X150304477Y-112529905D01*
X150256858Y-112625143D01*
X150209239Y-112672762D01*
X150114001Y-112720381D01*
X149875905Y-112720381D01*
X149780667Y-112672762D01*
X149733048Y-112625143D01*
X150685429Y-111815619D02*
X150733048Y-111768000D01*
X150828286Y-111720381D01*
X151066382Y-111720381D01*
X151161620Y-111768000D01*
X151209239Y-111815619D01*
X151256858Y-111910857D01*
X151256858Y-112006095D01*
X151209239Y-112148952D01*
X150637810Y-112720381D01*
X151256858Y-112720381D01*
M02*
