M48
;DRILL file {KiCad 4.0.7} date 05/30/18 17:14:52
;FORMAT={-:-/ absolute / metric / decimal}
FMAT,2
METRIC,TZ
T1C0.800
T2C0.813
T3C0.900
T4C1.000
T5C1.100
T6C1.118
%
G90
G05
M71
T1
X80.638Y-58.547
X88.138Y-58.547
X88.9Y-169.291
X88.9Y-174.371
X90.678Y-58.547
X91.44Y-171.831
X94.742Y-168.275
X98.178Y-58.547
X99.822Y-168.275
X101.6Y-83.693
X101.6Y-104.521
X102.108Y-57.023
X102.108Y-62.357
X102.108Y-67.564
X102.235Y-73.152
X102.235Y-125.857
X102.362Y-51.562
X102.362Y-120.142
X102.489Y-88.9
X102.489Y-99.314
X102.489Y-109.728
X102.616Y-94.107
X102.997Y-131.064
X103.124Y-78.486
X103.124Y-114.935
X105.664Y-137.287
X105.664Y-142.494
X106.045Y-148.717
X106.045Y-153.924
X106.68Y-83.693
X106.68Y-104.521
X107.188Y-57.023
X107.188Y-62.357
X107.188Y-67.564
X107.315Y-73.152
X107.315Y-125.857
X107.442Y-51.562
X107.442Y-120.142
X107.569Y-88.9
X107.569Y-99.314
X107.569Y-109.728
X107.696Y-94.107
X108.077Y-131.064
X108.204Y-78.486
X108.204Y-114.935
X109.982Y-83.693
X109.982Y-88.9
X109.982Y-99.314
X109.982Y-104.521
X110.015Y-94.107
X110.015Y-109.728
X110.396Y-62.357
X110.523Y-67.564
X110.523Y-73.279
X110.523Y-78.486
X110.617Y-57.023
X110.65Y-51.562
X110.744Y-114.935
X110.744Y-137.287
X110.744Y-142.494
X110.777Y-120.142
X110.777Y-125.857
X110.777Y-131.064
X111.125Y-148.717
X111.125Y-153.924
X113.317Y-137.287
X113.411Y-153.797
X113.444Y-142.494
X113.571Y-148.59
X119.982Y-83.693
X119.982Y-88.9
X119.982Y-99.314
X119.982Y-104.521
X120.015Y-94.107
X120.015Y-109.728
X120.396Y-62.357
X120.523Y-67.564
X120.523Y-73.279
X120.523Y-78.486
X120.617Y-57.023
X120.65Y-51.562
X120.744Y-114.935
X120.777Y-120.142
X120.777Y-125.857
X120.777Y-131.064
X123.317Y-137.287
X123.411Y-153.797
X123.444Y-142.494
X123.571Y-148.59
X123.825Y-84.455
X123.825Y-89.535
X123.952Y-73.406
X123.952Y-78.486
X124.079Y-51.943
X124.079Y-57.023
X124.079Y-94.742
X124.079Y-99.822
X124.079Y-103.632
X124.079Y-108.712
X124.079Y-114.935
X124.079Y-120.015
X124.079Y-124.968
X124.079Y-130.048
X124.206Y-61.468
X124.206Y-66.548
X126.873Y-137.922
X126.873Y-143.002
X126.873Y-147.828
X126.873Y-152.908
X139.7Y-51.181
X139.7Y-56.261
X139.827Y-62.23
X139.827Y-67.31
X139.827Y-74.422
X139.827Y-79.502
X139.827Y-83.566
X139.827Y-88.646
X140.081Y-93.98
X140.081Y-99.06
X140.081Y-104.394
X140.081Y-109.474
X140.081Y-115.189
X140.081Y-120.269
X140.081Y-125.73
X140.081Y-130.81
X143.416Y-51.562
X143.416Y-61.976
X143.51Y-56.642
X143.51Y-67.31
X143.67Y-73.279
X143.67Y-78.486
X143.67Y-83.693
X143.67Y-88.9
X144.018Y-109.855
X144.018Y-120.777
X144.051Y-94.107
X144.051Y-99.314
X144.051Y-104.521
X144.051Y-115.57
X144.178Y-125.984
X144.178Y-131.191
X144.272Y-142.748
X144.78Y-161.671
X145.161Y-137.541
X145.669Y-155.448
X149.352Y-142.748
X149.86Y-161.671
X150.241Y-137.541
X150.749Y-155.448
X152.781Y-137.541
X153.162Y-155.448
X153.289Y-160.655
X153.289Y-165.862
X153.416Y-51.562
X153.416Y-61.976
X153.416Y-142.748
X153.416Y-147.955
X153.51Y-56.642
X153.51Y-67.31
X153.67Y-73.279
X153.67Y-78.486
X153.67Y-83.693
X153.67Y-88.9
X154.018Y-109.855
X154.018Y-120.777
X154.051Y-94.107
X154.051Y-99.314
X154.051Y-104.521
X154.051Y-115.57
X154.178Y-125.984
X154.178Y-131.191
X156.083Y-78.232
X156.083Y-88.9
X156.464Y-94.107
X156.464Y-104.521
X156.845Y-83.566
X156.972Y-73.025
X157.099Y-51.435
X157.099Y-56.642
X157.099Y-61.971
X157.099Y-67.31
X157.226Y-99.314
X157.353Y-109.855
X157.48Y-115.57
X157.48Y-120.777
X157.48Y-125.984
X157.48Y-131.191
X158.369Y-160.655
X158.369Y-165.862
X158.496Y-142.748
X158.496Y-147.955
X161.163Y-78.232
X161.163Y-88.9
X161.544Y-94.107
X161.544Y-104.521
X161.925Y-83.566
X162.052Y-73.025
X162.179Y-51.435
X162.179Y-56.642
X162.179Y-61.971
X162.179Y-67.31
X162.306Y-99.314
X162.433Y-109.855
X162.56Y-115.57
X162.56Y-120.777
X162.56Y-125.984
X162.56Y-131.191
X162.687Y-141.13
X162.687Y-151.13
X162.781Y-137.541
X162.814Y-160.053
X162.814Y-170.053
X163.162Y-155.448
X165.26Y-113.411
X165.871Y-51.842
X166.384Y-119.595
X166.384Y-124.675
X167.371Y-107.542
X169.071Y-56.262
X169.071Y-61.342
X169.471Y-98.242
X169.471Y-103.322
X171.718Y-119.595
X171.718Y-124.675
X171.718Y-127.977
X171.718Y-133.057
X172.132Y-170.649
X173.371Y-65.562
X173.371Y-70.642
X174.371Y-55.442
X174.371Y-60.522
X175.171Y-99.162
X175.171Y-104.242
X175.233Y-89.536
X175.233Y-94.616
X175.26Y-113.411
X175.528Y-160.997
X175.528Y-166.077
X175.871Y-51.842
X177.371Y-107.542
X177.508Y-115.141
X177.508Y-125.141
X177.508Y-127.541
X177.508Y-132.621
X178.771Y-65.042
X178.771Y-70.122
X179.705Y-90.297
X179.705Y-95.377
X179.971Y-52.642
X179.971Y-62.642
X180.086Y-97.942
X180.086Y-107.942
X181.37Y-153.123
X181.37Y-158.203
X181.37Y-161.505
X181.37Y-166.585
X182.132Y-170.649
X184.257Y-115.283
X184.257Y-125.283
X185.393Y-65.025
X185.393Y-70.105
X185.471Y-52.642
X185.471Y-62.642
X185.671Y-90.162
X185.671Y-95.242
X185.671Y-97.642
X185.671Y-107.642
X186.704Y-153.885
X186.704Y-158.965
X186.704Y-161.251
X186.704Y-171.251
X187.973Y-114.107
X188.804Y-127.041
X188.804Y-132.121
X189.871Y-53.142
X190.071Y-106.642
X190.671Y-57.442
X190.671Y-62.522
X190.671Y-65.762
X190.671Y-70.842
X190.854Y-89.409
X190.854Y-94.489
X190.871Y-97.862
X190.871Y-102.942
X193.909Y-119.187
X193.909Y-124.267
X194.004Y-127.761
X194.004Y-132.841
X195.971Y-56.562
X195.971Y-61.642
X196.171Y-98.462
X196.171Y-103.542
X197.973Y-114.107
X199.404Y-119.595
X199.404Y-124.675
X199.871Y-53.142
X200.071Y-106.642
X203.2Y-63.881
X203.708Y-89.535
X203.962Y-56.515
X203.962Y-70.993
X203.962Y-163.703
X204.216Y-115.189
X204.47Y-96.901
X204.47Y-131.699
X204.47Y-139.065
X204.47Y-156.591
X204.724Y-122.555
X204.978Y-108.077
X206.502Y-53.975
X206.502Y-59.055
X206.502Y-68.453
X206.756Y-168.529
X206.756Y-173.609
X207.01Y-79.883
X207.01Y-84.963
X207.01Y-94.361
X207.01Y-99.441
X207.01Y-129.159
X207.01Y-134.239
X207.01Y-143.891
X207.01Y-148.971
X207.01Y-154.051
X207.01Y-159.131
X207.264Y-120.015
X207.264Y-125.095
X207.518Y-105.537
X207.518Y-110.617
X208.28Y-63.881
X208.788Y-89.535
X209.042Y-70.993
X209.042Y-163.703
X209.296Y-115.189
X209.296Y-171.069
X209.55Y-82.423
X209.55Y-139.065
X209.55Y-146.431
X212.344Y-51.435
X212.344Y-53.975
X212.344Y-56.515
X212.344Y-59.055
X212.344Y-61.595
X212.344Y-64.135
X212.344Y-66.675
X212.344Y-69.215
X212.344Y-71.755
X212.852Y-77.597
X212.852Y-80.137
X212.852Y-82.677
X212.852Y-85.217
X212.852Y-87.757
X212.852Y-90.297
X212.852Y-92.837
X212.852Y-95.377
X212.852Y-97.917
X212.852Y-128.651
X212.852Y-131.191
X212.852Y-133.731
X212.852Y-136.271
X212.852Y-138.811
X212.852Y-141.351
X212.852Y-143.891
X212.852Y-146.431
X212.852Y-148.971
X212.852Y-153.289
X212.852Y-155.829
X212.852Y-158.369
X212.852Y-160.909
X212.852Y-163.449
X212.852Y-165.989
X212.852Y-168.529
X212.852Y-171.069
X212.852Y-173.609
X213.106Y-103.505
X213.106Y-106.045
X213.106Y-108.585
X213.106Y-111.125
X213.106Y-113.665
X213.106Y-116.205
X213.106Y-118.745
X213.106Y-121.285
X213.106Y-123.825
X219.964Y-51.435
X219.964Y-53.975
X219.964Y-56.515
X219.964Y-59.055
X219.964Y-61.595
X219.964Y-64.135
X219.964Y-66.675
X219.964Y-69.215
X219.964Y-71.755
X220.472Y-77.597
X220.472Y-80.137
X220.472Y-82.677
X220.472Y-85.217
X220.472Y-87.757
X220.472Y-90.297
X220.472Y-92.837
X220.472Y-95.377
X220.472Y-97.917
X220.472Y-128.651
X220.472Y-131.191
X220.472Y-133.731
X220.472Y-136.271
X220.472Y-138.811
X220.472Y-141.351
X220.472Y-143.891
X220.472Y-146.431
X220.472Y-148.971
X220.472Y-153.289
X220.472Y-155.829
X220.472Y-158.369
X220.472Y-160.909
X220.472Y-163.449
X220.472Y-165.989
X220.472Y-168.529
X220.472Y-171.069
X220.472Y-173.609
X220.726Y-103.505
X220.726Y-106.045
X220.726Y-108.585
X220.726Y-111.125
X220.726Y-113.665
X220.726Y-116.205
X220.726Y-118.745
X220.726Y-121.285
X220.726Y-123.825
X237.998Y-51.943
X237.998Y-54.483
X237.998Y-57.023
X237.998Y-59.563
X237.998Y-62.103
X237.998Y-64.643
X237.998Y-67.183
X237.998Y-69.723
X237.998Y-72.263
X245.618Y-51.943
X245.618Y-54.483
X245.618Y-57.023
X245.618Y-59.563
X245.618Y-62.103
X245.618Y-64.643
X245.618Y-67.183
X245.618Y-69.723
X245.618Y-72.263
X248.92Y-55.245
X249.428Y-62.611
X251.46Y-52.705
X251.46Y-57.785
X251.968Y-67.183
X251.968Y-72.263
X254.508Y-62.611
X254.508Y-69.723
X263.906Y-52.451
X263.906Y-54.991
X263.906Y-57.531
X263.906Y-60.071
X263.906Y-62.611
X263.906Y-65.151
X263.906Y-67.691
X263.906Y-70.231
X263.906Y-72.771
X271.526Y-52.451
X271.526Y-54.991
X271.526Y-57.531
X271.526Y-60.071
X271.526Y-62.611
X271.526Y-65.151
X271.526Y-67.691
X271.526Y-70.231
X271.526Y-72.771
X275.336Y-54.737
X276.098Y-61.849
X277.876Y-52.197
X277.876Y-57.277
X277.876Y-66.929
X277.876Y-72.009
X280.416Y-69.469
X281.178Y-61.849
X289.306Y-52.197
X289.306Y-54.737
X289.306Y-57.277
X289.306Y-59.817
X289.306Y-62.357
X289.306Y-64.897
X289.306Y-67.437
X289.306Y-69.977
X289.306Y-72.517
X296.926Y-52.197
X296.926Y-54.737
X296.926Y-57.277
X296.926Y-59.817
X296.926Y-62.357
X296.926Y-64.897
X296.926Y-67.437
X296.926Y-69.977
X296.926Y-72.517
X300.482Y-61.849
X302.768Y-66.675
X302.768Y-71.755
X303.022Y-51.943
X303.022Y-57.023
X305.308Y-69.215
X305.562Y-54.483
X305.562Y-61.849
X313.436Y-51.943
X313.436Y-54.483
X313.436Y-57.023
X313.436Y-59.563
X313.436Y-62.103
X313.436Y-64.643
X313.436Y-67.183
X313.436Y-69.723
X313.436Y-72.263
X321.056Y-51.943
X321.056Y-54.483
X321.056Y-57.023
X321.056Y-59.563
X321.056Y-62.103
X321.056Y-64.643
X321.056Y-67.183
X321.056Y-69.723
X321.056Y-72.263
X324.612Y-53.467
X324.866Y-60.833
X327.152Y-50.927
X327.152Y-56.007
X327.152Y-65.913
X327.152Y-70.993
X329.692Y-68.453
X329.946Y-60.833
T2
X128.016Y-93.98
X128.016Y-96.52
X128.016Y-99.06
X128.016Y-101.6
X128.016Y-104.14
X128.016Y-106.68
X128.016Y-109.22
X128.016Y-115.443
X128.016Y-117.983
X128.016Y-120.523
X128.016Y-123.063
X128.016Y-125.603
X128.016Y-128.143
X128.016Y-130.683
X128.143Y-51.816
X128.143Y-54.356
X128.143Y-56.896
X128.143Y-59.436
X128.143Y-61.976
X128.143Y-64.516
X128.143Y-67.056
X128.143Y-73.914
X128.143Y-76.454
X128.143Y-78.994
X128.143Y-81.534
X128.143Y-84.074
X128.143Y-86.614
X128.143Y-89.154
X130.937Y-138.303
X130.937Y-140.843
X130.937Y-143.383
X130.937Y-145.923
X130.937Y-148.463
X130.937Y-151.003
X130.937Y-153.543
X135.636Y-93.98
X135.636Y-96.52
X135.636Y-99.06
X135.636Y-101.6
X135.636Y-104.14
X135.636Y-106.68
X135.636Y-109.22
X135.636Y-115.443
X135.636Y-117.983
X135.636Y-120.523
X135.636Y-123.063
X135.636Y-125.603
X135.636Y-128.143
X135.636Y-130.683
X135.763Y-51.816
X135.763Y-54.356
X135.763Y-56.896
X135.763Y-59.436
X135.763Y-61.976
X135.763Y-64.516
X135.763Y-67.056
X135.763Y-73.914
X135.763Y-76.454
X135.763Y-78.994
X135.763Y-81.534
X135.763Y-84.074
X135.763Y-86.614
X135.763Y-89.154
X138.557Y-138.303
X138.557Y-140.843
X138.557Y-143.383
X138.557Y-145.923
X138.557Y-148.463
X138.557Y-151.003
X138.557Y-153.543
X172.947Y-76.328
X172.947Y-83.948
X173.99Y-139.573
X173.99Y-147.193
X175.487Y-76.328
X175.487Y-83.948
X176.53Y-139.573
X176.53Y-147.193
X178.027Y-76.328
X178.027Y-83.948
X179.07Y-139.573
X179.07Y-147.193
X180.567Y-76.328
X180.567Y-83.948
X181.61Y-139.573
X181.61Y-147.193
X183.107Y-76.328
X183.107Y-83.948
X184.15Y-139.573
X184.15Y-147.193
X185.647Y-76.328
X185.647Y-83.948
X186.69Y-139.573
X186.69Y-147.193
X188.187Y-76.328
X188.187Y-83.948
X189.23Y-139.573
X189.23Y-147.193
T3
X141.605Y-138.176
X141.605Y-145.796
X142.24Y-153.162
X142.24Y-160.782
X143.256Y-147.701
X143.383Y-165.989
X150.876Y-147.701
X151.003Y-165.989
X167.408Y-127.941
X167.408Y-135.561
X168.471Y-87.032
X168.471Y-94.652
X168.571Y-65.632
X168.571Y-73.252
X169.398Y-135.541
X170.534Y-86.996
X170.661Y-73.28
X177.018Y-135.541
X177.814Y-150.075
X177.814Y-157.695
X178.154Y-86.996
X178.281Y-73.28
X180.955Y-150.175
X184.351Y-86.942
X185.647Y-73.534
X188.067Y-135.531
X188.575Y-150.175
X191.971Y-86.942
X193.267Y-73.534
X194.171Y-86.932
X194.171Y-94.552
X195.471Y-65.932
X195.471Y-73.552
X195.687Y-135.531
X199.751Y-127.315
X199.751Y-134.935
X229.616Y-98.171
X229.616Y-106.553
X229.616Y-114.935
X229.616Y-123.063
X229.616Y-131.191
X229.616Y-139.319
X229.616Y-147.447
X229.616Y-155.829
X229.616Y-163.957
X229.616Y-172.085
X232.156Y-98.171
X232.156Y-106.553
X232.156Y-114.935
X232.156Y-123.063
X232.156Y-131.191
X232.156Y-139.319
X232.156Y-147.447
X232.156Y-155.829
X232.156Y-163.957
X232.156Y-172.085
X241.554Y-98.425
X241.554Y-106.553
X241.554Y-114.681
X241.554Y-122.809
X241.808Y-131.191
X241.808Y-139.319
X241.808Y-147.447
X241.808Y-155.575
X241.808Y-163.957
X241.808Y-172.085
X244.094Y-98.425
X244.094Y-106.553
X244.094Y-114.681
X244.094Y-122.809
X244.348Y-131.191
X244.348Y-139.319
X244.348Y-147.447
X244.348Y-155.575
X244.348Y-163.957
X244.348Y-172.085
X254.508Y-98.933
X254.508Y-106.807
X254.508Y-114.681
X254.508Y-123.063
X254.508Y-131.191
X254.508Y-139.573
X254.508Y-147.701
X254.508Y-155.575
X254.508Y-163.957
X254.508Y-172.085
X257.048Y-98.933
X257.048Y-106.807
X257.048Y-114.681
X257.048Y-123.063
X257.048Y-131.191
X257.048Y-139.573
X257.048Y-147.701
X257.048Y-155.575
X257.048Y-163.957
X257.048Y-172.085
X267.208Y-98.679
X267.208Y-106.807
X267.208Y-114.681
X267.208Y-123.063
X267.208Y-131.191
X267.208Y-139.573
X267.208Y-147.701
X267.208Y-155.829
X267.208Y-163.957
X267.208Y-172.085
X269.748Y-98.679
X269.748Y-106.807
X269.748Y-114.681
X269.748Y-123.063
X269.748Y-131.191
X269.748Y-139.573
X269.748Y-147.701
X269.748Y-155.829
X269.748Y-163.957
X269.748Y-172.085
X279.908Y-98.679
X279.908Y-107.061
X279.908Y-115.189
X279.908Y-123.317
X279.908Y-131.445
X279.908Y-139.573
X279.908Y-147.701
X279.908Y-155.829
X279.908Y-163.957
X279.908Y-172.085
X282.448Y-98.679
X282.448Y-107.061
X282.448Y-115.189
X282.448Y-123.317
X282.448Y-131.445
X282.448Y-139.573
X282.448Y-147.701
X282.448Y-155.829
X282.448Y-163.957
X282.448Y-172.085
X292.608Y-98.679
X292.608Y-106.807
X292.608Y-114.935
X292.608Y-123.063
X292.608Y-131.191
X292.608Y-139.319
X292.608Y-147.447
X292.608Y-155.829
X292.608Y-163.957
X292.608Y-172.085
X295.148Y-98.679
X295.148Y-106.807
X295.148Y-114.935
X295.148Y-123.063
X295.148Y-131.191
X295.148Y-139.319
X295.148Y-147.447
X295.148Y-155.829
X295.148Y-163.957
X295.148Y-172.085
X305.308Y-98.679
X305.308Y-106.807
X305.308Y-114.935
X305.308Y-123.063
X305.308Y-131.191
X305.308Y-139.319
X305.308Y-147.447
X305.308Y-155.829
X305.308Y-163.957
X305.308Y-172.085
X307.848Y-98.679
X307.848Y-106.807
X307.848Y-114.935
X307.848Y-123.063
X307.848Y-131.191
X307.848Y-139.319
X307.848Y-147.447
X307.848Y-155.829
X307.848Y-163.957
X307.848Y-172.085
X318.008Y-98.679
X318.008Y-106.553
X318.008Y-114.935
X318.008Y-123.063
X318.008Y-130.937
X318.008Y-139.065
X318.008Y-147.447
X318.008Y-155.575
X318.008Y-163.703
X318.008Y-172.085
X320.548Y-98.679
X320.548Y-106.553
X320.548Y-114.935
X320.548Y-123.063
X320.548Y-130.937
X320.548Y-139.065
X320.548Y-147.447
X320.548Y-155.575
X320.548Y-163.703
X320.548Y-172.085
X333.248Y-98.425
X333.248Y-106.553
X333.248Y-114.681
X333.248Y-122.809
X333.248Y-130.937
X333.248Y-139.573
X333.248Y-147.701
X333.248Y-155.829
X333.248Y-163.957
X333.248Y-172.085
X335.788Y-98.425
X335.788Y-106.553
X335.788Y-114.681
X335.788Y-122.809
X335.788Y-130.937
X335.788Y-139.573
X335.788Y-147.701
X335.788Y-155.829
X335.788Y-163.957
X335.788Y-172.085
T4
X72.136Y-105.998
X72.136Y-110.998
X72.136Y-120.73
X72.136Y-125.73
X72.136Y-135.509
X72.136Y-140.509
X72.263Y-91.901
X72.263Y-96.901
X86.36Y-52.451
X88.9Y-52.451
X91.44Y-52.451
X93.853Y-91.901
X93.853Y-96.901
X93.853Y-134.954
X93.853Y-139.954
X93.98Y-120.523
X93.98Y-125.523
X94.107Y-106.045
X94.107Y-111.045
X104.902Y-174.625
X107.442Y-174.625
X109.982Y-174.625
X121.158Y-172.085
X121.158Y-177.085
T5
X75.692Y-155.067
X80.692Y-150.067
X80.692Y-160.067
T6
X79.629Y-90.297
X79.629Y-92.837
X79.629Y-95.377
X79.629Y-97.917
X79.629Y-104.775
X79.629Y-107.315
X79.629Y-109.855
X79.629Y-112.395
X79.629Y-119.761
X79.629Y-122.301
X79.629Y-124.841
X79.629Y-127.381
X79.629Y-133.985
X79.629Y-136.525
X79.629Y-139.065
X79.629Y-141.605
X87.249Y-90.297
X87.249Y-92.837
X87.249Y-95.377
X87.249Y-97.917
X87.249Y-104.775
X87.249Y-107.315
X87.249Y-109.855
X87.249Y-112.395
X87.249Y-119.761
X87.249Y-122.301
X87.249Y-124.841
X87.249Y-127.381
X87.249Y-133.985
X87.249Y-136.525
X87.249Y-139.065
X87.249Y-141.605
T4
X79.598Y-71.771G85X79.598Y-73.771
G05
X81.598Y-77.471G85X83.598Y-77.471
G05
X85.598Y-71.771G85X85.598Y-73.771
G05
T0
M30
